<?xml version="1.0" encoding="utf-8"?>
<!-- Generator: Adobe Illustrator 19.0.0, SVG Export Plug-In . SVG Version: 6.00 Build 0)  -->
<svg version="1.1" xmlns="http://www.w3.org/2000/svg" xmlns:xlink="http://www.w3.org/1999/xlink" x="0px" y="0px"
	 viewBox="0 0 139.8 116.2" style="enable-background:new 0 0 139.8 116.2;" xml:space="preserve">
<style type="text/css">
	.st0{display:none;}
	.st1{display:inline;fill:#81C0EB;}
	.st2{display:inline;opacity:0.15;}
	.st3{display:inline;fill:#854681;}
	.st4{display:inline;fill:#B679B3;}
	.st5{display:inline;}
	.st6{opacity:0.37;fill:#C4D6E0;}
	.st7{fill:#E6E7E8;}
	.st8{display:inline;fill:#849344;}
	.st9{display:inline;fill:#C8DD7B;}
	.st10{fill:#808184;}
	.st11{fill:#909393;}
	.st12{fill:#6E7172;}
	.st13{fill:#707475;}
	.st14{fill:#6A6D6D;}
	.st15{fill:#606364;}
	.st16{fill:#727677;}
	.st17{fill:#8B8E8F;}
	.st18{display:none;fill:#FFFFFF;}
	.st19{fill:#1E252B;}
	.st20{display:inline;fill:#369E5A;}
	.st21{display:inline;fill:#72C191;}
	.st22{fill:#D2D4D3;}
	.st23{fill:#F1F1F2;}
	.st24{fill:#999C9C;}
	.st25{fill:#3389C9;}
	.st26{fill:#286690;}
	.st27{fill:#FFFFFF;}
	.st28{display:none;opacity:0.15;}
	.st29{display:none;fill:#5077AE;}
	.st30{display:none;fill:#7C9ECF;}
	.st31{fill:#F7D157;}
	.st32{fill:#CFB24D;}
	.st33{fill:#CCB04B;}
	.st34{display:inline;fill:#B05B6F;}
	.st35{display:inline;fill:#F17D99;}
	.st36{fill:#F6EF7D;}
	.st37{fill:#C1BC67;}
	.st38{fill:#EDE378;}
	.st39{fill:#F6F3B5;}
	.st40{display:inline;fill:#005363;}
	.st41{display:inline;fill:#009AB5;}
	.st42{fill:#ECCA92;}
	.st43{fill:#F5A8BF;}
	.st44{fill:#444749;}
	.st45{display:inline;fill:#985F35;}
	.st46{display:inline;fill:#5F4437;}
	.st47{display:inline;opacity:0.2;}
	.st48{fill:#00783E;}
	.st49{opacity:0.15;}
	.st50{fill:#41873F;}
	.st51{display:inline;fill:#369040;}
	.st52{fill:#369040;}
</style>
<g id="Background" class="st0">
	<rect x="-59.5" y="-547" class="st1" width="800" height="800"/>
</g>
<g id="Object">
	<g class="st0">
		<circle class="st2" cx="605" cy="-292.7" r="103.3"/>
		<circle class="st3" cx="600" cy="-297.7" r="103.3"/>
		<path class="st4" d="M571.2-402.7c6.8-1.4,13.8-2.1,21-2.1c57,0,103.3,46.2,103.3,103.3s-46.2,103.3-103.3,103.3
			c-57,0-103.3-46.2-103.3-103.3C488.9-351.4,524.3-393,571.2-402.7"/>
		<g class="st5">
			<path class="st6" d="M620.1-341.3l-19-14.8v-13.2h1.5c1.1,0,2-0.9,2-2c0-1.1-0.9-2-2-2h-20.8c-1.1,0-2,0.9-2,2c0,1.1,0.9,2,2,2
				h1.5v13.2l-19,14.8c-2.9,2.2-4.6,5.7-4.6,9.4v88.3c0,7.6,6.2,13.9,13.9,13.9h37.2c7.6,0,13.9-6.2,13.9-13.9v-88.3
				C624.7-335.6,623-339,620.1-341.3z"/>
			<path class="st7" d="M573.6-234.8c-4.8,0-8.8-3.9-8.8-8.8v-88.3c0-0.8,0.1-1.6,0.4-2.3h54c0.3,0.7,0.4,1.5,0.4,2.3v88.3
				c0,4.8-3.9,8.8-8.8,8.8H573.6z"/>
		</g>
		<path class="st2" d="M592.2-404.8c57,0,103.3,46.2,103.3,103.3s-46.2,103.3-103.3,103.3V-404.8z"/>
	</g>
	<g class="st0">
		<circle class="st2" cx="620.4" cy="80.6" r="103.3"/>
		<circle class="st8" cx="615.4" cy="75.6" r="103.3"/>
		<circle class="st9" cx="607.6" cy="71.7" r="103.3"/>
		<g class="st5">
			<path class="st10" d="M607.6-4c21.9,0,39.7,17.8,39.7,39.7v23h-79.4v-23C567.8,13.8,585.6-4,607.6-4 M607.6-6.9
				c-23.5,0-42.6,19.1-42.6,42.6v25.9h85.2V35.7C650.2,12.2,631.1-6.9,607.6-6.9L607.6-6.9z"/>
			<rect x="564.9" y="57.3" class="st10" width="85.2" height="87.7"/>
			<polygon class="st11" points="565.1,57.3 607.6,23.7 650.2,57.3 			"/>
			<rect x="586.4" y="20.4" class="st12" width="42.5" height="20.1"/>
			<rect x="584.5" y="20.4" class="st10" width="46.3" height="4.1"/>
			<rect x="650.2" y="57.3" class="st13" width="2.3" height="7.1"/>
			<rect x="562.7" y="57.3" class="st13" width="2.3" height="7.1"/>
			<rect x="623.3" y="20.4" class="st14" width="7.5" height="4.1"/>
			<rect x="621.4" y="24.5" class="st15" width="7.5" height="16"/>
			<rect x="627" y="57.3" class="st16" width="23.1" height="87.7"/>
			<polygon class="st17" points="650.2,57.3 628.9,40.5 621.4,40.5 627,57.3 			"/>
		</g>
		<path class="st2" d="M607.6-31.5c57,0,103.3,46.2,103.3,103.3S664.6,175,607.6,175V-31.5z"/>
	</g>
	<rect x="-58.5" y="208" class="st18" width="800" height="45"/>
	<g class="st0">
		<g class="st5">
			<path class="st19" d="M227.5,236.3V236c-0.3,0.4-0.7,0.7-1,1c-0.3,0.3-0.7,0.4-1.1,0.6c-0.4,0.1-0.8,0.2-1.3,0.2
				c-0.6,0-1.2-0.1-1.7-0.4c-0.5-0.3-1-0.6-1.4-1.1c-0.4-0.5-0.7-1.1-0.9-1.7c-0.2-0.7-0.3-1.4-0.3-2.1c0-1.6,0.4-2.9,1.2-3.8
				c0.8-0.9,1.8-1.4,3.1-1.4c0.7,0,1.4,0.1,1.9,0.4c0.5,0.3,1,0.7,1.5,1.2v-3.8c0-0.5,0.1-0.9,0.3-1.2c0.2-0.3,0.5-0.4,0.9-0.4
				c0.4,0,0.7,0.1,0.9,0.4c0.2,0.3,0.3,0.6,0.3,1.1v11.4c0,0.5-0.1,0.9-0.3,1.1c-0.2,0.2-0.5,0.4-0.9,0.4c-0.4,0-0.6-0.1-0.9-0.4
				C227.6,237.1,227.5,236.7,227.5,236.3z M222.4,232.4c0,0.7,0.1,1.3,0.3,1.8c0.2,0.5,0.5,0.9,0.9,1.1c0.4,0.3,0.8,0.4,1.2,0.4
				c0.5,0,0.9-0.1,1.2-0.4c0.4-0.2,0.7-0.6,0.9-1.1c0.2-0.5,0.3-1.1,0.3-1.8c0-0.7-0.1-1.3-0.3-1.8c-0.2-0.5-0.5-0.9-0.9-1.1
				c-0.4-0.3-0.8-0.4-1.3-0.4c-0.5,0-0.9,0.1-1.3,0.4c-0.4,0.3-0.7,0.7-0.9,1.2C222.5,231.2,222.4,231.8,222.4,232.4z"/>
			<path class="st19" d="M239,233.1h-5.1c0,0.6,0.1,1.1,0.4,1.6c0.2,0.4,0.5,0.8,0.9,1c0.4,0.2,0.8,0.3,1.3,0.3c0.3,0,0.6,0,0.9-0.1
				c0.3-0.1,0.5-0.2,0.7-0.3c0.2-0.2,0.5-0.3,0.7-0.5c0.2-0.2,0.5-0.4,0.8-0.7c0.1-0.1,0.3-0.2,0.6-0.2c0.3,0,0.5,0.1,0.6,0.2
				c0.2,0.1,0.2,0.3,0.2,0.6c0,0.2-0.1,0.5-0.3,0.8c-0.2,0.3-0.5,0.6-0.8,0.9c-0.4,0.3-0.8,0.5-1.4,0.7c-0.6,0.2-1.2,0.3-1.9,0.3
				c-1.7,0-3-0.5-3.9-1.4c-0.9-0.9-1.4-2.2-1.4-3.9c0-0.8,0.1-1.5,0.3-2.1c0.2-0.7,0.6-1.2,1-1.7c0.4-0.5,1-0.8,1.6-1.1
				c0.6-0.3,1.3-0.4,2.1-0.4c1,0,1.9,0.2,2.6,0.6c0.7,0.4,1.3,1,1.6,1.7c0.4,0.7,0.5,1.4,0.5,2.1c0,0.7-0.2,1.1-0.6,1.3
				C240.2,233,239.6,233.1,239,233.1z M233.9,231.6h4.7c-0.1-0.9-0.3-1.6-0.7-2c-0.4-0.4-1-0.7-1.6-0.7c-0.6,0-1.2,0.2-1.6,0.7
				C234.2,230.1,234,230.8,233.9,231.6z"/>
			<path class="st19" d="M250.8,234.3c0,0.7-0.2,1.3-0.5,1.8c-0.3,0.5-0.9,0.9-1.5,1.2c-0.7,0.3-1.5,0.4-2.5,0.4
				c-0.9,0-1.7-0.1-2.4-0.4c-0.7-0.3-1.2-0.6-1.5-1.1c-0.3-0.4-0.5-0.9-0.5-1.3c0-0.3,0.1-0.5,0.3-0.7c0.2-0.2,0.5-0.3,0.8-0.3
				c0.3,0,0.5,0.1,0.6,0.2s0.3,0.3,0.4,0.6c0.3,0.5,0.6,0.8,1,1c0.4,0.2,0.9,0.3,1.5,0.3c0.5,0,0.9-0.1,1.3-0.3
				c0.3-0.2,0.5-0.5,0.5-0.8c0-0.5-0.2-0.8-0.5-1c-0.3-0.2-0.9-0.4-1.7-0.6c-0.9-0.2-1.6-0.5-2.2-0.7c-0.6-0.2-1-0.6-1.3-1
				c-0.3-0.4-0.5-0.9-0.5-1.5c0-0.5,0.2-1,0.5-1.5c0.3-0.5,0.8-0.8,1.4-1.1c0.6-0.3,1.3-0.4,2.2-0.4c0.7,0,1.3,0.1,1.8,0.2
				c0.5,0.1,1,0.3,1.3,0.6c0.4,0.2,0.6,0.5,0.8,0.8c0.2,0.3,0.3,0.6,0.3,0.8c0,0.3-0.1,0.5-0.3,0.7c-0.2,0.2-0.5,0.3-0.9,0.3
				c-0.3,0-0.5-0.1-0.7-0.2c-0.2-0.2-0.4-0.4-0.6-0.7c-0.2-0.3-0.4-0.5-0.7-0.6c-0.3-0.2-0.6-0.2-1.1-0.2c-0.5,0-0.9,0.1-1.2,0.3
				c-0.3,0.2-0.5,0.4-0.5,0.7c0,0.3,0.1,0.5,0.3,0.7c0.2,0.2,0.5,0.3,0.9,0.4c0.4,0.1,0.9,0.3,1.6,0.4c0.8,0.2,1.5,0.4,2,0.7
				c0.5,0.3,0.9,0.6,1.2,1C250.7,233.4,250.8,233.9,250.8,234.3z"/>
			<path class="st19" d="M253.4,226c-0.4,0-0.7-0.1-0.9-0.3c-0.3-0.2-0.4-0.5-0.4-0.9c0-0.4,0.1-0.7,0.4-0.9
				c0.3-0.2,0.6-0.4,0.9-0.4c0.3,0,0.6,0.1,0.9,0.3c0.3,0.2,0.4,0.5,0.4,0.9c0,0.4-0.1,0.7-0.4,0.9C254.1,225.9,253.8,226,253.4,226
				z M254.7,228.7v7.5c0,0.5-0.1,0.9-0.4,1.2c-0.2,0.3-0.6,0.4-0.9,0.4c-0.4,0-0.7-0.1-0.9-0.4c-0.2-0.3-0.4-0.7-0.4-1.2v-7.4
				c0-0.5,0.1-0.9,0.4-1.2c0.2-0.3,0.5-0.4,0.9-0.4c0.4,0,0.7,0.1,0.9,0.4C254.6,227.8,254.7,228.2,254.7,228.7z"/>
			<path class="st19" d="M266.1,229.1v7.5c0,0.9-0.1,1.6-0.3,2.2c-0.2,0.6-0.5,1.1-0.9,1.5c-0.4,0.4-0.9,0.7-1.6,0.9
				c-0.7,0.2-1.5,0.3-2.4,0.3c-0.9,0-1.7-0.1-2.4-0.4c-0.7-0.3-1.2-0.6-1.6-1c-0.4-0.4-0.6-0.8-0.6-1.2c0-0.3,0.1-0.6,0.3-0.8
				c0.2-0.2,0.5-0.3,0.8-0.3c0.4,0,0.7,0.2,1,0.5c0.1,0.2,0.3,0.3,0.4,0.5c0.1,0.2,0.3,0.3,0.5,0.4c0.2,0.1,0.4,0.2,0.7,0.3
				c0.3,0.1,0.5,0.1,0.9,0.1c0.7,0,1.2-0.1,1.6-0.3c0.4-0.2,0.6-0.4,0.8-0.8c0.1-0.3,0.2-0.7,0.3-1.1c0-0.4,0-1,0.1-1.8
				c-0.4,0.6-0.9,1-1.4,1.3c-0.5,0.3-1.1,0.4-1.9,0.4c-0.9,0-1.6-0.2-2.3-0.7c-0.6-0.4-1.1-1.1-1.5-1.9c-0.3-0.8-0.5-1.7-0.5-2.8
				c0-0.8,0.1-1.5,0.3-2.1c0.2-0.6,0.5-1.2,0.9-1.6c0.4-0.4,0.8-0.8,1.4-1c0.5-0.2,1.1-0.3,1.7-0.3c0.7,0,1.4,0.1,1.9,0.4
				c0.5,0.3,1,0.7,1.5,1.3v-0.4c0-0.4,0.1-0.8,0.3-1c0.2-0.2,0.5-0.4,0.9-0.4c0.5,0,0.8,0.2,1,0.5C266,228,266.1,228.5,266.1,229.1z
				 M258.6,232.4c0,1.1,0.2,1.8,0.7,2.4c0.5,0.5,1.1,0.8,1.8,0.8c0.4,0,0.8-0.1,1.2-0.3c0.4-0.2,0.7-0.6,0.9-1
				c0.2-0.5,0.4-1,0.4-1.7c0-1.1-0.2-1.9-0.7-2.5c-0.5-0.6-1.1-0.9-1.8-0.9c-0.7,0-1.3,0.3-1.8,0.8
				C258.8,230.5,258.6,231.3,258.6,232.4z"/>
			<path class="st19" d="M270.2,228.6v0.3c0.5-0.6,1-1,1.5-1.3c0.5-0.3,1.2-0.4,1.9-0.4c0.7,0,1.3,0.2,1.8,0.4
				c0.5,0.3,0.9,0.7,1.2,1.3c0.2,0.3,0.3,0.7,0.3,1c0.1,0.4,0.1,0.8,0.1,1.4v4.8c0,0.5-0.1,0.9-0.4,1.2c-0.2,0.3-0.5,0.4-0.9,0.4
				c-0.4,0-0.7-0.1-0.9-0.4c-0.2-0.3-0.4-0.7-0.4-1.2v-4.3c0-0.9-0.1-1.5-0.4-2c-0.2-0.5-0.7-0.7-1.4-0.7c-0.5,0-0.9,0.1-1.3,0.4
				c-0.4,0.3-0.7,0.7-0.8,1.1c-0.1,0.4-0.2,1.1-0.2,2.2v3.2c0,0.5-0.1,0.9-0.4,1.2c-0.2,0.3-0.6,0.4-0.9,0.4c-0.4,0-0.7-0.1-0.9-0.4
				c-0.2-0.3-0.4-0.7-0.4-1.2v-7.5c0-0.5,0.1-0.9,0.3-1.1c0.2-0.2,0.5-0.4,0.9-0.4c0.2,0,0.4,0.1,0.6,0.2c0.2,0.1,0.3,0.3,0.4,0.5
				C270.1,228,270.2,228.3,270.2,228.6z"/>
			<path class="st19" d="M286,233.1h-5.1c0,0.6,0.1,1.1,0.4,1.6c0.2,0.4,0.5,0.8,0.9,1c0.4,0.2,0.8,0.3,1.3,0.3c0.3,0,0.6,0,0.9-0.1
				c0.3-0.1,0.5-0.2,0.7-0.3c0.2-0.2,0.5-0.3,0.7-0.5c0.2-0.2,0.5-0.4,0.8-0.7c0.1-0.1,0.3-0.2,0.6-0.2c0.3,0,0.5,0.1,0.6,0.2
				c0.2,0.1,0.2,0.3,0.2,0.6c0,0.2-0.1,0.5-0.3,0.8c-0.2,0.3-0.5,0.6-0.8,0.9c-0.4,0.3-0.8,0.5-1.4,0.7c-0.6,0.2-1.2,0.3-1.9,0.3
				c-1.7,0-3-0.5-3.9-1.4c-0.9-0.9-1.4-2.2-1.4-3.9c0-0.8,0.1-1.5,0.3-2.1c0.2-0.7,0.6-1.2,1-1.7c0.4-0.5,1-0.8,1.6-1.1
				c0.6-0.3,1.3-0.4,2.1-0.4c1,0,1.9,0.2,2.6,0.6c0.7,0.4,1.3,1,1.6,1.7c0.4,0.7,0.5,1.4,0.5,2.1c0,0.7-0.2,1.1-0.6,1.3
				C287.2,233,286.6,233.1,286,233.1z M280.9,231.6h4.7c-0.1-0.9-0.3-1.6-0.7-2c-0.4-0.4-1-0.7-1.6-0.7c-0.6,0-1.2,0.2-1.6,0.7
				C281.2,230.1,281,230.8,280.9,231.6z"/>
			<path class="st19" d="M296.5,236.3V236c-0.3,0.4-0.7,0.7-1,1c-0.3,0.3-0.7,0.4-1.1,0.6c-0.4,0.1-0.8,0.2-1.3,0.2
				c-0.6,0-1.2-0.1-1.7-0.4c-0.5-0.3-1-0.6-1.4-1.1c-0.4-0.5-0.7-1.1-0.9-1.7c-0.2-0.7-0.3-1.4-0.3-2.1c0-1.6,0.4-2.9,1.2-3.8
				c0.8-0.9,1.8-1.4,3.1-1.4c0.7,0,1.4,0.1,1.9,0.4c0.5,0.3,1,0.7,1.5,1.2v-3.8c0-0.5,0.1-0.9,0.3-1.2c0.2-0.3,0.5-0.4,0.9-0.4
				c0.4,0,0.7,0.1,0.9,0.4c0.2,0.3,0.3,0.6,0.3,1.1v11.4c0,0.5-0.1,0.9-0.3,1.1c-0.2,0.2-0.5,0.4-0.9,0.4c-0.4,0-0.6-0.1-0.9-0.4
				C296.7,237.1,296.5,236.7,296.5,236.3z M291.4,232.4c0,0.7,0.1,1.3,0.3,1.8c0.2,0.5,0.5,0.9,0.9,1.1c0.4,0.3,0.8,0.4,1.2,0.4
				c0.5,0,0.9-0.1,1.2-0.4c0.4-0.2,0.7-0.6,0.9-1.1c0.2-0.5,0.3-1.1,0.3-1.8c0-0.7-0.1-1.3-0.3-1.8c-0.2-0.5-0.5-0.9-0.9-1.1
				c-0.4-0.3-0.8-0.4-1.3-0.4c-0.5,0-0.9,0.1-1.3,0.4c-0.4,0.3-0.7,0.7-0.9,1.2C291.5,231.2,291.4,231.8,291.4,232.4z"/>
			<path class="st19" d="M307.1,224.8v4c0.5-0.5,1-0.9,1.5-1.2c0.5-0.3,1.1-0.4,1.9-0.4c0.9,0,1.6,0.2,2.3,0.6
				c0.6,0.4,1.2,1,1.5,1.8c0.4,0.8,0.5,1.7,0.5,2.8c0,0.8-0.1,1.5-0.3,2.2c-0.2,0.7-0.5,1.2-0.9,1.7c-0.4,0.5-0.8,0.9-1.4,1.1
				c-0.5,0.3-1.1,0.4-1.8,0.4c-0.4,0-0.8,0-1.1-0.1c-0.4-0.1-0.7-0.2-0.9-0.4c-0.2-0.2-0.5-0.3-0.6-0.5c-0.2-0.2-0.4-0.4-0.7-0.7
				v0.3c0,0.5-0.1,0.9-0.4,1.1c-0.2,0.3-0.5,0.4-0.9,0.4c-0.4,0-0.7-0.1-0.9-0.4c-0.2-0.3-0.3-0.6-0.3-1.1v-11.3
				c0-0.5,0.1-0.9,0.3-1.2c0.2-0.3,0.5-0.4,0.9-0.4c0.4,0,0.7,0.1,0.9,0.4C307,224,307.1,224.3,307.1,224.8z M307.3,232.5
				c0,1,0.2,1.8,0.7,2.4c0.5,0.6,1.1,0.8,1.9,0.8c0.7,0,1.2-0.3,1.7-0.9c0.5-0.6,0.7-1.4,0.7-2.4c0-0.7-0.1-1.3-0.3-1.8
				c-0.2-0.5-0.5-0.9-0.8-1.1c-0.4-0.3-0.8-0.4-1.3-0.4c-0.5,0-0.9,0.1-1.3,0.4c-0.4,0.3-0.7,0.7-0.9,1.2
				C307.4,231.2,307.3,231.8,307.3,232.5z"/>
			<path class="st19" d="M318.2,238.1l0.2-0.6l-3.2-8c-0.2-0.5-0.3-0.8-0.3-1c0-0.2,0.1-0.4,0.2-0.6c0.1-0.2,0.3-0.3,0.5-0.5
				c0.2-0.1,0.4-0.2,0.6-0.2c0.4,0,0.7,0.1,0.8,0.4c0.2,0.2,0.4,0.6,0.5,1l2.2,6.4l2.1-5.9c0.2-0.5,0.3-0.9,0.4-1.1
				c0.1-0.3,0.3-0.5,0.4-0.5c0.1-0.1,0.4-0.1,0.6-0.1c0.2,0,0.4,0.1,0.6,0.2c0.2,0.1,0.3,0.2,0.4,0.4c0.1,0.2,0.1,0.4,0.1,0.6
				c0,0.1-0.1,0.3-0.1,0.5c-0.1,0.2-0.1,0.4-0.2,0.7l-3.4,8.9c-0.3,0.8-0.6,1.4-0.9,1.8c-0.3,0.4-0.6,0.8-1.1,1
				c-0.5,0.2-1.1,0.4-1.9,0.4c-0.8,0-1.3-0.1-1.7-0.2c-0.4-0.2-0.6-0.5-0.6-0.9c0-0.3,0.1-0.5,0.3-0.7c0.2-0.2,0.4-0.2,0.8-0.2
				c0.1,0,0.3,0,0.4,0.1c0.2,0,0.3,0.1,0.4,0.1c0.3,0,0.5,0,0.7-0.1c0.2-0.1,0.3-0.2,0.5-0.5C317.8,238.8,318,238.5,318.2,238.1z"/>
		</g>
		<g class="st5">
			<path class="st19" d="M355.7,227.4h0.6v-0.8c0-0.8,0.1-1.5,0.3-1.9c0.2-0.5,0.6-0.8,1-1c0.5-0.2,1.2-0.3,2-0.3
				c1.5,0,2.3,0.4,2.3,1.1c0,0.2-0.1,0.4-0.2,0.6c-0.2,0.2-0.3,0.3-0.6,0.3c-0.1,0-0.3,0-0.5-0.1c-0.2,0-0.5-0.1-0.6-0.1
				c-0.5,0-0.8,0.1-0.9,0.4c-0.1,0.3-0.2,0.7-0.2,1.2v0.6h0.6c1,0,1.5,0.3,1.5,0.9c0,0.4-0.1,0.7-0.4,0.8c-0.3,0.1-0.6,0.2-1.1,0.2
				H359v6.9c0,0.5-0.1,0.9-0.4,1.2c-0.2,0.3-0.6,0.4-0.9,0.4c-0.4,0-0.7-0.1-0.9-0.4c-0.2-0.3-0.4-0.7-0.4-1.2v-6.9h-0.7
				c-0.4,0-0.7-0.1-0.9-0.3c-0.2-0.2-0.3-0.4-0.3-0.7C354.4,227.7,354.9,227.4,355.7,227.4"/>
			<path class="st19" d="M364.2,234v2.2c0,0.5-0.1,0.9-0.4,1.2c-0.2,0.3-0.6,0.4-0.9,0.4c-0.4,0-0.7-0.1-0.9-0.4
				c-0.2-0.3-0.4-0.7-0.4-1.2v-7.2c0-1.2,0.4-1.7,1.3-1.7c0.4,0,0.7,0.1,0.9,0.4c0.2,0.3,0.3,0.7,0.3,1.2c0.3-0.5,0.6-0.9,0.9-1.2
				c0.3-0.3,0.8-0.4,1.3-0.4c0.5,0,1.1,0.1,1.6,0.4c0.5,0.3,0.8,0.6,0.8,1.1c0,0.3-0.1,0.6-0.3,0.8c-0.2,0.2-0.5,0.3-0.7,0.3
				c-0.1,0-0.3-0.1-0.7-0.2c-0.4-0.1-0.7-0.2-1-0.2c-0.4,0-0.7,0.1-0.9,0.3c-0.2,0.2-0.4,0.5-0.6,0.9c-0.1,0.4-0.2,0.9-0.3,1.4
				C364.3,232.5,364.2,233.2,364.2,234"/>
			<path class="st19" d="M376.2,233.1h-5.1c0,0.6,0.1,1.1,0.4,1.6c0.2,0.4,0.5,0.8,0.9,1c0.4,0.2,0.8,0.3,1.3,0.3
				c0.3,0,0.6,0,0.8-0.1c0.3-0.1,0.5-0.2,0.7-0.3c0.2-0.2,0.5-0.3,0.7-0.5c0.2-0.2,0.5-0.4,0.8-0.7c0.1-0.1,0.3-0.2,0.6-0.2
				c0.3,0,0.5,0.1,0.6,0.2c0.2,0.1,0.2,0.3,0.2,0.6c0,0.2-0.1,0.5-0.3,0.8c-0.2,0.3-0.5,0.6-0.8,0.9c-0.4,0.3-0.8,0.5-1.4,0.7
				c-0.6,0.2-1.2,0.3-1.9,0.3c-1.7,0-3-0.5-3.9-1.4c-0.9-1-1.4-2.2-1.4-3.9c0-0.8,0.1-1.5,0.3-2.1c0.2-0.7,0.6-1.2,1-1.7
				c0.4-0.5,1-0.8,1.6-1.1c0.6-0.3,1.3-0.4,2.1-0.4c1,0,1.9,0.2,2.6,0.6c0.7,0.4,1.3,1,1.6,1.7c0.4,0.7,0.5,1.4,0.5,2.1
				c0,0.6-0.2,1.1-0.6,1.3C377.4,233,376.8,233.1,376.2,233.1 M371.1,231.6h4.7c-0.1-0.9-0.3-1.5-0.7-2c-0.4-0.4-1-0.7-1.6-0.7
				c-0.6,0-1.2,0.2-1.6,0.7C371.4,230.1,371.2,230.7,371.1,231.6"/>
			<path class="st19" d="M386.9,233.1h-5.1c0,0.6,0.1,1.1,0.4,1.6c0.2,0.4,0.5,0.8,0.9,1c0.4,0.2,0.8,0.3,1.3,0.3
				c0.3,0,0.6,0,0.8-0.1c0.3-0.1,0.5-0.2,0.8-0.3c0.2-0.2,0.5-0.3,0.7-0.5c0.2-0.2,0.5-0.4,0.8-0.7c0.1-0.1,0.3-0.2,0.6-0.2
				c0.3,0,0.5,0.1,0.7,0.2c0.2,0.1,0.2,0.3,0.2,0.6c0,0.2-0.1,0.5-0.3,0.8c-0.2,0.3-0.5,0.6-0.8,0.9c-0.4,0.3-0.8,0.5-1.4,0.7
				c-0.6,0.2-1.2,0.3-1.9,0.3c-1.7,0-3-0.5-3.9-1.4c-0.9-1-1.4-2.2-1.4-3.9c0-0.8,0.1-1.5,0.3-2.1c0.2-0.7,0.6-1.2,1-1.7
				c0.4-0.5,1-0.8,1.6-1.1c0.6-0.3,1.4-0.4,2.1-0.4c1,0,1.9,0.2,2.6,0.6c0.7,0.4,1.3,1,1.6,1.7c0.4,0.7,0.5,1.4,0.5,2.1
				c0,0.6-0.2,1.1-0.6,1.3C388.1,233,387.6,233.1,386.9,233.1 M381.9,231.6h4.7c-0.1-0.9-0.3-1.5-0.7-2c-0.4-0.4-1-0.7-1.6-0.7
				c-0.6,0-1.2,0.2-1.6,0.7C382.2,230.1,382,230.7,381.9,231.6"/>
			<path class="st19" d="M392.6,228.6v0.3c0.5-0.6,1-1,1.5-1.3c0.5-0.3,1.1-0.4,1.8-0.4c0.8,0,1.5,0.2,2.2,0.6
				c0.7,0.4,1.2,1,1.6,1.8c0.4,0.8,0.6,1.7,0.6,2.8c0,0.8-0.1,1.5-0.3,2.2c-0.2,0.7-0.5,1.2-0.9,1.7c-0.4,0.4-0.9,0.8-1.4,1
				c-0.5,0.2-1.1,0.4-1.7,0.4c-0.7,0-1.4-0.1-1.9-0.4c-0.5-0.3-1-0.7-1.4-1.3v3.9c0,1.1-0.4,1.7-1.2,1.7c-0.5,0-0.8-0.1-1-0.4
				c-0.2-0.3-0.2-0.7-0.2-1.3v-11.2c0-0.5,0.1-0.9,0.3-1.1c0.2-0.2,0.5-0.4,0.9-0.4c0.4,0,0.7,0.1,0.9,0.4
				C392.5,227.8,392.6,228.2,392.6,228.6 M397.7,232.4c0-0.7-0.1-1.3-0.3-1.8c-0.2-0.5-0.5-0.9-0.9-1.1c-0.4-0.3-0.8-0.4-1.2-0.4
				c-0.7,0-1.3,0.3-1.8,0.8c-0.5,0.6-0.7,1.4-0.7,2.5c0,1,0.2,1.8,0.7,2.4c0.5,0.6,1.1,0.9,1.8,0.9c0.4,0,0.8-0.1,1.2-0.4
				c0.4-0.3,0.7-0.6,0.9-1.1C397.6,233.7,397.7,233.1,397.7,232.4"/>
			<path class="st19" d="M402.9,226c-0.4,0-0.7-0.1-0.9-0.3c-0.3-0.2-0.4-0.5-0.4-0.9c0-0.4,0.1-0.7,0.4-0.9
				c0.3-0.2,0.6-0.4,0.9-0.4c0.3,0,0.6,0.1,0.9,0.3c0.3,0.2,0.4,0.5,0.4,0.9c0,0.4-0.1,0.7-0.4,0.9C403.6,225.9,403.3,226,402.9,226
				 M404.2,228.7v7.5c0,0.5-0.1,0.9-0.4,1.2c-0.3,0.3-0.6,0.4-0.9,0.4c-0.4,0-0.7-0.1-0.9-0.4c-0.2-0.3-0.4-0.7-0.4-1.2v-7.4
				c0-0.5,0.1-0.9,0.4-1.2c0.2-0.3,0.5-0.4,0.9-0.4c0.4,0,0.7,0.1,0.9,0.4C404.1,227.8,404.2,228.2,404.2,228.7"/>
			<path class="st19" d="M412.6,236.5l-2.3-3.8l-1.4,1.3v2.1c0,0.5-0.1,0.9-0.4,1.1c-0.3,0.3-0.6,0.4-0.9,0.4
				c-0.4,0-0.7-0.1-0.9-0.4c-0.2-0.3-0.3-0.7-0.3-1.2v-11.1c0-0.6,0.1-1,0.3-1.3c0.2-0.3,0.5-0.5,1-0.5c0.4,0,0.7,0.1,0.9,0.4
				c0.2,0.3,0.4,0.7,0.4,1.2v6.3l2.9-3.1c0.4-0.4,0.6-0.6,0.8-0.8c0.2-0.1,0.4-0.2,0.7-0.2c0.3,0,0.6,0.1,0.8,0.3
				c0.2,0.2,0.3,0.5,0.3,0.8c0,0.4-0.4,0.9-1.1,1.5L412,231l2.7,4.2c0.2,0.3,0.3,0.5,0.4,0.7c0.1,0.2,0.1,0.3,0.1,0.5
				c0,0.4-0.1,0.7-0.3,1c-0.2,0.2-0.5,0.4-0.9,0.4c-0.3,0-0.6-0.1-0.7-0.3C413.1,237.3,412.9,237,412.6,236.5"/>
			<path class="st19" d="M418.2,237.7c-0.4,0-0.7-0.1-1-0.4c-0.3-0.2-0.4-0.6-0.4-1.1c0-0.4,0.1-0.7,0.4-1c0.3-0.3,0.6-0.4,1-0.4
				c0.4,0,0.7,0.1,1,0.4c0.3,0.3,0.4,0.6,0.4,1c0,0.5-0.1,0.8-0.4,1.1C418.9,237.6,418.6,237.7,418.2,237.7"/>
			<path class="st19" d="M431.1,234.5c0,0.3-0.1,0.7-0.3,1c-0.2,0.4-0.5,0.7-0.9,1.1c-0.4,0.3-0.9,0.6-1.5,0.8
				c-0.6,0.2-1.3,0.3-2,0.3c-1.6,0-2.9-0.5-3.8-1.4c-0.9-0.9-1.3-2.2-1.3-3.8c0-1.1,0.2-2,0.6-2.8c0.4-0.8,1-1.4,1.8-1.9
				c0.8-0.4,1.7-0.7,2.8-0.7c0.7,0,1.3,0.1,1.9,0.3c0.6,0.2,1,0.5,1.4,0.8c0.4,0.3,0.7,0.6,0.9,1c0.2,0.4,0.3,0.7,0.3,1
				c0,0.3-0.1,0.6-0.3,0.8c-0.2,0.2-0.5,0.3-0.8,0.3c-0.2,0-0.4-0.1-0.5-0.2c-0.1-0.1-0.3-0.3-0.5-0.5c-0.3-0.5-0.6-0.8-1-1.1
				c-0.3-0.2-0.8-0.4-1.3-0.4c-0.8,0-1.4,0.3-1.9,0.9c-0.5,0.6-0.7,1.4-0.7,2.5c0,0.5,0.1,0.9,0.2,1.3c0.1,0.4,0.3,0.8,0.5,1
				c0.2,0.3,0.5,0.5,0.8,0.7c0.3,0.2,0.7,0.2,1.1,0.2c0.5,0,1-0.1,1.3-0.4c0.4-0.2,0.7-0.6,1-1.1c0.2-0.3,0.3-0.5,0.5-0.7
				c0.2-0.2,0.4-0.3,0.7-0.3c0.3,0,0.6,0.1,0.8,0.4C431,234,431.1,234.2,431.1,234.5"/>
			<path class="st19" d="M442.3,232.5c0,0.8-0.1,1.5-0.4,2.1c-0.2,0.7-0.6,1.2-1,1.7c-0.5,0.5-1,0.8-1.6,1.1
				c-0.6,0.2-1.3,0.4-2.1,0.4c-0.8,0-1.5-0.1-2.1-0.4c-0.6-0.2-1.2-0.6-1.6-1.1c-0.5-0.5-0.8-1-1.1-1.7c-0.2-0.6-0.3-1.4-0.3-2.1
				c0-0.8,0.1-1.5,0.4-2.2c0.2-0.7,0.6-1.2,1-1.7c0.5-0.5,1-0.8,1.6-1.1c0.6-0.2,1.3-0.4,2.1-0.4c0.8,0,1.5,0.1,2.1,0.4
				c0.6,0.3,1.2,0.6,1.6,1.1c0.5,0.5,0.8,1,1,1.7C442.2,231,442.3,231.7,442.3,232.5 M439.7,232.5c0-1.1-0.2-1.9-0.7-2.5
				c-0.5-0.6-1.1-0.9-1.9-0.9c-0.5,0-1,0.1-1.3,0.4c-0.4,0.3-0.7,0.6-0.9,1.2c-0.2,0.5-0.3,1.1-0.3,1.8c0,0.7,0.1,1.3,0.3,1.8
				c0.2,0.5,0.5,0.9,0.9,1.2c0.4,0.3,0.8,0.4,1.4,0.4c0.8,0,1.4-0.3,1.9-0.9C439.5,234.3,439.7,233.5,439.7,232.5"/>
			<path class="st19" d="M452.2,232.6v3.4c0,0.5-0.1,1-0.4,1.2c-0.3,0.3-0.6,0.4-1,0.4c-0.4,0-0.7-0.1-1-0.4
				c-0.2-0.3-0.4-0.7-0.4-1.2V232c0-0.7,0-1.2-0.1-1.5c0-0.4-0.2-0.7-0.4-0.9c-0.2-0.2-0.5-0.4-0.9-0.4c-0.8,0-1.4,0.3-1.7,0.9
				c-0.3,0.6-0.4,1.4-0.4,2.5v3.5c0,0.5-0.1,0.9-0.4,1.2c-0.3,0.3-0.6,0.4-1,0.4c-0.4,0-0.7-0.1-1-0.4c-0.3-0.3-0.4-0.7-0.4-1.2
				v-7.4c0-0.5,0.1-0.9,0.3-1.1c0.2-0.3,0.5-0.4,0.9-0.4c0.4,0,0.7,0.1,0.9,0.4c0.2,0.2,0.4,0.6,0.4,1v0.2c0.5-0.5,0.9-0.9,1.4-1.2
				c0.5-0.3,1.1-0.4,1.7-0.4c0.7,0,1.2,0.1,1.7,0.4c0.5,0.3,0.9,0.7,1.2,1.2c0.4-0.5,0.9-0.9,1.4-1.2c0.5-0.3,1.1-0.4,1.7-0.4
				c0.7,0,1.3,0.1,1.8,0.4c0.5,0.3,0.9,0.7,1.1,1.2c0.2,0.5,0.3,1.2,0.3,2.2v5.1c0,0.5-0.1,1-0.4,1.2c-0.2,0.3-0.6,0.4-1,0.4
				c-0.4,0-0.7-0.1-1-0.4c-0.3-0.3-0.4-0.7-0.4-1.2v-4.4c0-0.6,0-1-0.1-1.3c0-0.3-0.2-0.6-0.4-0.8c-0.2-0.2-0.5-0.3-1-0.3
				c-0.3,0-0.7,0.1-1,0.3c-0.3,0.2-0.5,0.5-0.7,0.8C452.3,230.8,452.2,231.5,452.2,232.6"/>
		</g>
		<g class="st5">
			<path class="st19" d="M331.5,231.8C331.5,231.8,331.5,231.8,331.5,231.8C331.5,231.8,331.5,231.8,331.5,231.8z"/>
			<path class="st19" d="M331.6,232.7C331.6,232.7,331.6,232.7,331.6,232.7c0-0.2-0.1-0.5-0.1-0.7
				C331.5,232.2,331.6,232.4,331.6,232.7z"/>
			<path class="st19" d="M332.5,235.1C332.5,235.1,332.5,235,332.5,235.1C332.5,235,332.5,235.1,332.5,235.1z"/>
			<path class="st19" d="M332.4,234.9c0,0,0-0.1-0.1-0.1C332.3,234.8,332.4,234.9,332.4,234.9z"/>
			<path class="st19" d="M331.8,233.6c0.1,0.4,0.3,0.8,0.5,1.2C332.1,234.4,332,234,331.8,233.6
				C331.9,233.6,331.8,233.6,331.8,233.6z"/>
			<path class="st19" d="M341.5,221.9c0.5,0,0.9,0,1.3,0.1l0.1-0.8c0,0-1.2-0.4-2.7-0.2l-0.1-0.4c0.5-0.1,0.8-0.5,0.8-1
				c0-0.6-0.5-1.1-1.1-1.1c-0.6,0-1.1,0.5-1.1,1.1c0,0.5,0.4,0.9,0.8,1l0.1,0.5c-1.6,0.2-2.9,0.9-2.9,0.9l0.2,0.7
				c1-0.3,1.8-0.5,2.6-0.6C340.5,221.9,341,221.9,341.5,221.9z"/>
			<path class="st19" d="M332.4,225.8L332.4,225.8c0-0.1,0.1-0.1,0.1-0.2l-0.3-0.2l-0.5-0.4c0,0-0.8,0.7-1.4,2c0,0-0.1-0.1-0.1-0.1
				c-0.2-0.2-0.4-0.3-0.8-0.3c0,0,0,0,0,0c-0.2,0-0.3-0.1-0.4-0.1c0.1-0.1,0.1-0.3,0.1-0.4c0-0.4-0.3-0.7-0.7-0.7
				c-0.4,0-0.7,0.3-0.7,0.7c0,0.4,0.3,0.7,0.7,0.7c0.1,0,0.1,0,0.2,0c0.2,0.2,0.4,0.3,0.8,0.3c0.2,0,0.3,0,0.4,0.2
				c0.1,0.1,0.1,0.3,0.2,0.4c0,0,0,0,0,0c-0.4,1.2-0.3,2.7-0.3,2.7l1.1,0c0-0.5,0.1-1.5,0.4-2.2
				C331.8,226.7,332.4,225.8,332.4,225.8z"/>
			<path class="st19" d="M350.7,222.8c-0.4,0-0.7,0.3-0.7,0.7c0,0.1,0,0.1,0,0.2c-0.2,0.2-0.3,0.4-0.3,0.8c0,0.2,0,0.3-0.2,0.4
				c-0.1,0.1-0.2,0.1-0.3,0.1c-0.8-1.1-1.8-1.8-1.8-1.8l-0.8,0.8c0.6,0.5,1.2,1.2,1.7,2c0.4,0.6,0.8,1.3,1.1,2l1-0.5
				c0,0-0.5-1.2-1.1-2.2c0.1,0,0.2-0.1,0.3-0.2c0.2-0.2,0.3-0.4,0.3-0.8c0-0.2,0.1-0.3,0.1-0.4c0.1,0.1,0.3,0.1,0.4,0.1
				c0.4,0,0.7-0.3,0.7-0.7C351.4,223.1,351.1,222.8,350.7,222.8z"/>
			<path class="st19" d="M348.1,232c-1.4,0.7-3.7,1.6-6.8,2c-1.2,0.2-2.4,0.2-3.4,0.2c-1.4,0-2.6-0.1-3.6-0.2
				c-1.1-0.1-1.9-0.3-2.4-0.4c0.1,0.4,0.3,0.8,0.5,1.2c0,0,0,0,0,0c0,0,0,0.1,0.1,0.1c0,0,0,0.1,0.1,0.1c0,0,0,0,0,0
				c0.3,0.6,0.7,1.1,1.1,1.5c1.4,1.6,2.9,1.8,2.9,1.8l0,0l0,0c0,0,1.3,0.4,3.3,0.4c1.9,0,3.9-0.4,5.7-1.2c1.3-0.7,2.6-1.7,3.3-2.7
				c0.5-0.7,0.8-1.5,1.1-2.3c0.1-0.4,0.2-1.1,0.1-1.8C349.5,231.2,348.9,231.6,348.1,232z"/>
			<path class="st19" d="M332.9,226.1c0,0.1-0.7,0.9-1.1,2.3c-0.4,1-0.3,2.4-0.3,2.5v0c0,0.3,0,0.7,0.1,1c0,0,0,0,0,0
				c0,0,0,0.1,0,0.1c0,0.2,0.1,0.5,0.1,0.7c0.7,0.2,4.9,1.2,9.5,0.5c2.9-0.4,5.1-1.3,6.5-1.9c1.1-0.5,1.8-1,2.1-1.2
				c-0.3-1-1-2.6-1.7-3.6c-2-2.9-4.2-3.6-5.3-3.8c-0.4-0.1-0.8-0.1-1.2-0.1c-0.4,0-1,0-1.7,0.1c-0.7,0.1-1.6,0.3-2.5,0.6
				c-1.3,0.5-2.6,1.2-3.5,2l0,0C333.5,225.4,333.2,225.7,332.9,226.1z M345.2,225.4c1,0,1.7,0.8,1.7,1.7c0,1-0.8,1.7-1.7,1.7
				s-1.7-0.8-1.7-1.7C343.4,226.2,344.2,225.4,345.2,225.4z M336.9,225.3c1.6,0,2.8,1.3,2.8,2.8c0,1.6-1.3,2.8-2.8,2.8
				c-1.6,0-2.8-1.3-2.8-2.8C334.1,226.6,335.4,225.3,336.9,225.3z"/>
		</g>
	</g>
	<g class="st0">
		<circle class="st2" cx="86.6" cy="-310.3" r="103.3"/>
		<circle class="st20" cx="81.6" cy="-315.3" r="103.3"/>
		<circle class="st21" cx="73.8" cy="-317.9" r="103.3"/>
		<g class="st5">
			<rect x="21.5" y="-341.7" class="st22" width="75.8" height="78.6"/>
			<polygon class="st23" points="113.7,-364.2 37.9,-364.2 21.5,-341.7 97.3,-341.7 			"/>
			<polygon class="st24" points="113.7,-364.2 97.3,-341.7 97.3,-263.1 126.2,-263.1 126.2,-341.7 			"/>
			<rect x="38.1" y="-372.7" class="st25" width="75.6" height="8.5"/>
			<g>
				<rect x="112.7" y="-372.7" class="st26" width="2" height="16.7"/>
			</g>
			<rect x="21.5" y="-323.8" class="st27" width="75.8" height="40.5"/>
			<text transform="matrix(1 0 0 1 38.1411 -293.9595)" class="st25" style="font-family:'BebasNeueBold'; font-size:28.6945px;">MILK</text>
		</g>
		<path class="st2" d="M73.8-421.2c57,0,103.3,46.2,103.3,103.3S130.8-214.7,73.8-214.7V-421.2z"/>
	</g>
	<g>
		<circle class="st28" cx="82.7" cy="65.7" r="103.3"/>
		<circle class="st29" cx="77.7" cy="60.7" r="103.3"/>
		<circle class="st30" cx="69.9" cy="58.1" r="103.3"/>
		<g>
			<polygon class="st31" points="0,116.2 120.6,116.2 120.6,0 			"/>
			<rect x="120.6" class="st32" width="19.2" height="116.2"/>
			<path class="st33" d="M99.9,35c5.9,0,10.8-4.8,10.8-10.8c0-4-2.2-7.5-5.5-9.4L90.3,29.2C92.1,32.6,95.7,35,99.9,35z"/>
			<circle class="st33" cx="99.9" cy="71.7" r="13"/>
			<path class="st33" d="M46.7,90.9c12.2,0,22.1-9.9,22.1-22.1c0-5.4-1.9-10.3-5.1-14.1L32,85.3C35.9,88.8,41.1,90.9,46.7,90.9z"/>
			<circle class="st33" cx="110.6" cy="46.7" r="5.2"/>
			<circle class="st33" cx="110.6" cy="104.8" r="3.1"/>
			<circle class="st33" cx="66.3" cy="102.9" r="8.9"/>
			<circle class="st33" cx="28" cy="108" r="6.3"/>
		</g>
		<path class="st28" d="M69.9-45.2c57,0,103.3,46.2,103.3,103.3c0,57-46.2,103.3-103.3,103.3V-45.2z"/>
	</g>
	<g class="st0">
		<circle class="st2" cx="349.8" cy="-414.9" r="103.3"/>
		<circle class="st34" cx="344.8" cy="-419.9" r="103.3"/>
		<circle class="st35" cx="337" cy="-423.8" r="103.3"/>
		<g class="st5">
			<circle class="st36" cx="336.5" cy="-368.4" r="9.7"/>
			<path class="st37" d="M327.2-371.2h18.6c-0.3-1-0.8-2-1.4-2.9h-15.7C328-373.2,327.5-372.2,327.2-371.2z"/>
			<polygon class="st36" points="373.5,-374 290.8,-374 308.8,-456.7 355.5,-456.7 			"/>
			<text transform="matrix(1 0 0 1 307.6289 -378.7886)" class="st37" style="font-family:'BebasNeueBold'; font-size:36.293px;">cow</text>
			<g>
				<path class="st38" d="M341.2-483.7c6.5,0,12,4.1,14.2,9.9H327C329.1-479.6,334.7-483.7,341.2-483.7 M341.2-488.9
					c-11.2,0-20.3,9.1-20.3,20.3h40.6C361.4-479.8,352.4-488.9,341.2-488.9L341.2-488.9z"/>
			</g>
			<polygon class="st39" points="364.1,-469.4 317.6,-469.4 308.8,-456.7 355.3,-456.7 			"/>
			<polygon class="st37" points="373,-456.7 364.1,-469.4 355.3,-456.7 373.5,-374 391.2,-374 			"/>
			<rect x="320.9" y="-469.8" class="st37" width="40.5" height="0.5"/>
		</g>
		<path class="st2" d="M337-527c57,0,103.3,46.2,103.3,103.3c0,57-46.2,103.3-103.3,103.3V-527z"/>
	</g>
	<g class="st0">
		<circle class="st2" cx="358.1" cy="-113" r="168.6"/>
		<circle class="st40" cx="348.1" cy="-123" r="168.6"/>
		<circle class="st41" cx="332.9" cy="-127.1" r="168.6"/>
		<g class="st5">
			<path class="st42" d="M450.9-215.6c0-0.2,0-0.3,0-0.3c-0.1-1.5-1.2-2.7-2.7-2.9c-3.1-0.4-3.2,2.6-3.7,4.7c-0.7,3-1.7,5.9-2.9,8.8
				c-2.4,5.6-5.8,10.7-9.9,15.2c-13.7,14.6-34.8,19.1-54.2,17.4c-1.5-0.1-3-0.4-4.6-0.2c-6.4,0.6-11.1,6.4-10.4,12.8
				c0.6,6.4,6.4,11.1,12.8,10.4c11.2-1.1,22.2-3.1,32.7-7.3c17.3-6.9,31.6-19.9,38.7-37.3c2.5-6.2,4-12.9,4.4-19.6
				C451-214.5,451-215,450.9-215.6z"/>
			<path class="st42" d="M214.9-215.6c0-0.2,0-0.3,0-0.3c0.1-1.5,1.2-2.7,2.7-2.9c3.1-0.4,3.2,2.6,3.7,4.7c0.7,3,1.7,5.9,2.9,8.8
				c2.4,5.6,5.8,10.7,9.9,15.2c13.7,14.6,34.8,19.1,54.2,17.4c1.5-0.1,3-0.4,4.6-0.2c6.4,0.6,11.1,6.4,10.4,12.8
				c-0.6,6.4-6.4,11.1-12.8,10.4c-11.2-1.1-22.2-3.1-32.7-7.3c-17.3-6.9-31.6-19.9-38.7-37.3c-2.5-6.2-4-12.9-4.4-19.6
				C214.9-214.5,214.9-215,214.9-215.6z"/>
			<path class="st7" d="M374.8-15.1h-83.7c-12.9,0-23.8-9.6-25.5-22.4l-17.5-130.8c-1.7-12.9,8.3-24.3,21.3-24.3h127.1
				c13,0,23,11.4,21.3,24.3L400.3-37.5C398.6-24.7,387.7-15.1,374.8-15.1z"/>
			<path class="st43" d="M332.9-86.4c-31,0-57.8,9.1-70.9,22.5l3.5,26.5c1.7,12.8,12.6,22.4,25.5,22.4h83.7
				c12.9,0,23.8-9.6,25.5-22.4l3.5-26.5C390.8-77.3,364-86.4,332.9-86.4z"/>
			<path class="st44" d="M298.6-41H294c-2.5,0-4.5-2-4.5-4.5v-7.4c0-4.2,3.4-7.6,7.6-7.6h2.2c1.3,0,2.4,1.1,2.4,2.4v13.9
				C301.8-42.5,300.3-41,298.6-41z"/>
			<path class="st44" d="M367.3-41h4.6c2.5,0,4.5-2,4.5-4.5v-7.4c0-4.2-3.4-7.6-7.6-7.6h-2.2c-1.3,0-2.4,1.1-2.4,2.4v13.9
				C364.1-42.5,365.5-41,367.3-41z"/>
			<path class="st44" d="M298.8-160.3c0,3.8,3.2,6.9,7,6.8c3.7-0.1,6.5-3.3,6.6-7.1c0.1-3.9,3.5-7,7.5-6.6c3.5,0.4,6,3.5,6.1,7
				c0.1,3.9,3.5,7,7.5,6.6c3.5-0.4,6-3.5,6.1-7c0.1-4.1,3.9-7.3,8.2-6.5c3.2,0.6,5.4,3.6,5.5,6.8c0.1,3.8,3.3,6.9,7.2,6.7
				c3.7-0.2,6.5-3.4,6.5-7.1v-31.2c0-3.2-2.6-5.8-5.8-5.8h-56.7c-3.2,0-5.8,2.6-5.8,5.8V-160.3z"/>
			<g>
				<g>
					<path class="st7" d="M426.8-177.5c2-1.6,3.4-4,3.4-6.8c0-4.7-3.8-8.6-8.6-8.6h-39.4c-4.7,0-8.6,3.8-8.6,8.6
						c0,2.8,1.3,5.2,3.4,6.8c-2,1.6-3.4,4-3.4,6.8c0,0.7,0.1,1.3,0.2,1.9c-3,1.3-5.1,4.3-5.1,7.8c0,4.7,3.8,8.6,8.6,8.6h39.4
						c4.7,0,8.6-3.8,8.6-8.6c0-0.7-0.1-1.3-0.2-1.9c3-1.3,5.1-4.3,5.1-7.8C430.1-173.5,428.8-175.9,426.8-177.5z"/>
				</g>
			</g>
			<ellipse class="st44" cx="294.6" cy="-126.5" rx="7.1" ry="12.9"/>
			<ellipse class="st44" cx="371.3" cy="-126.5" rx="7.1" ry="12.9"/>
			<path class="st7" d="M273.3-132.1l-13.4-23.3c-3.3-5.8-11.6-5.8-14.9,0l-13.4,23.3c-3.3,5.8,0.8,12.9,7.5,12.9h26.9
				C272.5-119.1,276.7-126.3,273.3-132.1z"/>
			<path class="st7" d="M392.5-132.1l13.4-23.3c3.3-5.8,11.6-5.8,14.9,0l13.4,23.3c3.3,5.8-0.8,12.9-7.5,12.9H400
				C393.4-119.1,389.2-126.3,392.5-132.1z"/>
			<g>
				<g>
					<path class="st7" d="M292.1-168.7c0.1-0.6,0.2-1.3,0.2-1.9c0-2.8-1.3-5.2-3.4-6.8c2-1.6,3.4-4,3.4-6.8c0-4.7-3.8-8.6-8.6-8.6
						h-39.4c-4.7,0-8.6,3.8-8.6,8.6c0,2.8,1.3,5.2,3.4,6.8c-2,1.6-3.4,4-3.4,6.8c0,3.5,2.1,6.5,5.1,7.8c-0.1,0.6-0.2,1.3-0.2,1.9
						c0,4.7,3.8,8.6,8.6,8.6h39.4c4.7,0,8.6-3.8,8.6-8.6C297.2-164.4,295.1-167.4,292.1-168.7z"/>
				</g>
			</g>
		</g>
		<path class="st2" d="M332.9-295.6c93.1,0,168.6,75.5,168.6,168.6C501.5-34,426,41.5,332.9,41.5V-295.6z"/>
	</g>
	<g class="st0">
		<polygon class="st45" points="684.8,-158.9 700.2,-174.8 715.6,-158.9 715.6,-66 684.8,-66 		"/>
		<polygon class="st2" points="715.6,-158.9 700.2,-174.8 700.2,-66 715.6,-66 		"/>
		<polygon class="st45" points="614.2,-158.9 629.6,-174.8 645,-158.9 645,-66 614.2,-66 		"/>
		<polygon class="st2" points="645,-158.9 629.6,-174.8 629.6,-66 645,-66 		"/>
		<polygon class="st45" points="543.6,-158.9 559,-174.8 574.4,-158.9 574.4,-66 543.6,-66 		"/>
		<polygon class="st2" points="574.4,-158.9 559,-174.8 559,-66 574.4,-66 		"/>
		<rect x="543.9" y="-131" class="st46" width="171.7" height="13.2"/>
		<rect x="543.9" y="-124.3" class="st47" width="171.7" height="6.6"/>
		<rect x="543.9" y="-101.1" class="st46" width="171.7" height="13.2"/>
		<rect x="543.9" y="-94.5" class="st47" width="171.7" height="6.6"/>
	</g>
	<g class="st0">
		<polygon class="st45" points="106.5,-158.9 121.9,-174.8 137.3,-158.9 137.3,-66 106.5,-66 		"/>
		<polygon class="st2" points="137.3,-158.9 121.9,-174.8 121.9,-66 137.3,-66 		"/>
		<polygon class="st45" points="35.9,-158.9 51.3,-174.8 66.7,-158.9 66.7,-66 35.9,-66 		"/>
		<polygon class="st2" points="66.7,-158.9 51.3,-174.8 51.3,-66 66.7,-66 		"/>
		<polygon class="st45" points="-34.7,-158.9 -19.3,-174.8 -3.9,-158.9 -3.9,-66 -34.7,-66 		"/>
		<polygon class="st2" points="-3.9,-158.9 -19.3,-174.8 -19.3,-66 -3.9,-66 		"/>
		<rect x="-34.5" y="-131" class="st46" width="171.7" height="13.2"/>
		<rect x="-34.5" y="-124.3" class="st47" width="171.7" height="6.6"/>
		<rect x="-34.5" y="-101.1" class="st46" width="171.7" height="13.2"/>
		<rect x="-34.5" y="-94.5" class="st47" width="171.7" height="6.6"/>
	</g>
	<g class="st0">
		<g class="st5">
			<path class="st48" d="M257.2,154.9c5-20.7,32.6-53.9,51.1-57.9c-8.1,9.5-23.7,39.3-26.3,57.9H257.2z"/>
			<path class="st49" d="M273.1,154.9h8.9c2.6-18.7,18.2-48.4,26.3-57.9C296.3,106,277.7,122.2,273.1,154.9z"/>
		</g>
		<g class="st5">
			<path class="st50" d="M279.8,154.9c-5-20.7-33.8-52.1-52.3-56.2c8.1,9.5,24.8,37.5,27.5,56.2H279.8z"/>
			<path class="st49" d="M227.6,98.7c8.1,9.5,24.8,37.5,27.5,56.2h14.5C265.3,136.5,242.8,110.5,227.6,98.7z"/>
		</g>
		<path class="st51" d="M273.7,154.9c5-20.7,33.2-48.8,52.1-48.2c-10.2,7.2-24.7,29.5-27.3,48.2H273.7z"/>
		<g class="st5">
			<path class="st52" d="M270.3,154.9c-5-20.7-38.3-44-57.2-43.3c10.2,7.2,29.8,24.7,32.4,43.3H270.3z"/>
			<path class="st49" d="M213.1,111.6c10.2,7.2,29.8,24.7,32.4,43.3h12.4C248.2,126.1,220.8,114.9,213.1,111.6z"/>
		</g>
		<path class="st2" d="M286.3,154.9h12.3c2.6-18.7,17.1-41,27.3-48.2C311.8,113.5,292.1,131.9,286.3,154.9z"/>
	</g>
	<g class="st0">
		<g class="st5">
			<path class="st48" d="M301.5,154.9c5-20.7,32.6-53.9,51.1-57.9c-8.1,9.5-23.7,39.3-26.3,57.9H301.5z"/>
			<path class="st49" d="M317.4,154.9h8.9c2.6-18.7,18.2-48.4,26.3-57.9C340.6,106,322,122.2,317.4,154.9z"/>
		</g>
		<g class="st5">
			<path class="st50" d="M324.1,154.9c-5-20.7-33.8-52.1-52.3-56.2c8.1,9.5,24.8,37.5,27.5,56.2H324.1z"/>
			<path class="st49" d="M271.8,98.7c8.1,9.5,24.8,37.5,27.5,56.2h14.5C309.5,136.5,287,110.5,271.8,98.7z"/>
		</g>
		<path class="st51" d="M318,154.9c5-20.7,33.2-48.8,52.1-48.2c-10.2,7.2-24.7,29.5-27.3,48.2H318z"/>
		<g class="st5">
			<path class="st52" d="M314.6,154.9c-5-20.7-38.3-44-57.2-43.3c10.2,7.2,29.8,24.7,32.4,43.3H314.6z"/>
			<path class="st49" d="M257.4,111.6c10.2,7.2,29.8,24.7,32.4,43.3h12.4C292.4,126.1,265,114.9,257.4,111.6z"/>
		</g>
		<path class="st2" d="M330.5,154.9h12.3c2.6-18.7,17.1-41,27.3-48.2C356,113.5,336.3,131.9,330.5,154.9z"/>
	</g>
	<g class="st0">
		<g class="st5">
			<path class="st48" d="M370.2,154.9c-5-20.7-32.6-53.9-51.1-57.9c8.1,9.5,23.7,39.3,26.3,57.9H370.2z"/>
			<path class="st49" d="M354.4,154.9h-8.9c-2.6-18.7-18.2-48.4-26.3-57.9C331.1,106,349.7,122.2,354.4,154.9z"/>
		</g>
		<g class="st5">
			<path class="st50" d="M347.6,154.9c5-20.7,33.8-52.1,52.2-56.2c-8.1,9.5-24.8,37.5-27.5,56.2H347.6z"/>
			<path class="st49" d="M399.9,98.7c-8.1,9.5-24.8,37.5-27.5,56.2h-14.5C362.2,136.5,384.7,110.5,399.9,98.7z"/>
		</g>
		<path class="st51" d="M353.7,154.9c-5-20.7-33.2-48.8-52.1-48.2c10.2,7.2,24.7,29.5,27.3,48.2H353.7z"/>
		<g class="st5">
			<path class="st52" d="M357.1,154.9c5-20.7,38.3-44,57.2-43.3c-10.2,7.2-29.8,24.7-32.4,43.3H357.1z"/>
			<path class="st49" d="M414.4,111.6c-10.2,7.2-29.8,24.7-32.4,43.3h-12.4C379.3,126.1,406.7,114.9,414.4,111.6z"/>
		</g>
		<path class="st2" d="M341.2,154.9h-12.3c-2.6-18.7-17.1-41-27.3-48.2C315.7,113.5,335.4,131.9,341.2,154.9z"/>
	</g>
	<g class="st0">
		<g class="st5">
			<path class="st48" d="M390,154.9c5-20.7,32.6-53.9,51.1-57.9c-8.1,9.5-23.7,39.3-26.3,57.9H390z"/>
			<path class="st49" d="M405.9,154.9h8.9c2.6-18.7,18.2-48.4,26.3-57.9C429.1,106,410.5,122.2,405.9,154.9z"/>
		</g>
		<g class="st5">
			<path class="st50" d="M412.6,154.9c-5-20.7-33.8-52.1-52.3-56.2c8.1,9.5,24.8,37.5,27.5,56.2H412.6z"/>
			<path class="st49" d="M360.4,98.7c8.1,9.5,24.8,37.5,27.5,56.2h14.5C398,136.5,375.5,110.5,360.4,98.7z"/>
		</g>
		<path class="st51" d="M406.5,154.9c5-20.7,33.2-48.8,52.1-48.2c-10.2,7.2-24.7,29.5-27.3,48.2H406.5z"/>
		<g class="st5">
			<path class="st52" d="M403.1,154.9c-5-20.7-38.3-44-57.2-43.3c10.2,7.2,29.8,24.7,32.4,43.3H403.1z"/>
			<path class="st49" d="M345.9,111.6c10.2,7.2,29.8,24.7,32.4,43.3h12.4C381,126.1,353.6,114.9,345.9,111.6z"/>
		</g>
		<path class="st2" d="M419,154.9h12.3c2.6-18.7,17.1-41,27.3-48.2C444.5,113.5,424.8,131.9,419,154.9z"/>
	</g>
</g>
</svg>
