<svg id="Layer_1" data-name="Layer 1" xmlns="http://www.w3.org/2000/svg" viewBox="0 0 391.4 391.4"><defs><style>.cls-1{fill:#e0e0e0;}.cls-2{fill:#29295b;}</style></defs><title>1452103524_Arrow_Direction_Move_Back_Left_Previous</title><rect class="cls-1" x="49.7" y="121.59" width="291" height="147"/><path id="_Tracé_transparent_" data-name="&lt;Tracé transparent&gt;" class="cls-2" d="M60.3,256c0,108.1,87.6,195.7,195.7,195.7S451.7,364.1,451.7,256,364.1,60.3,256,60.3,60.3,147.9,60.3,256Zm155.1-57.1V233q50.85-2.7,101.7-5.5c9.8-.5,19.6-1.2,29.5-1.8,15.3-1,28.9,8.5,32.4,22.7a30.32,30.32,0,0,1-17.1,35.3,32,32,0,0,1-15.3,2.6l-45.4-2.7c-23.7-1.4-47.3-2.7-71-4-4.9-.3-9.9-0.5-14.9-0.7v34.3a9.85,9.85,0,0,1-16.1,7.6l-8.1-5.7a496,496,0,0,1-58-48.4l-0.3-.3a13.21,13.21,0,0,1,0-20.5,490.76,490.76,0,0,1,58.6-49l7.8-5.5A9.85,9.85,0,0,1,215.4,198.9Z" transform="translate(-60.3 -60.3)"/></svg>