<svg id="Objects" xmlns="http://www.w3.org/2000/svg" viewBox="0 0 629.14 558"><defs><style>.cls-1{fill:#29295b;}.cls-2{fill:#4c3f24;}.cls-3{fill:#f7f8f9;}.cls-4{fill:#ffe2ca;}.cls-5{fill:#7c5015;}.cls-6{fill:#c18e67;}.cls-7{fill:#e07373;}.cls-8{fill:#601513;}.cls-9{fill:#eabb9b;}.cls-10{fill:#244463;}.cls-11{fill:#633d0f;}.cls-12{fill:#4185aa;}.cls-13{fill:#75b6ea;}.cls-14{fill:#cadbe8;}.cls-15{fill:#fff;}.cls-16{fill:#1b7f8c;}.cls-17{fill:#545454;}.cls-18{fill:#bfbfbf;}.cls-19{fill:#5e5e5e;}.cls-20{fill:#51341f;}.cls-21{fill:#366070;}.cls-22{fill:#edeeef;}.cls-23{fill:#3d2f26;}.cls-24{fill:#ccc;}.cls-25{fill:#f4d4bd;}.cls-26{fill:#422707;}.cls-27{fill:#32c3d6;}.cls-28{fill:#209ba5;}</style></defs><title>Cartoon_doctors</title><ellipse class="cls-1" cx="129.48" cy="538.8" rx="129.48" ry="17.86"/><path d="M268.76,608.49a20.81,20.81,0,0,0,11.32,7.4c7.83,2.18,23.07-.87,23.94,12.19,0,0-10.45,5.22-33.08,0,0,0-7.83,2.18-13.06,0,0,0-1.31-11.75,0-17.41S268.76,608.49,268.76,608.49Z" transform="translate(-91.14 -90.26)"/><path d="M169.95,610.11a21.08,21.08,0,0,1-11.44,7.72c-7.92,2.27-23.32-.91-24.2,12.72,0,0,10.56,5.45,33.43,0,0,0,7.92,2.27,13.2,0,0,0,1.32-12.27,0-18.17S169.95,610.11,169.95,610.11Z" transform="translate(-91.14 -90.26)"/><path class="cls-2" d="M195.91,528.85s-9.19,60.06-11.25,67c0,0,1.42,6.53,1.85,10.88s-1.85,3.92-1.85,3.92l-2.5,7A50.11,50.11,0,0,1,162,615.46a28.1,28.1,0,0,0,0-8.27c-0.71-3.92,3.64-8.27,4.94-10s-1.74-3,0-5.66,4.35-57,4.79-62.67S195.91,528.85,195.91,528.85Z" transform="translate(-91.14 -90.26)"/><path class="cls-2" d="M263.54,520.14s4.79,63.11,5.66,67.46,6.09,3,3,9.57c0,0,2.32,8.7.94,14.36A67.09,67.09,0,0,1,257.88,614s-6.53-4.59-2.18-10.68c-2.18-5.22-4.79-10.45-4.35-14.36s-9.84-41.78-13-60.93" transform="translate(-91.14 -90.26)"/><path class="cls-3" d="M213.46,306.58s14.91,1.74,19.26,1.74,16.28,48.74,17.93,57-2.35,17.41-2.35,17.41,25.69,114.9,27,150.58l-43,6.09v4.35s-57.11,3.48-89.75-7.83c0,0,19.84-163.21,17.36-192.36s3.79-30.2,11.32-32.29,20.12-3.4,22.31-3S213.46,306.58,213.46,306.58Z" transform="translate(-91.14 -90.26)"/><path class="cls-3" d="M224.61,307.76s15.94,0.76,39-6.52,64-31,90.52-96c0,0,22.2,6.26,30.9,3.95,0,0-28.08,102.1-149.17,115.61Z" transform="translate(-91.14 -90.26)"/><path class="cls-3" d="M171.23,311.28s-56.45,11.4-73.86,65.37,28.81,69,28.81,69,13.79-4.23,14.63-22.07c0,0-63.56-32.25,21-87.85C161.78,335.73,191.12,322.51,171.23,311.28Z" transform="translate(-91.14 -90.26)"/><path class="cls-4" d="M215.3,291.5s-0.64,16.22,2.25,19.78c0,0-8.58,18.15-23.62,6.73-9.52-4.68-3-11.6-3-11.6s0.91-11.44-.81-19.11S207.78,277.25,215.3,291.5Z" transform="translate(-91.14 -90.26)"/><path class="cls-5" d="M271.38,173.23s30.35,28.7-5.29,60.6S244.56,160,271.38,173.23Z" transform="translate(-91.14 -90.26)"/><path class="cls-5" d="M141.87,237.42s-2.82,15.1,3.18,21.9,15.53,12.46,23.29,8.68S162,239.69,162,239.69Z" transform="translate(-91.14 -90.26)"/><path class="cls-4" d="M262.91,181.92s15.17,80.42-11.29,97.79-60.34,15.86-78.34,0-20.11-48-17.64-72.12S234,145.23,262.91,181.92Z" transform="translate(-91.14 -90.26)"/><path d="M185.1,212.9s5.24-7.19,13.71-6.81,9.53,9.06,9.53,9.06-7.15-5.93-11.62-5.9C190.57,209.29,185.1,212.9,185.1,212.9Z" transform="translate(-91.14 -90.26)"/><ellipse cx="102.02" cy="122.65" rx="4.93" ry="5.27"/><path d="M236.26,212.17s5.24-7.19,13.71-6.81,9.53,9.06,9.53,9.06-7.15-5.93-11.62-5.9C241.73,208.56,236.26,212.17,236.26,212.17Z" transform="translate(-91.14 -90.26)"/><ellipse cx="153.19" cy="121.91" rx="4.93" ry="5.27"/><path class="cls-6" d="M228.32,213.65s0.35,8.67,2.47,11.69c0,0,8.47-2.47,7.76,3.49s-10.23,3.31-10.23,3.31,11.87,6.41,13.06-3.55-6.35-6.48-9.53-4.67C231.85,223.91,228.92,218.17,228.32,213.65Z" transform="translate(-91.14 -90.26)"/><path class="cls-7" d="M182.68,259.61c4.55,10.06,13.73,22.2,31.18,20a37.65,37.65,0,0,0,4.12-.78C213.74,253,191.82,256.81,182.68,259.61Z" transform="translate(-91.14 -90.26)"/><path class="cls-8" d="M249.05,242.31c-26-.69-70.39,4.84-70.39,4.84a57,57,0,0,0,4,12.46c9.15-2.79,31.07-6.6,35.3,19.19C243.48,272.61,249.05,242.31,249.05,242.31Z" transform="translate(-91.14 -90.26)"/><ellipse class="cls-9" cx="89.47" cy="145.09" rx="9.95" ry="5.1"/><ellipse class="cls-9" cx="164.88" cy="143.58" rx="6.89" ry="3.59"/><path class="cls-5" d="M150.69,220.43s38.46-20,55.75-42.67c0,0-15.88,28.31,28.94-6,0,0-22.23,27.56,8.47,18.12s48-14,48-23.79-22.76-36.31-55.93-24.61c0,0-7.76-20.39-63.17,5.29,0,0-16.06,2.33-30.88,30.27S142.22,220.81,150.69,220.43Z" transform="translate(-91.14 -90.26)"/><path class="cls-4" d="M160.57,220.44s-1.41-8.31-12-8.31-12.7,13.59-12.7,18.5S139.8,246,149.63,245,160.22,234.41,160.57,220.44Z" transform="translate(-91.14 -90.26)"/><ellipse class="cls-10" cx="59.09" cy="149.32" rx="3.07" ry="3.29"/><path class="cls-6" d="M153.31,228.58s-4.65-13.44-12.11-2.87C141.21,225.72,147.8,220.11,153.31,228.58Z" transform="translate(-91.14 -90.26)"/><path class="cls-6" d="M147.26,233.83s-4.89-8,3-9.93C150.24,223.91,139.94,221.94,147.26,233.83Z" transform="translate(-91.14 -90.26)"/><path class="cls-11" d="M236.26,193.25s16.06-7.15,23.24,6.42C259.5,199.66,253.38,191,236.26,193.25Z" transform="translate(-91.14 -90.26)"/><path class="cls-11" d="M204.33,191.36s-17.64-6.42-26.47,8.3C177.86,199.66,188.45,189.1,204.33,191.36Z" transform="translate(-91.14 -90.26)"/><path class="cls-12" d="M188.77,308.32s8.84,11.7,18.13,11.51a10.62,10.62,0,0,0,10.66-8.55l2.1,2.79s2.18,46.14,0,60.94-8.69-7.94-8.69-7.94-26.11-51.79-26.55-55.27C186.59,311.28,188.77,308.32,188.77,308.32Z" transform="translate(-91.14 -90.26)"/><path class="cls-13" d="M190.93,326.51l9.5,9.23s5.88-10.93,6.46-15.91c0,0-15.08-8-18.13-11.51l-4.35,3.48Z" transform="translate(-91.14 -90.26)"/><path class="cls-13" d="M217.55,311.28h2.1v22.93s-8.56-12.9-10.68-14.59C209,319.63,215.88,315.11,217.55,311.28Z" transform="translate(-91.14 -90.26)"/><path class="cls-4" d="M147,444.75s-5.12,11.75-14.58,8.05c-10.57-4.13-26.77-16.76-13.06-24.59,0,0-2.34-8.49,12.87-12.4,0,0,1.33-10.45,6-15.67s8.66-3.26,7,6.53-1.83,19.58,3.14,22.85c0,0,8.41-3.26,11.59-6.53s10.36,0,5.13,6.53a32.26,32.26,0,0,1-11.62,9.14S153.26,441.49,147,444.75Z" transform="translate(-91.14 -90.26)"/><path class="cls-6" d="M121.53,427.56s11.32,0.65,13.49,7.83-4.79,6.75-9.79,5.66-8.92-1.52-8.92-1.52a13.94,13.94,0,0,1,7-1.31c3.48,0.44,12.37,1.53,9.14-3.61S121.53,427.56,121.53,427.56Z" transform="translate(-91.14 -90.26)"/><path class="cls-6" d="M133.93,416.24s6.78,1.72,9.36,6.09-0.25,7.78-7.86,7.18-6,.07-6,0.07,1-2,6-2,7.58-1.52,5-5.66A14.81,14.81,0,0,0,133.93,416.24Z" transform="translate(-91.14 -90.26)"/><path class="cls-6" d="M136.75,439.12S147,433.44,147,443.66C147,443.66,145.18,438.47,136.75,439.12Z" transform="translate(-91.14 -90.26)"/><path class="cls-14" d="M188.77,308.32s-20.89,10.88-32.21,25c0,0,36.18,10.64,42.68,10.22,0,0-14,15.24-17,21.77,0,0,29.78,7.83,36.32,18.39C218.56,383.72,195.66,324.85,188.77,308.32Z" transform="translate(-91.14 -90.26)"/><path class="cls-15" d="M188.77,308.32s-17.54,9.79-28.85,23.94c0,0,32.83,11.73,39.33,11.31,0,0-11.84,13.5-14.85,20,0,0,27.63,9.57,34.18,20.13C218.56,383.72,195.66,324.85,188.77,308.32Z" transform="translate(-91.14 -90.26)"/><path class="cls-14" d="M216.34,306.9s-0.47,27.53.13,43.63,2.1,33.19,2.1,33.19,12.74-33.84,19.17-43.42l-14.49-4.57s14.05-9.79,18.84-15.89C242.08,319.85,223.39,311.34,216.34,306.9Z" transform="translate(-91.14 -90.26)"/><path class="cls-15" d="M216.34,306.9s-0.47,27.53.13,43.63,2.1,33.19,2.1,33.19,10.89-33.19,17.31-42.76l-12.63-5.22s12.09-9.4,16.88-15.49C240.12,320.24,223.39,311.34,216.34,306.9Z" transform="translate(-91.14 -90.26)"/><path class="cls-10" d="M217.55,387.09s14,104.45,14.75,147.1C232.3,534.19,228.14,411,217.55,387.09Z" transform="translate(-91.14 -90.26)"/><ellipse class="cls-10" cx="139.72" cy="347.29" rx="2.73" ry="3.34"/><ellipse class="cls-10" cx="142.45" cy="372.41" rx="2.73" ry="3.48"/><path class="cls-4" d="M354.15,205.27s-8.27-14.83-6.15-19.4,9-3.11,11.91-3.76c0,0-5.39-32.64,3.92-33.62s8,24.32,8,24.32,18.28,2,22,7.51-4.73,12.57-4.73,12.57,0.25,13.21-5.1,16.56S358,210.48,354.15,205.27Z" transform="translate(-91.14 -90.26)"/><path class="cls-6" d="M361.87,181.94s13.55-2.45,13.87,2.77-8.16,7-8.16,7,7.34,3.06,4.9,9.44c0,0-1.31-10.1-10.61-8.63,0,0,12.73-2.61,11.75-7.83S361.87,181.94,361.87,181.94Z" transform="translate(-91.14 -90.26)"/><path class="cls-6" d="M374.4,178.09s-0.33,11.49,5.39,13.66a17.7,17.7,0,0,0,10,1.06s-6.84,2.49-10.77.29S372.77,185.76,374.4,178.09Z" transform="translate(-91.14 -90.26)"/><path class="cls-14" d="M156.56,473.26L198,477.83s-1.9,22.3-2.32,27.09S169.68,518,165.37,518s-11.24-12.84-13.76-15S156.56,473.26,156.56,473.26Z" transform="translate(-91.14 -90.26)"/><path class="cls-3" d="M156.56,475.07l39.1,3.85s-1.69,20.89-2.11,25.68-23.14,10.88-27.45,10.88-10.14-9.57-12.66-11.75S156.56,475.07,156.56,475.07Z" transform="translate(-91.14 -90.26)"/><path class="cls-14" d="M240.12,475.07s20.47-.09,20.48,0,6.69,22.59,3.33,29.54a41.66,41.66,0,0,0-4.73,5.64c-1.68,2.61-17.13.83-17.13,0.83Z" transform="translate(-91.14 -90.26)"/><path class="cls-3" d="M242.08,477.18s18.51-2.19,18.52-2.11,6.69,22.59,3.33,29.54a41.66,41.66,0,0,0-4.73,5.64c-1.68,2.61-15.94-1.74-15.94-1.74Z" transform="translate(-91.14 -90.26)"/><path class="cls-16" d="M215.72,304.83a30.35,30.35,0,0,1,11,20c1.33,12.9,1.08,27.66,4.13,33.86s5.71,4.73,2.73-1.31-1.66-23.36-2.73-32.56-7.83-22.15-15.45-23.36Z" transform="translate(-91.14 -90.26)"/><path class="cls-16" d="M191.11,302.89s-13.54,4.64-16.9,18.88,4.21,36.26,6.17,43.44c0,0,3.05,2,1.85-1.63s-9-31.72-4.92-41.81,10.45-14.46,13.61-15.37C190.93,306.4,192.7,304.55,191.11,302.89Z" transform="translate(-91.14 -90.26)"/><path class="cls-16" d="M177.32,397.32s-14.62-26.79,4.83-31.57,16.68,27.37,16.68,27.37l-5.71.82s-2,3.5,0,3.38,8.68,0.86,9.4-1.42,3.67-38.36-20.56-33.21c-22.64,4.81-10.67,33.87-7.43,38.11,0,0,7-1,8-2.28S181.61,396.26,177.32,397.32Z" transform="translate(-91.14 -90.26)"/><path class="cls-17" d="M227.13,359.83c1.36-4.52,7.44-10.6,13-8.64s5.88,8.49,2,18S222.67,374.72,227.13,359.83Z" transform="translate(-91.14 -90.26)"/><path class="cls-18" d="M228.94,360.87c1.36-4.52,7.44-10.6,13-8.64s5.88,8.49,2,18S224.48,375.77,228.94,360.87Z" transform="translate(-91.14 -90.26)"/><path class="cls-19" d="M232.86,362.14c0.72-2.41,4-5.65,6.92-4.6s3.13,4.52,1,9.56S230.48,370.08,232.86,362.14Z" transform="translate(-91.14 -90.26)"/><ellipse class="cls-1" cx="499.61" cy="540.14" rx="129.48" ry="17.86"/><path class="cls-20" d="M637.43,601.09s5.88,7.11,17.63,9.92,16.32,5.41,17,12.59,0,10.45,0,10.45-45,1.16-58.1-6.61c0,0,1.7-19.47,1.51-26.36h22Z" transform="translate(-91.14 -90.26)"/><path class="cls-20" d="M531.79,598.81s-5.88,7.11-17.63,9.92-16.32,5.41-17,12.59,0,10.45,0,10.45,45,1.16,58.1-6.61c0,0-1.7-19.47-1.51-26.36h-22Z" transform="translate(-91.14 -90.26)"/><path class="cls-21" d="M538.85,487.82s2,46.35,0,64-1.3,27.42-2.93,32.64-5.69,5-4.32,13.9c0,0,14.09,2.44,21.44,2.75a141,141,0,0,0,4.09-14.7c1.31-6.53,1.57-24.47,4-41.94s4.9-46.23,4.9-46.23Z" transform="translate(-91.14 -90.26)"/><path class="cls-21" d="M643.66,493.7s-0.67,48.84-1.17,61.63-2.78,29.76-2.29,33.68c0,0,4.59,5-.07,9.33l0.07,5.87s-20.4,2.8-26.27,0c0,0,1.7-9.33,1.51-15.86s2.41-23.62,3.06-33-0.67-53.8,0-61.63S643.66,493.7,643.66,493.7Z" transform="translate(-91.14 -90.26)"/><path class="cls-22" d="M637.07,256.07c17.31,7.43-12,63.06-5.78,80.16s48.56,59.31,48.56,59.31S667.41,412.73,664.56,411s-42.87-29.11-50-68.29S617.61,247.72,637.07,256.07Z" transform="translate(-91.14 -90.26)"/><path class="cls-23" d="M720.28,409.39s-34.59-55.66-36.14-57.18l-57.77,47.92,28,45.09S716.16,410.58,720.28,409.39Z" transform="translate(-91.14 -90.26)"/><polygon class="cls-15" points="613.73 316.16 568.62 344.28 545.92 313.28 589.71 276.43 613.73 316.16"/><polygon class="cls-24" points="615.25 304.94 607.64 312.47 590.51 286.64 599.96 281.78 615.25 304.94"/><path class="cls-24" d="M698.61,387.88s14.65,2.1,12.63-5.64-8.55-13.9-16.45,1.44Z" transform="translate(-91.14 -90.26)"/><path class="cls-25" d="M703,425.08c4.78-2.86-3.57-18.93-10.88-16.85S698.26,427.95,703,425.08Z" transform="translate(-91.14 -90.26)"/><path class="cls-25" d="M696,431.09c4.78-2.86-3.57-18.93-10.88-16.85S691.22,434,696,431.09Z" transform="translate(-91.14 -90.26)"/><path class="cls-25" d="M687.52,434.72c4.78-2.86-3.57-18.93-10.88-16.85S682.74,437.58,687.52,434.72Z" transform="translate(-91.14 -90.26)"/><path class="cls-3" d="M580.87,252.89s-18.89-3.64-25.37-1.82-11.2,56.79-12.5,78.12S525.06,461.3,519,495.1c0,0,36.63,13.61,78.41,13.61l2.61-5.66s42.22,0.44,65.28-5.66c0,0-13.49-100.53-18.71-133.18S638.73,268,637,261.07s-33.44-8.19-33.44-8.19H580.87Z" transform="translate(-91.14 -90.26)"/><path class="cls-26" d="M541.38,175.73s-14-29.08-3.48-48.8c0,0-9.56-18.72-6.55-24.06,1.56-2.67,8.47,8,11.82,6.68-1.29-7.8,2.44-17.1,7.12-18.77,3.76-1.73,8.69,8.52,12.81,7.41,2-.67,8.69-5,19.38-3.68s23.4,6,23.4,6,9.69-4.34,14-3.68,26.4,11.7,31.08,18c0,0,3.68-4,6.68-4.34s-3,7-3,7,8,3.34,11.36,9.36-5.41,1.67-5.41,1.67,12.43,26.74-12.31,54.81-52.81,24.06-62.83,17.71S541.38,175.73,541.38,175.73Z" transform="translate(-91.14 -90.26)"/><path class="cls-3" d="M561.18,251.78s-13.66,1.78-32.41-6.52c-36.27-16.06-57.32-66.45-62.72-98.19,0,0-18.44,6.26-25.67,3.95,0,0,31.07,115,111.44,117.84Z" transform="translate(-91.14 -90.26)"/><path class="cls-4" d="M466.05,147.07s6.87-14.83,5.11-19.4-7.46-3.11-9.9-3.76c0,0,4.47-32.64-3.25-33.62s-6.64,24.32-6.64,24.32-15.19,2-18.3,7.51S437,134.68,437,134.68s-0.2,13.21,4.24,16.56S462.84,152.28,466.05,147.07Z" transform="translate(-91.14 -90.26)"/><path class="cls-6" d="M459.63,123.74s-11.25-2.45-11.52,2.77,6.78,7,6.78,7-6.1,3.06-4.07,9.44c0,0,1.08-10.1,8.81-8.63,0,0-10.58-2.61-9.76-7.83S459.63,123.74,459.63,123.74Z" transform="translate(-91.14 -90.26)"/><path class="cls-6" d="M449.64,117.16s0.27,11.49-4.47,13.66a12.37,12.37,0,0,1-8.27,1.06s5.68,2.49,8.95.29S451,124.83,449.64,117.16Z" transform="translate(-91.14 -90.26)"/><path class="cls-25" d="M543.84,126.93s30.53,21.61,29.86,6.91c0,0,21.17,12.25,38.32,1.34,0,0,3.12,9.8,13.15,8.91,0,0,5.12,6.91,7.13,8.69s-6.91,34.76-6.91,34.76,9.8,3.12,10.92,3.56,3.12-13.37,17.16-11.14,4.9,35.43-5.35,33.42-11.59-8.91-11.59-8.91-0.75,34.07-6.46,40.33c-4.68,5.12-62.5,6.19-82.44-2.23S544.95,141.63,543.84,126.93Z" transform="translate(-91.14 -90.26)"/><path class="cls-6" d="M565.78,169.37s3.39,8.53,0,13.37-12,16.38-12.7,18.38,8.69,5.68,11.7,6-16.38,1-16.71-5.68,14.37-15.71,16-20.05S565.78,169.37,565.78,169.37Z" transform="translate(-91.14 -90.26)"/><path class="cls-7" d="M576.82,236.86a16.82,16.82,0,0,0,6.23-.09c10.64-2.13,16.39-12.46,19.18-19.7C596.53,218.72,581.44,224.2,576.82,236.86Z" transform="translate(-91.14 -90.26)"/><path class="cls-8" d="M556.54,217.84s7.39,16.79,20.28,19c4.62-12.67,19.71-18.14,25.41-19.79a49.37,49.37,0,0,0,2.21-7.26C589.29,213.38,556.54,217.84,556.54,217.84Z" transform="translate(-91.14 -90.26)"/><path class="cls-6" d="M599.76,204.58s4.94,8,12.63,4.36C612.39,208.94,602.84,216.6,599.76,204.58Z" transform="translate(-91.14 -90.26)"/><path d="M581.83,175.06a18.15,18.15,0,0,1,13.2-5.68c8.69-.17,11.53,5.68,11.53,5.68S597,168.94,581.83,175.06Z" transform="translate(-91.14 -90.26)"/><circle cx="508.13" cy="87.14" r="6.02"/><path d="M543.17,173a15.63,15.63,0,0,1,11.62-5.35c7.65-.16,10.15,5.35,10.15,5.35S556.57,167.24,543.17,173Z" transform="translate(-91.14 -90.26)"/><circle cx="466.94" cy="84.95" r="5.66"/><path class="cls-26" d="M581.83,161.52s11.7-2,15.88-1.34,8.86,4.51,8.86,4.51-5.85-8-14.37-8.86S581.83,161.52,581.83,161.52Z" transform="translate(-91.14 -90.26)"/><path class="cls-26" d="M563.75,160.35s-5.8-8.25-13.84-4.51c-4.32,2-8,8.19-8,8.19s3.34-5.4,12.17-5S563.75,160.35,563.75,160.35Z" transform="translate(-91.14 -90.26)"/><path class="cls-6" d="M639.87,197.12s4.46-9.5,10-8.76,7.58,8.54,6.24,11.88c0,0-1.16-10.54-6.68-9.8S641.87,194.22,639.87,197.12Z" transform="translate(-91.14 -90.26)"/><path class="cls-6" d="M645.88,202.46s4-5.66,0-11.08l-2.7,1.71A8.5,8.5,0,0,1,645.88,202.46Z" transform="translate(-91.14 -90.26)"/><path class="cls-27" d="M606.08,256.07a55.4,55.4,0,0,1,0,13.38c-1,5.88.43,48,.43,48l-0.43,22.2s-17.61-43.74-22.51-55.82-1.63-24.56-1.63-24.56l1.37-3.19h22.77Z" transform="translate(-91.14 -90.26)"/><path class="cls-25" d="M609,247.58s-1.86,12.4-3.42,15-16.58,6.2-20.17,0,1.47-17.3,1.47-17.3Z" transform="translate(-91.14 -90.26)"/><path class="cls-28" d="M604.26,268.1s-5.35,9.18-19.06,3C585.2,271.08,598.51,280.79,604.26,268.1Z" transform="translate(-91.14 -90.26)"/><path class="cls-10" d="M606.51,343.76s1.54,117.07-4.66,154.5C601.85,498.27,614.32,401.21,606.51,343.76Z" transform="translate(-91.14 -90.26)"/><path class="cls-14" d="M607.76,252.89s16.29,12.65,21.18,14.28c0,0-13.84,3.92-20,7.51,0,0,14.92,15.34,21.12,17.3,0,0-20.43,33.62-24,47.66C606.08,339.63,599.4,282.31,607.76,252.89Z" transform="translate(-91.14 -90.26)"/><path class="cls-15" d="M607.76,252.89s13.35,12,18.25,13.63a186.25,186.25,0,0,0-17,8.16S621.11,290,627.31,292c0,0-17.65,33.62-21.23,47.66C606.08,339.63,599.4,282.31,607.76,252.89Z" transform="translate(-91.14 -90.26)"/><path class="cls-14" d="M585,250.38s-0.44,20.05,4.46,37,16.63,52.23,16.63,52.23-50.43-40.39-56.45-43.37c0,0,23.1-13.5,29.94-18.65,0,0-21-7.18-27.65-13.87C551.91,263.74,578.63,251.26,585,250.38Z" transform="translate(-91.14 -90.26)"/><path class="cls-15" d="M585,250.38s-0.44,20.05,4.46,37,16.63,52.23,16.63,52.23-47-40.39-53-43.37c0,0,19.68-13.5,26.52-18.65,0,0-19.16-8.16-24.71-13.06C554.84,264.56,578.63,251.26,585,250.38Z" transform="translate(-91.14 -90.26)"/><path class="cls-14" d="M591.89,415.52s-35.42-.1-55-1.14c0,0-2.61,23.34-2,30.19s21.71,17,26.28,18.93,22-10.61,26.44-14.53S591.89,415.52,591.89,415.52Z" transform="translate(-91.14 -90.26)"/><path class="cls-3" d="M590.75,416.4s-33.62,1-53.2,0c0,0-2.28,21.15-1.63,28s20.23,14.69,24.8,16.65,21.11-8.49,25.57-12.4S590.75,416.4,590.75,416.4Z" transform="translate(-91.14 -90.26)"/><path class="cls-14" d="M654.94,414.38s-13.76-.92-15.07,0,1.23,32.8,2.94,36.07,17,6.84,17,6.84S657.12,422.44,654.94,414.38Z" transform="translate(-91.14 -90.26)"/><path class="cls-3" d="M654.94,414.38s-12.29,1.1-13.6,2,0.83,30,2.54,33.23,16,7.66,16,7.66S657.12,422.44,654.94,414.38Z" transform="translate(-91.14 -90.26)"/><ellipse class="cls-10" cx="528.8" cy="294.11" rx="3.12" ry="3.57"/><ellipse class="cls-10" cx="528.8" cy="334.29" rx="3.12" ry="4.09"/><path class="cls-16" d="M608.35,252.77a30.35,30.35,0,0,1,9.89,20.58c0.62,13-.46,27.68,2.24,34s5.44,5,2.79-1.15-0.36-23.41-.91-32.66S615.78,251,608.24,249.4Z" transform="translate(-91.14 -90.26)"/><path class="cls-16" d="M583.89,249.47s-13.78,3.88-17.92,17.91,2.19,36.44,3.75,43.72c0,0,2.94,2.13,1.94-1.53s-7.19-32.17-2.59-42S580.3,253.7,583.52,253C583.52,253,585.38,251.21,583.89,249.47Z" transform="translate(-91.14 -90.26)"/><path class="cls-16" d="M564.87,343s-13.11-27.57,6.58-31.25S586.58,340,586.58,340l-5.75.5s-2.15,3.38-.19,3.37,8.62,1.34,9.46-.9,5.79-38.1-18.68-34.31c-22.87,3.54-12.53,33.22-9.53,37.64,0,0,7-.59,8.15-1.83S569.22,342.16,564.87,343Z" transform="translate(-91.14 -90.26)"/><path class="cls-17" d="M616.69,308.31c1.6-4.44,8-10.17,13.45-7.91s5.39,8.8,1,18S611.41,322.94,616.69,308.31Z" transform="translate(-91.14 -90.26)"/><path class="cls-18" d="M618.44,309.46c1.6-4.44,8-10.17,13.45-7.91s5.39,8.8,1,18S613.15,324.08,618.44,309.46Z" transform="translate(-91.14 -90.26)"/><path class="cls-19" d="M622.28,310.94c0.85-2.36,4.27-5.42,7.16-4.21s2.87,4.69.51,9.61S619.47,318.73,622.28,310.94Z" transform="translate(-91.14 -90.26)"/></svg>