<?xml version="1.0" encoding="utf-8"?>
<!-- Generator: Adobe Illustrator 19.0.0, SVG Export Plug-In . SVG Version: 6.00 Build 0)  -->
<svg version="1.1" id="objects" xmlns="http://www.w3.org/2000/svg" xmlns:xlink="http://www.w3.org/1999/xlink" x="0px" y="0px"
	 viewBox="-49 167.9 495.7 507" style="enable-background:new -49 167.9 495.7 507;" xml:space="preserve">
<style type="text/css">
	.st0{fill:#E6E7E8;}
	.st1{fill:#D0D2D3;}
	.st2{fill:#DADAD8;}
	.st3{fill:#6D6E70;}
	.st4{fill:#BBBDBF;}
	.st5{fill:#58595B;}
	.st6{fill:#FBD2C0;}
	.st7{fill:#FABBA1;}
	.st8{fill:#A15641;}
	.st9{fill:#FBCDBB;}
	.st10{fill:#FBC9B4;}
	.st11{fill:#F9B397;}
	.st12{fill:#EFEDED;}
	.st13{fill:#808184;}
	.st14{fill:#A6A8AB;}
	.st15{fill:#C7CCD0;}
	.st16{fill:#CECECF;}
	.st17{fill:#C1C2C2;}
	.st18{fill:#9B9DA0;}
	.st19{fill:#929497;}
	.st20{fill:#60A969;}
	.st21{fill:#9B4D37;}
	.st22{fill:#806A50;}
	.st23{fill:#FAC7B1;}
	.st24{fill:#F9B395;}
	.st25{fill:#FFFFFF;}
	.st26{fill:#C9CBCE;}
</style>
<title>accueilNoMessage</title>
<path id="_Tracé_" class="st0" d="M47.8,370.6c-0.9-2.1-27.6-31.6-27.6-31.6s0.4,7.7-21,12.4c-21.4,4.7-46,2.8-44.7-23.3
	c1.3-26.1,27.6-39.6,27.6-39.6c-25.3,2.2,8-108.4,88.6-82.1c-12-21.1,78.5-68.8,91.5-3.4c7.3,36.6-10.3,48.8-10.3,48.8l26.4,31.4
	L47.8,370.6z"/>
<path id="_Tracé_2" class="st1" d="M46.8,369.2c-0.3-0.4-0.7-0.9-1.1-1.4l0.5-5.8c0.7-8.2,5.9-25,16.6-38.7
	c6.4-8.2,17-17.5,29.9-25.7c-3.8-5.8-6-8.9-16.2-19.2c10.4,8,12.5,10.6,18.4,17.9c4.7-2.9,9.7-5.5,14.7-7.9
	c-3.6-5.5-6-8.6-15.8-18.7c10.2,7.9,12.5,10.5,18.2,17.6c3-1.3,6-2.6,9-3.7c2.1-0.8,4.2-1.5,6.3-2.1c-3.4-5.1-6-8.4-15.5-18.2
	c10.1,7.9,12.4,10.4,18,17.5c4.3-1.1,8.6-2,13-2.5c-3.6-5.4-6-8.6-15.8-18.7c10.6,8.2,12.6,10.6,18.7,18.3c8.5-0.9,17-0.8,25.5,0.3
	l-19-22.2c-54.2,1.2-91.3,22.6-121.8,74.8C62.7,274,85.5,260.5,138,253.4c4.2-2.6,12-9.7,14.2-26.2c3-23.1-0.8-43.2-18.4-50.9
	c-17.6-7.7-43.7,1.7-52.7,13.2s1.7,24,1.7,24C1,188.4-44,271.7-7.5,286.2c-38.4,12.4-55,91.9,28.4,53.8c2.8-1.3-0.6,8.9-25,13.9
	s-45.1,0-43.8-26.1c1.3-26.1,29.9-39.3,29.9-39.3c-29.2,7.7-4.4-113.1,88.6-82.1c-19.7-21.1,82.8-73,94.1-3.4
	c5.4,32.9-9.4,46.6-12.6,49.1l26.1,31.1L130.8,315C101,329.1,55.3,362.9,46.8,369.2z"/>
<path id="_Tracé_3" class="st0" d="M177.4,479.4c-11.1,1.7-77.4,17.1-77.4,17.1S-3.2,512.3-12,521.7c-8.8,9.4,13.5,37.7,33.6,33.3
	s72.9-13.4,95-18.7c9,54.7-8.3,134.9-0.8,138.6c8.5,4.3,119.8,7.4,124-1.7c10-21.5,9.3-85.7,7.1-133.5c30,21.7,62.7,45.4,64.5,47.6
	c17.2,20,108.8-60.6,127.2-65.8c6.2-1.8-23.8-39.7-23.8-39.7s-67.1,47.7-86.5,64.5c-29.6-23.8-73.2-57.6-85.2-62.4
	C240.7,475.7,183.8,478.4,177.4,479.4z"/>
<path id="_Tracé_4" class="st2" d="M381.2,506c-19.7,14.4-42.7,31.5-52.8,40.2c-29.7-23.7-73.2-57.6-85.3-62.4
	c-1.8-5.9-31.5-6.1-50.5-5.4l-0.6,1.4c0,0,34.1,1.2,43,3.5s10.3,5.4,16.5,10.8c6.2,5.4,65.7,46.7,71.1,52.4s2.8,18.4,2.8,18.4
	s4.8-14.2,6.2-15.3s45.3-36.2,52.5-42C384.2,507.5,383.1,507,381.2,506z"/>
<path id="_Tracé_5" class="st1" d="M248.3,602.2c0.2-20.9-0.4-43.1-1.3-62.5c30,21.7,62.7,45.4,64.5,47.6
	c13.9,16.2,76.4-33.4,109.6-55.8c-3.6-1.8-7.5-3-11.5-3.4c-3.7,2.9-71.2,47.6-82,53.3c-10.8,5.7-59.3-39.3-67.5-44.9
	c-8.2-5.6-26.6-17.6-26.6-17.6l11,83.3L248.3,602.2L248.3,602.2z"/>
<circle id="_Tracé_6" class="st3" cx="187.8" cy="588.9" r="3.8"/>
<polygon id="_Tracé_7" class="st4" points="191.1,490.1 186.2,497.2 185.9,497.5 169.5,511.9 186.7,666.3 183.3,666.7 166,511.4 
	165.9,510.5 165.7,509.3 182.7,494.5 188.3,488.2 "/>
<path id="_Tracé_8" class="st5" d="M193.6,483.4c-0.6-0.9-12-3.7-17.8-3.7s-27.7,7.2-27.7,7.2l2.3-8.8c5.3-1,10.5-2.3,15.6-3.9
	c10-3,23.2-0.9,23.2-0.9L193.6,483.4z"/>
<path id="_Tracé_9" class="st6" d="M149.2,463.5c2.1,4.7,5.1,28.4,8.6,28.7c2,0.1,12,5.8,20.3,6c1.8,0,5.6-4.3,6.9-4.5
	c3.2-0.5,1.1-3.4,1.4-4.5c1.3-3.6-7.7-29.5-7.7-29.5L149.2,463.5z"/>
<path id="_Tracé_10" class="st7" d="M219.3,323.9c1.8-1.6-2.4-9.3,1.4-11.5s11.1,1.2,16.7,15.1s4,31.4-0.4,32.2
	C232.6,360.5,219.3,323.9,219.3,323.9z"/>
<path id="_Tracé_11" class="st8" d="M166.1,288.6c2.1-2.6,12.3-5.5,12.3-5.5s13.8-1.4,25.8,4.6s26,29.3,24.8,35.4
	s2.8,15.2-1.7,14.2S166.1,288.6,166.1,288.6z"/>
<path id="_Tracé_12" class="st6" d="M233.7,435.2c-27.4,39.3-80.4,50.5-115.5,34.2s-42.8-28.2-42.8-28.2s-6.5,6.8-24.8-2.6
	c-35.5-18.2-17.5-41.5-3-40.2c0,0-1.7-9-2.1-28.2c-1-44.8,82.2-102.6,132.9-87c22.1,6.8,38.2,19.5,50.6,40
	c1.9,3.2,2.6,17.9,7.7,22.2C263.5,368,253.3,407,233.7,435.2z"/>
<path id="_Tracé_13" class="st9" d="M51.5,347c19.9-38.9,84.6-76.8,126.8-63.8c-44.7-5.1-104,27.4-126,67
	C52,349.1,51.7,348.1,51.5,347z"/>
<path id="_Tracé_14" class="st10" d="M233.7,435.2c-27.4,39.3-80.4,50.5-115.5,34.2s-42.8-28.2-42.8-28.2L80,426
	c57.7,44,87.4,44.9,149,4.6c5.4-3.7,10.3-7.9,14.8-12.7C240.9,423.9,237.5,429.7,233.7,435.2z"/>
<path id="_Tracé_15" class="st11" d="M94.4,452.7c2.1,1.7,30.2,13.9,33,14.7c2.8,0.8,6.2,2.1-0.3,7.2c-6.5,5.1-19.6,3.8-21.4,3.6
	S94.4,452.7,94.4,452.7z"/>
<path id="_Tracé_16" class="st0" d="M68.4,469c6.4-0.4,119.3-24.8,119.3-24.8c9-5.4,76.2-25.5,77.9-16.9
	c8.3,41.6-64.3,45.6-76.1,22.9L68.4,477.1V469L68.4,469z"/>
<path id="_Tracé_17" class="st12" d="M257.5,425.3c4.7-0.3,7.7,0.3,8,2c5.7,28.5-26.7,39.4-51.4,36c11.1-5.5,26.7-14.5,36.9-27.6
	C253.6,432.6,255.8,429.1,257.5,425.3z"/>
<path id="_Tracé_18" class="st4" d="M228.7,428.6c-20.1,4.7-36.8,11.8-37.2,15.8s15.5,3.4,35.6-1.3s36.8-11.8,37.2-15.8
	S248.8,423.9,228.7,428.6z"/>
<path id="_Tracé_19" class="st13" d="M15.7,483L30,464.6c0,0,7.4-4.2,16.4,2.3s3.1,33,1.4,35.9c-0.9,1.4-2.2,2.5-3.7,3.2
	c-1.4,0.7-3,1.1-4.6,1.3c0,0-11.5-0.2-18-7.3S15.7,483,15.7,483z"/>
<path id="_Tracé_20" class="st6" d="M117.2,474.2c-0.6,6.3-5.1,12.9-7.6,13.8s-8.5,0.5-8.5,0.5s-0.1,5.1-5,6.6
	c-3,0.9-6.2,0.8-9.2-0.2c0.7,2.8-11.6,8.8-16.7,3c-2.4,4.2-13,5.8-17.3,3.2s-5.3-8.2-5.3-8.2c-6.6,12-14.1,28.2-23.5,36.1
	C13,538.4,10,541.8,1.2,538s-14.5-12.2-7.1-25.2s26.1-38,36.6-43.8s13.9-8.3,17.1-11.5s6-6,9-6.6s7.5,0,8.6-0.2
	c1.1-0.2,3.2-2.6,6.4-3.6c3.2-1,3.5,0.6,6.3,0.4s5.5-4.1,8.9-4.1c3.4,0,4.5,2.7,6.1,1.1c1.6-1.6,6.5-2.1,7.8-0.9
	C103.3,446,117.8,468,117.2,474.2z"/>
<path id="_Tracé_21" class="st11" d="M117.2,474.2c-0.6,6.3-5.1,12.9-7.6,13.8s-8.5,0.5-8.5,0.5s-0.1,5.1-5,6.6
	c-3,0.9-6.2,0.8-9.2-0.2c0.7,2.8-11.6,8.8-16.7,3c-2.4,4.2-13,5.8-17.3,3.2s-5.2-7.9-5.2-7.9c0-1.6-1.3-10-0.4-8.6
	c2.4,4,3.3,12,7.3,15c3,2.3,9.1,2.5,13.9-2.9c2.1-2.4-7.7-23.9-7.5-25.8s0.6-2.4,1.6-1.3s8.7,27,8.7,27s4.8,1.9,8.4,1.4
	c3.6-0.5,5.5-3.1,5.7-5s-9.6-25.5-10-27.3c-0.4-1.8-0.4-1.7,0.7-1.7c1.1,0,10.6,28.2,10.6,28.2c2.3,0.4,4.7,0.5,7,0.2
	c3.7-0.5,5.4-2.5,6-5.7c0.6-3.2-9.4-23.5-9.5-24.9c-0.1-1.4-0.4-1.1,0.6-0.8s10.2,24.1,10.2,24.1c1.7,0.5,3.4,0.6,5.1,0.3
	c3.3-0.4,6.5-1.7,8.2-10.8c0.6-3.4,0.5-6.8-0.1-10.2C116,468.7,117.3,472.3,117.2,474.2z"/>
<path id="_Tracé_22" class="st0" d="M30,464.6c0,0-11,11.6-0.8,26.5s18.8,11.6,18.7,11.6s-12,34.6-20.5,42c-6.2,5.3-5,10.8-11,11.4
	c-2.3,0.3-11.7-0.9-14.1-2c-8.7-4-21.8-17-18.4-24.6C-3.3,500.7,1,495.8,30,464.6z"/>
<path id="_Tracé_23" class="st14" d="M406.3,525.6c13.2,16.8,16.7,36.9,9.5,48.7l-4.6-5.9c5.3-10.1,2.1-26.3-8.6-39.9
	c-10.7-13.6-25.8-20.5-36.8-17.8l-4.6-5.9C374.4,500.6,393,508.8,406.3,525.6z"/>
<path id="_Tracé_24" class="st15" d="M367.7,548.8c-3.3-3.4-62.5-76.5-62.5-76.5c54,11.2,125.8,92.9,125.7,151L367.7,548.8z"/>
<path id="_Tracé_25" class="st4" d="M335.2,484.5c26,15.1,52.5,41.2,70.9,69.6c-12.8-8.1-24.8-17.2-36-27.4
	C354.2,512.1,342.3,497.5,335.2,484.5z"/>
<ellipse id="_Tracé_26" transform="matrix(0.633 0.7742 -0.7742 0.633 559.7522 -83.2243)" class="st5" cx="367.6" cy="548.7" rx="98.8" ry="11.3"/>
<path id="_Tracé_27" class="st8" d="M366.5,590.6c0.4,5.1,24.3,11,27.9,6.1C402,586.4,365.9,583.3,366.5,590.6z"/>
<path id="_Tracé_28" class="st16" d="M345.5,605.3c1.1-0.6,42.4-13.4,44.3-13.4s3.2,1.9,2.8,4.7c-0.4,2.8-47.3,17.5-47.3,17.5
	L345.5,605.3z"/>
<path id="_Tracé_29" class="st17" d="M177.2,604.4c-1.1-0.6-31.6-8.1-33.5-8.1s-3.2,1.9-2.8,4.7s36.5,12.2,36.5,12.2L177.2,604.4z"
	/>
<path id="_Tracé_30" class="st18" d="M175.2,675.3c0,6.3,44.2,11.3,98.8,11.3s98.8-5.1,98.8-11.3v-80.2l-164.3,0.4l-33.3-0.4
	L175.2,675.3L175.2,675.3L175.2,675.3z"/>
<path id="_Tracé_31" class="st19" d="M182.1,679.5c14,4.1,47.8,7,87.8,7.2c31.1-13,52.7-42,52.7-75.6c0-5.3-0.5-10.6-1.6-15.8
	l-112.5,0.2l-33.3-0.4v79.5C177.4,676.4,179.7,678,182.1,679.5z"/>
<path id="_Tracé_32" class="st5" d="M274,606.4c54.4,0,98.8-5.1,98.8-11.3s-44.4-11.3-98.8-11.3s-98.8,5.1-98.8,11.3
	S219.6,606.4,274,606.4z"/>
<path id="_Tracé_33" class="st20" d="M209.4,603.7c17.3,1.7,39.9,2.8,64.6,2.8s47.3-1,64.6-2.8c-17.8-2.5-40.2-4-64.6-4
	S227.1,601.2,209.4,603.7z"/>
<path id="_Tracé_34" class="st8" d="M57.6,337c-1.7,2.5-1.2,21.2,6.1,39.5c7.3,18.3,15.8,35.7,15.4,38.5c-0.4,2.8-1.7,3.8-4.4,5.4
	c-5.4-11-15.1-21.1-27-22c-1.4-0.1-2.8,0-4.1,0.3c-1.5-2.1-1.2-4-3.3-11s5.4-20.1,5.4-20.1c0.2-5.4,1.1-10.7,2.7-15.8
	C50.9,344.2,57.6,337,57.6,337z"/>
<path id="_Tracé_35" class="st21" d="M57.1,349.3c0.9,9.4,3.2,18.5,6.6,27.3c7.3,18.4,15.8,35.7,15.4,38.5
	c-0.4,2.8-1.7,3.9-4.4,5.4c-5.4-11-15.1-21.1-27-22c-1.4-0.1-2.8,0-4.1,0.3c-0.4-0.5-0.7-1.1-0.9-1.7c0.3-4.9,1.3-12.7,1.4-13.2
	c0.1-0.7,5.7,11.3,5.7,11.3s-1.3-13.7-1.3-16.9c0-3.2,1.7,5.5,4.4,11s10.1,10.6,11,11.8c0.9,1.2-6.1-16.4-8.5-26.1
	C54.1,370,55.6,358.9,57.1,349.3z"/>
<path id="_Tracé_36" class="st8" d="M119.6,341c-17.6,8.4-37.4,6.4-19-3.7c-28.1,9.9-0.2,27.7,19.9,13.2
	c9.4-6.8,21.1-16.1,24.1-15.2s4.5,5.6,4.1,0.8C147.8,325.5,125.3,338.3,119.6,341z"/>
<path id="_Tracé_37" class="st8" d="M192.7,319.7c15.3-1.1,29.2-10.9,12.9-10.6c23.4-4.4,7.9,20.2-10.9,17.9c-8.8-1.1-20-3-22-1.1
	s-1.7,6-2.8,2.3C167.6,320.1,187.8,320.1,192.7,319.7z"/>
<path id="_Tracé_38" class="st8" d="M156,353.5c-6.6,25.2-31.6,30.1-46.5,16.4C126.6,379.7,146,374.6,156,353.5z"/>
<path id="_Tracé_39" class="st8" d="M223.3,333.6c-3.2,23.4-26,26.8-41.6,13.1C198.9,356.7,216.4,352.9,223.3,333.6z"/>
<path id="_Tracé_40" class="st22" d="M210.9,398.6c-10.3,22.5-42.5,15-52.6,13.1c0.5,6.4,35.1,11.8,47.5-0.3
	C212.3,405.1,210.9,398.6,210.9,398.6z"/>
<path id="_Tracé_41" class="st8" d="M188.7,380.7c14-22.8,57.5,31.8,68.1-10.8c11.4,19.7-23.1,65.4-66.7,31
	c-27.3,51.3-98.4,29.3-87.4,3.3C122.7,442.3,168.1,363.3,188.7,380.7z"/>
<path id="_Tracé_42" class="st21" d="M256.8,369.9c11.4,19.7-23.1,65.4-66.7,31c-27.3,51.3-98.4,29.3-87.4,3.3
	c0,0,0.9,10.5,7.2,15.2c6.3,4.7,20.8,8.1,39.5,4.3c18.7-3.8,40-28.9,40-28.9s17.4,10.5,31.2,11.3c12.1,0.6,23.8-4.5,31.7-13.8
	C258.3,384.7,256.8,369.9,256.8,369.9z"/>
<path id="_Tracé_43" class="st22" d="M178,371.3c1,0,1.5,1.3,1.1,2.8s-1.4,2.8-2.4,2.8s-1.5-1.3-1.1-2.8S177.1,371.3,178,371.3z"/>
<path id="_Tracé_44" class="st22" d="M189.3,368.8c1,0,1.5,1.3,1.1,2.8s-1.4,2.8-2.4,2.8s-1.5-1.3-1.1-2.8S188.3,368.8,189.3,368.8
	z"/>
<path id="_Tracé_45" class="st7" d="M170.8,349.4c1.2,1.9,5,7.8,10.9,10s10.7,1,11.9,6.5s-0.4,7.6-0.4,7.6s0.5-6.7-1.8-8.4
	C181.7,358.1,177.5,366.2,170.8,349.4z"/>
<path id="_Tracé_46" class="st23" d="M399.1,488c-3.9-1-8.2-1.6-19.5,0.1s-24.7-0.6-25.2,1.5s-0.3,5.2,4.6,9.1s16.6,5.8,21,6.2
	s11.3-1.1,11.3-1.1L399.1,488z"/>
<path id="_Tracé_47" class="st11" d="M354.4,489.9c-0.5,2.2-0.2,5.1,4.7,9c3.7,3,11.3,4.8,16.6,5.7c0.1-0.3,0.2-0.5,0.3-0.8
	c0.2-0.9,3.5-3.7,3.5-3.7s-18.9-4.4-23.6-8.6C355.3,490.8,354.8,490.3,354.4,489.9z"/>
<path id="_Tracé_48" class="st6" d="M377.6,500c-5.4,4.6-2.8,11.5-0.7,13.3s7.7,3.7,7.7,3.7s-1.8,4.8,2.2,8c2.5,1.9,5.5,3,8.6,3.2
	c-1.7,2.3,3.2,9.9,10.9,10.3c0,4.3,1.2,10.1,6.1,9.2c17.9-3.3,40.3-24.8,34.3-30.3c-4.3-3.9-4-4.7-5.4-8s1.6-6.2-2.2-9.6
	s-7-2.9-9.3-5.4s0.4-3.6-3.3-6.6s-5.8-1.2-8.3-2.5s-3.6-5.8-6.8-7.1C401.4,474.3,383,495.4,377.6,500z"/>
<path id="_Tracé_49" class="st8" d="M157.7,607.3c-2.5,3.2-4.7,2.1-7,1.9c-2.3-0.2-10.8-4.8-11.8-8.3s2.4-8.7,7-9
	C153.5,591.5,166.7,595.7,157.7,607.3z"/>
<path id="_Tracé_50" class="st16" d="M187.6,609.4c-1.1-0.6-33.1-12.2-36.4-12.8s-7.5,4.5-3.4,7.8s38.9,13.5,38.9,13.5L187.6,609.4
	z"/>
<path id="_Tracé_51" class="st4" d="M146.1,488.7c-1,3.8,1,7.2,9.3,9.8s25.4,0.6,25.4,0.6l-3.5-11.6c-22,0.9-26-10.1-26.9-9.4
	S147.1,484.9,146.1,488.7z"/>
<path id="_Tracé_52" class="st4" d="M182.9,485.2c0.2,1.5,1.9,11.1,1.9,11.1c2.9-0.4,5.6-1.8,7.7-3.8c2.5-2.8,3.7-6.6,3.2-10.3
	c-0.4-1.3-6.5-8.9-6.5-8.9C189.8,479.8,184.2,483.7,182.9,485.2z"/>
<path id="_Tracé_58" class="st24" d="M50.7,407.5c-2.4-1-9.5-0.9-12.1,2.5s0.1,10.9,6.4,17.5s14.5,9.7,18.3,8.7
	c3.8-1,3.7-3.6,2.2-6.8s-4-2.7-6.9-6.4s-1.2-2.4-0.6-7.3C58.6,410.8,50.7,407.5,50.7,407.5z"/>
<path id="_Tracé_59" class="st25" d="M270.9,549.8c-9.8-18-33.7-44.4-3.6-54.9c13.5-4.1,34,7.3,33.3,23c-0.4,11.4-14,18-23.7,13.8
	c-15.2-6.6-8.8-23.3-8-22.9c-1.4-0.9-11,16.3,6.1,26.5c11.1,6.6,26.2,3,30.9-8.2c22.9-55-99.8-56.9-62.1,10.8
	c6.9,12.5,45.1,52.1,23.2,65.9C287.8,601.5,277.8,562.4,270.9,549.8z"/>
<path id="_Tracé_60" class="st25" d="M247.4,579.3c-0.9-10,1.8-27.1-13.3-23.3c-6.6,2-11.8,12.1-7.3,18.3
	c3.2,4.5,10.5,3.5,13.3-0.8c1.5-2.3,1.8-5.2,0.8-7.7c-0.2-0.4-3.3-4.4-3.7-3.7c0.3-0.7,8.9,3.7,4.6,12.4c-2.7,5.7-9.8,8.3-14.8,5
	c-24.1-16.2,25.2-49.9,28.2-12.3c0.5,6.7-5,34.3,7.7,31.3C252.1,605.3,247.9,585.5,247.4,579.3z"/>
<path id="_Tracé_61" class="st26" d="M29.7,542.1c6.6-8.6,14.3-28.8,17-36.4c0.3-1,0.7-2,1.1-2.9l0,0c-0.2,0.1-0.5,1.3-3.9,0.2
	c-1-0.3-12.2,22.8-19.1,43.9L29.7,542.1z"/>
<path id="_Tracé_62" class="st2" d="M51.5,516.8c1.8-2.5,45.6-8.1,62.9-11.2s34.1-10.4,34.1-10.4c-2.6-2-3.1-4.2-2.5-6.6
	c0.2-1,0.5-2,0.9-2.9c-21.9,4.9-47,10.7-47,10.7s-7.6,1.2-18.9,3.1c-1.7,0.6-3.4,0.9-5.2,0.9c-8.7,1.5-18.8,3.3-29.2,5.3
	c-2.8,7.6-10.4,27.8-17,36.4l14.1-13.6C43.8,528.5,49.7,519.4,51.5,516.8z"/>
<path id="_Tracé_63" class="st1" d="M5.3,496c3.9-5.9,7.6-11.6,10.4-15.9C-1,498.5-5.8,506.2-16.2,529.5
	c-3.4,7.6,9.7,20.6,18.4,24.6c2.4,1.1,11.8,2.3,14.1,2c0.9-0.1,1.8-0.3,2.6-0.8c0.9-0.1,1.8-0.2,2.8-0.4c20.1-4.4,72.8-13.4,95-18.7
	c7.3,44.3-2.7,105.2-2.8,128.8l14.2,1.2c0.3-13.4,0.4-47.6,0.4-70.5c0-27.2,0.4-71.3,0.4-71.3l-13.3,7.4c-31,6-61.6,15.4-92.9,18.5
	C-25.5,551.8-10.8,520.6,5.3,496z"/>
<path id="_Tracé_64" class="st20" d="M227.6,443c11.6-2.8,21.9-6.3,28.7-9.5c-3.2-0.1-8.2,0.3-15.9,1.8c-2.6,0.5-5.3,1.1-8,1.7
	c-13.7,3.1-26.9,7.3-31,10.1c8.6-0.5,17.2-1.8,25.6-3.9L227.6,443z"/>
<circle id="_Tracé_65" class="st3" cx="177.9" cy="517.4" r="3.8"/>
<circle id="_Tracé_66" class="st3" cx="184.6" cy="556.3" r="3.8"/>
<path id="_Tracé_67" class="st11" d="M386.4,514.5c-1.7,0.1-3.3-0.2-4.9-0.8c-0.9-0.6-1.8-1.3-2.5-2.1l-0.3-0.3
	c-0.6-0.7-1.1-1.5-1.5-2.4c-0.6-1.3-0.8-2.7-0.5-4.1v-0.2c0.6-2,4.3-6.9,8.4-11.9c-3.3,3.1-6,5.9-7.5,7.2c-1.4,1.1-2.4,2.6-2.9,4.3
	l0,0c-0.5,2-0.4,4.2,0.4,6.1c0.4,1.1,1,2,1.8,2.8l0,0c2.1,1.8,7.7,3.7,7.7,3.7s-1.8,4.8,2.2,8c2.5,1.9,5.5,3,8.6,3.2
	c-1,1.4,0.4,4.8,3.5,7.3c2.1,1.8,4.7,2.8,7.5,3c0,1,0.1,2.1,0.2,3.1c0.5,3.5,2.1,6.8,5.9,6.1c1.7-0.3,3.4-0.8,5-1.3
	c4.8-1.7,9.3-4,13.4-6.9c-3.7,1.7-7.3,3.2-9.6,4c-1.7,0.5-3.1,0.9-4.3,1.3c-1.7,0.5-3.4,0.7-5.1,0.6c-0.8-0.1-1.6-0.4-2.2-1
	c-0.8-1-1.4-2.2-1.7-3.5c-0.2-0.8-0.4-1.5-0.5-2.1c2.3-1.8,21.4-15.7,22.2-16.8s0.6-1.7-0.6-2.3s-21.8,17.9-22.2,17.8
	c-2.2-0.8-4.3-1.7-6.3-2.9c-3.2-1.9-4.2-4.6-3.7-5.5c1.1-1.2,2.3-2.3,3.6-3.3c1-0.9,2.3-2,3.6-3.1c6-5.1,13.5-11.4,14.1-11.9
	c1-0.7,0.3-1.8-1-1.7c-0.8,0.1-8.5,7-14.3,12.3c-1.3,1.2-2.5,2.2-3.5,3.1c-1,0.9-2.1,1.8-3.2,2.6c-1.3,0.4-6.2-1.4-9-4.1
	s-1-4.3-0.4-6.1c0.3-0.6,0.8-1.1,1.3-1.5c1-0.9,2.4-2.1,4-3.4c5.6-4.6,13.6-10.6,14.1-11c0.8-0.7,0.6-1.6-0.7-1.6
	c-0.9,0-9.5,7.2-14.7,11.7L386.4,514.5z"/>
<path id="_Tracé_68" class="st10" d="M203.3,421.4c-2.7,1.1-19.1,2.8-19,3.7c0.1,4.3,23.8,0.9,22.7-4.5
	C206.8,420.2,203.3,421.4,203.3,421.4z"/>
</svg>
