<?xml version="1.0" encoding="utf-8"?>
<!-- Generator: Adobe Illustrator 19.0.0, SVG Export Plug-In . SVG Version: 6.00 Build 0)  -->
<svg version="1.1" id="Calque_1" xmlns="http://www.w3.org/2000/svg" xmlns:xlink="http://www.w3.org/1999/xlink" x="0px" y="0px"
	 viewBox="0 0 274.3 216.6" style="enable-background:new 0 0 274.3 216.6;" xml:space="preserve">
<style type="text/css">
	.st0{fill:#FFFFFF;}
</style>
<path id="XMLID_2_" class="st0" d="M0.7,81.2c4.8-34.9,40.4-59.4,81.7-57.9C93.3,6.9,115.7-2.6,139.9,0.7
	c17.4,2.4,32.1,11,41.2,22.6c7.3-0.8,14.7-0.7,22,0.3c44.7,6.2,76.2,44.8,70.5,86.2c-4.3,30.9-28.1,54.6-58.4,62.1
	c0,0.4-0.1,0.9-0.1,1.3c-4,29.2-37.8,48.6-75.5,43.4c-21.5-3-39.7-13.4-50.5-27.2L1.9,213.1L52,156.2C13.6,145.4-4,115.2,0.7,81.2z"
	/>
</svg>
