<?xml version="1.0" encoding="utf-8"?>
<!-- Generator: Adobe Illustrator 19.0.0, SVG Export Plug-In . SVG Version: 6.00 Build 0)  -->
<svg version="1.1" id="objects" xmlns="http://www.w3.org/2000/svg" xmlns:xlink="http://www.w3.org/1999/xlink" x="0px" y="0px"
	 viewBox="15 104.4 641.8 585.6" style="enable-background:new 15 104.4 641.8 585.6;" xml:space="preserve">
<style type="text/css">
	.st0{fill:#E6E7E8;}
	.st1{fill:#D0D2D3;}
	.st2{fill:#DADAD8;}
	.st3{fill:#6D6E70;}
	.st4{fill:#BBBDBF;}
	.st5{fill:#58595B;}
	.st6{fill:#FBD2C0;}
	.st7{fill:#FABBA1;}
	.st8{fill:#A15641;}
	.st9{fill:#FBCDBB;}
	.st10{fill:#FBC9B4;}
	.st11{fill:#F9B397;}
	.st12{fill:#EFEDED;}
	.st13{fill:#808184;}
	.st14{fill:#A6A8AB;}
	.st15{fill:#C7CCD0;}
	.st16{fill:#CECECF;}
	.st17{fill:#C1C2C2;}
	.st18{fill:#9B9DA0;}
	.st19{fill:#929497;}
	.st20{fill:#F48120;}
	.st21{fill:#9B4D37;}
	.st22{fill:#806A50;}
	.st23{fill:#FAC7B1;}
	.st24{fill:#D8702C;}
	.st25{fill:#D5641C;}
	.st26{fill:#DD7E41;}
	.st27{fill:#F9B395;}
	.st28{fill:#FFFFFF;}
	.st29{fill:#C9CBCE;}
</style>
<title>18612-NRS7GV</title>
<path id="_Tracé_" class="st0" d="M148.7,307.1c-0.9-2.1-27.6-31.6-27.6-31.6s0.4,7.7-21,12.4c-21.4,4.7-46,2.8-44.7-23.3
	c1.3-26.1,27.6-39.6,27.6-39.6c-25.3,2.2,8-108.4,88.6-82.1c-12-21.1,78.5-68.8,91.5-3.4c7.3,36.6-10.3,48.8-10.3,48.8l26.4,31.4
	L148.7,307.1z"/>
<path id="_Tracé_2" class="st1" d="M147.7,305.7c-0.3-0.4-0.7-0.9-1.1-1.4l0.5-5.8c0.7-8.2,5.9-25,16.6-38.7
	c6.4-8.2,17-17.5,29.9-25.7c-3.8-5.8-6-8.9-16.2-19.2c10.4,8,12.5,10.6,18.4,17.9c4.7-2.9,9.6-5.5,14.7-7.9
	c-3.6-5.5-6-8.6-15.8-18.7c10.2,7.9,12.5,10.5,18.2,17.6c3-1.3,6-2.6,9-3.7c2.1-0.8,4.2-1.5,6.3-2.1c-3.4-5.1-6-8.4-15.5-18.2
	c10.1,7.9,12.4,10.4,18,17.5c4.3-1.1,8.6-2,13-2.5c-3.6-5.4-6-8.6-15.8-18.7c10.6,8.2,12.6,10.6,18.7,18.3c8.5-0.9,17-0.8,25.5,0.3
	l-19-22.2c-54.2,1.2-91.3,22.6-121.8,74.8c32.3-56.8,55.1-70.3,107.6-77.4c4.2-2.6,12-9.7,14.2-26.2c3-23.1-0.8-43.2-18.4-50.9
	S191,114.5,182,126s1.7,24,1.7,24c-81.8-25.1-126.8,58.2-90.3,72.7c-38.4,12.4-55,91.9,28.4,53.8c2.8-1.3-0.6,8.9-25,13.9
	s-45.1,0-43.8-26.1c1.3-26.1,29.9-39.3,29.9-39.3c-29.2,7.7-4.4-113.1,88.6-82.1c-19.7-21.1,82.8-73,94.1-3.4
	c5.4,32.9-9.4,46.6-12.6,49.1l26.1,31.1l-47.4,31.8C201.9,265.6,156.2,299.4,147.7,305.7z"/>
<path id="_Tracé_3" class="st0" d="M278.3,415.9c-11.1,1.7-77.4,17.1-77.4,17.1s-103.2,15.8-112,25.2c-8.8,9.5,13.5,37.7,33.6,33.3
	c20.1-4.4,72.9-13.4,95-18.7c9,54.7-8.3,134.9-0.8,138.6c8.5,4.3,119.8,7.4,124-1.7c10-21.5,9.3-85.7,7.1-133.5
	c30,21.7,62.7,45.4,64.5,47.6c17.2,20,108.8-60.6,127.2-65.8c6.2-1.8-23.8-39.7-23.8-39.7s-67.1,47.7-86.5,64.5
	C399.6,459,356,425.2,344,420.4C341.6,412.2,284.7,414.9,278.3,415.9z"/>
<path id="_Tracé_4" class="st2" d="M482.1,442.5c-19.7,14.4-42.7,31.5-52.8,40.2c-29.7-23.7-73.2-57.6-85.3-62.4
	c-1.8-5.9-31.5-6.1-50.5-5.4l-0.6,1.4c0,0,34.1,1.2,43,3.5c8.9,2.3,10.3,5.4,16.5,10.8s65.7,46.7,71.1,52.4
	c5.4,5.7,2.8,18.4,2.8,18.4s4.8-14.2,6.2-15.3c1.4-1.1,45.3-36.2,52.5-42C485.1,444,484,443.5,482.1,442.5z"/>
<path id="_Tracé_5" class="st1" d="M349.2,538.7c0.2-20.9-0.4-43.1-1.3-62.5c30,21.7,62.7,45.4,64.5,47.6
	c13.9,16.2,76.4-33.4,109.6-55.8c-3.6-1.8-7.5-3-11.5-3.4c-3.7,2.9-71.2,47.6-82,53.3S369.2,478.6,361,473
	c-8.2-5.7-26.6-17.6-26.6-17.6l11,83.3L349.2,538.7L349.2,538.7z"/>
<circle id="_Tracé_6" class="st3" cx="288.7" cy="525.4" r="3.8"/>
<polygon id="_Tracé_7" class="st4" points="292,426.6 287.1,433.7 286.8,434 270.4,448.4 287.6,602.8 284.2,603.2 266.9,447.9 
	266.8,447 266.6,445.8 283.6,431 289.2,424.7 "/>
<path id="_Tracé_8" class="st5" d="M294.5,419.9c-0.6-0.9-12-3.7-17.8-3.7c-5.8,0-27.7,7.2-27.7,7.2l2.3-8.8
	c5.3-1,10.5-2.3,15.6-3.9c10-3,23.2-0.9,23.2-0.9L294.5,419.9z"/>
<path id="_Tracé_9" class="st6" d="M250.1,400c2.1,4.7,5.1,28.4,8.6,28.7c2,0.1,12,5.8,20.3,6c1.8,0,5.6-4.3,6.9-4.5
	c3.2-0.5,1.1-3.4,1.4-4.5c1.3-3.6-7.7-29.5-7.7-29.5L250.1,400z"/>
<path id="_Tracé_10" class="st7" d="M320.2,260.4c1.8-1.6-2.4-9.3,1.4-11.5s11.1,1.2,16.7,15.1c5.5,13.9,4,31.4-0.4,32.2
	C333.5,296.9,320.2,260.4,320.2,260.4z"/>
<path id="_Tracé_11" class="st8" d="M267,225.1c2.1-2.6,12.3-5.5,12.3-5.5s13.8-1.4,25.8,4.6c12,6,26,29.3,24.8,35.4
	c-1.2,6.1,2.8,15.2-1.7,14.2S267,225.1,267,225.1z"/>
<path id="_Tracé_12" class="st6" d="M334.6,371.7c-27.4,39.3-80.4,50.5-115.5,34.2c-35.1-16.3-42.8-28.2-42.8-28.2
	s-6.5,6.8-24.8-2.6c-35.5-18.2-17.5-41.5-3-40.2c0,0-1.7-9-2.1-28.2c-1-44.8,82.2-102.6,132.9-87c22.1,6.8,38.2,19.5,50.6,40
	c1.9,3.2,2.6,17.9,7.7,22.2C364.4,304.5,354.2,343.5,334.6,371.7z"/>
<path id="_Tracé_13" class="st9" d="M152.4,283.5c19.9-38.9,84.6-76.8,126.8-63.8c-44.7-5.1-104,27.4-126,67
	C152.9,285.6,152.6,284.6,152.4,283.5z"/>
<path id="_Tracé_14" class="st10" d="M334.6,371.7c-27.4,39.3-80.4,50.5-115.5,34.2c-35.1-16.3-42.8-28.2-42.8-28.2l4.6-15.2
	c57.7,44,87.4,44.9,149,4.6c5.4-3.7,10.3-7.9,14.8-12.7C341.8,360.5,338.4,366.2,334.6,371.7z"/>
<path id="_Tracé_15" class="st11" d="M195.3,389.2c2.1,1.7,30.2,13.9,33,14.7s6.2,2.1-0.3,7.2s-19.6,3.8-21.4,3.6
	C204.7,414.5,195.3,389.2,195.3,389.2z"/>
<path id="_Tracé_16" class="st0" d="M169.3,405.5c6.4-0.4,119.3-24.8,119.3-24.8c9-5.4,76.2-25.5,77.9-16.9
	c8.3,41.6-64.3,45.6-76.1,22.9l-121.1,26.9V405.5L169.3,405.5z"/>
<path id="_Tracé_17" class="st12" d="M358.4,361.8c4.7-0.3,7.7,0.3,8,2c5.7,28.5-26.7,39.4-51.4,36c11.1-5.5,26.7-14.5,36.9-27.6
	C354.6,369.1,356.7,365.6,358.4,361.8z"/>
<path id="_Tracé_18" class="st4" d="M329.6,365.1c-20.1,4.7-36.8,11.8-37.2,15.8c-0.5,4,15.5,3.4,35.6-1.3s36.8-11.8,37.2-15.8
	C365.7,359.8,349.7,360.4,329.6,365.1z"/>
<path id="_Tracé_19" class="st13" d="M116.6,419.5l14.3-18.4c0,0,7.4-4.2,16.4,2.3s3.1,33,1.4,35.9c-0.9,1.4-2.2,2.5-3.7,3.2
	c-1.4,0.7-3,1.1-4.6,1.3c0,0-11.5-0.2-18-7.3C115.9,429.3,116.6,419.5,116.6,419.5z"/>
<path id="_Tracé_20" class="st6" d="M218.1,410.7c-0.6,6.3-5.1,12.9-7.6,13.8s-8.5,0.5-8.5,0.5s-0.1,5.1-5,6.6
	c-3,0.9-6.2,0.8-9.2-0.2c0.7,2.8-11.6,8.8-16.7,3c-2.4,4.2-13,5.8-17.3,3.2c-4.3-2.6-5.3-8.2-5.3-8.2c-6.6,12-14.1,28.2-23.5,36.1
	c-11.1,9.4-14.1,12.8-22.9,9c-8.8-3.8-14.5-12.2-7.1-25.2s26.1-38,36.6-43.8c10.5-5.8,13.9-8.3,17.1-11.5c3.2-3.2,6-6,9-6.6
	s7.5,0,8.6-0.2c1.1-0.2,3.2-2.6,6.4-3.6c3.2-1.1,3.5,0.6,6.3,0.4s5.5-4.1,8.9-4.1s4.5,2.7,6.1,1.1c1.6-1.6,6.5-2.1,7.8-0.9
	C204.2,382.5,218.7,404.5,218.1,410.7z"/>
<path id="_Tracé_21" class="st11" d="M218.1,410.7c-0.6,6.3-5.1,12.9-7.6,13.8s-8.5,0.5-8.5,0.5s-0.1,5.1-5,6.6
	c-3,0.9-6.2,0.8-9.2-0.2c0.7,2.8-11.6,8.8-16.7,3c-2.4,4.2-13,5.8-17.3,3.2c-4.3-2.6-5.2-7.9-5.2-7.9c0-1.6-1.3-10-0.4-8.6
	c2.4,4,3.3,12,7.3,15c3,2.3,9.1,2.5,13.9-2.9c2.1-2.4-7.7-23.9-7.5-25.8c0.1-1.8,0.6-2.4,1.6-1.3s8.7,27,8.7,27s4.8,1.9,8.4,1.4
	s5.5-3.1,5.7-5s-9.6-25.5-10-27.3s-0.4-1.7,0.7-1.7s10.6,28.2,10.6,28.2c2.3,0.4,4.7,0.5,7,0.2c3.7-0.5,5.4-2.5,6-5.7
	s-9.4-23.5-9.5-24.9c-0.1-1.3-0.4-1.1,0.6-0.8c1,0.3,10.2,24.1,10.2,24.1c1.7,0.5,3.4,0.6,5.1,0.3c3.3-0.4,6.5-1.7,8.2-10.8
	c0.6-3.4,0.5-6.8-0.1-10.2C216.9,405.2,218.2,408.8,218.1,410.7z"/>
<path id="_Tracé_22" class="st0" d="M130.9,401.1c0,0-11,11.6-0.8,26.5s18.8,11.6,18.7,11.6c-0.1,0-12,34.6-20.5,42
	c-6.2,5.3-5,10.8-11,11.4c-2.3,0.3-11.7-0.9-14.1-2c-8.7-4-21.8-17-18.4-24.6C97.6,437.2,101.9,432.3,130.9,401.1z"/>
<path id="_Tracé_23" class="st14" d="M507.2,462.1c13.2,16.8,16.7,36.9,9.5,48.7l-4.6-5.9c5.3-10.1,2.1-26.3-8.6-39.9
	c-10.8-13.6-25.8-20.5-36.8-17.8l-4.6-5.9C475.3,437.1,493.9,445.3,507.2,462.1z"/>
<path id="_Tracé_24" class="st15" d="M468.6,485.3c-3.3-3.4-62.5-76.5-62.5-76.5c54,11.2,125.8,92.9,125.7,151L468.6,485.3z"/>
<path id="_Tracé_25" class="st4" d="M436.1,421c26,15.1,52.5,41.2,70.9,69.6c-12.8-8.1-24.8-17.2-36-27.4
	C455.1,448.6,443.2,434,436.1,421z"/>
<ellipse id="_Tracé_26" transform="matrix(-0.633 -0.7742 0.7742 -0.633 389.423 1155.2368)" class="st5" cx="468.6" cy="485.3" rx="98.8" ry="11.3"/>
<path id="_Tracé_27" class="st8" d="M467.4,527.1c0.4,5.1,24.3,11,27.9,6.1C502.9,522.9,466.8,519.8,467.4,527.1z"/>
<path id="_Tracé_28" class="st16" d="M446.4,541.8c1.1-0.6,42.4-13.4,44.3-13.4s3.2,1.9,2.8,4.7s-47.3,17.5-47.3,17.5L446.4,541.8z
	"/>
<path id="_Tracé_29" class="st17" d="M278.1,540.9c-1.1-0.6-31.6-8.1-33.5-8.1s-3.2,1.9-2.8,4.7s36.5,12.2,36.5,12.2L278.1,540.9z"
	/>
<path id="_Tracé_30" class="st18" d="M276.1,611.8c0,6.3,44.2,11.3,98.8,11.3s98.8-5.1,98.8-11.3v-80.2L309.4,532l-33.3-0.4V611.8z
	"/>
<path id="_Tracé_31" class="st19" d="M283,616c14,4.1,47.8,7,87.8,7.2c31.1-13,52.7-42,52.7-75.6c0-5.3-0.5-10.6-1.6-15.8
	L309.4,532l-33.3-0.4v79.5C278.3,612.9,280.6,614.5,283,616z"/>
<path id="_Tracé_32" class="st5" d="M374.9,542.9c54.4,0,98.8-5.1,98.8-11.3s-44.4-11.3-98.8-11.3s-98.8,5.1-98.8,11.3
	S320.5,542.9,374.9,542.9z"/>
<path id="_Tracé_33" class="st20" d="M310.3,540.2c17.3,1.7,39.9,2.8,64.6,2.8s47.3-1,64.6-2.8c-17.8-2.5-40.2-4-64.6-4
	C350.5,536.2,328,537.7,310.3,540.2z"/>
<path id="_Tracé_34" class="st8" d="M158.5,273.5c-1.7,2.5-1.2,21.2,6.1,39.5s15.8,35.7,15.4,38.5c-0.4,2.8-1.7,3.8-4.4,5.4
	c-5.4-11-15.1-21.1-27-22c-1.4-0.1-2.8,0-4.1,0.3c-1.5-2.1-1.2-4-3.3-11s5.4-20.1,5.4-20.1c0.2-5.4,1.1-10.7,2.7-15.8
	C151.8,280.7,158.5,273.5,158.5,273.5z"/>
<path id="_Tracé_35" class="st21" d="M158,285.8c0.9,9.4,3.2,18.5,6.6,27.3c7.3,18.4,15.8,35.7,15.4,38.5c-0.4,2.8-1.7,3.9-4.4,5.4
	c-5.4-11-15.1-21.1-27-22c-1.4-0.1-2.8,0-4.1,0.3c-0.4-0.5-0.6-1.1-0.9-1.7c0.3-4.9,1.3-12.7,1.4-13.2c0.1-0.7,5.7,11.3,5.7,11.3
	s-1.3-13.7-1.3-16.9s1.7,5.5,4.4,11c2.7,5.5,10.1,10.6,11,11.8s-6.1-16.4-8.5-26.1C155,306.5,156.5,295.4,158,285.8z"/>
<path id="_Tracé_36" class="st8" d="M220.5,277.5c-17.6,8.4-37.4,6.4-19-3.7c-28.1,9.9-0.2,27.7,19.9,13.2
	c9.4-6.8,21.1-16.1,24.1-15.2s4.5,5.6,4.1,0.8C248.7,262,226.2,274.8,220.5,277.5z"/>
<path id="_Tracé_37" class="st8" d="M293.6,256.2c15.3-1.1,29.2-10.9,12.9-10.6c23.4-4.4,7.9,20.2-10.9,17.9c-8.8-1.1-20-3-22-1.1
	c-2,1.8-1.7,6-2.8,2.3C268.5,256.6,288.7,256.6,293.6,256.2z"/>
<path id="_Tracé_38" class="st8" d="M256.9,290c-6.6,25.2-31.6,30.1-46.5,16.4C227.5,316.2,246.9,311.1,256.9,290z"/>
<path id="_Tracé_39" class="st8" d="M324.2,270.1c-3.2,23.4-26,26.8-41.6,13.1C299.8,293.2,317.3,289.4,324.2,270.1z"/>
<path id="_Tracé_40" class="st22" d="M311.8,335.1c-10.3,22.5-42.5,15-52.6,13.1c0.5,6.4,35.1,11.8,47.5-0.3
	C313.2,341.6,311.8,335.1,311.8,335.1z"/>
<path id="_Tracé_41" class="st8" d="M289.6,317.2c14-22.8,57.5,31.8,68.1-10.8c11.4,19.7-23.1,65.4-66.7,31
	c-27.3,51.3-98.4,29.3-87.4,3.3C223.6,378.8,269,299.8,289.6,317.2z"/>
<path id="_Tracé_42" class="st21" d="M357.7,306.4c11.4,19.7-23.1,65.4-66.7,31c-27.3,51.3-98.4,29.3-87.4,3.3
	c0,0,0.9,10.5,7.2,15.2s20.8,8.1,39.5,4.3s40-28.9,40-28.9s17.4,10.5,31.2,11.3s25.5-6.3,31.7-13.8
	C359.2,321.2,357.7,306.4,357.7,306.4z"/>
<path id="_Tracé_43" class="st22" d="M278.9,307.8c1,0,1.5,1.3,1.1,2.8c-0.3,1.6-1.4,2.8-2.4,2.8c-1,0-1.5-1.3-1.1-2.8
	C276.9,309,278,307.8,278.9,307.8z"/>
<path id="_Tracé_44" class="st22" d="M290.2,305.3c1,0,1.5,1.3,1.1,2.8c-0.3,1.6-1.4,2.8-2.4,2.8c-1,0-1.5-1.3-1.1-2.8
	C288.1,306.6,289.2,305.3,290.2,305.3z"/>
<path id="_Tracé_45" class="st7" d="M271.7,285.9c1.2,1.9,5,7.8,10.9,10c5.9,2.3,10.7,1,11.9,6.5c1.2,5.5-0.4,7.6-0.4,7.6
	s0.5-6.7-1.8-8.4C282.6,294.6,278.4,302.7,271.7,285.9z"/>
<path id="_Tracé_46" class="st23" d="M500,424.5c-3.9-1-8.2-1.6-19.5,0.1s-24.7-0.6-25.2,1.5c-0.5,2.2-0.3,5.2,4.6,9.1
	s16.6,5.8,21,6.2s11.3-1.1,11.3-1.1L500,424.5z"/>
<path id="_Tracé_47" class="st11" d="M455.3,426.4c-0.5,2.2-0.2,5.1,4.7,9c3.7,3,11.3,4.8,16.6,5.7c0.1-0.2,0.2-0.5,0.3-0.8
	c0.2-0.9,3.5-3.7,3.5-3.7s-18.9-4.4-23.6-8.6C456.2,427.3,455.7,426.8,455.3,426.4z"/>
<path id="_Tracé_48" class="st6" d="M478.5,436.5c-5.4,4.6-2.8,11.5-0.7,13.3s7.7,3.7,7.7,3.7s-1.8,4.8,2.2,8
	c2.5,1.9,5.5,3.1,8.6,3.2c-1.7,2.3,3.2,9.9,10.9,10.3c0,4.3,1.2,10.1,6.1,9.2c17.9-3.3,40.3-24.8,34.3-30.3c-4.3-3.9-4-4.7-5.4-8
	c-1.4-3.3,1.6-6.2-2.2-9.6s-7-2.9-9.3-5.4c-2.3-2.5,0.4-3.6-3.3-6.6c-3.8-3-5.8-1.2-8.3-2.5c-2.5-1.2-3.6-5.8-6.8-7.1
	C502.3,410.8,483.9,431.9,478.5,436.5z"/>
<path id="_Tracé_49" class="st8" d="M258.6,543.8c-2.5,3.2-4.7,2.1-7,1.9s-10.8-4.8-11.8-8.3s2.4-8.7,7-9
	C254.4,528,267.6,532.2,258.6,543.8z"/>
<path id="_Tracé_50" class="st16" d="M288.5,545.9c-1.1-0.6-33.1-12.2-36.4-12.8s-7.5,4.5-3.4,7.8s38.9,13.5,38.9,13.5L288.5,545.9
	z"/>
<path id="_Tracé_51" class="st4" d="M247,425.2c-1,3.8,1,7.2,9.3,9.8c8.3,2.7,25.4,0.6,25.4,0.6l-3.5-11.6
	c-22,0.9-26-10.1-26.9-9.4C250.4,415.3,248,421.4,247,425.2z"/>
<path id="_Tracé_52" class="st4" d="M283.8,421.7c0.2,1.5,1.9,11.1,1.9,11.1c2.9-0.4,5.6-1.8,7.7-3.8c3.4-3.4,3.6-9,3.2-10.3
	c-0.4-1.3-6.5-8.9-6.5-8.9C290.7,416.3,285.1,420.2,283.8,421.7z"/>
<path id="_Tracé_53" class="st24" d="M518.2,638.8c36.4,8.9,138.7-35.7,138.7-35.7l-56-24.4l30.9-55.5
	c-23,13.6-132.9,48.1-132.9,48.1L518.2,638.8z"/>
<path id="_Tracé_54" class="st24" d="M153.7,648.1c-12.5-1-24.9-3-37.1-6C72.2,632.6,15,612.4,15,612.4L70.9,588L40,532.5
	C63,546.1,177,569,195,571.6L153.7,648.1z"/>
<path id="_Tracé_55" class="st25" d="M500.2,602.7l-1.3-31.5l88,11.9C563,590.6,523,602.3,500.2,602.7z"/>
<path id="_Tracé_56" class="st25" d="M190.5,599.9l4.6-28.3l-91,11.5C127.9,590.6,167.9,599.5,190.5,599.9z"/>
<path id="_Tracé_57" class="st26" d="M356.1,607.5c78.5,1.5,157.7-3.5,230.6-24.4l17.4,85c0,0-111.1,23.4-258.7,21.8
	c-147.6,1.7-255.7-18-255.7-18l14.4-88.7C189.8,604.7,270.5,606,356.1,607.5z"/>
<path id="_Tracé_58" class="st27" d="M151.6,344c-2.4-1-9.5-0.9-12.1,2.5s0.1,10.9,6.4,17.5s14.5,9.7,18.3,8.7
	c3.8-1.1,3.7-3.6,2.2-6.8c-1.4-3.2-4-2.7-6.9-6.4c-2.9-3.7-1.2-2.4-0.6-7.3S151.6,344,151.6,344z"/>
<path id="_Tracé_59" class="st28" d="M371.8,486.3c-9.8-18-33.7-44.4-3.6-54.9c13.5-4.1,34,7.3,33.3,23c-0.4,11.4-14,18-23.7,13.8
	c-15.2-6.6-8.8-23.3-8-22.9c-1.4-0.9-11,16.3,6.1,26.5c11.1,6.6,26.2,3,30.9-8.2c22.9-55-99.8-56.9-62.1,10.8
	c6.9,12.5,45.1,52.1,23.2,65.9C388.7,538,378.7,498.9,371.8,486.3z"/>
<path id="_Tracé_60" class="st28" d="M348.3,515.8c-0.9-10,1.8-27.1-13.3-23.3c-6.6,2-11.8,12.1-7.3,18.3
	c3.2,4.5,10.5,3.5,13.3-0.8c1.6-2.3,1.8-5.2,0.8-7.7c-0.2-0.4-3.3-4.4-3.7-3.7c0.3-0.7,8.9,3.7,4.6,12.4c-2.7,5.7-9.8,8.3-14.8,5
	c-24.1-16.2,25.2-49.9,28.2-12.3c0.5,6.7-5,34.3,7.7,31.3C353,541.8,348.8,522,348.3,515.8z"/>
<path id="_Tracé_61" class="st29" d="M130.6,478.6c6.6-8.6,14.3-28.8,17-36.4c0.6-1.7,1-2.8,1.1-2.9l0,0c-0.2,0.1-0.5,1.3-3.9,0.2
	c-1-0.3-12.2,22.8-19.1,43.9L130.6,478.6z"/>
<path id="_Tracé_62" class="st2" d="M152.4,453.3c1.8-2.5,45.6-8.1,62.9-11.2s34.1-10.4,34.1-10.4c-2.6-2-3.1-4.2-2.5-6.6
	c0.2-0.9,0.5-1.9,0.9-2.9c-21.9,4.9-47,10.7-47,10.7s-7.6,1.2-18.9,3.1c-1.7,0.6-3.4,0.9-5.2,0.9c-8.7,1.5-18.8,3.3-29.2,5.3
	c-2.8,7.6-10.4,27.8-17,36.4l14.1-13.6C144.7,465,150.6,455.9,152.4,453.3z"/>
<path id="_Tracé_63" class="st1" d="M106.2,432.5c3.9-5.9,7.6-11.6,10.4-15.9C99.9,435,95.1,442.7,84.7,466
	c-3.4,7.6,9.7,20.6,18.4,24.6c2.4,1.1,11.8,2.3,14.1,2c0.9-0.1,1.8-0.3,2.6-0.8c0.9-0.1,1.8-0.2,2.8-0.4c20.1-4.4,72.8-13.4,95-18.7
	c7.3,44.3-2.7,105.2-2.8,128.8c4.7,0.4,9.5,0.8,14.2,1.2c0.3-13.4,0.4-47.6,0.4-70.5c0-27.2,0.4-71.3,0.4-71.3l-13.3,7.4
	c-31,6-61.6,15.4-92.9,18.5C75.4,488.3,90.1,457.1,106.2,432.5z"/>
<path id="_Tracé_64" class="st20" d="M328.5,379.5c11.6-2.8,21.9-6.3,28.7-9.5c-3.2-0.1-8.2,0.3-15.9,1.8c-2.6,0.5-5.3,1.1-8,1.7
	c-13.7,3.1-26.9,7.3-31,10.1c8.6-0.5,17.2-1.8,25.6-3.9L328.5,379.5z"/>
<circle id="_Tracé_65" class="st3" cx="278.8" cy="453.9" r="3.8"/>
<circle id="_Tracé_66" class="st3" cx="285.5" cy="492.8" r="3.8"/>
<path id="_Tracé_67" class="st11" d="M487.3,451c-1.7,0.1-3.3-0.2-4.9-0.8c-1-0.6-1.8-1.3-2.5-2.1l-0.3-0.3
	c-0.6-0.7-1.1-1.5-1.5-2.4c-0.6-1.3-0.8-2.7-0.5-4.1v-0.2c0.6-2,4.3-6.9,8.4-11.9c-3.3,3.1-6,5.9-7.5,7.2c-1.4,1.1-2.4,2.6-2.9,4.3
	l0,0c-0.5,2-0.4,4.2,0.4,6.1c0.4,1.1,1,2,1.8,2.8l0,0c2.1,1.8,7.7,3.7,7.7,3.7s-1.8,4.8,2.2,8c2.5,1.9,5.5,3.1,8.6,3.2
	c-1,1.4,0.4,4.8,3.5,7.3c2.1,1.8,4.7,2.8,7.5,3c0,1,0.1,2.1,0.2,3.1c0.5,3.5,2.1,6.8,5.9,6.1c1.7-0.3,3.4-0.8,5-1.3
	c4.7-1.7,9.3-4,13.4-6.9c-3.7,1.7-7.3,3.2-9.6,4c-1.7,0.5-3.1,0.9-4.3,1.3c-1.7,0.5-3.4,0.7-5.1,0.6c-0.8-0.1-1.6-0.4-2.2-1
	c-0.8-1-1.4-2.2-1.7-3.5c-0.2-0.8-0.4-1.5-0.5-2.1c2.3-1.8,21.4-15.7,22.2-16.8s0.6-1.7-0.6-2.3c-1.1-0.6-21.8,17.9-22.2,17.8
	c-2.2-0.8-4.3-1.7-6.3-2.9c-3.2-1.9-4.2-4.6-3.7-5.5c1.1-1.2,2.3-2.3,3.6-3.3c1-0.9,2.3-2,3.6-3.1c6-5.1,13.5-11.4,14.1-11.9
	c1-0.7,0.3-1.8-1-1.7c-0.8,0.1-8.5,7-14.3,12.3c-1.3,1.2-2.5,2.2-3.5,3.1c-1,0.9-2.1,1.8-3.2,2.6c-1.3,0.4-6.2-1.4-9-4.1
	c-2.8-2.7-1-4.3-0.4-6.1c0.3-0.6,0.8-1.1,1.3-1.5c1-0.9,2.4-2.1,4-3.4c5.6-4.6,13.6-10.6,14.1-11c0.8-0.7,0.6-1.6-0.7-1.6
	c-0.9,0-9.5,7.2-14.7,11.7C489,449.6,487.3,451,487.3,451z"/>
<path id="_Tracé_68" class="st10" d="M304.2,357.9c-2.7,1.1-19.1,2.8-19,3.7c0.1,4.3,23.8,0.9,22.7-4.5
	C307.7,356.7,304.2,357.9,304.2,357.9z"/>
</svg>
