<svg id="Objects" xmlns="http://www.w3.org/2000/svg" viewBox="0 0 690.15 699.23"><defs><style>.cls-1,.cls-10,.cls-11,.cls-12,.cls-16,.cls-20,.cls-21,.cls-22,.cls-23,.cls-24,.cls-6,.cls-7,.cls-8,.cls-9{fill-rule:evenodd;}.cls-1{opacity:0.2;}.cls-2{fill:#2b689e;}.cls-3{fill:#3d7bb0;}.cls-4{fill:#f5f5f5;}.cls-5{fill:#ccc;}.cls-6{fill:#e6535f;}.cls-7{fill:#f2b1b6;}.cls-17,.cls-8{fill:#6a8733;}.cls-9{fill:#a8c76d;}.cls-10,.cls-19{fill:#d6f2a2;}.cls-11{fill:#ffe1a1;}.cls-12{fill:#fff8e8;}.cls-13{fill:#cf7602;}.cls-14,.cls-16{fill:#ffae00;}.cls-15{fill:#fcc44b;}.cls-18,.cls-20{fill:#add95b;}.cls-21{fill:#d4424e;}.cls-22{fill:#d8702c;}.cls-23{fill:#d5641c;}.cls-24{fill:#dd7e41;}</style></defs><title>cook_flat_03</title><path class="cls-1" d="M58.64,380.52L418.85,58.23c111.78,115,191.52,206.68,319,321.7C607.21,485,520.11,607.62,424,734.67Z" transform="translate(-58.64 -35.45)"/><rect class="cls-2" x="159.71" y="136.52" width="488.01" height="488.01" transform="translate(-209.47 361.48) rotate(-45)"/><rect class="cls-2" x="180.06" y="156.86" width="447.31" height="447.31" transform="translate(-209.47 361.48) rotate(-45)"/><path class="cls-3" d="M85.24,379.57v0.05a2.3,2.3,0,0,0-.17,1,2.36,2.36,0,0,0,.6,1.46h0l0,0,0.13,0.13,2.93,2.93a2.37,2.37,0,0,0,3.36-3.36l-1.33-1.33,1.68-1.68a2.37,2.37,0,0,0-3.36-3.36l-3.32,3.32a2.3,2.3,0,0,0-.54.76h0Zm16.93,12.35a2.37,2.37,0,0,0-3.36,3.36l3.36,3.36a2.37,2.37,0,0,0,3.36-3.36l-3.36-3.36h0Zm13.43,13.43a2.37,2.37,0,0,0-3.36,3.36l3.36,3.36A2.37,2.37,0,0,0,119,408.7l-3.36-3.36h0ZM129,418.77a2.37,2.37,0,0,0-3.36,3.36l3.36,3.36a2.37,2.37,0,0,0,3.36-3.36L129,418.77h0Zm13.43,13.43a2.37,2.37,0,0,0-3.36,3.36l3.36,3.36a2.37,2.37,0,0,0,3.36-3.36l-3.36-3.36h0Zm13.43,13.43a2.37,2.37,0,0,0-3.36,3.36l3.36,3.36a2.37,2.37,0,0,0,3.36-3.36l-3.36-3.36h0Zm13.43,13.43a2.37,2.37,0,0,0-3.36,3.36l3.36,3.36a2.37,2.37,0,0,0,3.36-3.36l-3.36-3.36h0Zm13.43,13.43a2.37,2.37,0,0,0-3.36,3.36l3.36,3.36a2.37,2.37,0,0,0,3.36-3.36l-3.36-3.36h0Zm13.43,13.43a2.37,2.37,0,0,0-3.36,3.36l3.36,3.36a2.37,2.37,0,0,0,3.36-3.36l-3.36-3.36h0Zm13.43,13.43a2.37,2.37,0,0,0-3.36,3.36l3.36,3.36A2.37,2.37,0,0,0,213,502.7l-3.36-3.36h0ZM223,512.77a2.37,2.37,0,1,0-3.36,3.36l3.36,3.36a2.37,2.37,0,0,0,3.36-3.36L223,512.77h0Zm13.43,13.43a2.37,2.37,0,0,0-3.36,3.36l3.36,3.36a2.37,2.37,0,0,0,3.36-3.36l-3.36-3.36h0Zm13.43,13.43a2.37,2.37,0,0,0-3.36,3.36l3.36,3.36a2.37,2.37,0,0,0,3.36-3.36l-3.36-3.36h0ZM263.31,553a2.37,2.37,0,0,0-3.36,3.36l3.36,3.36a2.37,2.37,0,0,0,3.36-3.36L263.31,553h0Zm13.43,13.43a2.37,2.37,0,0,0-3.36,3.36l3.36,3.36a2.37,2.37,0,0,0,3.36-3.36l-3.36-3.36h0Zm13.43,13.43a2.37,2.37,0,0,0-3.36,3.36l3.36,3.36a2.37,2.37,0,0,0,3.36-3.36l-3.36-3.36h0Zm13.43,13.43a2.37,2.37,0,0,0-3.36,3.36l3.36,3.36a2.37,2.37,0,0,0,3.36-3.36l-3.36-3.36h0ZM317,606.76a2.37,2.37,0,0,0-3.36,3.36l3.36,3.36a2.37,2.37,0,0,0,3.36-3.36L317,606.76h0Zm13.43,13.43a2.37,2.37,0,0,0-3.36,3.36l3.36,3.36a2.37,2.37,0,0,0,3.36-3.36l-3.36-3.36h0Zm13.43,13.43a2.37,2.37,0,0,0-3.36,3.36l3.36,3.36a2.37,2.37,0,0,0,3.36-3.36l-3.36-3.36h0ZM357.3,647a2.37,2.37,0,0,0-3.36,3.36l3.36,3.36a2.37,2.37,0,0,0,3.36-3.36L357.3,647h0Zm13.43,13.43a2.37,2.37,0,0,0-3.36,3.36l3.36,3.36a2.37,2.37,0,0,0,3.36-3.36l-3.36-3.36h0Zm13.43,13.43a2.37,2.37,0,0,0-3.36,3.36l3.36,3.36a2.37,2.37,0,0,0,3.36-3.36l-3.36-3.36h0Zm13.43,13.43a2.37,2.37,0,0,0-3.36,3.36l3.36,3.36a2.37,2.37,0,1,0,3.36-3.36l-3.36-3.36h0Zm10.07,2.21a2.37,2.37,0,0,0,3.36,3.36l3.36-3.36a2.37,2.37,0,0,0-3.36-3.36l-3.36,3.36h0Zm13.43-13.43a2.37,2.37,0,0,0,3.36,3.36l3.36-3.36a2.37,2.37,0,0,0-3.36-3.36l-3.36,3.36h0Zm13.43-13.43a2.37,2.37,0,0,0,3.36,3.36l3.36-3.36a2.37,2.37,0,0,0-3.36-3.36l-3.36,3.36h0Zm13.43-13.43a2.37,2.37,0,0,0,3.36,3.36l3.36-3.36a2.37,2.37,0,0,0-3.36-3.36l-3.36,3.36h0Zm13.43-13.43a2.37,2.37,0,0,0,3.36,3.36l3.36-3.36a2.37,2.37,0,0,0-3.36-3.36l-3.36,3.36h0Zm13.43-13.43a2.37,2.37,0,0,0,3.36,3.36l3.36-3.36a2.37,2.37,0,0,0-3.36-3.36l-3.36,3.36h0ZM488.22,609a2.37,2.37,0,0,0,3.36,3.36l3.36-3.36a2.37,2.37,0,0,0-3.36-3.36L488.22,609h0Zm13.43-13.43a2.37,2.37,0,1,0,3.36,3.36l3.36-3.36a2.37,2.37,0,1,0-3.36-3.36l-3.36,3.36h0Zm13.43-13.43a2.37,2.37,0,0,0,3.36,3.36l3.36-3.36a2.37,2.37,0,0,0-3.36-3.36l-3.36,3.36h0Zm13.43-13.43a2.37,2.37,0,1,0,3.36,3.36l3.36-3.36a2.37,2.37,0,1,0-3.36-3.36l-3.36,3.36h0Zm13.43-13.43a2.37,2.37,0,0,0,3.36,3.36l3.36-3.36a2.37,2.37,0,0,0-3.36-3.36l-3.36,3.36h0Zm13.43-13.43a2.37,2.37,0,1,0,3.36,3.36l3.36-3.36a2.37,2.37,0,1,0-3.36-3.36l-3.36,3.36h0Zm13.43-13.43a2.37,2.37,0,0,0,3.36,3.36l3.36-3.36a2.37,2.37,0,1,0-3.36-3.36l-3.36,3.36h0ZM582.21,515a2.37,2.37,0,0,0,3.36,3.36l3.36-3.36a2.37,2.37,0,0,0-3.36-3.36L582.21,515h0Zm13.43-13.43A2.37,2.37,0,1,0,599,504.9l3.36-3.36a2.37,2.37,0,1,0-3.36-3.36l-3.36,3.36h0Zm13.43-13.43a2.37,2.37,0,1,0,3.36,3.36l3.36-3.36a2.37,2.37,0,1,0-3.36-3.36l-3.36,3.36h0Zm13.43-13.43a2.37,2.37,0,0,0,3.36,3.36l3.36-3.36a2.37,2.37,0,0,0-3.36-3.36l-3.36,3.36h0Zm13.43-13.43a2.37,2.37,0,0,0,3.36,3.36l3.36-3.36a2.37,2.37,0,0,0-3.36-3.36l-3.36,3.36h0Zm13.43-13.43a2.37,2.37,0,0,0,3.36,3.36l3.36-3.36a2.37,2.37,0,0,0-3.36-3.36l-3.36,3.36h0Zm13.43-13.43a2.37,2.37,0,0,0,3.36,3.36l3.36-3.36a2.37,2.37,0,0,0-3.36-3.36l-3.36,3.36h0ZM676.2,421a2.37,2.37,0,1,0,3.36,3.36l3.36-3.36a2.37,2.37,0,1,0-3.36-3.36L676.2,421h0Zm13.43-13.43a2.37,2.37,0,1,0,3.36,3.36l3.36-3.36a2.37,2.37,0,1,0-3.36-3.36l-3.36,3.36h0Zm13.43-13.43a2.37,2.37,0,1,0,3.36,3.36l3.36-3.36a2.37,2.37,0,1,0-3.36-3.36l-3.36,3.36h0Zm13.43-13.43a2.37,2.37,0,1,0,3.36,3.36l1.82-1.82a2.32,2.32,0,0,0,.73-1.71,2.37,2.37,0,0,0-.7-1.68l-1.5-1.5a2.37,2.37,0,0,0-3.52,3.17l-0.19.19h0Zm-9.72-10.07a2.37,2.37,0,0,0,3.36-3.36l-3.36-3.36a2.37,2.37,0,1,0-3.36,3.36l3.36,3.36h0ZM693.34,357.2a2.37,2.37,0,0,0,3.36-3.36l-3.36-3.36a2.37,2.37,0,1,0-3.36,3.36l3.36,3.36h0Zm-13.43-13.43a2.37,2.37,0,0,0,3.36-3.36l-3.36-3.36a2.37,2.37,0,1,0-3.36,3.36l3.36,3.36h0Zm-13.43-13.43a2.37,2.37,0,0,0,3.36-3.36l-3.36-3.36a2.37,2.37,0,1,0-3.36,3.36l3.36,3.36h0Zm-13.43-13.43a2.37,2.37,0,0,0,3.36-3.36l-3.36-3.36a2.37,2.37,0,1,0-3.36,3.36l3.36,3.36h0Zm-13.43-13.43a2.37,2.37,0,0,0,3.36-3.36l-3.36-3.36a2.37,2.37,0,1,0-3.36,3.36l3.36,3.36h0ZM626.2,290.06a2.37,2.37,0,1,0,3.36-3.36l-3.36-3.36a2.37,2.37,0,0,0-3.36,3.36l3.36,3.36h0Zm-13.43-13.43a2.37,2.37,0,1,0,3.36-3.36l-3.36-3.36a2.37,2.37,0,1,0-3.36,3.36l3.36,3.36h0ZM599.34,263.2a2.37,2.37,0,0,0,3.36-3.36l-3.36-3.36a2.37,2.37,0,0,0-3.36,3.36l3.36,3.36h0Zm-13.43-13.43a2.37,2.37,0,1,0,3.36-3.36l-3.36-3.36a2.37,2.37,0,1,0-3.36,3.36l3.36,3.36h0Zm-13.43-13.43a2.37,2.37,0,0,0,3.36-3.36l-3.36-3.36a2.37,2.37,0,0,0-3.36,3.36l3.36,3.36h0Zm-13.43-13.43a2.37,2.37,0,1,0,3.36-3.36l-3.36-3.36a2.37,2.37,0,0,0-3.36,3.36l3.36,3.36h0Zm-13.43-13.43a2.37,2.37,0,1,0,3.36-3.36l-3.36-3.36a2.37,2.37,0,1,0-3.36,3.36l3.36,3.36h0Zm-13.43-13.43a2.37,2.37,0,0,0,3.36-3.36l-3.36-3.36a2.37,2.37,0,0,0-3.36,3.36l3.36,3.36h0Zm-13.43-13.43a2.37,2.37,0,1,0,3.36-3.36l-3.36-3.36a2.37,2.37,0,0,0-3.36,3.36l3.36,3.36h0Zm-13.43-13.43a2.37,2.37,0,1,0,3.36-3.36l-3.36-3.36a2.37,2.37,0,1,0-3.36,3.36l3.36,3.36h0Zm-13.43-13.43a2.37,2.37,0,1,0,3.36-3.36l-3.36-3.36a2.37,2.37,0,1,0-3.36,3.36l3.36,3.36h0ZM478.5,142.36a2.37,2.37,0,1,0,3.36-3.36l-3.36-3.36a2.37,2.37,0,1,0-3.36,3.36l3.36,3.36h0Zm-13.43-13.43a2.37,2.37,0,0,0,3.36-3.36l-3.36-3.36a2.37,2.37,0,1,0-3.36,3.36l3.36,3.36h0ZM451.64,115.5a2.37,2.37,0,0,0,3.36-3.36l-3.36-3.36a2.37,2.37,0,0,0-3.36,3.36l3.36,3.36h0Zm-13.43-13.43a2.37,2.37,0,0,0,3.36-3.36l-3.36-3.36a2.37,2.37,0,0,0-3.36,3.36l3.36,3.36h0ZM424.79,88.65a2.37,2.37,0,0,0,3.36-3.36l-3.36-3.36a2.37,2.37,0,0,0-3.36,3.36l3.36,3.36h0ZM411.36,75.22a2.37,2.37,0,1,0,3.36-3.36l-3.36-3.36A2.37,2.37,0,0,0,408,71.86l3.36,3.36h0ZM401.29,70a2.37,2.37,0,0,0-3.36-3.36L394.58,70a2.37,2.37,0,0,0,3.36,3.36L401.29,70h0ZM387.86,83.44a2.37,2.37,0,1,0-3.36-3.36l-3.36,3.36a2.37,2.37,0,0,0,3.36,3.36l3.36-3.36h0ZM374.43,96.86a2.37,2.37,0,1,0-3.36-3.36l-3.36,3.36a2.37,2.37,0,0,0,3.36,3.36l3.36-3.36h0ZM361,110.29a2.37,2.37,0,0,0-3.36-3.36l-3.36,3.36a2.37,2.37,0,0,0,3.36,3.36l3.36-3.36h0Zm-13.43,13.43a2.37,2.37,0,0,0-3.36-3.36l-3.36,3.36a2.37,2.37,0,0,0,3.36,3.36l3.36-3.36h0Zm-13.43,13.43a2.37,2.37,0,1,0-3.36-3.36l-3.36,3.36a2.37,2.37,0,1,0,3.36,3.36l3.36-3.36h0Zm-13.43,13.43a2.37,2.37,0,0,0-3.36-3.36L314,150.57a2.37,2.37,0,0,0,3.36,3.36l3.36-3.36h0ZM307.29,164a2.37,2.37,0,0,0-3.36-3.36L300.58,164a2.37,2.37,0,0,0,3.36,3.36l3.36-3.36h0Zm-13.43,13.43a2.37,2.37,0,0,0-3.36-3.36l-3.36,3.36a2.37,2.37,0,0,0,3.36,3.36l3.36-3.36h0Zm-13.43,13.43a2.37,2.37,0,0,0-3.36-3.36l-3.36,3.36a2.37,2.37,0,0,0,3.36,3.36l3.36-3.36h0ZM267,204.28a2.37,2.37,0,0,0-3.36-3.36l-3.36,3.36a2.37,2.37,0,0,0,3.36,3.36l3.36-3.36h0Zm-13.43,13.43a2.37,2.37,0,0,0-3.36-3.36l-3.36,3.36a2.37,2.37,0,0,0,3.36,3.36l3.36-3.36h0Zm-13.43,13.43a2.37,2.37,0,1,0-3.36-3.36l-3.36,3.36a2.37,2.37,0,0,0,3.36,3.36l3.36-3.36h0Zm-13.43,13.43a2.37,2.37,0,0,0-3.36-3.36L220,244.57a2.37,2.37,0,0,0,3.36,3.36l3.36-3.36h0ZM213.3,258a2.37,2.37,0,0,0-3.36-3.36L206.59,258a2.37,2.37,0,0,0,3.36,3.36L213.3,258h0Zm-13.43,13.43a2.37,2.37,0,0,0-3.36-3.36l-3.36,3.36a2.37,2.37,0,0,0,3.36,3.36l3.36-3.36h0Zm-13.43,13.43a2.37,2.37,0,1,0-3.36-3.36l-3.36,3.36a2.37,2.37,0,0,0,3.36,3.36l3.36-3.36h0ZM173,298.28a2.37,2.37,0,0,0-3.36-3.36l-3.36,3.36a2.37,2.37,0,0,0,3.36,3.36l3.36-3.36h0ZM159.59,311.7a2.37,2.37,0,0,0-3.36-3.36l-3.36,3.36a2.37,2.37,0,0,0,3.36,3.36l3.36-3.36h0Zm-13.43,13.43a2.37,2.37,0,0,0-3.36-3.36l-3.36,3.36a2.37,2.37,0,0,0,3.36,3.36l3.36-3.36h0Zm-13.43,13.43a2.37,2.37,0,0,0-3.36-3.36L126,338.56a2.37,2.37,0,0,0,3.36,3.36l3.36-3.36h0ZM119.31,352a2.37,2.37,0,0,0-3.36-3.36L112.6,352a2.37,2.37,0,0,0,3.36,3.36l3.36-3.36h0Zm-13.43,13.43a2.37,2.37,0,0,0-3.36-3.36l-3.36,3.36a2.37,2.37,0,0,0,3.36,3.36Z" transform="translate(-58.64 -35.45)"/><path class="cls-1" d="M523.45,220.08a215.57,215.57,0,0,1,45.5,24.65,24.49,24.49,0,0,1,18,2.51,22.36,22.36,0,0,1,5.58,4.25c15.93-9.18,33.06-9.77,42.7-.1s9,26.81-.25,42.7a22.37,22.37,0,0,1,4.23,5.59c4.93,9.26,3.88,18.11-1.07,26.23a214.71,214.71,0,0,1,21.43,78.37c9.24,5.33,15.24,13.18,15.77,22.23,0.62,10.52-6.3,20.31-17.52,26.88a214.83,214.83,0,0,1-35.75,90.36c5,10.67,5,21.27-3.18,30.49a22.39,22.39,0,0,1-5.41,4.46c5.29,17.6,1.95,34.42-9.67,41.59s-28.15,2.61-41.51-10a22.4,22.4,0,0,1-6.41,2.84,25.53,25.53,0,0,1-13,.24,216.71,216.71,0,0,1-163.45,14c-5.12,5.44-11.4,8.63-18.16,8.59-13-.08-24.13-12.15-28.56-29.14a21.42,21.42,0,0,1-6.63-1,23.45,23.45,0,0,1-16-15.2,216,216,0,0,1-77.91-127c-7.87-2.47-13.78-7.69-16.43-16.59a21.4,21.4,0,0,1-.88-6.64c-16.94-4.61-28.89-15.83-28.82-28.88,0.05-10.09,7.28-19,18.41-24.6,0.9-7.62,5.61-15.79,13.4-21.84a37.07,37.07,0,0,1,16-7.34,28,28,0,0,1-.74-6.51,22.4,22.4,0,0,1,1.1-6.92c-15.62-9.68-24.26-24.49-20.31-37.56s19.36-20.61,37.73-20a22.37,22.37,0,0,1,2.92-6.37c7.9-11.83,20.33-13.65,34.17-9.56a217.36,217.36,0,0,1,19.09-17.51c-5.8-22.78-3.68-43.25,15.27-49.07a21.42,21.42,0,0,1,6.64-.93c4.48-17,15.59-29,28.64-29.06s24.24,11.92,28.83,28.88a21.4,21.4,0,0,1,6.64.89A25.08,25.08,0,0,1,403.1,209a216.6,216.6,0,0,1,35.05-3.82c2.49-10.69,8.5-18.86,17.21-21.68,12.41-4,26.72,4,36.26,18.71a21.4,21.4,0,0,1,6.6-1.18C510.92,200.76,518.92,208.4,523.45,220.08Z" transform="translate(-58.64 -35.45)"/><circle class="cls-4" cx="348.64" cy="342.24" r="216.08"/><circle class="cls-5" cx="348.64" cy="342.24" r="204.17"/><path class="cls-6" d="M393.38,500.16a40.52,40.52,0,0,1,0,81h0v-9.92h0a30.6,30.6,0,0,0,0-61.2h0v-9.92h0Zm0,81a40.52,40.52,0,1,1,0-81v9.92a30.6,30.6,0,1,0,0,61.2v9.92Z" transform="translate(-58.64 -35.45)"/><path class="cls-7" d="M393.38,503.14a37.54,37.54,0,0,1,0,75.09V573a32.33,32.33,0,1,0,0-64.65v-5.22h0Zm0,75.09a37.54,37.54,0,1,1,0-75.09v5.22a32.33,32.33,0,1,0,0,64.65v5.22Z" transform="translate(-58.64 -35.45)"/><path class="cls-6" d="M551.41,404.47a40.52,40.52,0,1,1,0,81V475.6a30.6,30.6,0,1,0,0-61.2v-9.92Zm0,81a40.52,40.52,0,1,1,0-81v9.92a30.6,30.6,0,0,0,0,61.2v9.92Z" transform="translate(-58.64 -35.45)"/><path class="cls-7" d="M551.41,407.45a37.54,37.54,0,0,1,0,75.09v-5.22a32.33,32.33,0,1,0,0-64.65v-5.21Zm0,75.09a37.54,37.54,0,1,1,0-75.09v5.21a32.33,32.33,0,1,0,0,64.65v5.22Z" transform="translate(-58.64 -35.45)"/><path class="cls-8" d="M332.88,310.53c6.87-22.71-85.64-117.61-115.07-73.5a22.37,22.37,0,0,0-2.92,6.37c-18.37-.61-33.77,6.93-37.73,20s4.68,27.88,20.31,37.56a22.41,22.41,0,0,0-1.1,6.92C196.39,360.91,326,333.23,332.88,310.53Z" transform="translate(-58.64 -35.45)"/><path class="cls-9" d="M332.88,310.53c4.21-13.92-28.93-55-62-74.5,19.71,14.17,45.23,45,38.9,55.55-7.16,12-27-12.77-41.75-25.21s-21.85-15.46-8,.22,12.84,18.92-12.27,11.32-73.25-15.1-36.23-3,57,19,40.31,24.58-32.13,9.73,1,5.6,39.81-3,46.59,9.68c6.59,12.3-11.69,21.25-44.86,23.38C290,336.39,329.18,322.74,332.88,310.53Z" transform="translate(-58.64 -35.45)"/><path class="cls-9" d="M322.11,286.36c-22.67.07-84.22-110.61-35.77-125.48A21.41,21.41,0,0,1,293,160c4.47-17,15.59-29,28.64-29.06s24.24,11.92,28.83,28.88a21.39,21.39,0,0,1,6.64.89C405.62,175.21,344.78,286.29,322.11,286.36Z" transform="translate(-58.64 -35.45)"/><path class="cls-10" d="M322.11,286.36c-13.9,0-42.41-41.54-51.22-77.16,7.58,21.92,28.76,53.72,40.2,50.82,12.93-3.28-4.31-28.17-11.65-45.13s-8.16-24.24,2.4-7.29,13.8,16.94,13.72-8.13,6.24-71.19,7.17-34,1.8,57.41,11.46,43.63,17.71-26.74,4.86,2.41-13.63,35.63-3.9,45.3c9.46,9.4,22.66-4.88,33.69-34.66C357.54,254.15,334.31,286.32,322.11,286.36Z" transform="translate(-58.64 -35.45)"/><path class="cls-8" d="M481.53,438.37C461.34,450.82,467.76,583.2,519,569.66a22.38,22.38,0,0,0,6.41-2.84c13.36,12.62,29.89,17.18,41.51,10s15-24,9.67-41.59a22.4,22.4,0,0,0,5.41-4.46C617.15,491,501.72,425.91,481.53,438.37Z" transform="translate(-58.64 -35.45)"/><path class="cls-9" d="M481.53,438.37c-12.38,7.64-14.75,60.35-2.92,96.88-5.37-23.67-4.1-63.64,7.67-67.38,13.3-4.23,11.73,27.42,14.57,46.55s6.13,26.05,6.16,5.15,2.91-22.68,16.69-.35,44.87,59.83,25.15,26.25-30.11-52-13.91-45.12,30.51,14,3-4.83-31.8-24.14-28.49-38.12c3.22-13.58,22.84-8.17,49.09,12.2C530.81,447.43,492.39,431.67,481.53,438.37Z" transform="translate(-58.64 -35.45)"/><path class="cls-9" d="M399.46,443.37c19.69-11.23,127.79,54.75,93,91.56A21.41,21.41,0,0,1,487.1,539c4.47,17,.73,32.93-10.6,39.4s-27,1.57-39.31-10.92A21.38,21.38,0,0,1,431,570C381.56,581.24,379.77,454.61,399.46,443.37Z" transform="translate(-58.64 -35.45)"/><path class="cls-10" d="M399.46,443.37c12.07-6.89,57.37,15.25,82.59,41.9-17.39-15.34-51.5-32.57-60-24.41-9.64,9.22,17.63,22.39,32.37,33.53s19,17.07,1.5,7.52S435.54,494,448,515.75s29.65,65,10.51,33.11S428.61,499.79,427,516.54s-2.23,32-5.42.3-5.69-37.72-18.93-41.34c-12.86-3.52-17.31,15.42-12.24,46.77C384.49,488.86,388.86,449.42,399.46,443.37Z" transform="translate(-58.64 -35.45)"/><path class="cls-8" d="M483.14,322.77c16.75,16.81,144.14-19.73,119.23-66.55a22.35,22.35,0,0,0-4.23-5.59c9.23-15.89,9.89-33,.25-42.7s-26.77-9.08-42.7.1a22.39,22.39,0,0,0-5.58-4.25C503.39,178.7,466.39,306,483.14,322.77Z" transform="translate(-58.64 -35.45)"/><path class="cls-9" d="M483.14,322.77c10.27,10.3,62.12.55,95-19.32-21.81,10.65-61,18.55-67.35,8-7.16-12,24-17.69,42-24.84s24-11.93,3.6-7.17-22.74,2.35-4.16-16.17,48-57.37,19.8-30.49-43.76,41.21-40.74,23.87,6.64-32.9-5.38-1.81-16.22,36.48-30.59,36.45c-14,0-13.18-20.36.65-50.58C480.68,272.72,474.13,313.73,483.14,322.77Z" transform="translate(-58.64 -35.45)"/><path class="cls-11" d="M568.82,289.94c-0.23,12.07-13.68,21.6-30,21.29s-29.43-10.35-29.2-22.42c0.24-12.9.86-8.63,6.69-13.59,12.59-10.72,37.42-14,48,1.88C568.64,283.68,569,278.24,568.82,289.94Z" transform="translate(-58.64 -35.45)"/><path class="cls-12" d="M525.5,265.52a61,61,0,0,1-2.38-15.16c0.17-9.1,7.72-10.46,17-10.28s16.79,0.3,16.59,10.92c-0.05,2.89-1.17,8.62-3.08,14.52,10.29,4.29,15.4,12.27,15.27,19.43-0.23,12.07-13.68,21.6-30,21.29s-29.43-10.35-29.2-22.42C509.78,277,514.39,269.11,525.5,265.52Z" transform="translate(-58.64 -35.45)"/><path class="cls-11" d="M524.65,262.14c1.27,5.61,3.29,11.7,5.93,16.06a31.63,31.63,0,0,1-14.43-7.56,26.38,26.38,0,0,1,9.34-5.11c-0.31-1.14-.59-2.27-0.84-3.38h0Zm29,3.23,0,0.15a29,29,0,0,1,9,5.8,31.49,31.49,0,0,1-14.9,7.2l0,0A55.58,55.58,0,0,0,553.67,265.36Z" transform="translate(-58.64 -35.45)"/><path class="cls-9" d="M466.37,287.92c-21.57,7-113.93-79.67-72.32-108.6a21.4,21.4,0,0,1,6-2.91c-0.91-17.54,6-32.39,18.42-36.41s26.72,4,36.26,18.71a21.41,21.41,0,0,1,6.6-1.18C512,156.6,487.93,280.94,466.37,287.92Z" transform="translate(-58.64 -35.45)"/><path class="cls-10" d="M466.37,287.92c-13.22,4.28-53.05-26.64-72.31-57.87,13.9,18.57,43.77,42.4,53.79,36.15,11.32-7.06-12.7-25.51-24.85-39.43s-15.16-20.59.07-7.67,18.31,11.92,10.59-11.93-15.76-69.7-3.53-34.56,19.22,54.13,24.22,38.06,8.71-30.87,5.36.81-2.12,38.09,10.1,44.33c11.87,6.07,20.09-11.56,21.52-43.29C490.29,246.44,478,284.16,466.37,287.92Z" transform="translate(-58.64 -35.45)"/><circle class="cls-13" cx="179.4" cy="388.37" r="25.01"/><circle class="cls-14" cx="179.4" cy="388.37" r="23.41"/><circle class="cls-15" cx="179.4" cy="388.37" r="16.4"/><path class="cls-16" d="M238,433.21a9.39,9.39,0,1,0-9.39-9.39A9.41,9.41,0,0,0,238,433.21Z" transform="translate(-58.64 -35.45)"/><path class="cls-8" d="M349.77,345.07c-18.59-14.74-140.87,36.37-110.68,80a22.39,22.39,0,0,0,4.85,5.06c-7.32,16.86-6,34,4.72,42.44s27.65,5.9,42.4-5.06a22.4,22.4,0,0,0,6,3.57C346.41,490.52,368.36,359.82,349.77,345.07Z" transform="translate(-58.64 -35.45)"/><path class="cls-9" d="M349.77,345.07c-11.4-9-61.77,6.68-92.08,30.24,20.43-13.11,58.44-25.53,66-15.73,8.51,11.07-21.79,20.36-38.8,29.55s-22.41,14.63-2.74,7.55,22.32-5,6,15.57-41,62.56-16.12,32.58,38.67-46,37.68-28.44-2.77,33.45,5.56,1.17,11.87-38.12,26.14-39.76c13.86-1.6,15.46,18.69,5.24,50.32C358,394.5,359.77,353,349.77,345.07Z" transform="translate(-58.64 -35.45)"/><path class="cls-9" d="M325.4,437.05c22.67,0.14,83.19,111.39,34.61,125.8a21.4,21.4,0,0,1-6.64.87c-4.63,16.94-15.86,28.87-28.91,28.79s-24.13-12.15-28.56-29.14a21.42,21.42,0,0,1-6.63-1C240.87,547.42,302.73,436.92,325.4,437.05Z" transform="translate(-58.64 -35.45)"/><path class="cls-10" d="M325.4,437.05c13.9,0.08,42,41.94,50.51,77.63-7.37-22-28.26-54-39.73-51.19-13,3.16,4.05,28.21,11.23,45.24s7.94,24.31-2.47,7.26-13.64-17.07-13.8,8-6.9,71.13-7.48,33.92-1.27-57.43-11.06-43.74-18,26.58-4.84-2.46,14-35.5,4.32-45.26c-9.37-9.49-22.7,4.67-34,34.35C289.67,468.93,313.2,437,325.4,437.05Z" transform="translate(-58.64 -35.45)"/><circle class="cls-17" cx="333.88" cy="512.43" r="32.77" transform="translate(-278 737.74) rotate(-82.15)"/><circle class="cls-18" cx="333.88" cy="512.43" r="30.41" transform="translate(-278 737.74) rotate(-82.15)"/><circle class="cls-19" cx="333.88" cy="512.43" r="23.81" transform="translate(-278 737.74) rotate(-82.15)"/><path class="cls-20" d="M339.32,524.06c1.73-14.17,13.9-7.34,2.09,1.11C339.83,526.3,339.09,525.95,339.32,524.06Z" transform="translate(-58.64 -35.45)"/><path class="cls-20" d="M335.9,524.5c-7.95-11.86,5.72-14.64,2.31-.52C337.76,525.86,337,526.08,335.9,524.5Z" transform="translate(-58.64 -35.45)"/><path class="cls-20" d="M334.5,527.36c-14.26.58-9.49-12.53,0.76-2.24C336.62,526.49,336.4,527.29,334.5,527.36Z" transform="translate(-58.64 -35.45)"/><path class="cls-20" d="M340.86,501.74c-13,6-13.56-8-.15-2.36C342.5,500.12,342.59,500.94,340.86,501.74Z" transform="translate(-58.64 -35.45)"/><path class="cls-20" d="M343,504.41c-5.9,13-15.46,2.83-1.66-1.69C343.22,502.12,343.82,502.68,343,504.41Z" transform="translate(-58.64 -35.45)"/><path class="cls-20" d="M346.21,504.1c8,11.83-5.67,14.66-2.31.53C344.35,502.75,345.15,502.52,346.21,504.1Z" transform="translate(-58.64 -35.45)"/><path class="cls-20" d="M321.07,512.16c11.91,7.87.36,15.72-1.93,1.37C318.84,511.63,319.48,511.11,321.07,512.16Z" transform="translate(-58.64 -35.45)"/><path class="cls-20" d="M322.2,508.91c14.16-1.82,10.54,11.66-.56,2.3C320.16,510,320.31,509.16,322.2,508.91Z" transform="translate(-58.64 -35.45)"/><path class="cls-20" d="M320.26,506.38c5.85-13,15.45-2.9,1.67,1.68C320.1,508.67,319.49,508.11,320.26,506.38Z" transform="translate(-58.64 -35.45)"/><path class="cls-6" d="M464.42,185.55a40.52,40.52,0,1,1,0,81h0v-9.92h0a30.6,30.6,0,0,0,0-61.2h0v-9.92h0Zm0,81a40.52,40.52,0,1,1,0-81v9.92a30.6,30.6,0,1,0,0,61.2v9.92Z" transform="translate(-58.64 -35.45)"/><path class="cls-7" d="M464.42,188.53a37.54,37.54,0,0,1,0,75.09h0V258.4h0a32.33,32.33,0,0,0,0-64.65h0v-5.22h0Zm0,75.09a37.54,37.54,0,1,1,0-75.09v5.22a32.33,32.33,0,0,0,0,64.65v5.22Z" transform="translate(-58.64 -35.45)"/><circle class="cls-13" cx="361.78" cy="173.61" r="25.01"/><circle class="cls-14" cx="361.78" cy="173.61" r="23.41"/><circle class="cls-15" cx="361.78" cy="173.61" r="16.4"/><path class="cls-16" d="M420.42,218.45a9.39,9.39,0,1,0-9.39-9.39A9.41,9.41,0,0,0,420.42,218.45Z" transform="translate(-58.64 -35.45)"/><path class="cls-8" d="M415.85,350.2c23.32-4.38,64.82-130.25,12.1-136a22.41,22.41,0,0,0-7,.35C413,198,399.22,187.78,385.8,190.3s-22.57,17-24,35.35a22.38,22.38,0,0,0-6.65,2.22C308.17,252.37,392.53,354.58,415.85,350.2Z" transform="translate(-58.64 -35.45)"/><path class="cls-9" d="M415.85,350.2c14.3-2.69,35.42-51,37.48-89.38-3.48,24-19,60.88-31.33,60.14-13.93-.83-1.11-29.8,3.1-48.68s3.63-26.52-3.9-7-10.86,20.13-15.7-5.66-20.41-71.95-14.05-33.53,9.44,59.37-3.2,47.1-23.46-24-4.52,3.43,21,33.94,12.91,45.8c-7.88,11.52-24.25-.56-41.45-29C373.1,324.06,403.31,352.56,415.85,350.2Z" transform="translate(-58.64 -35.45)"/><path class="cls-9" d="M367.4,478.24c-8.56-21,71-119.52,102.94-80.17a21.4,21.4,0,0,1,3.35,5.8c17.42-2.21,32.75,3.59,37.67,15.67s-2,26.94-16,37.54a21.41,21.41,0,0,1,1.66,6.49C501.73,514,376,499.23,367.4,478.24Z" transform="translate(-58.64 -35.45)"/><path class="cls-10" d="M367.4,478.24c-5.25-12.87,22.64-54.88,52.35-76.4-17.49,15.23-39,46.79-32.06,56.32,7.88,10.76,24.5-14.55,37.48-27.7s19.41-16.65,7.66-.5-10.54,19.14,12.68,9.68,68.34-20.88,34.2-6.08-52.56,23.18-36.16,27,31.43,6.4-.41,5.41-38.14.7-43.46,13.35c-5.17,12.29,13,19.18,44.76,18.26C410.53,499,372,489.53,367.4,478.24Z" transform="translate(-58.64 -35.45)"/><path class="cls-8" d="M373.59,364.69c-23.18,5.07-60.92,132.12-8.06,136.31a22.38,22.38,0,0,0,7-.55c8.43,16.33,22.52,26.1,35.86,23.18s22.06-17.68,22.89-36a22.38,22.38,0,0,0,6.58-2.42C484.13,459.28,396.76,359.62,373.59,364.69Z" transform="translate(-58.64 -35.45)"/><path class="cls-9" d="M373.59,364.69c-14.21,3.11-33.89,52.07-34.81,90.45,2.76-24.11,17.19-61.41,29.53-61,14,0.41,2,29.76-1.65,48.75s-2.84,26.61,4.11,6.9,10.26-20.44,15.87,5.19,22.54,71.31,15,33.1-11.19-59.06,1.8-47.18,24.16,23.3,4.42-3.57-22-33.3-14.27-45.4c7.53-11.75,24.26-.16,42.29,27.76C417.1,389.55,386.06,362,373.59,364.69Z" transform="translate(-58.64 -35.45)"/><path class="cls-9" d="M304.73,368.94c-0.11,22.67-111.3,83.3-125.76,34.74a21.4,21.4,0,0,1-.88-6.64c-16.94-4.61-28.89-15.83-28.82-28.88s12.12-24.14,29.11-28.59a21.4,21.4,0,0,1,.94-6.63C194.27,284.52,304.85,346.27,304.73,368.94Z" transform="translate(-58.64 -35.45)"/><path class="cls-10" d="M299.85,352.34c-0.07,13.9-41.89,42.06-77.58,50.59,22-7.4,54-28.32,51.15-39.79-3.17-13-28.2,4.08-45.22,11.27s-24.3,8-7.27-2.46,17.05-13.66-8-13.79-71.13-6.83-33.93-7.45,57.43-1.33,43.73-11.1-26.6-17.93,2.45-4.84,35.51,13.93,45.27,4.27c9.48-9.38-4.7-22.7-34.38-34C267.94,316.65,299.91,340.15,299.85,352.34Z" transform="translate(-58.64 -35.45)"/><path class="cls-11" d="M171.1,357.16c-7.41-9.53-2.94-25.4,10-35.44s29.4-10.44,36.81-.91c7.92,10.19,4.75,7.25,3.33,14.77-3.06,16.25-20.34,34.37-38.51,28.69C175.17,361.92,178.28,366.41,171.1,357.16Z" transform="translate(-58.64 -35.45)"/><path class="cls-12" d="M220.14,348.94a61,61,0,0,1,11.38,10.3c5.58,7.19.56,13-6.76,18.68S211.5,388.23,205,379.85c-1.77-2.28-4.5-7.44-6.72-13.23-10.7,3.13-19.7.13-24.09-5.52-7.41-9.53-2.94-25.4,10-35.44s29.4-10.44,36.81-.91C225.14,330.12,226.53,339.17,220.14,348.94Z" transform="translate(-58.64 -35.45)"/><path class="cls-11" d="M222.93,351c-4.51-3.57-9.91-7-14.7-8.76a31.62,31.62,0,0,1,16-3.18,26.37,26.37,0,0,1-4.06,9.84c1,0.69,1.89,1.39,2.78,2.1h0Zm-24.6,15.72-0.06-.15a29,29,0,0,1-10.67,1.17,31.48,31.48,0,0,1,7.07-15l0,0A55.56,55.56,0,0,0,198.33,366.77Z" transform="translate(-58.64 -35.45)"/><path class="cls-6" d="M248.41,313.13a40.52,40.52,0,0,1,0,81h0v-9.92h0a30.6,30.6,0,0,0,0-61.2v-9.92Zm0,0h0v9.92h0a30.6,30.6,0,0,0,0,61.2v9.92A40.52,40.52,0,1,1,248.41,313.13Z" transform="translate(-58.64 -35.45)"/><path class="cls-7" d="M248.41,316.11a37.54,37.54,0,0,1,0,75.09V386a32.33,32.33,0,0,0,0-64.65v-5.22Zm0,75.09a37.54,37.54,0,1,1,0-75.09v5.22a32.33,32.33,0,0,0,0,64.65h0v5.22Z" transform="translate(-58.64 -35.45)"/><path class="cls-8" d="M275.65,397.73c21.92,9.08,125.48-73.62,84.49-107.26a22.41,22.41,0,0,0-6.05-3.54c2.41-18.22-3.57-34.29-16.18-39.51s-28.21,1.91-39.38,16.5a22.39,22.39,0,0,0-6.78-1.78C239,256.94,253.73,388.66,275.65,397.73Z" transform="translate(-58.64 -35.45)"/><path class="cls-9" d="M275.65,397.73c13.44,5.57,57.56-23.37,80.25-54.35-16,18.21-49.19,40.58-59.12,33.23-11.22-8.31,15.37-25.56,29.21-39.06s17.54-20.22.57-8-20.09,10.91-10.05-13.32,22.24-71.4,6.56-35.76-24.56,54.87-28.44,37.69-6.52-32.93-5.66.4-1,39.91-14.23,45.41c-12.89,5.34-20-13.73-18.85-46.95C254.14,352.47,263.86,392.85,275.65,397.73Z" transform="translate(-58.64 -35.45)"/><path class="cls-6" d="M301.28,308.89c-0.36,1.73-7.44,3.56-7.42,8.26,0,7.13-8,18.87-19.44,21.92-20.8,5.54-69.85-22-57.71-50C226.73,265.94,306.31,284.92,301.28,308.89Z" transform="translate(-58.64 -35.45)"/><path class="cls-21" d="M225.94,293.94c8,3.14,64,22.55,54.41,34.17-8.28,10-43.94,2.58-57.17-20C216.32,296.38,219.58,291.45,225.94,293.94Z" transform="translate(-58.64 -35.45)"/><path class="cls-21" d="M284.35,292.14c7.79,4.45,12.3,15.12,3.3,13.29-10.08-2.05-48.12-16.63-55.51-19.37s-0.3-5.79,10.57-5.23C252.56,281.34,268.22,282.93,284.35,292.14Z" transform="translate(-58.64 -35.45)"/><path class="cls-20" d="M292.07,314c-1.83,4.22-7.89,9.25-11.28,5.17S272,310,268,307.76s-11.66-6.73-7.79-5.22a45.78,45.78,0,0,0,17.86,3.06C285.54,305.33,294.41,310.39,292.07,314Z" transform="translate(-58.64 -35.45)"/><path class="cls-6" d="M258.44,316.68c-3.35.61-2.93-6.5-1.6-6.74S261.79,316.08,258.44,316.68Z" transform="translate(-58.64 -35.45)"/><path class="cls-6" d="M267.75,321.6c-3.05,1.35-4.77-5.6-3.56-6.14S270.8,320.25,267.75,321.6Z" transform="translate(-58.64 -35.45)"/><path class="cls-6" d="M251.47,314.45c-3.29-.81.82-6.95,2.13-6.63S254.76,315.26,251.47,314.45Z" transform="translate(-58.64 -35.45)"/><path class="cls-6" d="M243.89,314.7c-2.5-2,4.37-5.85,5.37-5S246.4,316.74,243.89,314.7Z" transform="translate(-58.64 -35.45)"/><path class="cls-6" d="M243,308.43c-1-2.85,7.1-3.21,7.51-2.08S244,311.28,243,308.43Z" transform="translate(-58.64 -35.45)"/><path class="cls-6" d="M253.2,322.67c-3.35-.59.22-7,1.55-6.75S256.55,323.26,253.2,322.67Z" transform="translate(-58.64 -35.45)"/><path class="cls-6" d="M260.83,326.52c-3.37.5-2.66-6.59-1.32-6.79S264.2,326,260.83,326.52Z" transform="translate(-58.64 -35.45)"/><path class="cls-6" d="M234.51,314.38c-1.48-2.7,6.52-4,7.11-3S236,317.08,234.51,314.38Z" transform="translate(-58.64 -35.45)"/><path class="cls-6" d="M243.9,323.22c-3-1.44,2.62-6.6,3.81-6S246.89,324.67,243.9,323.22Z" transform="translate(-58.64 -35.45)"/><path class="cls-6" d="M231.05,306.56c-1-2.85,7.1-3.21,7.51-2.08S232.08,309.41,231.05,306.56Z" transform="translate(-58.64 -35.45)"/><path class="cls-6" d="M252.6,289.38c2.68-.35,4.45,3.65,3.39,3.79S249.92,289.74,252.6,289.38Z" transform="translate(-58.64 -35.45)"/><path class="cls-6" d="M243.17,286.64c2.2-.77,5.76,3.14,4.88,3.45S241,287.41,243.17,286.64Z" transform="translate(-58.64 -35.45)"/><path class="cls-6" d="M259.23,290.62c3.06,0.45,1.38,3.91.17,3.74S256.17,290.18,259.23,290.62Z" transform="translate(-58.64 -35.45)"/><path class="cls-6" d="M265.62,290.46c2.75,1.14-2,3.3-3.07,2.85S262.87,289.32,265.62,290.46Z" transform="translate(-58.64 -35.45)"/><path class="cls-6" d="M268.3,294c1.74,1.6-5.11,1.82-5.79,1.19S266.57,292.39,268.3,294Z" transform="translate(-58.64 -35.45)"/><path class="cls-6" d="M255.28,286c3,0.32,1.91,3.93.7,3.8S252.24,285.68,255.28,286Z" transform="translate(-58.64 -35.45)"/><path class="cls-6" d="M247.61,283.85c2.73-.29,4.24,3.7,3.16,3.82S244.88,284.14,247.61,283.85Z" transform="translate(-58.64 -35.45)"/><path class="cls-6" d="M273.73,290.62c2.07,1.52-4.36,2.29-5.18,1.69S271.66,289.11,273.73,290.62Z" transform="translate(-58.64 -35.45)"/><path class="cls-6" d="M263.06,285.67c3,0.81-.26,3.72-1.45,3.4S260.07,284.86,263.06,285.67Z" transform="translate(-58.64 -35.45)"/><path class="cls-6" d="M279,295c1.74,1.6-5.11,1.82-5.79,1.19S277.3,293.42,279,295Z" transform="translate(-58.64 -35.45)"/><path class="cls-6" d="M396.28,353.73a40.52,40.52,0,0,1,0,81v-9.92a30.6,30.6,0,1,0,0-61.2v-9.92Zm0,0h0v9.92h0a30.6,30.6,0,1,0,0,61.2h0v9.92h0A40.52,40.52,0,0,1,396.28,353.73Z" transform="translate(-58.64 -35.45)"/><path class="cls-7" d="M396.28,356.71a37.54,37.54,0,1,1,0,75.09h0v-5.22h0a32.33,32.33,0,0,0,0-64.65h0v-5.22h0Zm0,75.09a37.54,37.54,0,0,1,0-75.09v5.22a32.33,32.33,0,0,0,0,64.65v5.22Z" transform="translate(-58.64 -35.45)"/><path class="cls-9" d="M413.2,374.23C403,394.46,276.41,399,285.17,349.1a21.41,21.41,0,0,1,2.19-6.33c-13.1-11.7-18.77-27.07-12.88-38.72s21.63-16.18,38.82-12.56a21.43,21.43,0,0,1,3.81-5.51C352.13,249.35,423.44,354,413.2,374.23Z" transform="translate(-58.64 -35.45)"/><path class="cls-10" d="M413.2,374.23c-6.28,12.4-56.28,18.9-92,10.58,23,3.21,60.93-1.22,63.54-12.73,3-13-27.05-9-45.49-10.13s-25.3-3.74-5.4-5.45,21.36-4.6-1-15.92-60.58-37.9-27-21.83,52,24.48,44.08,9.61-15.78-27.92,4.36-3.23,25.54,28.33,38.59,24.05c12.67-4.16,5.94-22.41-15.57-45.76C400.61,328,418.71,363.35,413.2,374.23Z" transform="translate(-58.64 -35.45)"/><path class="cls-8" d="M476.08,392.64c1.4,23.68,121,80.77,133.38,29.21a22.39,22.39,0,0,0,.54-7c17.45-5.78,29.3-18.17,28.49-31.8s-14-24.55-32-28.23a22.39,22.39,0,0,0-1.36-6.88C586.74,298.19,474.68,369,476.08,392.64Z" transform="translate(-58.64 -35.45)"/><path class="cls-9" d="M465.7,389.17c0.86,14.52,46.15,41.59,83.92,48.49-23.39-6.49-58-26.55-55.7-38.69,2.58-13.72,29.7,2.67,47.89,9.23s25.84,7,7.45-3-18.59-13.32,7.6-14.86,73.95-11.15,35-9.7-60.08,1.85-46.32-9.14,26.78-20.23-2.83-4.92-36.33,16.56-47.06,7c-10.43-9.27,3.63-24,34-37.45C497,350.07,464.95,376.43,465.7,389.17Z" transform="translate(-58.64 -35.45)"/><circle class="cls-13" cx="503.15" cy="277.22" r="25.01"/><circle class="cls-14" cx="503.15" cy="277.22" r="23.41"/><circle class="cls-15" cx="503.15" cy="277.22" r="16.4"/><path class="cls-16" d="M561.8,322.05a9.39,9.39,0,1,0-9.39-9.39A9.41,9.41,0,0,0,561.8,322.05Z" transform="translate(-58.64 -35.45)"/><path class="cls-6" d="M581.34,348c-0.36,1.73-7.44,3.56-7.42,8.26,0,7.13-8,18.87-19.44,21.92-20.8,5.54-69.85-22-57.71-50C506.79,305,586.36,324,581.34,348Z" transform="translate(-58.64 -35.45)"/><path class="cls-21" d="M506,333c8,3.14,64,22.55,54.41,34.17-8.29,10-43.94,2.58-57.17-20C496.37,335.48,499.63,330.55,506,333Z" transform="translate(-58.64 -35.45)"/><path class="cls-21" d="M564.4,331.24c7.79,4.45,12.3,15.12,3.3,13.29-10.08-2.05-48.12-16.63-55.51-19.37s-0.3-5.79,10.57-5.23C532.62,320.45,548.28,322,564.4,331.24Z" transform="translate(-58.64 -35.45)"/><path class="cls-20" d="M572.13,353.08c-1.83,4.22-7.89,9.25-11.28,5.17s-8.8-9.09-12.78-11.38-11.66-6.73-7.79-5.22a45.77,45.77,0,0,0,17.86,3.06C565.59,344.43,574.46,349.49,572.13,353.08Z" transform="translate(-58.64 -35.45)"/><path class="cls-6" d="M538.49,355.79c-3.35.61-2.93-6.5-1.61-6.74S541.84,355.18,538.49,355.79Z" transform="translate(-58.64 -35.45)"/><path class="cls-6" d="M547.8,360.71c-3.05,1.35-4.77-5.6-3.56-6.14S550.86,359.36,547.8,360.71Z" transform="translate(-58.64 -35.45)"/><path class="cls-6" d="M531.52,353.56c-3.29-.81.82-6.95,2.13-6.63S534.81,354.37,531.52,353.56Z" transform="translate(-58.64 -35.45)"/><path class="cls-6" d="M523.95,353.81c-2.5-2,4.37-5.85,5.37-5S526.45,355.84,523.95,353.81Z" transform="translate(-58.64 -35.45)"/><path class="cls-6" d="M523,347.54c-1-2.85,7.1-3.21,7.51-2.08S524,350.39,523,347.54Z" transform="translate(-58.64 -35.45)"/><path class="cls-6" d="M533.25,361.77c-3.35-.59.22-7,1.55-6.75S536.61,362.36,533.25,361.77Z" transform="translate(-58.64 -35.45)"/><path class="cls-6" d="M540.88,365.62c-3.37.5-2.66-6.59-1.32-6.79S544.25,365.12,540.88,365.62Z" transform="translate(-58.64 -35.45)"/><path class="cls-6" d="M514.57,353.49c-1.48-2.7,6.52-4,7.11-3S516,356.19,514.57,353.49Z" transform="translate(-58.64 -35.45)"/><path class="cls-6" d="M524,362.33c-3-1.44,2.62-6.6,3.81-6S526.95,363.77,524,362.33Z" transform="translate(-58.64 -35.45)"/><path class="cls-6" d="M511.1,345.67c-1-2.85,7.1-3.21,7.51-2.08S512.14,348.52,511.1,345.67Z" transform="translate(-58.64 -35.45)"/><path class="cls-6" d="M532.65,328.49c2.68-.35,4.45,3.65,3.39,3.79S530,328.84,532.65,328.49Z" transform="translate(-58.64 -35.45)"/><path class="cls-6" d="M523.22,325.74c2.2-.77,5.76,3.14,4.88,3.45S521,326.51,523.22,325.74Z" transform="translate(-58.64 -35.45)"/><path class="cls-6" d="M539.28,329.73c3.06,0.45,1.38,3.91.17,3.74S536.22,329.28,539.28,329.73Z" transform="translate(-58.64 -35.45)"/><path class="cls-6" d="M545.67,329.57c2.75,1.14-2,3.3-3.07,2.85S542.92,328.43,545.67,329.57Z" transform="translate(-58.64 -35.45)"/><path class="cls-6" d="M548.35,333.1c1.74,1.6-5.11,1.82-5.79,1.19S546.62,331.5,548.35,333.1Z" transform="translate(-58.64 -35.45)"/><path class="cls-6" d="M535.33,325.11c3,0.32,1.91,3.93.7,3.8S532.29,324.79,535.33,325.11Z" transform="translate(-58.64 -35.45)"/><path class="cls-6" d="M527.66,323c2.73-.29,4.24,3.7,3.16,3.82S524.93,323.25,527.66,323Z" transform="translate(-58.64 -35.45)"/><path class="cls-6" d="M553.78,329.73c2.07,1.51-4.36,2.29-5.18,1.69S551.71,328.21,553.78,329.73Z" transform="translate(-58.64 -35.45)"/><path class="cls-6" d="M543.12,324.77c3,0.81-.26,3.72-1.45,3.4S540.12,324,543.12,324.77Z" transform="translate(-58.64 -35.45)"/><path class="cls-6" d="M559.09,334.13c1.74,1.6-5.11,1.82-5.79,1.19S557.35,332.52,559.09,334.13Z" transform="translate(-58.64 -35.45)"/><path class="cls-9" d="M443.91,404c-20.27-10.15-25.35-136.69,24.6-128.14a21.38,21.38,0,0,1,6.34,2.16c11.65-13.14,27-18.88,38.66-13s16.27,21.57,12.72,38.77a21.42,21.42,0,0,1,5.53,3.79C568.54,342.36,464.18,414.11,443.91,404Z" transform="translate(-58.64 -35.45)"/><path class="cls-10" d="M443.91,404c-12.43-6.22-19.14-56.19-11-92-3.11,23,1.47,60.92,13,63.49,13,2.9,8.84-27.09,9.94-45.54s3.63-25.32,5.43-5.42,4.69,21.34,15.91-1.08,37.65-60.74,21.71-27.11-24.26,52.07-9.43,44.12,27.86-15.9,3.25,4.34-28.22,25.66-23.89,38.69c4.21,12.65,22.43,5.85,45.7-15.76C490.05,391.17,454.82,409.42,443.91,404Z" transform="translate(-58.64 -35.45)"/><path class="cls-6" d="M458.34,420.22c-2,.32-6.32-5.66-11.39-3.85-7.68,2.74-23-.37-30.13-10-12.91-17.5.47-74.24,34.73-73.48C479.86,333.55,485.88,415.82,458.34,420.22Z" transform="translate(-58.64 -35.45)"/><path class="cls-21" d="M449.38,343.48c-0.71,8.76-3,69-18.76,64.33-13.58-4-17.42-40.44,2.56-61.54C443.54,335.34,449.95,336.53,449.38,343.48Z" transform="translate(-58.64 -35.45)"/><path class="cls-21" d="M470.78,397.86c-2.21,9-12.22,17.36-13.24,8.18-1.14-10.28,1.91-51.71,2.41-59.73s6.15-2.5,9.16,8C471.84,363.78,475.34,379.15,470.78,397.86Z" transform="translate(-58.64 -35.45)"/><path class="cls-20" d="M449.79,413.47c-5.16-.11-12.61-3.91-9.33-8.67s6.89-11.76,8-16.38,3.38-13.57,3-9.34a40.68,40.68,0,0,0,2.64,18C456.94,404,454.43,414.31,449.79,413.47Z" transform="translate(-58.64 -35.45)"/><path class="cls-6" d="M435.66,382.79c-1.77-2.93,6-5.24,6.74-4.08S437.43,385.72,435.66,382.79Z" transform="translate(-58.64 -35.45)"/><path class="cls-6" d="M433.45,393.45c-2.47-2.36,4.46-6.63,5.44-5.7S435.92,395.81,433.45,393.45Z" transform="translate(-58.64 -35.45)"/><path class="cls-6" d="M435.74,375.37c-0.23-3.41,7.77-1.87,7.86-.52S436,378.78,435.74,375.37Z" transform="translate(-58.64 -35.45)"/><path class="cls-6" d="M432.95,368.32c1.36-3.14,7.77,1.89,7.23,3.14S431.59,371.46,432.95,368.32Z" transform="translate(-58.64 -35.45)"/><path class="cls-6" d="M439.4,365c2.73-2.06,5.83,5.47,4.74,6.29S436.67,367.11,439.4,365Z" transform="translate(-58.64 -35.45)"/><path class="cls-6" d="M427.45,380.14c-0.48-3.39,7.61-2.46,7.8-1.11S427.94,383.52,427.45,380.14Z" transform="translate(-58.64 -35.45)"/><path class="cls-6" d="M425.84,388.8c-1.66-3,6.23-5,6.89-3.83S427.5,391.79,425.84,388.8Z" transform="translate(-58.64 -35.45)"/><path class="cls-6" d="M430.17,359.36c2.42-2.42,6.53,4.61,5.57,5.57S427.75,361.78,430.17,359.36Z" transform="translate(-58.64 -35.45)"/><path class="cls-6" d="M423.76,371.58c0.56-3.37,8,0,7.77,1.29S423.19,375,423.76,371.58Z" transform="translate(-58.64 -35.45)"/><path class="cls-6" d="M437.46,353.11c2.73-2.06,5.83,5.47,4.74,6.29S434.73,355.17,437.46,353.11Z" transform="translate(-58.64 -35.45)"/><path class="cls-6" d="M463.17,366.88c1.27,2.39-2.46,5.59-3,4.64S461.9,364.49,463.17,366.88Z" transform="translate(-58.64 -35.45)"/><path class="cls-6" d="M463,356.94c1.56,1.78-1.48,6.63-2.1,5.92S461.43,355.16,463,356.94Z" transform="translate(-58.64 -35.45)"/><path class="cls-6" d="M464,373.6c0.54,3.05-3.76,2.8-4,1.58S463.51,370.55,464,373.6Z" transform="translate(-58.64 -35.45)"/><path class="cls-6" d="M466.34,379.57c-0.31,3-4.23-.61-4.1-1.81S466.66,376.54,466.34,379.57Z" transform="translate(-58.64 -35.45)"/><path class="cls-6" d="M463.43,383.44c-1.15,2.25-3.67-4.12-3.21-5S464.58,381.2,463.43,383.44Z" transform="translate(-58.64 -35.45)"/><path class="cls-6" d="M467.72,368.12c0.66,3-3.61,3.3-3.87,2.11S467.05,365.13,467.72,368.12Z" transform="translate(-58.64 -35.45)"/><path class="cls-6" d="M467.48,360.07c1.22,2.46-2.58,5.41-3.07,4.44S466.26,357.6,467.48,360.07Z" transform="translate(-58.64 -35.45)"/><path class="cls-6" d="M468.88,387.27c-0.94,2.53-3.93-3.24-3.55-4.24S469.82,384.74,468.88,387.27Z" transform="translate(-58.64 -35.45)"/><path class="cls-6" d="M470.67,375.33c0.13,3.13-4.1,1.17-4.15-.07S470.54,372.2,470.67,375.33Z" transform="translate(-58.64 -35.45)"/><path class="cls-6" d="M465.9,394c-1.15,2.25-3.67-4.12-3.21-5S467,391.7,465.9,394Z" transform="translate(-58.64 -35.45)"/><circle class="cls-17" cx="280.7" cy="273.17" r="32.77" transform="translate(-86.89 478.48) rotate(-82.15)"/><circle class="cls-18" cx="280.7" cy="273.17" r="30.41" transform="translate(-86.89 478.48) rotate(-82.15)"/><circle class="cls-19" cx="280.7" cy="273.17" r="23.81" transform="translate(-86.9 478.47) rotate(-82.15)"/><path class="cls-20" d="M286.14,284.79c1.73-14.17,13.9-7.34,2.09,1.11C286.65,287,285.91,286.68,286.14,284.79Z" transform="translate(-58.64 -35.45)"/><path class="cls-20" d="M282.72,285.24c-7.95-11.86,5.72-14.64,2.31-.52C284.58,286.59,283.78,286.82,282.72,285.24Z" transform="translate(-58.64 -35.45)"/><path class="cls-20" d="M281.32,288.1c-14.26.58-9.49-12.53,0.76-2.24C283.44,287.23,283.22,288,281.32,288.1Z" transform="translate(-58.64 -35.45)"/><path class="cls-20" d="M287.68,262.48c-13,6-13.56-8-.15-2.36C289.31,260.86,289.41,261.68,287.68,262.48Z" transform="translate(-58.64 -35.45)"/><path class="cls-20" d="M289.86,265.15c-5.9,13-15.46,2.83-1.66-1.69C290,262.86,290.64,263.41,289.86,265.15Z" transform="translate(-58.64 -35.45)"/><path class="cls-20" d="M293,264.84c8,11.83-5.67,14.66-2.31.53C291.17,263.49,292,263.26,293,264.84Z" transform="translate(-58.64 -35.45)"/><path class="cls-20" d="M267.89,272.9c11.91,7.87.36,15.72-1.93,1.37C265.66,272.36,266.3,271.85,267.89,272.9Z" transform="translate(-58.64 -35.45)"/><path class="cls-20" d="M269,269.65c14.16-1.82,10.54,11.66-.56,2.3C267,270.7,267.13,269.89,269,269.65Z" transform="translate(-58.64 -35.45)"/><path class="cls-20" d="M267.08,267.11c5.85-13,15.45-2.9,1.67,1.68C266.91,269.4,266.3,268.85,267.08,267.11Z" transform="translate(-58.64 -35.45)"/><path class="cls-6" d="M361.84,257.17c-0.36,1.73-7.44,3.56-7.42,8.26,0,7.13-8,18.87-19.44,21.92-20.8,5.54-69.85-22-57.71-50C287.29,214.22,366.86,233.2,361.84,257.17Z" transform="translate(-58.64 -35.45)"/><path class="cls-21" d="M286.49,242.21c8,3.14,64,22.55,54.41,34.17-8.28,10-43.94,2.58-57.17-20C276.87,244.65,280.13,239.73,286.49,242.21Z" transform="translate(-58.64 -35.45)"/><path class="cls-21" d="M344.9,240.42c7.79,4.45,12.3,15.12,3.3,13.29-10.08-2.05-48.12-16.62-55.51-19.37s-0.31-5.79,10.57-5.23C313.12,229.62,328.78,231.21,344.9,240.42Z" transform="translate(-58.64 -35.45)"/><path class="cls-20" d="M352.63,262.25c-1.83,4.22-7.89,9.25-11.28,5.17s-8.8-9.1-12.78-11.38-11.66-6.73-7.79-5.22a45.76,45.76,0,0,0,17.86,3.06C346.09,253.6,355,258.66,352.63,262.25Z" transform="translate(-58.64 -35.45)"/><path class="cls-6" d="M319,265c-3.35.61-2.93-6.5-1.61-6.74S322.34,264.35,319,265Z" transform="translate(-58.64 -35.45)"/><path class="cls-6" d="M328.3,269.88c-3.05,1.35-4.77-5.6-3.56-6.14S331.35,268.53,328.3,269.88Z" transform="translate(-58.64 -35.45)"/><path class="cls-6" d="M312,262.73c-3.29-.81.82-6.95,2.13-6.63S315.31,263.54,312,262.73Z" transform="translate(-58.64 -35.45)"/><path class="cls-6" d="M304.44,263c-2.5-2,4.37-5.85,5.37-5S306.95,265,304.44,263Z" transform="translate(-58.64 -35.45)"/><path class="cls-6" d="M303.51,256.71c-1-2.85,7.1-3.21,7.51-2.08S304.54,259.56,303.51,256.71Z" transform="translate(-58.64 -35.45)"/><path class="cls-6" d="M313.75,270.95c-3.35-.59.22-7,1.55-6.75S317.11,271.53,313.75,270.95Z" transform="translate(-58.64 -35.45)"/><path class="cls-6" d="M321.38,274.79c-3.37.5-2.66-6.59-1.32-6.79S324.75,274.29,321.38,274.79Z" transform="translate(-58.64 -35.45)"/><path class="cls-6" d="M295.07,262.66c-1.48-2.7,6.52-4,7.11-3S296.54,265.36,295.07,262.66Z" transform="translate(-58.64 -35.45)"/><path class="cls-6" d="M304.45,271.5c-3-1.45,2.62-6.6,3.81-6S307.44,272.94,304.45,271.5Z" transform="translate(-58.64 -35.45)"/><path class="cls-6" d="M291.6,254.84c-1-2.85,7.1-3.21,7.51-2.08S292.64,257.69,291.6,254.84Z" transform="translate(-58.64 -35.45)"/><path class="cls-6" d="M313.15,237.66c2.68-.35,4.45,3.65,3.39,3.79S310.47,238,313.15,237.66Z" transform="translate(-58.64 -35.45)"/><path class="cls-6" d="M303.72,234.92c2.2-.77,5.76,3.14,4.88,3.45S301.52,235.68,303.72,234.92Z" transform="translate(-58.64 -35.45)"/><path class="cls-6" d="M319.78,238.9c3.06,0.45,1.38,3.91.17,3.74S316.72,238.46,319.78,238.9Z" transform="translate(-58.64 -35.45)"/><path class="cls-6" d="M326.17,238.74c2.75,1.14-2,3.3-3.07,2.85S323.42,237.6,326.17,238.74Z" transform="translate(-58.64 -35.45)"/><path class="cls-6" d="M328.85,242.27c1.74,1.6-5.11,1.82-5.79,1.19S327.12,240.67,328.85,242.27Z" transform="translate(-58.64 -35.45)"/><path class="cls-6" d="M315.83,234.28c3,0.32,1.91,3.93.7,3.8S312.79,234,315.83,234.28Z" transform="translate(-58.64 -35.45)"/><path class="cls-6" d="M308.16,232.13c2.73-.29,4.24,3.7,3.16,3.82S305.43,232.42,308.16,232.13Z" transform="translate(-58.64 -35.45)"/><path class="cls-6" d="M334.28,238.9c2.07,1.52-4.36,2.29-5.18,1.69S332.21,237.39,334.28,238.9Z" transform="translate(-58.64 -35.45)"/><path class="cls-6" d="M323.61,233.95c3,0.81-.26,3.72-1.45,3.4S320.62,233.14,323.61,233.95Z" transform="translate(-58.64 -35.45)"/><path class="cls-6" d="M339.58,243.3c1.74,1.6-5.11,1.82-5.79,1.19S337.85,241.7,339.58,243.3Z" transform="translate(-58.64 -35.45)"/><circle class="cls-13" cx="429.77" cy="455.28" r="25.01"/><circle class="cls-14" cx="429.77" cy="455.28" r="23.41"/><circle class="cls-15" cx="429.77" cy="455.28" r="16.4"/><path class="cls-16" d="M488.41,500.12a9.39,9.39,0,1,0-9.39-9.39A9.41,9.41,0,0,0,488.41,500.12Z" transform="translate(-58.64 -35.45)"/><circle class="cls-17" cx="558.02" cy="426.19" r="32.77" transform="translate(0.95 885.31) rotate(-82.15)"/><circle class="cls-18" cx="558.02" cy="426.19" r="30.41" transform="translate(0.96 885.31) rotate(-82.15)"/><circle class="cls-19" cx="558.02" cy="426.19" r="23.81" transform="translate(0.95 885.3) rotate(-82.15)"/><path class="cls-20" d="M563.45,437.81c1.73-14.17,13.9-7.34,2.09,1.11C564,440.05,563.22,439.7,563.45,437.81Z" transform="translate(-58.64 -35.45)"/><path class="cls-20" d="M560,438.26c-7.95-11.86,5.72-14.64,2.31-.52C561.89,439.61,561.1,439.84,560,438.26Z" transform="translate(-58.64 -35.45)"/><path class="cls-20" d="M558.63,441.12c-14.26.58-9.49-12.53,0.76-2.24C560.75,440.25,560.53,441,558.63,441.12Z" transform="translate(-58.64 -35.45)"/><path class="cls-20" d="M565,415.5c-13,6-13.56-8-.15-2.36C566.63,413.88,566.73,414.7,565,415.5Z" transform="translate(-58.64 -35.45)"/><path class="cls-20" d="M567.17,418.17c-5.9,13-15.46,2.83-1.66-1.69C567.35,415.87,568,416.43,567.17,418.17Z" transform="translate(-58.64 -35.45)"/><path class="cls-20" d="M570.34,417.86c8,11.82-5.67,14.66-2.31.53C568.49,416.51,569.28,416.28,570.34,417.86Z" transform="translate(-58.64 -35.45)"/><path class="cls-20" d="M545.2,425.92c11.91,7.87.37,15.72-1.93,1.37C543,425.38,543.61,424.87,545.2,425.92Z" transform="translate(-58.64 -35.45)"/><path class="cls-20" d="M546.33,422.67c14.16-1.82,10.54,11.66-.56,2.3C544.29,423.72,544.44,422.91,546.33,422.67Z" transform="translate(-58.64 -35.45)"/><path class="cls-20" d="M544.4,420.13c5.85-13,15.45-2.9,1.67,1.68C544.23,422.42,543.62,421.87,544.4,420.13Z" transform="translate(-58.64 -35.45)"/><path class="cls-6" d="M527.13,399c1.72,1,1.15,8.41,6.18,10.31,7.63,2.89,17.32,15.21,16.5,27.11-1.5,21.69-48.44,56.27-74,33.5C454.6,451.06,503.29,384.48,527.13,399Z" transform="translate(-58.64 -35.45)"/><path class="cls-21" d="M484.26,463.24c6.22-6.22,47-50.59,56-36.87,7.77,11.83-12.92,42.1-41.81,45.23C483.43,473.23,479.32,468.17,484.26,463.24Z" transform="translate(-58.64 -35.45)"/><path class="cls-21" d="M503.17,407.95c7.54-5.46,20.55-5.31,15.38,2.34-5.79,8.57-34.95,38.16-40.52,43.95s-6.3-2.08-1.82-12C480.29,433.23,487.58,419.25,503.17,407.95Z" transform="translate(-58.64 -35.45)"/><path class="cls-20" d="M529.28,409.64c3.86,3.43,7.08,11.15,1.5,12.65s-12.86,4.5-16.72,7.29-11.36,8.15-8.36,5.15a40.69,40.69,0,0,0,9.65-15.44C517.7,412.22,526.28,406,529.28,409.64Z" transform="translate(-58.64 -35.45)"/><path class="cls-6" d="M520.17,442.18c-0.54,3.38-8,.09-7.78-1.25S520.72,438.8,520.17,442.18Z" transform="translate(-58.64 -35.45)"/><path class="cls-6" d="M528.76,435.48c0.35,3.4-7.7,2.17-7.84.82S528.4,432.08,528.76,435.48Z" transform="translate(-58.64 -35.45)"/><path class="cls-6" d="M515.3,447.78c-2,2.75-7.14-3.61-6.33-4.69S517.34,445,515.3,447.78Z" transform="translate(-58.64 -35.45)"/><path class="cls-6" d="M512.87,455c-3.07,1.51-4.69-6.47-3.47-7.07S515.94,453.44,512.87,455Z" transform="translate(-58.64 -35.45)"/><path class="cls-6" d="M505.83,453.27c-3.41-.2-0.9-7.94.46-7.86S509.24,453.47,505.83,453.27Z" transform="translate(-58.64 -35.45)"/><path class="cls-6" d="M524.7,449.51c-1.82,2.89-7.39-3.06-6.66-4.2S526.53,446.62,524.7,449.51Z" transform="translate(-58.64 -35.45)"/><path class="cls-6" d="M531.54,444c-0.67,3.35-8-.21-7.73-1.54S532.21,440.6,531.54,444Z" transform="translate(-58.64 -35.45)"/><path class="cls-6" d="M509.18,463.58c-3.41.28-2-7.74-.64-7.85S512.59,463.31,509.18,463.58Z" transform="translate(-58.64 -35.45)"/><path class="cls-6" d="M522,458.43c-2.61,2.21-6.12-5.14-5.08-6S524.59,456.22,522,458.43Z" transform="translate(-58.64 -35.45)"/><path class="cls-6" d="M499.58,463.62c-3.41-.2-0.9-7.94.46-7.87S503,463.82,499.58,463.62Z" transform="translate(-58.64 -35.45)"/><path class="cls-6" d="M488.9,436.48c0.58-2.65,5.49-2.67,5.26-1.62S488.32,439.12,488.9,436.48Z" transform="translate(-58.64 -35.45)"/><path class="cls-6" d="M482.6,444.17c0-2.37,5.42-4.09,5.43-3.15S482.63,446.54,482.6,444.17Z" transform="translate(-58.64 -35.45)"/><path class="cls-6" d="M492.59,430.8c1.57-2.67,4.68.31,4.06,1.37S491,433.47,492.59,430.8Z" transform="translate(-58.64 -35.45)"/><path class="cls-6" d="M494.7,424.76c2.2-2.1,2.82,3.2,2,4S492.5,426.86,494.7,424.76Z" transform="translate(-58.64 -35.45)"/><path class="cls-6" d="M499.43,423.69c2.33-1,.13,5.51-0.8,5.9S497.1,424.66,499.43,423.69Z" transform="translate(-58.64 -35.45)"/><path class="cls-6" d="M486.24,432.59c1.43-2.71,4.89-.18,4.32.9S484.81,435.3,486.24,432.59Z" transform="translate(-58.64 -35.45)"/><path class="cls-6" d="M481.21,438.88c0.66-2.67,5.47-2.45,5.21-1.39S480.54,441.55,481.21,438.88Z" transform="translate(-58.64 -35.45)"/><path class="cls-6" d="M497.76,417.25c2.36-1.32.9,5,0,5.53S495.4,418.56,497.76,417.25Z" transform="translate(-58.64 -35.45)"/><path class="cls-6" d="M488.66,425.19c1.93-2.47,3.89,1.76,3.12,2.74S486.73,427.65,488.66,425.19Z" transform="translate(-58.64 -35.45)"/><path class="cls-6" d="M504.36,414.09c2.33-1,.13,5.51-0.8,5.9S502,415.06,504.36,414.09Z" transform="translate(-58.64 -35.45)"/><path class="cls-6" d="M332.45,527.94c0.36,1.73,7.44,3.56,7.42,8.26,0,7.13,8,18.87,19.44,21.91,20.8,5.54,69.85-22,57.71-50C407,485,327.42,504,332.45,527.94Z" transform="translate(-58.64 -35.45)"/><path class="cls-21" d="M407.79,513c-8,3.14-64,22.55-54.41,34.17,8.28,10,43.94,2.58,57.17-20C417.41,515.42,414.15,510.5,407.79,513Z" transform="translate(-58.64 -35.45)"/><path class="cls-21" d="M349.38,511.19c-7.79,4.45-12.3,15.12-3.3,13.29,10.08-2.05,48.12-16.62,55.51-19.37s0.31-5.79-10.57-5.23C381.17,500.39,365.51,502,349.38,511.19Z" transform="translate(-58.64 -35.45)"/><path class="cls-20" d="M341.66,533c1.83,4.22,7.89,9.25,11.28,5.17s8.8-9.09,12.78-11.38,11.66-6.73,7.79-5.22a45.75,45.75,0,0,1-17.86,3.06C348.19,524.37,339.32,529.44,341.66,533Z" transform="translate(-58.64 -35.45)"/><path class="cls-6" d="M375.29,535.73c3.35,0.61,2.93-6.5,1.6-6.74S371.94,535.12,375.29,535.73Z" transform="translate(-58.64 -35.45)"/><path class="cls-6" d="M366,540.65c3.05,1.35,4.77-5.61,3.56-6.14S362.93,539.3,366,540.65Z" transform="translate(-58.64 -35.45)"/><path class="cls-6" d="M382.26,533.5c3.29-.81-0.82-6.95-2.13-6.63S379,534.31,382.26,533.5Z" transform="translate(-58.64 -35.45)"/><path class="cls-6" d="M389.84,533.75c2.5-2-4.37-5.85-5.37-5S387.33,535.79,389.84,533.75Z" transform="translate(-58.64 -35.45)"/><path class="cls-6" d="M390.78,527.48c1-2.85-7.1-3.21-7.51-2.08S389.74,530.33,390.78,527.48Z" transform="translate(-58.64 -35.45)"/><path class="cls-6" d="M380.53,541.72c3.35-.59-0.22-7-1.55-6.75S377.18,542.3,380.53,541.72Z" transform="translate(-58.64 -35.45)"/><path class="cls-6" d="M372.9,545.57c3.37,0.5,2.66-6.59,1.32-6.79S369.53,545.07,372.9,545.57Z" transform="translate(-58.64 -35.45)"/><path class="cls-6" d="M399.22,533.43c1.48-2.69-6.52-4-7.11-3S397.74,536.13,399.22,533.43Z" transform="translate(-58.64 -35.45)"/><path class="cls-6" d="M389.83,542.27c3-1.44-2.62-6.6-3.81-6S386.84,543.72,389.83,542.27Z" transform="translate(-58.64 -35.45)"/><path class="cls-6" d="M402.68,525.61c1-2.85-7.1-3.21-7.51-2.08S401.65,528.46,402.68,525.61Z" transform="translate(-58.64 -35.45)"/><path class="cls-6" d="M381.13,508.43c-2.68-.35-4.45,3.65-3.39,3.79S383.81,508.79,381.13,508.43Z" transform="translate(-58.64 -35.45)"/><path class="cls-6" d="M390.56,505.69c-2.2-.77-5.76,3.15-4.88,3.45S392.76,506.46,390.56,505.69Z" transform="translate(-58.64 -35.45)"/><path class="cls-6" d="M374.5,509.67c-3.06.45-1.38,3.91-.17,3.74S377.56,509.23,374.5,509.67Z" transform="translate(-58.64 -35.45)"/><path class="cls-6" d="M368.11,509.51c-2.75,1.14,2,3.3,3.07,2.85S370.86,508.37,368.11,509.51Z" transform="translate(-58.64 -35.45)"/><path class="cls-6" d="M365.43,513c-1.74,1.6,5.11,1.82,5.79,1.19S367.16,511.44,365.43,513Z" transform="translate(-58.64 -35.45)"/><path class="cls-6" d="M378.45,505.05c-3,.32-1.91,3.93-0.7,3.8S381.49,504.73,378.45,505.05Z" transform="translate(-58.64 -35.45)"/><path class="cls-6" d="M386.12,502.9c-2.73-.29-4.24,3.7-3.16,3.82S388.85,503.19,386.12,502.9Z" transform="translate(-58.64 -35.45)"/><path class="cls-6" d="M360,509.67c-2.07,1.51,4.36,2.29,5.18,1.69S362.07,508.16,360,509.67Z" transform="translate(-58.64 -35.45)"/><path class="cls-6" d="M370.67,504.72c-3,.81.26,3.72,1.45,3.4S373.66,503.91,370.67,504.72Z" transform="translate(-58.64 -35.45)"/><path class="cls-6" d="M354.7,514.07c-1.74,1.6,5.11,1.82,5.79,1.19S356.43,512.47,354.7,514.07Z" transform="translate(-58.64 -35.45)"/><circle class="cls-17" cx="474.81" cy="298.28" r="32.77" transform="translate(55.82 692.45) rotate(-82.15)"/><circle class="cls-18" cx="474.81" cy="298.28" r="30.41" transform="translate(55.82 692.45) rotate(-82.15)"/><circle class="cls-19" cx="474.81" cy="298.28" r="23.81" transform="translate(55.81 692.44) rotate(-82.15)"/><path class="cls-20" d="M480.24,309.91c1.73-14.17,13.9-7.34,2.09,1.11C480.76,312.15,480,311.8,480.24,309.91Z" transform="translate(-58.64 -35.45)"/><path class="cls-20" d="M476.83,310.35c-7.95-11.86,5.72-14.64,2.31-.52C478.68,311.71,477.89,311.93,476.83,310.35Z" transform="translate(-58.64 -35.45)"/><path class="cls-20" d="M475.42,313.22c-14.26.58-9.49-12.53,0.76-2.24C477.55,312.34,477.32,313.14,475.42,313.22Z" transform="translate(-58.64 -35.45)"/><path class="cls-20" d="M481.79,287.59c-13,6-13.56-8-.15-2.36C483.42,286,483.52,286.79,481.79,287.59Z" transform="translate(-58.64 -35.45)"/><path class="cls-20" d="M484,290.26c-5.9,13-15.46,2.83-1.66-1.69C484.14,288,484.75,288.53,484,290.26Z" transform="translate(-58.64 -35.45)"/><path class="cls-20" d="M487.14,290c8,11.83-5.67,14.66-2.31.53C485.28,288.6,486.07,288.38,487.14,290Z" transform="translate(-58.64 -35.45)"/><path class="cls-20" d="M462,298c11.91,7.87.37,15.72-1.93,1.37C459.76,297.48,460.41,297,462,298Z" transform="translate(-58.64 -35.45)"/><path class="cls-20" d="M463.12,294.77c14.16-1.82,10.54,11.66-.56,2.3C461.08,295.82,461.23,295,463.12,294.77Z" transform="translate(-58.64 -35.45)"/><path class="cls-20" d="M461.19,292.23c5.85-13,15.45-2.9,1.67,1.68C461,294.52,460.41,294,461.19,292.23Z" transform="translate(-58.64 -35.45)"/><path class="cls-6" d="M446.54,268.06c1.1,1.68,8.44.86,10.52,5.81,3.15,7.52,15.81,16.77,27.68,15.52,21.62-2.26,54.51-50.4,30.85-75.19C496,193.73,431.22,244.75,446.54,268.06Z" transform="translate(-58.64 -35.45)"/><path class="cls-21" d="M509.25,222.93c-6,6.43-48.9,48.72-34.87,57.23,12.1,7.34,41.61-14.4,43.72-43.38C519.21,221.75,514,217.83,509.25,222.93Z" transform="translate(-58.64 -35.45)"/><path class="cls-21" d="M454.67,243.8c-5.19,7.73-4.58,20.73,2.89,15.29C465.92,253,494.45,222.81,500,217s-2.3-6.22-12.06-1.39C479.12,220,465.41,227.81,454.67,243.8Z" transform="translate(-58.64 -35.45)"/><path class="cls-20" d="M457.29,269.83c3.56,3.74,11.39,6.67,12.69,1.05s4-13,6.69-17,7.74-11.64,4.84-8.54a40.69,40.69,0,0,1-15.08,10.19C459.45,258.16,453.54,267,457.29,269.83Z" transform="translate(-58.64 -35.45)"/><path class="cls-6" d="M489.48,259.58c3.36-.66-0.2-8-1.53-7.73S486.12,260.24,489.48,259.58Z" transform="translate(-58.64 -35.45)"/><path class="cls-6" d="M483.09,268.39c3.41,0.23,1.89-7.77.54-7.86S479.68,268.15,483.09,268.39Z" transform="translate(-58.64 -35.45)"/><path class="cls-6" d="M494.9,254.51c2.67-2.13-3.86-7-4.92-6.16S492.23,256.64,494.9,254.51Z" transform="translate(-58.64 -35.45)"/><path class="cls-6" d="M502,251.82c1.4-3.12-6.64-4.46-7.19-3.22S500.59,254.94,502,251.82Z" transform="translate(-58.64 -35.45)"/><path class="cls-6" d="M500.05,244.84c-0.32-3.41-8-.61-7.84.74S500.37,248.25,500.05,244.84Z" transform="translate(-58.64 -35.45)"/><path class="cls-6" d="M497,263.84c2.83-1.93-3.32-7.27-4.44-6.51S494.14,265.77,497,263.84Z" transform="translate(-58.64 -35.45)"/><path class="cls-6" d="M491.66,270.87c3.33-.79-0.49-8-1.81-7.67S488.33,271.66,491.66,270.87Z" transform="translate(-58.64 -35.45)"/><path class="cls-6" d="M510.48,247.83c0.16-3.42-7.81-1.72-7.87-.36S510.32,251.24,510.48,247.83Z" transform="translate(-58.64 -35.45)"/><path class="cls-6" d="M505.78,260.8c2.11-2.69-5.36-5.93-6.19-4.87S503.67,263.49,505.78,260.8Z" transform="translate(-58.64 -35.45)"/><path class="cls-6" d="M510.18,238.23c-0.32-3.41-8-.61-7.84.74S510.5,241.64,510.18,238.23Z" transform="translate(-58.64 -35.45)"/><path class="cls-6" d="M482.67,228.52c-2.62.67-2.47,5.59-1.43,5.32S485.3,227.85,482.67,228.52Z" transform="translate(-58.64 -35.45)"/><path class="cls-6" d="M490.13,222c-2.37,0-3.9,5.56-3,5.54S492.5,221.9,490.13,222Z" transform="translate(-58.64 -35.45)"/><path class="cls-6" d="M477.12,232.41c-2.61,1.66.47,4.67,1.51,4S479.74,230.75,477.12,232.41Z" transform="translate(-58.64 -35.45)"/><path class="cls-6" d="M471.17,234.74c-2,2.27,3.3,2.71,4.1,1.81S473.19,232.46,471.17,234.74Z" transform="translate(-58.64 -35.45)"/><path class="cls-6" d="M470.27,239.5c-0.88,2.37,5.52-.07,5.87-1S471.15,237.14,470.27,239.5Z" transform="translate(-58.64 -35.45)"/><path class="cls-6" d="M478.7,226c-2.66,1.53,0,4.89,1.05,4.28S481.35,224.48,478.7,226Z" transform="translate(-58.64 -35.45)"/><path class="cls-6" d="M484.8,220.75c-2.64.76-2.26,5.56-1.21,5.26S487.45,220,484.8,220.75Z" transform="translate(-58.64 -35.45)"/><path class="cls-6" d="M463.77,238.06c-1.23,2.4,5,.72,5.52-0.24S465,235.66,463.77,238.06Z" transform="translate(-58.64 -35.45)"/><path class="cls-6" d="M471.38,228.68c-2.4,2,1.9,3.82,2.85,3S473.78,226.67,471.38,228.68Z" transform="translate(-58.64 -35.45)"/><path class="cls-6" d="M460.85,244.76c-0.88,2.37,5.52-.07,5.87-1S461.73,242.4,460.85,244.76Z" transform="translate(-58.64 -35.45)"/><path class="cls-11" d="M282.93,455c1.36-12,15.65-20.22,31.9-18.37s28.33,13.07,27,25.07c-1.46,12.82-1.67,8.51-7.94,12.9-13.55,9.48-38.57,10.38-47.59-6.38C282.52,461.21,281.61,466.59,282.93,455Z" transform="translate(-58.64 -35.45)"/><path class="cls-12" d="M323.76,483.35a61,61,0,0,1,.94,15.32c-1,9-8.67,9.68-17.89,8.63s-16.69-1.88-15.49-12.43c0.33-2.87,2-8.47,4.44-14.16-9.84-5.24-14.18-13.67-13.37-20.78,1.36-12,15.65-20.22,31.9-18.37s28.33,13.07,27,25.07C340.49,473.38,335.16,480.83,323.76,483.35Z" transform="translate(-58.64 -35.45)"/><path class="cls-11" d="M324.28,486.8c-0.73-5.71-2.17-12-4.4-16.54a31.63,31.63,0,0,1,13.65,8.89,26.37,26.37,0,0,1-9.78,4.21c0.2,1.16.38,2.31,0.52,3.45h0Zm-28.58-5.94,0.06-.15a29,29,0,0,1-8.45-6.62,31.49,31.49,0,0,1,15.51-5.76l0,0A55.55,55.55,0,0,0,295.7,480.86Z" transform="translate(-58.64 -35.45)"/><path class="cls-6" d="M290,410.32c1.72,1,1.15,8.4,6.18,10.31,7.63,2.89,17.32,15.21,16.5,27.11-1.5,21.69-48.44,56.27-74,33.5C217.51,462.42,266.2,395.83,290,410.32Z" transform="translate(-58.64 -35.45)"/><path class="cls-21" d="M247.17,474.59c6.22-6.22,47-50.6,56-36.87,7.77,11.83-12.91,42.1-41.8,45.23C246.34,484.58,242.24,479.53,247.17,474.59Z" transform="translate(-58.64 -35.45)"/><path class="cls-21" d="M266.09,419.3c7.54-5.46,20.55-5.31,15.38,2.34-5.79,8.57-34.95,38.16-40.52,43.95s-6.3-2.08-1.82-12C243.2,444.58,250.49,430.6,266.09,419.3Z" transform="translate(-58.64 -35.45)"/><path class="cls-20" d="M292.19,421c3.86,3.43,7.07,11.15,1.5,12.65s-12.86,4.5-16.72,7.29-11.36,8.15-8.36,5.15a40.69,40.69,0,0,0,9.65-15.44C280.61,423.57,289.19,417.35,292.19,421Z" transform="translate(-58.64 -35.45)"/><path class="cls-6" d="M283.09,453.53c-0.54,3.38-8,.09-7.78-1.25S283.63,450.15,283.09,453.53Z" transform="translate(-58.64 -35.45)"/><path class="cls-6" d="M291.67,446.84c0.35,3.4-7.69,2.17-7.84.82S291.31,443.43,291.67,446.84Z" transform="translate(-58.64 -35.45)"/><path class="cls-6" d="M278.22,459.13c-2,2.75-7.14-3.61-6.33-4.69S280.25,456.38,278.22,459.13Z" transform="translate(-58.64 -35.45)"/><path class="cls-6" d="M275.78,466.31c-3.07,1.51-4.69-6.47-3.48-7.07S278.85,464.8,275.78,466.31Z" transform="translate(-58.64 -35.45)"/><path class="cls-6" d="M268.74,464.62c-3.41-.2-0.9-7.94.46-7.86S272.16,464.82,268.74,464.62Z" transform="translate(-58.64 -35.45)"/><path class="cls-6" d="M287.62,460.86c-1.82,2.89-7.39-3.06-6.66-4.2S289.44,458,287.62,460.86Z" transform="translate(-58.64 -35.45)"/><path class="cls-6" d="M294.45,455.31c-0.67,3.35-8-.21-7.73-1.54S295.12,452,294.45,455.31Z" transform="translate(-58.64 -35.45)"/><path class="cls-6" d="M272.09,474.94c-3.41.28-2-7.74-.64-7.85S275.5,474.66,272.09,474.94Z" transform="translate(-58.64 -35.45)"/><path class="cls-6" d="M284.89,469.78c-2.61,2.21-6.12-5.14-5.08-6S287.5,467.57,284.89,469.78Z" transform="translate(-58.64 -35.45)"/><path class="cls-6" d="M262.49,475c-3.42-.2-0.9-7.94.46-7.87S265.91,475.18,262.49,475Z" transform="translate(-58.64 -35.45)"/><path class="cls-6" d="M251.82,447.83c0.58-2.65,5.49-2.67,5.26-1.62S251.23,450.48,251.82,447.83Z" transform="translate(-58.64 -35.45)"/><path class="cls-6" d="M245.51,455.52c0-2.37,5.42-4.09,5.43-3.15S245.55,457.89,245.51,455.52Z" transform="translate(-58.64 -35.45)"/><path class="cls-6" d="M255.5,442.15c1.57-2.67,4.68.31,4.06,1.37S253.94,444.82,255.5,442.15Z" transform="translate(-58.64 -35.45)"/><path class="cls-6" d="M257.61,436.11c2.2-2.1,2.83,3.2,2,4S255.42,438.21,257.61,436.11Z" transform="translate(-58.64 -35.45)"/><path class="cls-6" d="M262.35,435c2.33-1,.13,5.52-0.8,5.9S260,436,262.35,435Z" transform="translate(-58.64 -35.45)"/><path class="cls-6" d="M249.15,443.95c1.43-2.71,4.88-.18,4.32.9S247.72,446.66,249.15,443.95Z" transform="translate(-58.64 -35.45)"/><path class="cls-6" d="M244.12,450.23c0.66-2.67,5.47-2.45,5.21-1.39S243.46,452.9,244.12,450.23Z" transform="translate(-58.64 -35.45)"/><path class="cls-6" d="M260.68,428.6c2.36-1.32.9,5,0,5.53S258.32,429.92,260.68,428.6Z" transform="translate(-58.64 -35.45)"/><path class="cls-6" d="M251.57,436.54c1.93-2.47,3.89,1.76,3.12,2.74S249.64,439,251.57,436.54Z" transform="translate(-58.64 -35.45)"/><path class="cls-6" d="M267.27,425.44c2.33-1,.13,5.51-0.8,5.9S264.94,426.41,267.27,425.44Z" transform="translate(-58.64 -35.45)"/><circle class="cls-13" cx="354.23" cy="309.59" r="25.01"/><circle class="cls-14" cx="354.23" cy="309.59" r="23.41"/><circle class="cls-15" cx="354.22" cy="309.59" r="16.4"/><path class="cls-16" d="M412.87,354.43a9.39,9.39,0,1,0-9.39-9.39A9.41,9.41,0,0,0,412.87,354.43Z" transform="translate(-58.64 -35.45)"/><circle class="cls-13" cx="212.85" cy="340.89" r="25.01"/><circle class="cls-14" cx="212.85" cy="340.89" r="23.41"/><circle class="cls-15" cx="212.85" cy="340.89" r="16.4"/><path class="cls-16" d="M271.5,385.72a9.39,9.39,0,1,0-9.39-9.39A9.41,9.41,0,0,0,271.5,385.72Z" transform="translate(-58.64 -35.45)"/><circle class="cls-13" cx="216.67" cy="458.82" r="25.01"/><circle class="cls-14" cx="216.67" cy="458.82" r="23.41"/><circle class="cls-15" cx="216.67" cy="458.82" r="16.4"/><path class="cls-16" d="M275.31,503.66a9.39,9.39,0,1,0-9.39-9.39A9.41,9.41,0,0,0,275.31,503.66Z" transform="translate(-58.64 -35.45)"/><path class="cls-11" d="M377.91,274.47c-9-8-7.5-24.44,3.38-36.66s27-15.61,36-7.58c9.64,8.58,6,6.27,6,13.92-0.06,16.54-13.75,37.5-32.65,35.21C382.77,278.41,386.65,282.26,377.91,274.47Z" transform="translate(-58.64 -35.45)"/><path class="cls-12" d="M424.64,257.47a60.89,60.89,0,0,1,13.06,8.06c6.8,6.05,2.92,12.67-3.25,19.59s-11.16,12.56-19.09,5.49c-2.16-1.92-5.78-6.5-9-11.79-10,5-19.34,3.71-24.69-1.05-9-8-7.5-24.44,3.38-36.66s27-15.61,36-7.58C426.14,238.05,429.15,246.71,424.64,257.47Z" transform="translate(-58.64 -35.45)"/><path class="cls-11" d="M427.76,259c-5.09-2.69-11-5.12-16.05-5.95a31.62,31.62,0,0,1,15.13-6,26.37,26.37,0,0,1-2.2,10.42c1.06,0.5,2.11,1,3.12,1.56h0ZM406.43,279l-0.09-.14a29,29,0,0,1-10.28,3.09,31.48,31.48,0,0,1,4.23-16l0,0A55.55,55.55,0,0,0,406.43,279Z" transform="translate(-58.64 -35.45)"/><path class="cls-11" d="M402.32,430.86c6-10.46,22.42-12.3,36.58-4.12s20.76,23.29,14.73,33.74c-6.45,11.18-4.92,7.13-12.43,8.66-16.21,3.29-39.5-5.87-41.1-24.84C399.44,436.43,396.46,441,402.32,430.86Z" transform="translate(-58.64 -35.45)"/><path class="cls-12" d="M428.43,473.18a60.93,60.93,0,0,1-5.24,14.42c-4.55,7.88-11.81,5.42-19.85.78s-14.56-8.38-9.25-17.58c1.45-2.5,5.19-7,9.72-11.22-6.94-8.73-7.55-18.19-4-24.39,6-10.46,22.42-12.3,36.59-4.12s20.76,23.29,14.73,33.74C447.75,470.71,439.89,475.41,428.43,473.18Z" transform="translate(-58.64 -35.45)"/><path class="cls-11" d="M427.54,476.56c1.6-5.53,2.78-11.83,2.57-16.92a31.62,31.62,0,0,1,9,13.6,26.37,26.37,0,0,1-10.65,0c-0.28,1.14-.58,2.27-0.9,3.37h0ZM403.7,459.7l0.12-.11a29,29,0,0,1-5.11-9.44,31.48,31.48,0,0,1,16.53.9l0,0A55.63,55.63,0,0,0,403.7,459.7Z" transform="translate(-58.64 -35.45)"/><circle class="cls-17" cx="340.44" cy="381.42" r="32.77" transform="translate(-142.56 631.12) rotate(-82.15)"/><circle class="cls-18" cx="340.44" cy="381.42" r="30.41" transform="translate(-142.56 631.13) rotate(-82.15)"/><circle class="cls-19" cx="340.44" cy="381.42" r="23.81" transform="translate(-142.56 631.12) rotate(-82.15)"/><path class="cls-20" d="M345.87,393.05c1.73-14.17,13.9-7.34,2.09,1.11C346.39,395.29,345.64,394.94,345.87,393.05Z" transform="translate(-58.64 -35.45)"/><path class="cls-20" d="M342.46,393.5c-7.95-11.86,5.72-14.64,2.31-.52C344.31,394.85,343.52,395.08,342.46,393.5Z" transform="translate(-58.64 -35.45)"/><path class="cls-20" d="M341.05,396.36c-14.26.58-9.49-12.53,0.76-2.24C343.18,395.49,343,396.28,341.05,396.36Z" transform="translate(-58.64 -35.45)"/><path class="cls-20" d="M347.42,370.73c-13,6-13.56-8-.15-2.36C349.05,369.12,349.15,369.94,347.42,370.73Z" transform="translate(-58.64 -35.45)"/><path class="cls-20" d="M349.59,373.4c-5.9,13-15.46,2.83-1.66-1.69C349.77,371.11,350.38,371.67,349.59,373.4Z" transform="translate(-58.64 -35.45)"/><path class="cls-20" d="M352.77,373.1c8,11.83-5.67,14.66-2.31.53C350.91,371.75,351.7,371.52,352.77,373.1Z" transform="translate(-58.64 -35.45)"/><path class="cls-20" d="M327.63,381.16c11.91,7.87.37,15.72-1.93,1.37C325.39,380.62,326,380.11,327.63,381.16Z" transform="translate(-58.64 -35.45)"/><path class="cls-20" d="M328.75,377.91c14.16-1.82,10.54,11.66-.56,2.3C326.71,379,326.86,378.15,328.75,377.91Z" transform="translate(-58.64 -35.45)"/><path class="cls-20" d="M326.82,375.37c5.85-13,15.45-2.9,1.67,1.68C326.65,377.66,326,377.11,326.82,375.37Z" transform="translate(-58.64 -35.45)"/><path id="_Trac_" data-name="&lt;Trac&gt;" class="cls-22" d="M219.64,640.7a244,244,0,0,1-37.14-6C138.07,625.21,80.95,605,80.95,605l55.91-24.38L106,525.07c23,13.62,136.93,36.55,155,39.13Z" transform="translate(-58.64 -35.45)"/><path id="_Trac_2" data-name="&lt;Trac&gt;" class="cls-23" d="M255.65,592.66l5-28.19-91.2,10.26C193.27,582.49,233.06,592,255.65,592.66Z" transform="translate(-58.64 -35.45)"/><path id="_Trac_3" data-name="&lt;Trac&gt;" class="cls-22" d="M582,629.31c36.41,8.86,138.69-35.73,138.69-35.73L664.74,569.2l30.88-55.52c-23,13.62-132.89,48.11-132.89,48.11Z" transform="translate(-58.64 -35.45)"/><path id="_Trac_4" data-name="&lt;Trac&gt;" class="cls-23" d="M564.51,594.37l-1.31-31.45,88,11.91C627.26,582.26,587.33,594,564.51,594.37Z" transform="translate(-58.64 -35.45)"/><path id="_Trac_5" data-name="&lt;Trac&gt;" class="cls-24" d="M420.91,600.05c78.54,1.49,157.74-3.53,230.57-24.36l17.39,85s-111.07,23.44-258.7,21.76c-147.64,1.67-255.7-18-255.7-18l14.39-88.71C254.63,597.26,335.36,598.55,420.91,600.05Z" transform="translate(-58.64 -35.45)"/></svg>