<?xml version="1.0" encoding="utf-8"?>
<!-- Generator: Adobe Illustrator 19.0.0, SVG Export Plug-In . SVG Version: 6.00 Build 0)  -->
<svg version="1.1" xmlns="http://www.w3.org/2000/svg" xmlns:xlink="http://www.w3.org/1999/xlink" x="0px" y="0px"
	 viewBox="0 0 800 800" style="enable-background:new 0 0 800 800;" xml:space="preserve">
<style type="text/css">
	.st0{display:none;}
	.st1{display:inline;fill-rule:evenodd;clip-rule:evenodd;fill:#75666B;}
	.st2{display:inline;}
	.st3{clip-path:url(#XMLID_3_);}
	.st4{filter:url(#Adobe_OpacityMaskFilter);}
	.st5{clip-path:url(#XMLID_4_);fill:url(#XMLID_6_);}
	.st6{clip-path:url(#XMLID_4_);mask:url(#XMLID_5_);fill:url(#XMLID_7_);}
	.st7{fill:#F1F1F2;}
	.st8{fill-rule:evenodd;clip-rule:evenodd;fill:#FBD2C0;}
	.st9{fill-rule:evenodd;clip-rule:evenodd;fill:#EDB59D;}
	.st10{fill-rule:evenodd;clip-rule:evenodd;fill:#43525A;}
	.st11{fill-rule:evenodd;clip-rule:evenodd;fill:#FBC9B6;}
	.st12{fill-rule:evenodd;clip-rule:evenodd;fill:#EDBFB1;}
	.st13{fill-rule:evenodd;clip-rule:evenodd;fill:#E6E7E8;}
	.st14{fill-rule:evenodd;clip-rule:evenodd;fill:#DDDFDE;}
	.st15{fill-rule:evenodd;clip-rule:evenodd;fill:#DADCDD;}
	.st16{fill-rule:evenodd;clip-rule:evenodd;fill:#FBC9B4;}
	.st17{fill-rule:evenodd;clip-rule:evenodd;fill:#D0D2D3;}
	.st18{fill-rule:evenodd;clip-rule:evenodd;fill:#DADAD8;}
	.st19{fill-rule:evenodd;clip-rule:evenodd;fill:#7B272B;}
	.st20{fill-rule:evenodd;clip-rule:evenodd;fill:#A15641;}
	.st21{fill-rule:evenodd;clip-rule:evenodd;fill:#95503C;}
	.st22{fill-rule:evenodd;clip-rule:evenodd;fill:#DDDDDD;}
	.st23{fill-rule:evenodd;clip-rule:evenodd;fill:#BBBDBF;}
	.st24{fill-rule:evenodd;clip-rule:evenodd;fill:#DDDDDF;}
	.st25{fill-rule:evenodd;clip-rule:evenodd;fill:#404F5A;}
	.st26{fill-rule:evenodd;clip-rule:evenodd;fill:#404041;}
	.st27{fill-rule:evenodd;clip-rule:evenodd;fill:#58595B;}
	.st28{fill-rule:evenodd;clip-rule:evenodd;fill:#A6A8AB;}
	.st29{fill-rule:evenodd;clip-rule:evenodd;fill:#F7BEA6;}
</style>
<g id="background" class="st0">
	<rect id="XMLID_2_" y="0" class="st1" width="800" height="800"/>
	<g id="XMLID_84_" class="st2">
		<g id="XMLID_85_">
			<defs>
				<rect id="XMLID_86_" y="0" width="800" height="800"/>
			</defs>
			<clipPath id="XMLID_3_">
				<use xlink:href="#XMLID_86_"  style="overflow:visible;"/>
			</clipPath>
			<g id="XMLID_87_" class="st3">
				<defs>
					<rect id="XMLID_88_" y="0" width="800" height="800"/>
				</defs>
				<clipPath id="XMLID_4_">
					<use xlink:href="#XMLID_88_"  style="overflow:visible;"/>
				</clipPath>
				<defs>
					<filter id="Adobe_OpacityMaskFilter" filterUnits="userSpaceOnUse" x="0" y="0" width="800" height="800">
						<feColorMatrix  type="matrix" values="1 0 0 0 0  0 1 0 0 0  0 0 1 0 0  0 0 0 1 0"/>
					</filter>
				</defs>
				<mask maskUnits="userSpaceOnUse" x="0" y="0" width="800" height="800" id="XMLID_5_">
					<g id="XMLID_20_" class="st4">
						
							<radialGradient id="XMLID_6_" cx="-81.4719" cy="799.1962" r="1.1845" gradientTransform="matrix(475.6716 0 0 -475.6668 39153.8789 380551.0938)" gradientUnits="userSpaceOnUse">
							<stop  offset="0" style="stop-color:#000000"/>
							<stop  offset="0.2249" style="stop-color:#040404"/>
							<stop  offset="0.456" style="stop-color:#101010"/>
							<stop  offset="0.69" style="stop-color:#252525"/>
							<stop  offset="0.9247" style="stop-color:#424242"/>
							<stop  offset="1" style="stop-color:#4D4D4D"/>
						</radialGradient>
						<rect id="XMLID_23_" y="0" class="st5" width="800" height="800"/>
					</g>
				</mask>
				
					<radialGradient id="XMLID_7_" cx="-81.4719" cy="799.1982" r="1.1849" gradientTransform="matrix(475.6716 0 0 -475.6668 39153.8789 380552.0938)" gradientUnits="userSpaceOnUse">
					<stop  offset="0" style="stop-color:#FFFFFF"/>
					<stop  offset="0.1292" style="stop-color:#FBFBFB"/>
					<stop  offset="0.2619" style="stop-color:#EFEFEF"/>
					<stop  offset="0.3962" style="stop-color:#DADADA"/>
					<stop  offset="0.5317" style="stop-color:#BDBEBD"/>
					<stop  offset="0.6682" style="stop-color:#989998"/>
					<stop  offset="0.8054" style="stop-color:#6B6C6A"/>
					<stop  offset="0.9408" style="stop-color:#363736"/>
					<stop  offset="1" style="stop-color:#1D1E1C"/>
				</radialGradient>
				<rect id="XMLID_91_" y="0" class="st6" width="800" height="800"/>
			</g>
		</g>
	</g>
	<g id="XMLID_229_" class="st2">
		<path id="XMLID_285_" class="st7" d="M288.4,781.7v-0.3c-0.3,0.4-0.7,0.7-1,1c-0.3,0.3-0.7,0.4-1.1,0.6c-0.4,0.1-0.8,0.2-1.3,0.2
			c-0.6,0-1.2-0.1-1.7-0.4s-1-0.6-1.4-1.1c-0.4-0.5-0.7-1.1-0.9-1.7c-0.2-0.7-0.3-1.4-0.3-2.1c0-1.6,0.4-2.9,1.2-3.8
			c0.8-0.9,1.8-1.4,3.1-1.4c0.7,0,1.4,0.1,1.9,0.4c0.5,0.3,1,0.7,1.5,1.2v-3.8c0-0.5,0.1-0.9,0.3-1.2c0.2-0.3,0.5-0.4,0.9-0.4
			c0.4,0,0.7,0.1,0.9,0.4c0.2,0.3,0.3,0.6,0.3,1.1v11.4c0,0.5-0.1,0.9-0.3,1.1c-0.2,0.2-0.5,0.4-0.9,0.4c-0.4,0-0.6-0.1-0.9-0.4
			C288.5,782.5,288.4,782.1,288.4,781.7L288.4,781.7z M283.3,777.9c0,0.7,0.1,1.3,0.3,1.8c0.2,0.5,0.5,0.9,0.9,1.1
			c0.4,0.3,0.8,0.4,1.2,0.4c0.5,0,0.9-0.1,1.3-0.4c0.4-0.2,0.7-0.6,0.9-1.1c0.2-0.5,0.3-1.1,0.3-1.8c0-0.7-0.1-1.3-0.3-1.8
			c-0.2-0.5-0.5-0.9-0.9-1.1c-0.4-0.3-0.8-0.4-1.3-0.4c-0.5,0-0.9,0.1-1.3,0.4c-0.4,0.3-0.7,0.7-0.9,1.2
			C283.4,776.6,283.3,777.2,283.3,777.9L283.3,777.9z"/>
		<path id="XMLID_282_" class="st7" d="M299.9,778.5h-5.1c0,0.6,0.1,1.1,0.4,1.6c0.2,0.5,0.5,0.8,0.9,1c0.4,0.2,0.8,0.3,1.3,0.3
			c0.3,0,0.6,0,0.9-0.1c0.3-0.1,0.5-0.2,0.7-0.3c0.2-0.2,0.5-0.3,0.7-0.5c0.2-0.2,0.5-0.4,0.8-0.7c0.1-0.1,0.3-0.2,0.6-0.2
			c0.3,0,0.5,0.1,0.6,0.2c0.2,0.1,0.2,0.4,0.2,0.6c0,0.2-0.1,0.5-0.3,0.8c-0.2,0.3-0.5,0.6-0.8,0.9c-0.4,0.3-0.8,0.5-1.4,0.7
			c-0.6,0.2-1.2,0.3-1.9,0.3c-1.7,0-3-0.5-3.9-1.4c-0.9-0.9-1.4-2.2-1.4-3.9c0-0.8,0.1-1.5,0.3-2.1c0.2-0.7,0.6-1.2,1-1.7
			c0.4-0.5,1-0.8,1.6-1.1c0.6-0.3,1.3-0.4,2.1-0.4c1,0,1.9,0.2,2.6,0.6c0.7,0.4,1.3,1,1.6,1.7c0.4,0.7,0.5,1.4,0.5,2.1
			c0,0.7-0.2,1.1-0.6,1.3C301.1,778.4,300.6,778.5,299.9,778.5L299.9,778.5z M294.8,777h4.7c-0.1-0.9-0.3-1.6-0.7-2
			c-0.4-0.4-1-0.7-1.6-0.7c-0.6,0-1.2,0.2-1.6,0.7C295.1,775.5,294.9,776.2,294.8,777L294.8,777z"/>
		<path id="XMLID_163_" class="st7" d="M311.7,779.8c0,0.7-0.2,1.3-0.5,1.8c-0.3,0.5-0.9,0.9-1.5,1.2c-0.7,0.3-1.5,0.4-2.5,0.4
			c-0.9,0-1.7-0.1-2.4-0.4c-0.7-0.3-1.2-0.6-1.5-1.1c-0.3-0.4-0.5-0.9-0.5-1.3c0-0.3,0.1-0.5,0.3-0.7c0.2-0.2,0.5-0.3,0.8-0.3
			c0.3,0,0.5,0.1,0.6,0.2c0.1,0.1,0.3,0.3,0.4,0.6c0.3,0.5,0.6,0.8,1,1c0.4,0.2,0.9,0.3,1.5,0.3c0.5,0,0.9-0.1,1.3-0.3
			c0.3-0.2,0.5-0.5,0.5-0.8c0-0.5-0.2-0.8-0.5-1c-0.3-0.2-0.9-0.4-1.7-0.6c-0.9-0.2-1.6-0.5-2.2-0.7c-0.6-0.2-1-0.6-1.3-1
			c-0.3-0.4-0.5-0.9-0.5-1.5c0-0.5,0.2-1,0.5-1.5c0.3-0.5,0.8-0.8,1.4-1.1c0.6-0.3,1.3-0.4,2.2-0.4c0.7,0,1.3,0.1,1.8,0.2
			c0.5,0.1,1,0.3,1.3,0.6c0.4,0.2,0.6,0.5,0.8,0.8c0.2,0.3,0.3,0.6,0.3,0.8c0,0.3-0.1,0.5-0.3,0.7c-0.2,0.2-0.5,0.3-0.9,0.3
			c-0.3,0-0.5-0.1-0.7-0.2c-0.2-0.2-0.4-0.4-0.6-0.7c-0.2-0.3-0.4-0.5-0.7-0.6c-0.3-0.2-0.6-0.2-1.1-0.2c-0.5,0-0.9,0.1-1.2,0.3
			c-0.3,0.2-0.5,0.4-0.5,0.7c0,0.3,0.1,0.5,0.3,0.7c0.2,0.2,0.5,0.3,0.9,0.4c0.4,0.1,0.9,0.3,1.6,0.4c0.8,0.2,1.5,0.4,2,0.7
			c0.5,0.3,0.9,0.6,1.2,1C311.6,778.9,311.7,779.3,311.7,779.8L311.7,779.8z"/>
		<path id="XMLID_278_" class="st7" d="M314.3,771.4c-0.4,0-0.7-0.1-0.9-0.3c-0.3-0.2-0.4-0.5-0.4-0.9c0-0.4,0.1-0.7,0.4-0.9
			c0.3-0.2,0.6-0.4,0.9-0.4c0.3,0,0.6,0.1,0.9,0.3c0.3,0.2,0.4,0.5,0.4,0.9c0,0.4-0.1,0.7-0.4,0.9
			C315,771.3,314.7,771.4,314.3,771.4L314.3,771.4z M315.6,774.1v7.5c0,0.5-0.1,0.9-0.4,1.2c-0.2,0.3-0.6,0.4-0.9,0.4
			c-0.4,0-0.7-0.1-0.9-0.4c-0.2-0.3-0.4-0.7-0.4-1.2v-7.4c0-0.5,0.1-0.9,0.4-1.2c0.2-0.3,0.5-0.4,0.9-0.4c0.4,0,0.7,0.1,0.9,0.4
			C315.5,773.3,315.6,773.6,315.6,774.1L315.6,774.1z"/>
		<path id="XMLID_275_" class="st7" d="M327,774.5v7.5c0,0.9-0.1,1.6-0.3,2.2c-0.2,0.6-0.5,1.1-0.9,1.5c-0.4,0.4-0.9,0.7-1.6,0.9
			c-0.7,0.2-1.5,0.3-2.4,0.3c-0.9,0-1.7-0.1-2.4-0.4c-0.7-0.3-1.2-0.6-1.6-1c-0.4-0.4-0.6-0.8-0.6-1.2c0-0.3,0.1-0.6,0.3-0.8
			c0.2-0.2,0.5-0.3,0.8-0.3c0.4,0,0.7,0.2,1,0.5c0.1,0.2,0.3,0.3,0.4,0.5c0.1,0.2,0.3,0.3,0.5,0.4c0.2,0.1,0.4,0.2,0.7,0.3
			c0.3,0.1,0.5,0.1,0.9,0.1c0.7,0,1.2-0.1,1.6-0.3c0.4-0.2,0.6-0.4,0.8-0.8c0.1-0.3,0.2-0.7,0.3-1.1c0-0.4,0-1,0.1-1.8
			c-0.4,0.6-0.9,1-1.4,1.3c-0.5,0.3-1.1,0.4-1.9,0.4c-0.9,0-1.6-0.2-2.3-0.7c-0.6-0.4-1.1-1.1-1.5-1.9c-0.3-0.8-0.5-1.7-0.5-2.8
			c0-0.8,0.1-1.5,0.3-2.1c0.2-0.6,0.5-1.2,0.9-1.6c0.4-0.4,0.8-0.8,1.4-1c0.5-0.2,1.1-0.3,1.7-0.3c0.7,0,1.4,0.1,1.9,0.4
			c0.5,0.3,1,0.7,1.5,1.3V774c0-0.5,0.1-0.8,0.3-1c0.2-0.2,0.5-0.4,0.9-0.4c0.5,0,0.8,0.2,1,0.5C326.9,773.4,327,773.9,327,774.5
			L327,774.5z M319.5,777.8c0,1.1,0.2,1.8,0.7,2.4c0.5,0.5,1.1,0.8,1.8,0.8c0.4,0,0.8-0.1,1.2-0.3c0.4-0.2,0.7-0.6,0.9-1
			c0.2-0.5,0.4-1,0.4-1.7c0-1.1-0.2-1.9-0.7-2.5c-0.5-0.6-1.1-0.9-1.8-0.9c-0.7,0-1.3,0.3-1.8,0.8
			C319.7,776,319.5,776.8,319.5,777.8L319.5,777.8z"/>
		<path id="XMLID_158_" class="st7" d="M331.1,774v0.3c0.5-0.6,1-1,1.5-1.3c0.5-0.3,1.2-0.4,1.9-0.4c0.7,0,1.3,0.1,1.8,0.4
			c0.5,0.3,0.9,0.7,1.2,1.3c0.2,0.3,0.3,0.7,0.3,1c0.1,0.4,0.1,0.8,0.1,1.4v4.8c0,0.5-0.1,0.9-0.4,1.2c-0.2,0.3-0.5,0.4-0.9,0.4
			c-0.4,0-0.7-0.1-0.9-0.4c-0.2-0.3-0.4-0.7-0.4-1.2v-4.3c0-0.9-0.1-1.5-0.4-2c-0.2-0.5-0.7-0.7-1.4-0.7c-0.5,0-0.9,0.1-1.3,0.4
			c-0.4,0.3-0.7,0.7-0.8,1.1c-0.1,0.4-0.2,1.1-0.2,2.2v3.2c0,0.5-0.1,0.9-0.4,1.2c-0.2,0.3-0.6,0.4-0.9,0.4c-0.4,0-0.7-0.1-0.9-0.4
			c-0.2-0.3-0.4-0.7-0.4-1.2v-7.5c0-0.5,0.1-0.9,0.3-1.1c0.2-0.2,0.5-0.4,0.9-0.4c0.2,0,0.4,0.1,0.6,0.2c0.2,0.1,0.3,0.3,0.4,0.5
			C331.1,773.5,331.1,773.7,331.1,774L331.1,774z"/>
		<path id="XMLID_271_" class="st7" d="M346.9,778.5h-5.1c0,0.6,0.1,1.1,0.4,1.6c0.2,0.5,0.5,0.8,0.9,1c0.4,0.2,0.8,0.3,1.3,0.3
			c0.3,0,0.6,0,0.9-0.1c0.3-0.1,0.5-0.2,0.7-0.3c0.2-0.2,0.5-0.3,0.7-0.5c0.2-0.2,0.5-0.4,0.8-0.7c0.1-0.1,0.3-0.2,0.6-0.2
			c0.3,0,0.5,0.1,0.6,0.2c0.2,0.1,0.2,0.4,0.2,0.6c0,0.2-0.1,0.5-0.3,0.8c-0.2,0.3-0.5,0.6-0.8,0.9c-0.4,0.3-0.8,0.5-1.4,0.7
			c-0.6,0.2-1.2,0.3-1.9,0.3c-1.7,0-3-0.5-3.9-1.4c-0.9-0.9-1.4-2.2-1.4-3.9c0-0.8,0.1-1.5,0.3-2.1c0.2-0.7,0.6-1.2,1-1.7
			c0.4-0.5,1-0.8,1.6-1.1c0.6-0.3,1.3-0.4,2.1-0.4c1,0,1.9,0.2,2.6,0.6c0.7,0.4,1.3,1,1.6,1.7c0.4,0.7,0.5,1.4,0.5,2.1
			c0,0.7-0.2,1.1-0.6,1.3C348.1,778.4,347.6,778.5,346.9,778.5L346.9,778.5z M341.8,777h4.7c-0.1-0.9-0.3-1.6-0.7-2
			c-0.4-0.4-1-0.7-1.6-0.7c-0.6,0-1.2,0.2-1.6,0.7C342.2,775.5,341.9,776.2,341.8,777L341.8,777z"/>
		<path id="XMLID_268_" class="st7" d="M357.5,781.7v-0.3c-0.3,0.4-0.7,0.7-1,1c-0.3,0.3-0.7,0.4-1.1,0.6c-0.4,0.1-0.8,0.2-1.3,0.2
			c-0.6,0-1.2-0.1-1.7-0.4c-0.5-0.3-1-0.6-1.4-1.1c-0.4-0.5-0.7-1.1-0.9-1.7c-0.2-0.7-0.3-1.4-0.3-2.1c0-1.6,0.4-2.9,1.2-3.8
			c0.8-0.9,1.8-1.4,3.1-1.4c0.7,0,1.4,0.1,1.9,0.4c0.5,0.3,1,0.7,1.5,1.2v-3.8c0-0.5,0.1-0.9,0.3-1.2c0.2-0.3,0.5-0.4,0.9-0.4
			c0.4,0,0.7,0.1,0.9,0.4c0.2,0.3,0.3,0.6,0.3,1.1v11.4c0,0.5-0.1,0.9-0.3,1.1c-0.2,0.2-0.5,0.4-0.9,0.4c-0.4,0-0.6-0.1-0.9-0.4
			C357.6,782.5,357.5,782.1,357.5,781.7L357.5,781.7z M352.4,777.9c0,0.7,0.1,1.3,0.3,1.8c0.2,0.5,0.5,0.9,0.9,1.1
			c0.4,0.3,0.8,0.4,1.2,0.4c0.5,0,0.9-0.1,1.2-0.4c0.4-0.2,0.7-0.6,0.9-1.1c0.2-0.5,0.3-1.1,0.3-1.8c0-0.7-0.1-1.3-0.3-1.8
			c-0.2-0.5-0.5-0.9-0.9-1.1c-0.4-0.3-0.8-0.4-1.3-0.4c-0.5,0-0.9,0.1-1.3,0.4c-0.4,0.3-0.7,0.7-0.9,1.2
			C352.5,776.6,352.4,777.2,352.4,777.9L352.4,777.9z"/>
		<path id="XMLID_265_" class="st7" d="M368.1,770.2v4c0.5-0.5,1-0.9,1.5-1.2c0.5-0.3,1.1-0.4,1.9-0.4c0.9,0,1.6,0.2,2.3,0.6
			c0.6,0.4,1.2,1,1.5,1.8c0.4,0.8,0.5,1.7,0.5,2.8c0,0.8-0.1,1.5-0.3,2.2c-0.2,0.7-0.5,1.2-0.9,1.7c-0.4,0.5-0.8,0.9-1.4,1.1
			c-0.5,0.3-1.1,0.4-1.8,0.4c-0.4,0-0.8,0-1.1-0.1c-0.4-0.1-0.7-0.2-0.9-0.4c-0.2-0.2-0.5-0.3-0.6-0.5c-0.2-0.2-0.4-0.4-0.7-0.7v0.3
			c0,0.5-0.1,0.9-0.4,1.1c-0.2,0.3-0.5,0.4-0.9,0.4c-0.4,0-0.7-0.1-0.9-0.4c-0.2-0.3-0.3-0.6-0.3-1.1v-11.3c0-0.5,0.1-0.9,0.3-1.2
			c0.2-0.3,0.5-0.4,0.9-0.4c0.4,0,0.7,0.1,0.9,0.4C368,769.4,368.1,769.8,368.1,770.2L368.1,770.2z M368.2,777.9
			c0,1,0.2,1.8,0.7,2.4c0.5,0.6,1.1,0.8,1.9,0.8c0.7,0,1.2-0.3,1.7-0.9c0.5-0.6,0.7-1.4,0.7-2.4c0-0.7-0.1-1.3-0.3-1.8
			c-0.2-0.5-0.5-0.9-0.8-1.1c-0.4-0.3-0.8-0.4-1.3-0.4c-0.5,0-0.9,0.1-1.3,0.4c-0.4,0.3-0.7,0.7-0.9,1.2
			C368.3,776.6,368.2,777.2,368.2,777.9L368.2,777.9z"/>
		<path id="XMLID_151_" class="st7" d="M379.1,783.5l0.2-0.6l-3.2-8c-0.2-0.5-0.3-0.8-0.3-1c0-0.2,0.1-0.4,0.2-0.6
			c0.1-0.2,0.3-0.3,0.5-0.5c0.2-0.1,0.4-0.2,0.6-0.2c0.4,0,0.7,0.1,0.8,0.4c0.2,0.2,0.4,0.6,0.5,1l2.2,6.4l2.1-5.9
			c0.2-0.5,0.3-0.9,0.4-1.1c0.1-0.3,0.3-0.5,0.4-0.5c0.1-0.1,0.4-0.1,0.6-0.1c0.2,0,0.4,0.1,0.6,0.2c0.2,0.1,0.3,0.2,0.4,0.4
			c0.1,0.2,0.1,0.4,0.1,0.6c0,0.1-0.1,0.3-0.1,0.5c-0.1,0.2-0.1,0.4-0.2,0.7l-3.4,8.9c-0.3,0.8-0.6,1.4-0.9,1.8
			c-0.3,0.4-0.6,0.8-1.1,1c-0.5,0.2-1.1,0.4-1.9,0.4c-0.8,0-1.3-0.1-1.7-0.2c-0.4-0.2-0.6-0.5-0.6-0.9c0-0.3,0.1-0.5,0.3-0.7
			c0.2-0.2,0.4-0.2,0.8-0.2c0.1,0,0.3,0,0.4,0.1c0.2,0,0.3,0.1,0.4,0.1c0.3,0,0.5,0,0.7-0.1c0.2-0.1,0.3-0.2,0.5-0.5
			C378.8,784.2,379,783.9,379.1,783.5L379.1,783.5z"/>
		<path id="XMLID_150_" class="st7" d="M416.7,772.8h0.6v-0.8c0-0.8,0.1-1.5,0.3-1.9c0.2-0.5,0.6-0.8,1-1c0.5-0.2,1.2-0.3,2-0.3
			c1.5,0,2.3,0.4,2.3,1.1c0,0.2-0.1,0.4-0.2,0.6c-0.2,0.2-0.3,0.3-0.6,0.3c-0.1,0-0.3,0-0.5-0.1c-0.2,0-0.5-0.1-0.6-0.1
			c-0.5,0-0.8,0.1-0.9,0.4c-0.1,0.3-0.2,0.7-0.2,1.2v0.6h0.6c1,0,1.5,0.3,1.5,0.9c0,0.4-0.1,0.7-0.4,0.8c-0.3,0.1-0.6,0.2-1.1,0.2
			h-0.6v6.9c0,0.5-0.1,0.9-0.4,1.2c-0.2,0.3-0.6,0.4-0.9,0.4c-0.4,0-0.7-0.1-0.9-0.4c-0.2-0.3-0.4-0.7-0.4-1.2v-6.9h-0.7
			c-0.4,0-0.7-0.1-0.9-0.3c-0.2-0.2-0.3-0.4-0.3-0.7C415.4,773.1,415.8,772.8,416.7,772.8L416.7,772.8z"/>
		<path id="XMLID_149_" class="st7" d="M425.2,779.4v2.2c0,0.5-0.1,0.9-0.4,1.2c-0.2,0.3-0.6,0.4-0.9,0.4c-0.4,0-0.7-0.1-0.9-0.4
			c-0.2-0.3-0.4-0.7-0.4-1.2v-7.2c0-1.2,0.4-1.7,1.3-1.7c0.4,0,0.7,0.1,0.9,0.4c0.2,0.3,0.3,0.7,0.3,1.2c0.3-0.5,0.6-0.9,0.9-1.2
			c0.3-0.3,0.8-0.4,1.3-0.4s1.1,0.1,1.6,0.4c0.5,0.3,0.8,0.6,0.8,1.1c0,0.3-0.1,0.6-0.3,0.8c-0.2,0.2-0.5,0.3-0.7,0.3
			c-0.1,0-0.3-0.1-0.7-0.2c-0.4-0.1-0.7-0.2-1-0.2c-0.4,0-0.7,0.1-0.9,0.3c-0.2,0.2-0.4,0.5-0.6,0.9c-0.1,0.4-0.2,0.9-0.3,1.4
			C425.2,778,425.2,778.6,425.2,779.4L425.2,779.4z"/>
		<path id="XMLID_259_" class="st7" d="M437.1,778.5h-5.1c0,0.6,0.1,1.1,0.4,1.6c0.2,0.4,0.5,0.8,0.9,1c0.4,0.2,0.8,0.3,1.3,0.3
			c0.3,0,0.6,0,0.8-0.1c0.3-0.1,0.5-0.2,0.7-0.3c0.2-0.2,0.5-0.3,0.7-0.5c0.2-0.2,0.5-0.4,0.8-0.7c0.1-0.1,0.3-0.2,0.6-0.2
			c0.3,0,0.5,0.1,0.6,0.2c0.2,0.1,0.2,0.4,0.2,0.6c0,0.2-0.1,0.5-0.3,0.8c-0.2,0.3-0.5,0.6-0.8,0.9c-0.4,0.3-0.8,0.5-1.4,0.7
			c-0.6,0.2-1.2,0.3-1.9,0.3c-1.7,0-3-0.5-3.9-1.4c-0.9-1-1.4-2.2-1.4-3.9c0-0.8,0.1-1.5,0.3-2.1c0.2-0.7,0.6-1.2,1-1.7
			c0.4-0.5,1-0.8,1.6-1.1c0.6-0.2,1.3-0.4,2.1-0.4c1,0,1.9,0.2,2.6,0.6c0.7,0.4,1.3,1,1.6,1.7c0.4,0.7,0.5,1.4,0.5,2.1
			c0,0.6-0.2,1.1-0.6,1.3C438.3,778.4,437.8,778.5,437.1,778.5L437.1,778.5z M432.1,777h4.7c-0.1-0.9-0.3-1.5-0.7-2
			c-0.4-0.4-1-0.7-1.6-0.7c-0.6,0-1.2,0.2-1.6,0.7C432.4,775.5,432.1,776.2,432.1,777L432.1,777z"/>
		<path id="XMLID_256_" class="st7" d="M447.9,778.5h-5.1c0,0.6,0.1,1.1,0.4,1.6c0.2,0.4,0.5,0.8,0.9,1c0.4,0.2,0.8,0.3,1.3,0.3
			c0.3,0,0.6,0,0.8-0.1c0.3-0.1,0.5-0.2,0.8-0.3c0.2-0.2,0.5-0.3,0.7-0.5c0.2-0.2,0.5-0.4,0.8-0.7c0.1-0.1,0.3-0.2,0.6-0.2
			c0.3,0,0.5,0.1,0.7,0.2c0.2,0.1,0.2,0.4,0.2,0.6c0,0.2-0.1,0.5-0.3,0.8c-0.2,0.3-0.5,0.6-0.8,0.9c-0.4,0.3-0.8,0.5-1.4,0.7
			c-0.6,0.2-1.2,0.3-1.9,0.3c-1.7,0-3-0.5-3.9-1.4c-0.9-1-1.4-2.2-1.4-3.9c0-0.8,0.1-1.5,0.3-2.1c0.2-0.7,0.6-1.2,1-1.7
			c0.4-0.5,1-0.8,1.6-1.1c0.6-0.2,1.3-0.4,2.1-0.4c1,0,1.9,0.2,2.6,0.6c0.7,0.4,1.3,1,1.6,1.7c0.4,0.7,0.5,1.4,0.5,2.1
			c0,0.6-0.2,1.1-0.6,1.3C449.1,778.4,448.6,778.5,447.9,778.5L447.9,778.5z M442.9,777h4.7c-0.1-0.9-0.3-1.5-0.7-2
			c-0.4-0.4-1-0.7-1.6-0.7c-0.6,0-1.2,0.2-1.6,0.7C443.2,775.5,442.9,776.2,442.9,777L442.9,777z"/>
		<path id="XMLID_253_" class="st7" d="M453.6,774.1v0.3c0.5-0.6,1-1,1.5-1.3c0.5-0.3,1.1-0.4,1.8-0.4c0.8,0,1.5,0.2,2.2,0.6
			c0.7,0.4,1.2,1,1.6,1.8c0.4,0.8,0.6,1.7,0.6,2.8c0,0.8-0.1,1.5-0.3,2.2c-0.2,0.7-0.5,1.2-0.9,1.7c-0.4,0.5-0.9,0.8-1.4,1
			c-0.5,0.2-1.1,0.4-1.7,0.4c-0.7,0-1.4-0.1-1.9-0.4c-0.5-0.3-1-0.7-1.4-1.3v3.9c0,1.1-0.4,1.7-1.2,1.7c-0.5,0-0.8-0.1-1-0.4
			c-0.2-0.3-0.2-0.7-0.2-1.3v-11.2c0-0.5,0.1-0.9,0.3-1.1c0.2-0.2,0.5-0.4,0.9-0.4c0.4,0,0.7,0.1,0.9,0.4
			C453.5,773.2,453.6,773.6,453.6,774.1L453.6,774.1z M458.7,777.8c0-0.7-0.1-1.3-0.3-1.8c-0.2-0.5-0.5-0.9-0.9-1.1
			c-0.4-0.3-0.8-0.4-1.2-0.4c-0.7,0-1.3,0.3-1.8,0.8c-0.5,0.6-0.7,1.4-0.7,2.5c0,1,0.2,1.8,0.7,2.4c0.5,0.6,1.1,0.9,1.8,0.9
			c0.4,0,0.8-0.1,1.2-0.4c0.4-0.3,0.7-0.6,0.9-1.1C458.6,779.1,458.7,778.5,458.7,777.8L458.7,777.8z"/>
		<path id="XMLID_250_" class="st7" d="M463.9,771.4c-0.4,0-0.7-0.1-0.9-0.3c-0.3-0.2-0.4-0.5-0.4-0.9c0-0.4,0.1-0.7,0.4-0.9
			c0.3-0.2,0.6-0.4,0.9-0.4c0.3,0,0.6,0.1,0.9,0.3c0.3,0.2,0.4,0.5,0.4,0.9c0,0.4-0.1,0.7-0.4,0.9
			C464.6,771.3,464.3,771.4,463.9,771.4L463.9,771.4z M465.2,774.1v7.5c0,0.5-0.1,0.9-0.4,1.2c-0.3,0.3-0.6,0.4-0.9,0.4
			c-0.4,0-0.7-0.1-0.9-0.4c-0.2-0.3-0.4-0.7-0.4-1.2v-7.4c0-0.5,0.1-0.9,0.4-1.2c0.2-0.3,0.5-0.4,0.9-0.4c0.4,0,0.7,0.1,0.9,0.4
			C465.1,773.3,465.2,773.6,465.2,774.1L465.2,774.1z"/>
		<path id="XMLID_116_" class="st7" d="M473.6,782l-2.3-3.8l-1.4,1.3v2.1c0,0.5-0.1,0.9-0.4,1.1c-0.3,0.3-0.6,0.4-0.9,0.4
			c-0.4,0-0.7-0.1-0.9-0.4c-0.2-0.3-0.3-0.7-0.3-1.2v-11.1c0-0.6,0.1-1,0.3-1.3c0.2-0.3,0.5-0.5,1-0.5c0.4,0,0.7,0.1,0.9,0.4
			c0.2,0.3,0.4,0.7,0.4,1.2v6.3l2.9-3.1c0.4-0.4,0.6-0.6,0.8-0.8c0.2-0.1,0.4-0.2,0.7-0.2c0.3,0,0.6,0.1,0.8,0.3
			c0.2,0.2,0.3,0.5,0.3,0.8c0,0.4-0.4,0.9-1.1,1.5l-1.4,1.3l2.7,4.2c0.2,0.3,0.3,0.5,0.4,0.7c0.1,0.2,0.1,0.3,0.1,0.5
			c0,0.4-0.1,0.7-0.3,1c-0.2,0.2-0.5,0.4-0.9,0.4c-0.3,0-0.6-0.1-0.7-0.3C474.1,782.7,473.9,782.4,473.6,782L473.6,782z"/>
		<path id="XMLID_115_" class="st7" d="M479.2,783.2c-0.4,0-0.7-0.1-1-0.4c-0.3-0.2-0.4-0.6-0.4-1.1c0-0.4,0.1-0.7,0.4-1
			c0.3-0.3,0.6-0.4,1-0.4c0.4,0,0.7,0.1,1,0.4c0.3,0.3,0.4,0.6,0.4,1c0,0.5-0.1,0.8-0.4,1.1C479.9,783,479.6,783.2,479.2,783.2
			L479.2,783.2z"/>
		<path id="XMLID_114_" class="st7" d="M492.1,779.9c0,0.3-0.1,0.7-0.3,1c-0.2,0.4-0.5,0.7-0.9,1c-0.4,0.3-0.9,0.6-1.5,0.8
			c-0.6,0.2-1.3,0.3-2,0.3c-1.6,0-2.9-0.5-3.8-1.4c-0.9-0.9-1.3-2.2-1.3-3.8c0-1.1,0.2-2,0.6-2.8c0.4-0.8,1-1.4,1.8-1.9
			c0.8-0.4,1.7-0.7,2.8-0.7c0.7,0,1.3,0.1,1.9,0.3c0.6,0.2,1,0.5,1.4,0.8c0.4,0.3,0.7,0.6,0.9,1c0.2,0.4,0.3,0.7,0.3,1
			c0,0.3-0.1,0.6-0.3,0.8c-0.2,0.2-0.5,0.3-0.8,0.3c-0.2,0-0.4-0.1-0.5-0.2c-0.1-0.1-0.3-0.3-0.5-0.5c-0.3-0.5-0.6-0.8-1-1.1
			c-0.3-0.2-0.8-0.4-1.3-0.4c-0.8,0-1.4,0.3-1.9,0.9c-0.5,0.6-0.7,1.4-0.7,2.5c0,0.5,0.1,0.9,0.2,1.3c0.1,0.4,0.3,0.8,0.5,1
			c0.2,0.3,0.5,0.5,0.8,0.7c0.3,0.2,0.7,0.2,1.1,0.2c0.5,0,1-0.1,1.3-0.4c0.4-0.2,0.7-0.6,1-1.1c0.2-0.3,0.3-0.5,0.5-0.7
			c0.2-0.2,0.4-0.2,0.7-0.2c0.3,0,0.6,0.1,0.8,0.4C492,779.4,492.1,779.7,492.1,779.9L492.1,779.9z"/>
		<path id="XMLID_244_" class="st7" d="M503.3,777.9c0,0.8-0.1,1.5-0.4,2.1c-0.2,0.7-0.6,1.2-1.1,1.7c-0.5,0.5-1,0.8-1.6,1.1
			c-0.6,0.2-1.3,0.4-2.1,0.4c-0.8,0-1.5-0.1-2.1-0.4c-0.6-0.2-1.2-0.6-1.6-1.1c-0.5-0.5-0.8-1-1.1-1.7c-0.2-0.6-0.4-1.4-0.4-2.1
			c0-0.8,0.1-1.5,0.4-2.2c0.2-0.7,0.6-1.2,1-1.7c0.5-0.5,1-0.8,1.6-1.1c0.6-0.2,1.3-0.4,2.1-0.4c0.8,0,1.5,0.1,2.1,0.4
			c0.6,0.3,1.2,0.6,1.6,1.1c0.5,0.5,0.8,1,1,1.7C503.2,776.4,503.3,777.1,503.3,777.9L503.3,777.9z M500.7,777.9
			c0-1.1-0.2-1.9-0.7-2.5c-0.5-0.6-1.1-0.9-1.9-0.9c-0.5,0-1,0.1-1.3,0.4c-0.4,0.3-0.7,0.6-0.9,1.2c-0.2,0.5-0.3,1.1-0.3,1.8
			c0,0.7,0.1,1.3,0.3,1.8c0.2,0.5,0.5,0.9,0.9,1.2c0.4,0.3,0.8,0.4,1.4,0.4c0.8,0,1.4-0.3,1.9-0.9
			C500.5,779.7,500.7,778.9,500.7,777.9L500.7,777.9z"/>
		<path id="XMLID_111_" class="st7" d="M513.2,778.1v3.4c0,0.5-0.1,1-0.4,1.2c-0.3,0.3-0.6,0.4-1,0.4c-0.4,0-0.7-0.1-1-0.4
			c-0.2-0.3-0.4-0.7-0.4-1.2v-4.1c0-0.7,0-1.2-0.1-1.5c0-0.4-0.2-0.7-0.4-0.9c-0.2-0.2-0.5-0.4-0.9-0.4c-0.9,0-1.4,0.3-1.7,0.9
			c-0.3,0.6-0.4,1.4-0.4,2.5v3.5c0,0.5-0.1,0.9-0.4,1.2c-0.2,0.3-0.6,0.4-1,0.4c-0.4,0-0.7-0.1-1-0.4c-0.3-0.3-0.4-0.7-0.4-1.2v-7.4
			c0-0.5,0.1-0.9,0.3-1.1c0.2-0.3,0.5-0.4,0.9-0.4c0.4,0,0.7,0.1,0.9,0.4c0.2,0.2,0.4,0.6,0.4,1v0.2c0.5-0.5,0.9-0.9,1.4-1.2
			c0.5-0.3,1.1-0.4,1.7-0.4c0.7,0,1.2,0.1,1.7,0.4c0.5,0.3,0.9,0.7,1.2,1.2c0.4-0.5,0.9-0.9,1.4-1.2c0.5-0.3,1.1-0.4,1.7-0.4
			c0.7,0,1.3,0.1,1.8,0.4c0.5,0.3,0.9,0.7,1.1,1.2c0.2,0.5,0.3,1.2,0.3,2.2v5.1c0,0.5-0.1,1-0.4,1.2c-0.2,0.3-0.6,0.4-1,0.4
			c-0.4,0-0.7-0.1-1-0.4c-0.3-0.3-0.4-0.7-0.4-1.2v-4.4c0-0.6,0-1-0.1-1.3c0-0.3-0.2-0.6-0.4-0.8c-0.2-0.2-0.5-0.3-1-0.3
			c-0.3,0-0.7,0.1-1,0.3c-0.3,0.2-0.5,0.5-0.7,0.8C513.3,776.2,513.2,777,513.2,778.1L513.2,778.1z"/>
		<path id="XMLID_110_" class="st7" d="M392.4,777.3C392.4,777.2,392.4,777.2,392.4,777.3C392.4,777.2,392.4,777.2,392.4,777.3
			L392.4,777.3z"/>
		<path id="XMLID_109_" class="st7" d="M392.6,778.1L392.6,778.1c0-0.2-0.1-0.5-0.1-0.7C392.5,777.6,392.5,777.8,392.6,778.1
			L392.6,778.1z"/>
		<path id="XMLID_108_" class="st7" d="M393.4,780.5C393.4,780.5,393.4,780.5,393.4,780.5C393.4,780.5,393.4,780.5,393.4,780.5
			L393.4,780.5z"/>
		<path id="XMLID_107_" class="st7" d="M393.3,780.3c0,0,0-0.1-0.1-0.1C393.3,780.2,393.3,780.3,393.3,780.3L393.3,780.3z"/>
		<path id="XMLID_106_" class="st7" d="M392.8,779c0.1,0.4,0.3,0.8,0.5,1.2C393.1,779.8,392.9,779.4,392.8,779L392.8,779z"/>
		<path id="XMLID_105_" class="st7" d="M402.5,767.3c0.5,0,0.9,0,1.3,0.1l0.1-0.8c0,0-1.2-0.4-2.7-0.2l-0.1-0.4
			c0.5-0.1,0.8-0.5,0.8-1c0-0.6-0.5-1.1-1.1-1.1c-0.6,0-1.1,0.5-1.1,1.1c0,0.5,0.4,0.9,0.8,1l0.1,0.5c-1.6,0.2-2.9,0.9-2.9,0.9
			l0.2,0.7c1-0.3,1.8-0.5,2.6-0.6C401.4,767.4,402,767.3,402.5,767.3L402.5,767.3z"/>
		<path id="XMLID_104_" class="st7" d="M393.4,771.2L393.4,771.2c0-0.1,0.1-0.1,0.1-0.2l-0.3-0.2l-0.5-0.4c0,0-0.8,0.7-1.4,2
			c0,0-0.1-0.1-0.1-0.1c-0.2-0.2-0.4-0.3-0.8-0.3h0c-0.2,0-0.3-0.1-0.4-0.1c0.1-0.1,0.1-0.3,0.1-0.4c0-0.4-0.3-0.7-0.7-0.7
			c-0.4,0-0.7,0.3-0.7,0.7c0,0.4,0.3,0.7,0.7,0.7c0.1,0,0.1,0,0.2,0c0.2,0.2,0.4,0.3,0.8,0.3c0.2,0,0.3,0,0.4,0.2
			c0.1,0.1,0.1,0.3,0.2,0.4c0,0,0,0,0,0c-0.4,1.2-0.3,2.7-0.3,2.7l1.1,0c0-0.5,0.1-1.5,0.4-2.2C392.7,772.1,393.4,771.2,393.4,771.2
			L393.4,771.2z"/>
		<path id="XMLID_103_" class="st7" d="M411.7,768.2c-0.4,0-0.7,0.3-0.7,0.7c0,0.1,0,0.1,0,0.2c-0.2,0.2-0.3,0.4-0.3,0.8
			c0,0.2,0,0.3-0.2,0.4c-0.1,0.1-0.2,0.1-0.3,0.1c-0.8-1.1-1.8-1.8-1.8-1.8l-0.8,0.8c0.6,0.5,1.2,1.2,1.7,2c0.4,0.6,0.8,1.3,1.1,2
			l1-0.5c0,0-0.5-1.2-1.1-2.2c0.1,0,0.2-0.1,0.3-0.2c0.2-0.2,0.3-0.4,0.3-0.8c0-0.2,0.1-0.3,0.1-0.4c0.1,0.1,0.3,0.1,0.4,0.1
			c0.4,0,0.7-0.3,0.7-0.7C412.3,768.5,412,768.2,411.7,768.2L411.7,768.2z"/>
		<path id="XMLID_102_" class="st7" d="M409,777.4c-1.4,0.7-3.7,1.6-6.8,2c-1.2,0.2-2.4,0.2-3.4,0.2c-1.4,0-2.6-0.1-3.6-0.2
			c-1.1-0.1-1.9-0.3-2.4-0.4c0.1,0.4,0.3,0.8,0.5,1.2c0,0,0,0,0,0c0,0,0,0.1,0.1,0.1c0,0,0,0.1,0.1,0.1c0,0,0,0,0,0
			c0.3,0.6,0.7,1.1,1.1,1.5c1.4,1.6,2.9,1.8,2.9,1.8l0,0l0,0c0,0,1.3,0.4,3.3,0.4c1.9,0,3.9-0.4,5.7-1.2c1.3-0.7,2.6-1.7,3.3-2.7
			c0.5-0.7,0.8-1.5,1.1-2.3c0.1-0.4,0.2-1.1,0.1-1.8C410.5,776.6,409.9,777,409,777.4L409,777.4z"/>
		<path id="XMLID_230_" class="st7" d="M393.9,771.5c0,0.1-0.7,0.9-1.1,2.3c-0.4,1-0.3,2.4-0.3,2.5v0c0,0.3,0,0.7,0.1,1c0,0,0,0,0,0
			c0,0,0,0.1,0,0.1c0,0.2,0.1,0.5,0.1,0.7c0.7,0.2,4.9,1.2,9.6,0.5c2.9-0.4,5.2-1.3,6.5-1.9c1.1-0.5,1.8-1,2.1-1.2
			c-0.3-1-1-2.6-1.7-3.6c-2-2.9-4.2-3.6-5.3-3.8c-0.4-0.1-0.8-0.1-1.2-0.1c-0.4,0-1,0-1.7,0.1c-0.7,0.1-1.6,0.3-2.5,0.6
			c-1.3,0.5-2.6,1.2-3.5,2l0,0C394.5,770.8,394.2,771.1,393.9,771.5L393.9,771.5z M406.1,770.8c1,0,1.7,0.8,1.7,1.7
			s-0.8,1.7-1.7,1.7c-1,0-1.7-0.8-1.7-1.7S405.2,770.8,406.1,770.8L406.1,770.8z M397.9,770.8c1.6,0,2.8,1.3,2.8,2.8
			c0,1.6-1.3,2.8-2.8,2.8c-1.6,0-2.8-1.3-2.8-2.8C395.1,772,396.3,770.8,397.9,770.8L397.9,770.8z"/>
	</g>
</g>
<g id="objects">
	<g id="XMLID_15_">
		<path id="XMLID_82_" class="st8" d="M238.5,319.2c-5.3-5.5-8.9-8.3-20.4-14.3c-11.6-6-33.9-3.8-44.3-6.5s-11.9-5.6-7.2-7.1
			c4.7-1.5,72.8-3.2,77-0.8c4.2,2.4,11.3,12.3,12.5,14.7c1.2,2.4-2.5,3-4.5,5.5C249.5,313.2,238.5,319.2,238.5,319.2z"/>
		<path id="XMLID_81_" class="st9" d="M164.1,292.7c0.3-0.6,1.2-1,2.4-1.4c4.7-1.5,72.8-3.2,77-0.8c4.2,2.4,11.3,12.3,12.5,14.7
			c1.2,2.4-2.5,3-4.5,5.5c-0.6-2.5-7.7-14.1-12.7-15C233.8,294.7,167.8,294.1,164.1,292.7z"/>
		<path id="XMLID_78_" class="st10" d="M363.6,471.9c-2.6-0.8-14.9,2.3-26.4,11c-11.5,8.7-15.6,18.5-6.4,19
			C340,502.4,363.6,471.9,363.6,471.9L363.6,471.9z M361.8,473.2c0,0-30.2,31.9-33.9,25c-2.6-5,21.8-21.8,28.3-24
			C359.8,472.9,361.8,473.2,361.8,473.2z"/>
		<path id="XMLID_77_" class="st8" d="M581.8,287c-5.6,0.3-13.8,0.8-19-4.4c-5.1-5.1-6.2-9.5-6.2-9.5s-10.8,2.6-21-5.9
			c-10.3-8.5-13.3-16.7-11.3-20.3c2.1-3.6,4.4-3.3,5.9-2.3c1.5,1,5.1,10,9.5,12c4.4,2.1,15.9,4.1,19.7-0.3
			c3.8-4.4,5.8-10.3,1.9-13.9c-6.8-6.4-19.4-9.7-26.8-2.3c-4.4,4.4-7.9,3.6-7.4-2.1c1.2-13,30.5-19.5,44-5.4c1.2-10.3,3.4-33.8,6-41
			c1.9-5.3,7.2-4.4,8.2,0c1,4.4-3.8,45.1-1.4,45.9c2.9,0.9,18.4-29.9,27.8-36.2c3.3-2.2,7.4-1,6.2,2.3c-1.3,3.3-24.2,40-24.2,41.6
			c0,1.5,0.3,4.3,2.3,4.1c0.2,0,30.4-17.9,32.4-11.5c1.5,4.9-31,22.4-31,22.4s-1.2,7.6-5.8,16C587.1,285,581.8,287,581.8,287z"/>
		<path id="XMLID_76_" class="st11" d="M567.9,285.8c-1.8-0.7-3.6-1.7-5-3.2c-5.1-5.1-6.2-9.5-6.2-9.5s-10.8,2.6-21-5.9
			c-10.1-8.3-13.2-16.4-11.4-20c0.4,0.8,0.8,1.8,1.1,2.8c1,3,8.3,13.6,14.7,16.4c6.4,2.8,19.5,4,19.5,4s10.3,13.5,11.3,14.3
			C570.9,284.7,569.8,285.3,567.9,285.8z"/>
		<path id="XMLID_75_" class="st12" d="M573.2,277.9c0.6-1.8,0-9.2-2.9-13.5c-2.9-4.2-6.4-5.8-6.4-5.8s4.9-3.5,9.6,3.1
			C578.2,268.3,573.2,277.9,573.2,277.9z"/>
		<path id="XMLID_74_" class="st13" d="M483.4,291.1c-11.2-3.5-42.7-6.8-42.7-6.8s-57.7,7.8-69.7,11.8c-0.1,0-0.2,0.1-0.3,0.2
			c-17.3,1.4-66,60.1-78.4,57.8c-13-2.4-28.3-43.1-34.8-54.9c-12.8,6.8-15.7,7.4-29.6,14.1c13.7,29.5,21.6,64.2,60.6,79.2
			c14.2,4.8,44.5-20.1,69-42.1c-5.6,52-7,124.8-4.6,140.1c3.8,23.6,146.2,31.4,156-2.4c3.7-12.6-3.1-87.1-11.4-140.8
			c21.8,14.6,51.1,26.6,74.6,24.4c29.9-2.7,20.1-94.5,20.1-94.5s-26.7,5.7-31.2,5.3c-4.5-0.4,5.6,51.4-11,51
			C533.3,333,500.7,290.6,483.4,291.1z"/>
		<path id="XMLID_73_" class="st14" d="M483.4,291.1c-7.5-2.4-24.1-4.6-34.3-5.8c-1.9,2.4-3.4,4.3-3.4,4.3s33.6,3.3,45.1,11.8
			c11.6,8.5,38,31.7,49.1,36.4c11.1,4.7,20.1,7.8,20.1,7.8s-3.5-7.8-1.4-9.2c2.1-1.4,7.1-25.3,7.3-37.6c0.2-7.9-0.3-13.6-0.6-16.7
			c-2,0.3-3.6,0.4-4.4,0.3c-4.5-0.4,5.6,51.4-11,51C533.3,333,500.7,290.6,483.4,291.1z"/>
		<path id="XMLID_72_" class="st15" d="M506.8,492.2c0.9-1.3,1.6-2.7,2-4.2c3.7-12.6-3.1-87.1-11.4-140.8
			c21.8,14.6,51.1,26.6,74.6,24.4c29.9-2.7,20.1-94.5,20.1-94.5s-4.5,1-10.2,2.1l0,0c0,0,6,44.8,0.1,62.5
			c-5.9,17.7-14.2,21.7-27.2,19.6c-13-2.1-59.8-22.7-59.8-22.7l-14.4-13.9c0,0,15.1,84.6,20.3,107
			C506.2,453.9,506.8,491.2,506.8,492.2z"/>
		<path id="XMLID_71_" class="st15" d="M238.4,308.3c-2.9,1.3-6.2,2.8-10.6,4.9c13.7,29.5,21.6,64.2,60.6,79.2
			c14.2,4.8,44.5-20.1,69-42.1c-5.6,52-7,124.8-4.6,140.1c0.2,1.4,1,2.8,2.1,4.1c0-0.7,1-49.5,8.5-87c7.6-37.8,7.1-70.2,8.7-71.6
			c1.7-1.4-16.3,9-18.4,9.9c-2.1,0.9-54.6,39.2-61.7,39.5c-7.1,0.2-22.4-9.9-31.4-24.6C251.7,346,238.4,308.3,238.4,308.3z"/>
		<path id="XMLID_70_" class="st16" d="M399.3,289.1c0.2,1.3-1.2,10.4,0.3,11.4c1.4,1,18.5,8.6,21.6,9.1c3.1,0.5,7.7-1.1,9.6-2.7
			c1.9-1.5,4.8-4.6,4.8-4.6l1.8-15.8C437.4,286.5,399.4,289.2,399.3,289.1z"/>
		<path id="XMLID_69_" class="st17" d="M394.7,282.5c-2.1,2.1-6,10.8-6,10.8c1.2,6.3,8.9,12.5,23.2,14.3l0,0
			c1.3,0.8,10.7,3.1,10.7,3.1l3.2-1.3c-4-1-7.6-1.5-11.1-3c0.7-4.2,2.6-15.4,1.6-15.4C415.4,290.9,394.7,282.5,394.7,282.5z"/>
		<path id="XMLID_68_" class="st13" d="M364,523.8c-2.7,26.1-24.6,143.2-28.3,181.6c0,0,43.6,4.2,43.6-1s28.3-172.7,28.3-172.7
			L364,523.8z"/>
		<path id="XMLID_67_" class="st18" d="M363.5,706.9c8.6,0.1,15.8-0.5,15.8-2.6c0-3,9.1-57.9,16.9-105.1l-8-1.1L376,613.3
			L363.5,706.9z"/>
		<path id="XMLID_66_" class="st13" d="M501.3,522.7c2.7,26.1,22.9,139.5,28.3,181.6c0,0-43.6,4.2-43.6-1
			c0-5.2-32.9-171.8-32.9-171.8L501.3,522.7z"/>
		<path id="XMLID_65_" class="st17" d="M448.2,282.1c2.1,2.1,6,10.8,6,10.8c-1.1,5.7-7.3,11.2-18.9,13.6c-9.8,4-14,6.1-23.4,8
			c0,0,10.3,196,10.4,195c0-1.1-3,0.9-2.8-2.4c0.2-3.4-10-194.1-10-194.1l18.9-5.5c0,0-3.1-16.9-1.9-16.9
			C427.6,290.5,448.2,282.1,448.2,282.1z"/>
		<path id="XMLID_64_" class="st8" d="M346.7,179.5c0,0-3.9,11.6-2.5,34.7c-12.1-4.8-16.2,13.5-13.8,22.2
			c2.9,10.6,13.8,16.9,18,15.7c4.2-1.1,2.4-0.9,3.4-1.7c11.1,27.2,27.6,52.1,74.9,46.1c47.3-5.9,49.6-28.9,55.9-57.6
			c1.1,0.6,1.1,0.7,3.6,1.1c2.5,0.4,14-7.7,15-18.6c0.8-8.9-6.4-26.3-17.5-19.4c-2.6-23-7.4-33.8-7.4-33.8
			c-3.3-19.1-35.9-31.4-67.9-30.5C376.5,142.4,346.6,160.1,346.7,179.5z"/>
		<path id="XMLID_63_" class="st11" d="M351.7,250.4c11.1,27.2,27.6,52.1,74.9,46.1c47.3-5.9,49.6-28.9,55.9-57.6
			c0,0-7.7,24.8-16.9,33.4c-9.2,8.6-20.5,14.8-37.8,17.8C387.7,297.3,373.4,280.3,351.7,250.4z"/>
		<path id="XMLID_62_" class="st11" d="M346.7,179.5c0,0,0,0.1-0.1,0.2c2.5-1.4,21.2-12.1,40.4-16.3c20.6-4.5,42.4-7.3,57.4-7.4
			c14.8-0.1,26.9,2.4,27.2,2.5l0,0l-19.4-11.3c0,0-55.5-2.7-73,3c-17.4,5.6-29.9,19.5-30.1,19.7l0,0l-2.4,8.7
			C346.7,178.9,346.7,179.2,346.7,179.5z"/>
		<path id="XMLID_61_" class="st19" d="M399,264.9c-1.7-0.1,22.5,13.4,42.6-2.1C442.1,262.4,424.2,265.8,399,264.9z"/>
		<path id="XMLID_60_" class="st20" d="M403.3,210.1c0.4,2.8-9.6-3.4-37.2,3.7c-8.3,2.1-6.9-8.7-6.8-8.8c0.1-0.1,0.3,4.6,6.3,3.3
			C368.1,207.7,401.7,199.9,403.3,210.1z"/>
		<path id="XMLID_59_" class="st20" d="M419.5,258.8c-2.9,1.2-4.2,6.6-16.7,13.1c-27.4,14.4-45.2-12.5-44.5-11.7
			c0.7,0.9,15,5.6,32.4-0.4c17.4-6,19.9-14.5,21.1-15.4c1.2-0.9,4.9,0.4,6.6,0.1c0.2,0,0.3-0.1,0.5-0.1v0h0h0l0,0
			c0.2,0,0.3,0.1,0.5,0.1c1.7,0,5.3-1.9,6.5-1.2c1.3,0.7,4.5,8.7,22.3,11.9c17.8,3.2,31.6-3.8,32.2-4.8c0.6-0.9-14.6,30.9-43.5,18.8
			C424.4,263.9,422.5,259.5,419.5,258.8z"/>
		<path id="XMLID_58_" class="st15" d="M354.1,150.2c1.3,1-13.7,12.9-25.8,15.7c-12.1,2.9-25.5-12.7-26.1-30.4
			c-1.2-34.1,44.3-45.6,44.3-45.6c14.3-2.7,8.4-34.4,58.8-40.4c33.1-4,47,24.1,47,24.1c7.6-12.9,69.9,4.2,49.2,38.4
			c0,0,13.3,1.2,7.7,21c-5.6,19.8-39.1,9.6-54.8,5.1C438.6,133.6,354.1,150.2,354.1,150.2z"/>
		<path id="XMLID_57_" class="st13" d="M354.1,150.2c0.8,0.6-4.7,5.4-11.8,9.7c-4.2,0.6-8.1,0.6-11.1-0.5
			c-9.5-3.6-28.5-17.9-14.9-34.1c13.6-16.1,34.6-17.7,49.5-30.5c14.9-12.8,15.6-27.9,30.2-32.8c14.6-4.9,25.1-2.3,39,10.3
			c13.8,12.6,31.5,2.6,45.9,16.7c14.4,14.1,3.8,20.5,10.5,30.2c6.7,9.7,14.6,15.4,7.7,18.5s-41.8-7.1-68.4-1.5
			c-6.4,1.3-13.4,3-20.3,4.6C383.1,144.5,354.1,150.2,354.1,150.2z"/>
		<path id="XMLID_56_" class="st21" d="M359.1,168.7c-2.9,5.9-14.8,25.5-8.6,53.6c0.2,0.7,2.5,23.8,2.5,23.8s-2.3,0.8-1.9,0.2
			c0.4-0.6-6.9-32.1-6.9-32.1s-3.1-3.4-3.4-15.9c-0.4-12.5,5.9-18.8,5.9-18.8L359.1,168.7z"/>
		<path id="XMLID_55_" class="st21" d="M458,149.7c3.7,5.4,23.5,31.6,21.4,60.4c-0.1,0.8,0.9,23.9,0.9,23.9s2.4,0.5,1.9-0.1
			c-0.5-0.6,2.2-32.8,2.2-32.8s2.5-3.9,1.1-16.2c-1.4-12.4-13.8-26.3-13.8-26.3L458,149.7z"/>
		<path id="XMLID_54_" class="st22" d="M346.7,179.5c-1.3-9.6-3.2-39.1-3.9-44.8c-2.3-19.6,113.7-42.1,121-17.7
			c1.3,4.3,10,42.9,8,41.6C442.2,140.2,363.9,154.2,346.7,179.5z"/>
		<path id="XMLID_53_" class="st13" d="M346.3,179.9c-1.3-9.6-2.9-39.5-3.5-45.2c-0.2-1.6,0.4-3.2,1.7-4.9
			c20.8-17.1,110.4-31.6,116.7-10.3c1,3.5,7.3,28.5,8.4,37.8C436.7,145.5,364.4,162.8,346.3,179.9z"/>
		<g id="XMLID_50_">
			<path id="XMLID_52_" class="st23" d="M222.2,222.3c40.2,1.8,72.2,28.1,73.3,60.6H140.1c1.1-32.5,33.1-58.8,73.3-60.6v-2.6
				c-2.4-0.7-4-2-4-3.4c0-2.2,3.8-4,8.5-4c4.7,0,8.5,1.8,8.5,4c0,1.5-1.6,2.7-4,3.4V222.3z"/>
			<path id="XMLID_51_" class="st13" d="M231.2,225.7c26,0.9,50.3,19.8,58.5,53.6l-11.6-0.1C277.8,249.7,251.8,232.1,231.2,225.7z"
				/>
		</g>
		<path id="XMLID_49_" class="st24" d="M209.3,292.2c-44.9,0.7-86.1,2.4-130-10.1h259.9C295.4,294.7,254.2,293,209.3,292.2z"/>
		<path id="XMLID_48_" class="st17" d="M209.3,292.2c-37.2,0.6-71.8,1.9-107.5-4.8h215C281.1,294.1,246.5,292.9,209.3,292.2z"/>
		<path id="XMLID_47_" class="st10" d="M351.9,477.1c-12,7.1-9.1,115.7-17.3,147c-0.8,3.1,19.3-7.5,34-3.8
			c18.2,4.6,41,18.7,63.1,15.5c40-5.9,38.2-18.5,59.6-21.5c21.4-3,38.7,3.7,38.7,3.7s-12.4-140.5-20.1-142.2
			C454.1,489.2,401.4,492,351.9,477.1z"/>
		<path id="XMLID_46_" class="st25" d="M351.7,477.2c-0.1,0.1-0.3,0.2-0.4,0.3c-0.7,1.5-1.9,4.3-3.6,8c-7.2,27.5-6,111.6-13,138.6
			c-0.8,3.1,19.3-7.5,34-3.8c18.2,4.6,41,18.7,63.1,15.5c40-5.9,38.2-18.5,59.6-21.5c21.4-3,38.7,3.7,38.7,3.7
			s-12.4-140.5-20.1-142.2c0,0,5.1,53.4,4.6,76.6c-0.5,23.2-0.9,39.2-7.6,42.1c-6.6,2.8-33.8,20.1-38.6,14.5
			c-4.8-5.6-17.1-90.6-20.4-92c-3.3-1.4-4.3,34.5-6.1,61c-1.9,26.5-1.9,40.6-17,41.6c-15.1,0.9-22.2-6.1-22.7-11.8
			c-0.5-5.7,0.9-30.2-6.1-30.2c-7.1,0-9.5,9.9-14.7,17.5c-5.2,7.6-20.8,9-27.9,10.9c-7.1,1.9-4.3-96.6-4.7-103
			C348.2,497.2,351,481.3,351.7,477.2z"/>
		<path id="XMLID_45_" class="st20" d="M430,206.6c0.2,2.8,8.6-5.5,37-4.9c8.6,0.2,5.1-9.5,4.9-9.6c-0.1-0.1,0.8,4.5-5.4,4.6
			C464.1,196.8,429.2,196.3,430,206.6z"/>
		<path id="XMLID_44_" class="st20" d="M367.4,227.3c1.3-3.7,3.7-6.6,6.7-8.5c2.6-1.7,5.7-2.7,8.8-3.1c3.1-0.3,6.3,0,9.2,1.1
			c3.4,1.2,6.4,3.3,8.4,6.4C390.7,216.3,378.3,212.6,367.4,227.3z"/>
		<path id="XMLID_43_" class="st20" d="M435.1,220.6c1.3-3.7,3.7-6.6,6.7-8.5c2.6-1.7,5.7-2.7,8.8-3.1c3.1-0.3,6.3,0,9.2,1.1
			c3.4,1.2,6.4,3.3,8.4,6.4C458.5,209.7,446,205.9,435.1,220.6z"/>
		<path id="XMLID_42_" class="st10" d="M351.7,477.3c-2,1.1-6.4,11.3-10.2,22.7c-3.8,11.4-2.5,14-4.6,20c-2.1,6-3.7,7.6-3.7,7.6
			l2.3,0.6c0,0,4.2-7.8,4.7-12.8c0.4-5,4.5-19.9,6.1-23.9c1.6-4,4.6-8.5,4.1-8.5C349.9,483,351.7,477.3,351.7,477.3z"/>
		<path id="XMLID_41_" class="st26" d="M345.3,690.4c24.1,0,43.6,14,43.6,31.3c0,0.6,0,1.2-0.1,1.8h-87c0-0.6-0.1-1.2-0.1-1.8
			C301.7,704.4,321.2,690.4,345.3,690.4z"/>
		<path id="XMLID_40_" class="st26" d="M513.4,690.4c-24.1,0-43.6,14-43.6,31.3c0,0.6,0,1.2,0.1,1.8h87c0-0.6,0.1-1.2,0.1-1.8
			C557,704.4,537.5,690.4,513.4,690.4z"/>
		<path id="XMLID_39_" class="st27" d="M306.3,717.3c18.6-24.2,45.6-23.5,45.5-23.6C331.7,686.7,305.4,705.8,306.3,717.3z"/>
		<path id="XMLID_38_" class="st28" d="M421.3,335.4c1.7,0,3.1-1.2,3.1-2.8c0-1.5-1.4-2.8-3.1-2.8c-1.7,0-3.1,1.2-3.1,2.8
			C418.2,334.2,419.6,335.4,421.3,335.4z"/>
		<path id="XMLID_37_" class="st28" d="M425.3,376.5c1.7,0,3.1-1.2,3.1-2.8c0-1.5-1.4-2.8-3.1-2.8c-1.7,0-3.1,1.2-3.1,2.8
			C422.2,375.3,423.6,376.5,425.3,376.5z"/>
		<path id="XMLID_36_" class="st28" d="M428.4,411.9c1.7,0,3.1-1.2,3.1-2.8c0-1.5-1.4-2.8-3.1-2.8c-1.7,0-3.1,1.2-3.1,2.8
			C425.3,410.7,426.7,411.9,428.4,411.9z"/>
		<path id="XMLID_35_" class="st28" d="M429.9,444.2c1.7,0,3.1-1.2,3.1-2.8c0-1.5-1.4-2.8-3.1-2.8c-1.7,0-3.1,1.2-3.1,2.8
			C426.8,443,428.2,444.2,429.9,444.2z"/>
		<path id="XMLID_34_" class="st28" d="M431.5,476.5c1.7,0,3.1-1.2,3.1-2.8c0-1.5-1.4-2.8-3.1-2.8c-1.7,0-3.1,1.2-3.1,2.8
			C428.4,475.3,429.8,476.5,431.5,476.5z"/>
		<path id="XMLID_33_" class="st27" d="M473.3,718.3c18.6-24.2,45.6-23.5,45.5-23.6C498.8,687.7,472.5,706.8,473.3,718.3z"/>
		<path id="XMLID_32_" class="st15" d="M292.2,354c-13-2.4-28.3-43.1-34.8-54.9c-1.5,0.8-2.8,1.5-4,2.1c-1.1,0.6-2.1,1.1-3.1,1.6
			c0,0,1.3,2.3,3.4,6c7.7,13.3,25.8,44.2,29.9,47.2c5.2,3.8,8.3,4.5,9,6.4c0.7,1.9,4.5,7.3,4.5,6.1c0-1.2,1.4-10.9,1.4-10.9
			s41.1-31.7,50.3-40.6c9.2-9,18-15.4,23.4-16.3c3.5-0.6,12.1-2.5,18-3.8c-0.7-1.1-1.1-2.3-1.4-3.5c-0.6-0.2-1.2-0.5-1.9-0.8
			c-7.1,1.3-13,2.5-15.9,3.5c-0.1,0-0.2,0.1-0.3,0.2C353.3,297.6,304.7,356.3,292.2,354z"/>
		<path id="XMLID_31_" class="st15" d="M503.7,691.2l-17-76c-6.6,1.6-10.8,4.3-15.8,7.3c6.2,32,12.2,63,14.3,75.3
			C490.4,694.6,496.7,692.3,503.7,691.2z"/>
		<path id="XMLID_30_" class="st29" d="M406.5,237.8c1.4,2.4,3.4,4.1,5.7,5c2,0.8,4.3,1.2,6.5,1c2.2-0.2,4.4-0.9,6.2-1.9
			c2.2-1.3,4-3.2,4.9-5.5C424,242.3,415.9,246.6,406.5,237.8z"/>
		<path id="XMLID_29_" class="st29" d="M411.6,216.9c0.5,1.2,0.1,10-0.9,12.2c-1,2.1-3.5,5.2-3.7,6.3c-0.2,1.1,0.1,1.5,0.9,0.8
			c0.8-0.7,2.5-3.1,4-3.6c1.5-0.5,2-1.1,2-1.7c0-0.6-1.1-16.5-1.1-16.5L411.6,216.9z"/>
		<path id="XMLID_28_" class="st9" d="M337.4,240.4c2.4,3.4,5.1,6.4,7.8,5.7c2.7-0.7,3.7-4,2.5-6.9c-1.2-2.8-3.7-2.4-4.5-5.9
			c-0.8-3.5,0.2-2.7,1.2-4.6c0.9-1.9,0.2-5.7-0.5-7.9C341.1,212.4,327.5,226.1,337.4,240.4z"/>
		<path id="XMLID_27_" class="st9" d="M495.5,227.3c-2,3.7-4.3,6.9-7.1,6.5c-2.8-0.4-4.1-3.6-3.2-6.5c0.8-3,3.4-2.8,3.8-6.4
			c0.4-3.6-0.5-2.7-1.7-4.4c-1.2-1.8-0.8-5.7-0.4-7.9C488.6,200,503.7,212,495.5,227.3z"/>
		<path id="XMLID_26_" class="st29" d="M408.4,273.2c0,0,0.6,1.5,4.3,3c3.6,1.5,7.9,1.7,13.2,1c5.3-0.7,7.8-5.1,7.7-5
			C422.7,278.1,411.3,274,408.4,273.2z"/>
		<path id="XMLID_25_" class="st11" d="M559.5,256.5c-3.8,4.4-15.4,2.3-19.7,0.3c-4.4-2.1-7.9-11-9.5-12c-0.4-0.3-0.9-0.5-1.5-0.6
			c0.9,0.4,0.1,4.7,2.6,8c2.5,3.3,6.7,7.3,16.5,9.7s12.4-0.2,15.8-5.8c3.4-5.6,3-12.4-2.1-18.2c-5.1-5.8-15.9-6.1-23.2-3.4
			c-7.2,2.7-9.4,8.7-9.4,8.7c1.4,0.3,3.3-0.6,5.5-2.7c7.4-7.4,20-4.1,26.8,2.3C565.3,246.2,563.4,252.2,559.5,256.5z"/>
		<path id="XMLID_21_" class="st11" d="M588.1,278c1.4-0.3,2.4-0.5,3.2-0.7C590.6,277.5,589.5,277.7,588.1,278L588.1,278z
			 M584.6,192.9c-0.1-0.9-1.5-3.4-3.1-3.7s-3.1,1.5-4,4.8s-4.6,42-4.6,42l-1.7-3.1c1.2-10.3,3.4-33.8,6-41c1.9-5.3,7.2-4.4,8.2,0
			c1,4.4-3.8,45.1-1.4,45.9c2.9,0.9,18.4-29.9,27.8-36.2c3.3-2.2,7.4-1,6.2,2.3c-1.3,3.3-24.2,40-24.2,41.6c0,1.5,0.3,4.3,2.3,4.1
			c0.2,0,30.4-17.9,32.4-11.5c1.5,4.9-31,22.4-31,22.4s-1.2,7.6-5.8,16c-0.1,0.3-0.3,0.5-0.5,0.8c0.6-0.1,0.9-0.2,0.9-0.2
			s0.1,1.3,0.3,3.7c-1.7,0.4-3.3,0.8-4.5,1.1c-1.8,0.4-2.9,0.6-2.9,0.6s1.3-1.7,2.9-4.6c0.4-0.8,0.9-1.6,1.3-2.5
			c2.2-4.4,6.9-16.2,6.9-16.2s31.5-19.2,31.5-20.9c0-1.6-3.4-1.1-6.4-0.1c-3,1.1-24.5,12.3-25,12.7c-0.6,0.4-2.1,0.6-3.1-0.8
			c-0.9-1.4-1.4-3.9-0.2-6.3c1.1-2.4,22-37.3,23.4-38.9c1.4-1.7,1.1-2.3-0.6-3.7c-1.7-1.4-3.6,0.9-6.6,3.5c-3,2.6-20.6,30.9-21.5,32
			c-0.9,1.1-2.5,3-4.3,2.7c-1.7-0.3-1.6-1.9-1.7-6.2C581.7,229,584.7,193.8,584.6,192.9z"/>
		<path id="XMLID_19_" class="st22" d="M443.1,107.8c1.8,2.7,3.4,36.4,2.1,43c0,0-2.1-28.5-2.7-32.8c-0.6-4.3-1.5-10-1.5-10
			L443.1,107.8z"/>
		<path id="XMLID_18_" class="st22" d="M426.1,107.7c1.8,2.7,3.4,36.4,2.1,43c0,0-2.1-28.5-2.7-32.8c-0.6-4.3-1.5-10-1.5-10
			L426.1,107.7z"/>
		<path id="XMLID_17_" class="st22" d="M403.3,109.7c1.8,2.7,3.4,36.4,2.1,43c0,0-2.1-28.5-2.7-32.8c-0.6-4.3-1.5-10-1.5-10
			L403.3,109.7z"/>
		<path id="XMLID_16_" class="st22" d="M374.4,116c-1.5,2.9,1.1,36.6,3.2,43c0,0-1.4-28.6-1.3-32.9c0.1-4.3,0.3-10.2,0.3-10.2
			L374.4,116z"/>
		<path id="XMLID_90_" class="st21" d="M402.8,272c12.4-6.5,13.8-12,16.7-13.1c3,0.7,4.9,5.1,17.4,10.3
			c28.2,11.8,43.2-17.9,43.5-18.8l0,0c0,0-16.1,27.5-48.5,10.9c-3.1-1.6-13.6-8.8-13.6-8.8s-12.6,14.4-21.5,17.7
			c-21.7,8-38.4-10-38.4-10s0,0,0,0C358.8,261.2,376.2,285.9,402.8,272z"/>
	</g>
</g>
</svg>
