<svg id="Objects" xmlns="http://www.w3.org/2000/svg" viewBox="0 0 690.15 699.21"><defs><style>.cls-1{opacity:0.2;isolation:isolate;}.cls-2{fill:#2b689e;}.cls-3{fill:#3d7bb0;}.cls-4{fill:#f5f5f5;}.cls-5{fill:#ccc;}.cls-6{fill:#e6535f;}.cls-7{fill:#f2b1b6;}.cls-8{fill:#6a8733;}.cls-9{fill:#a8c76d;}.cls-10{fill:#d6f2a2;}.cls-11{fill:#ffe1a1;}.cls-12{fill:#fff8e8;}.cls-13{fill:#cf7602;}.cls-14{fill:#ffae00;}.cls-15{fill:#fcc44b;}.cls-16{fill:#add95b;}.cls-17{fill:#d4424e;}</style></defs><title>infos</title><path class="cls-1" d="M0,345.07L360.21,22.78c111.78,115,191.52,206.68,319,321.7C548.57,449.55,461.47,572.17,365.36,699.22Z" transform="translate(0 -0.01)"/><rect class="cls-2" x="101.07" y="101.08" width="488.01" height="488.01" transform="translate(-142.94 345.07) rotate(-45)"/><rect class="cls-2" x="121.41" y="121.42" width="447.31" height="447.31" transform="translate(-142.93 345.06) rotate(-45)"/><path class="cls-3" d="M26.6,344.12v0a2.3,2.3,0,0,0-.17,1,2.36,2.36,0,0,0,.6,1.46h0l0.13,0.13,2.93,2.93a2.38,2.38,0,0,0,3.36-3.36L32.12,345l1.68-1.68A2.38,2.38,0,0,0,30.44,340l-3.32,3.32a2.3,2.3,0,0,0-.54.76h0Zm16.93,12.35a2.38,2.38,0,0,0-3.36,3.36l3.36,3.36a2.38,2.38,0,0,0,3.36-3.36l-3.36-3.36h0ZM57,369.9a2.38,2.38,0,0,0-3.36,3.36h0L57,376.62a2.39,2.39,0,0,0,3.4-3.37L57,369.89h0Zm13.4,13.42A2.38,2.38,0,0,0,67,386.68L70.36,390a2.38,2.38,0,0,0,3.36-3.36l-3.36-3.36h0Zm13.43,13.43a2.38,2.38,0,0,0-3.36,3.36l3.36,3.36a2.38,2.38,0,0,0,3.36-3.36l-3.36-3.36h0Zm13.43,13.43a2.38,2.38,0,0,0-3.36,3.36l3.36,3.36a2.38,2.38,0,0,0,3.36-3.36l-3.36-3.36h0Zm13.43,13.43a2.38,2.38,0,0,0-3.36,3.36h0l3.36,3.36A2.38,2.38,0,0,0,114,427h0l-3.36-3.36h0ZM124.08,437a2.38,2.38,0,0,0-3.36,3.36h0l3.36,3.36a2.38,2.38,0,0,0,3.36-3.36h0L124.08,437h0Zm13.43,13.43a2.38,2.38,0,0,0-3.36,3.36l3.36,3.36a2.38,2.38,0,0,0,3.36-3.36l-3.36-3.36h0Zm13.43,13.43a2.38,2.38,0,0,0-3.36,3.36l3.36,3.36a2.4,2.4,0,0,0,3.42-3.37L151,463.89h-0.06Zm13.42,13.42a2.38,2.38,0,0,0-3.36,3.36l3.36,3.36a2.38,2.38,0,0,0,3.36-3.36l-3.36-3.36h0Zm13.43,13.43a2.38,2.38,0,0,0-3.36,3.36l3.36,3.36a2.38,2.38,0,0,0,3.36-3.36h0l-3.36-3.36h0Zm13.43,13.43a2.38,2.38,0,0,0-3.36,3.36l3.36,3.36a2.38,2.38,0,0,0,3.36-3.36l-3.36-3.36h0Zm13.45,13.37a2.38,2.38,0,0,0-3.36,3.36h0l3.36,3.36a2.38,2.38,0,1,0,3.36-3.36l-3.36-3.36h0ZM218.1,531a2.38,2.38,0,1,0-3.36,3.36l3.36,3.36a2.38,2.38,0,1,0,3.36-3.36L218.1,531h0Zm13.43,13.43a2.38,2.38,0,0,0-3.36,3.36h0l3.36,3.36a2.38,2.38,0,1,0,3.36-3.36l-3.36-3.36h0ZM245,557.84a2.38,2.38,0,0,0-3.36,3.36l3.36,3.36a2.38,2.38,0,0,0,3.36-3.36L245,557.84h0Zm13.4,13.47a2.38,2.38,0,0,0-3.36,3.36l3.36,3.36a2.38,2.38,0,1,0,3.36-3.36l-3.36-3.36h0Zm13.43,13.43a2.38,2.38,0,0,0-3.36,3.36h0l3.36,3.36a2.38,2.38,0,1,0,3.36-3.36h0l-3.36-3.36h0Zm13.43,13.43a2.38,2.38,0,0,0-3.36,3.36l3.36,3.36a2.38,2.38,0,1,0,3.36-3.36l-3.36-3.36h0Zm13.44,13.38a2.38,2.38,0,0,0-3.36,3.36h0l3.36,3.36a2.38,2.38,0,1,0,3.36-3.36l-3.36-3.36h0ZM312.09,625a2.38,2.38,0,1,0-3.36,3.36l3.36,3.36a2.38,2.38,0,0,0,3.36-3.36h0L312.09,625h0Zm13.43,13.43a2.38,2.38,0,0,0-3.36,3.36l3.36,3.36a2.38,2.38,0,1,0,3.36-3.36l-3.36-3.36h0Zm13.43,13.43a2.38,2.38,0,1,0-3.36,3.36l3.36,3.36a2.38,2.38,0,1,0,3.36-3.36l-3.36-3.36h0ZM349,654a2.38,2.38,0,1,0,3.36,3.36l3.36-3.36a2.38,2.38,0,0,0-3.36-3.36L349,654h0Zm13.43-13.43a2.38,2.38,0,1,0,3.36,3.36h0l3.36-3.36a2.38,2.38,0,0,0-3.36-3.36l-3.36,3.36h0Zm13.43-13.43a2.38,2.38,0,1,0,3.36,3.36l3.36-3.36a2.38,2.38,0,0,0-3.36-3.36h0l-3.36,3.36h0Zm13.43-13.43a2.38,2.38,0,1,0,3.36,3.36l3.36-3.36a2.38,2.38,0,0,0-3.36-3.36l-3.36,3.36h0Zm13.43-13.43a2.38,2.38,0,1,0,3.36,3.36h0l3.36-3.36A2.38,2.38,0,0,0,406.1,597l-3.36,3.36h0Zm13.43-13.43a2.38,2.38,0,1,0,3.36,3.36h0l3.36-3.36a2.38,2.38,0,0,0-3.36-3.36l-3.36,3.36h0Zm13.41-13.35a2.38,2.38,0,1,0,3.36,3.36l3.36-3.36a2.38,2.38,0,0,0-3.36-3.36l-3.36,3.36h0ZM443,560.12a2.38,2.38,0,1,0,3.36,3.36l3.36-3.36a2.38,2.38,0,0,0-3.36-3.36L443,560.12h0Zm13.43-13.43A2.38,2.38,0,1,0,459.8,550h0l3.36-3.36a2.38,2.38,0,0,0-3.36-3.36l-3.36,3.36h0Zm13.43-13.43a2.38,2.38,0,1,0,3.36,3.36l3.36-3.36a2.38,2.38,0,0,0-3.36-3.36l-3.36,3.36h0Zm13.43-13.43a2.38,2.38,0,1,0,3.36,3.36l3.36-3.36a2.38,2.38,0,0,0-3.36-3.36l-3.36,3.36h0Zm13.43-13.43a2.38,2.38,0,1,0,3.36,3.36l3.36-3.36a2.38,2.38,0,0,0-3.36-3.36l-3.36,3.36h0ZM510.16,493a2.38,2.38,0,0,0,3.36,3.36l3.36-3.36a2.38,2.38,0,0,0-3.36-3.36L510.16,493h0Zm13.41-13.42a2.38,2.38,0,1,0,3.36,3.36l3.36-3.36a2.38,2.38,0,0,0-3.36-3.36l-3.36,3.36h0ZM537,466.12a2.37,2.37,0,1,0,3.15,3.54l0.21-.21,3.36-3.36a2.38,2.38,0,1,0-3.36-3.36L537,466.09h0v0Zm13.43-13.43a2.38,2.38,0,1,0,3.36,3.36h0l3.36-3.36a2.38,2.38,0,1,0-3.36-3.36l-3.36,3.36h0Zm13.43-13.43a2.38,2.38,0,1,0,3.36,3.36h0l3.36-3.36a2.38,2.38,0,0,0-3.36-3.36l-3.36,3.36h0Zm13.43-13.43a2.38,2.38,0,0,0,3.36,3.36l3.36-3.36a2.38,2.38,0,1,0-3.36-3.36l-3.36,3.36h0Zm13.43-13.43a2.38,2.38,0,1,0,3.36,3.36l3.36-3.36a2.38,2.38,0,1,0-3.36-3.36l-3.36,3.36h0ZM604.15,399a2.38,2.38,0,0,0,3.36,3.36h0l3.36-3.36a2.38,2.38,0,1,0-3.36-3.36L604.15,399h0Zm13.41-13.42a2.38,2.38,0,0,0,3.36,3.36l3.36-3.36a2.38,2.38,0,1,0-3.36-3.36l-3.36,3.36h0ZM631,372.12a2.38,2.38,0,0,0,3.36,3.36h0l3.36-3.36a2.38,2.38,0,1,0-3.36-3.36L631,372.12h0Zm13.43-13.43a2.38,2.38,0,0,0,3.36,3.36l3.36-3.36a2.38,2.38,0,1,0-3.36-3.36l-3.36,3.36h0Zm13.43-13.43a2.38,2.38,0,0,0,3.36,3.36h0L663,346.8a2.32,2.32,0,0,0,.73-1.71,2.37,2.37,0,0,0-.7-1.68l-1.5-1.5a2.37,2.37,0,0,0-3.52,3.17l-0.19.19h0Zm-9.72-10.07a2.38,2.38,0,1,0,3.36-3.36h0l-3.36-3.36a2.38,2.38,0,1,0-3.36,3.36l3.36,3.36h0ZM634.7,321.75a2.38,2.38,0,1,0,3.36-3.36h0L634.7,315a2.38,2.38,0,0,0-3.36,3.36l3.36,3.36h0Zm-13.43-13.43a2.38,2.38,0,0,0,3.36-3.36l-3.36-3.36a2.38,2.38,0,0,0-3.36,3.36l3.36,3.36h0Zm-13.43-13.43a2.38,2.38,0,1,0,3.36-3.36l-3.36-3.36a2.38,2.38,0,0,0-3.36,3.36l3.36,3.36h0Zm-13.43-13.43a2.38,2.38,0,0,0,3.36-3.36l-3.36-3.36a2.38,2.38,0,0,0-3.36,3.36l3.36,3.36h0ZM581,268a2.38,2.38,0,1,0,3.36-3.36h0L581,261.31a2.38,2.38,0,0,0-3.36,3.36L581,268h0Zm-13.42-13.42a2.38,2.38,0,1,0,3.36-3.36h0l-3.36-3.36a2.38,2.38,0,0,0-3.36,3.36l3.36,3.36h0Zm-13.43-13.43a2.38,2.38,0,1,0,3.36-3.36h0l-3.36-3.36a2.38,2.38,0,1,0-3.36,3.36l3.36,3.36h0ZM540.7,227.75a2.38,2.38,0,1,0,3.36-3.36L540.7,221a2.38,2.38,0,0,0-3.36,3.36l3.36,3.36h0Zm-13.43-13.43a2.38,2.38,0,0,0,3.36-3.36h0l-3.36-3.36a2.38,2.38,0,0,0-3.36,3.36l3.36,3.36h0Zm-13.43-13.43a2.38,2.38,0,0,0,3.36-3.36h0l-3.36-3.36a2.38,2.38,0,0,0-3.36,3.36l3.36,3.36h0Zm-13.43-13.43a2.38,2.38,0,0,0,3.36-3.36l-3.36-3.36a2.38,2.38,0,0,0-3.36,3.36l3.36,3.36h0ZM487,174a2.38,2.38,0,0,0,3.36-3.36h0L487,167.31a2.38,2.38,0,0,0-3.36,3.36h0L487,174h0ZM473.55,160.6a2.38,2.38,0,0,0,3.36-3.36l-3.36-3.36a2.38,2.38,0,0,0-3.36,3.36l3.36,3.36h0Zm-13.43-13.43a2.38,2.38,0,0,0,3.36-3.36l-3.36-3.36a2.38,2.38,0,0,0-3.36,3.36h0l3.36,3.36h0Zm-13.43-13.43a2.38,2.38,0,0,0,3.36-3.36L446.69,127a2.38,2.38,0,0,0-3.36,3.36l3.36,3.36h0Zm-13.43-13.43a2.38,2.38,0,0,0,3.36-3.36l-3.36-3.36A2.38,2.38,0,0,0,429.9,117l3.36,3.36h0Zm-13.4-13.4a2.38,2.38,0,0,0,3.36-3.36l-3.36-3.36a2.38,2.38,0,0,0-3.36,3.36l3.36,3.36h0ZM406.43,93.48a2.38,2.38,0,0,0,3.36-3.36h0l-3.36-3.36a2.38,2.38,0,0,0-3.36,3.36l3.36,3.36h0ZM393,80a2.38,2.38,0,0,0,3.36-3.36L393,73.33a2.38,2.38,0,0,0-3.36,3.36L393,80h0ZM379.57,66.62a2.38,2.38,0,0,0,3.36-3.36l-3.36-3.36a2.38,2.38,0,0,0-3.36,3.36l3.36,3.36h0ZM366.15,53.2a2.38,2.38,0,0,0,3.36-3.36l-3.36-3.36a2.38,2.38,0,0,0-3.36,3.36l3.36,3.36h0ZM352.72,39.77a2.38,2.38,0,0,0,3.36-3.36L352.72,33a2.38,2.38,0,0,0-3.36,3.36l3.36,3.36h0Zm-10.07-5.22a2.38,2.38,0,0,0-3.36-3.36h0l-3.35,3.36a2.38,2.38,0,0,0,3.36,3.36h0l3.35-3.36h0ZM329.22,48a2.38,2.38,0,0,0-3.36-3.36L322.5,48a2.38,2.38,0,0,0,3.36,3.36L329.22,48h0ZM315.79,61.41A2.38,2.38,0,0,0,312.43,58h0l-3.36,3.36a2.38,2.38,0,0,0,3.36,3.36l3.36-3.36h0ZM302.36,74.84A2.38,2.38,0,0,0,299,71.48l-3.36,3.36A2.38,2.38,0,0,0,299,78.2l3.36-3.36h0ZM288.93,88.27a2.38,2.38,0,0,0-3.36-3.36l-3.36,3.36a2.38,2.38,0,0,0,3.36,3.36l3.36-3.36h0ZM275.5,101.7a2.38,2.38,0,0,0-3.36-3.36l-3.36,3.36a2.38,2.38,0,0,0,3.36,3.36l3.36-3.36h0Zm-13.43,13.43a2.38,2.38,0,0,0-3.36-3.36l-3.35,3.35a2.38,2.38,0,0,0,3.36,3.36l3.36-3.36h0Zm-13.42,13.42a2.38,2.38,0,0,0-3.36-3.36l-3.35,3.36a2.38,2.38,0,0,0,3.36,3.36l3.36-3.36h0ZM235.22,142a2.38,2.38,0,0,0-3.36-3.36L228.5,142a2.38,2.38,0,0,0,3.36,3.36l3.36-3.36h0Zm-13.43,13.43a2.38,2.38,0,0,0-3.36-3.36l-3.36,3.36a2.38,2.38,0,0,0,3.36,3.36h0l3.36-3.36h0Zm-13.43,13.42a2.38,2.38,0,0,0-3.36-3.36l-3.36,3.36a2.38,2.38,0,0,0,3.36,3.36h0l3.36-3.36h0Zm-13.43,13.43a2.38,2.38,0,1,0-3.36-3.36l-3.36,3.36a2.38,2.38,0,0,0,3.36,3.36h0l3.36-3.36h0ZM181.5,195.69a2.38,2.38,0,1,0-3.36-3.36l-3.36,3.36a2.38,2.38,0,0,0,3.36,3.36l3.36-3.36h0Zm-13.43,13.43a2.38,2.38,0,0,0-3.36-3.36l-3.35,3.36a2.38,2.38,0,1,0,3.36,3.36l3.36-3.36h0Zm-13.41,13.43a2.38,2.38,0,0,0-3.36-3.36h0l-3.35,3.36a2.38,2.38,0,0,0,3.36,3.36l3.35-3.36h0ZM141.23,236a2.38,2.38,0,0,0-3.36-3.36L134.51,236a2.38,2.38,0,0,0,3.36,3.36l3.36-3.36h0ZM127.8,249.41a2.38,2.38,0,0,0-3.36-3.36h0l-3.36,3.36a2.38,2.38,0,0,0,3.36,3.36l3.36-3.36h0Zm-13.44,13.42a2.38,2.38,0,0,0-3.36-3.36l-3.36,3.36a2.38,2.38,0,0,0,3.36,3.36h0l3.36-3.36h0Zm-13.41,13.42a2.38,2.38,0,0,0-3.36-3.36l-3.36,3.36a2.38,2.38,0,0,0,3.36,3.36l3.36-3.36h0ZM87.52,289.68a2.38,2.38,0,0,0-3.36-3.36l-3.36,3.36A2.38,2.38,0,0,0,84.16,293h0l3.36-3.36h0ZM74.09,303.11a2.38,2.38,0,0,0-3.36-3.36l-3.37,3.36a2.38,2.38,0,0,0,3.36,3.36l3.36-3.36h0ZM60.67,316.55a2.38,2.38,0,0,0-3.36-3.36h0L54,316.55a2.38,2.38,0,0,0,3.36,3.36h0l3.36-3.36h0ZM47.24,330a2.38,2.38,0,0,0-3.36-3.36L40.52,330a2.38,2.38,0,0,0,3.36,3.36Z" transform="translate(0 -0.01)"/><path class="cls-1" d="M464.81,184.63a215.57,215.57,0,0,1,45.5,24.65,24.49,24.49,0,0,1,18,2.51,22.36,22.36,0,0,1,5.58,4.25c15.93-9.18,33.06-9.77,42.7-.1s9,26.81-.25,42.7a22.37,22.37,0,0,1,4.23,5.59c4.93,9.26,3.88,18.11-1.07,26.23a214.71,214.71,0,0,1,21.43,78.37c9.24,5.33,15.24,13.18,15.77,22.23,0.62,10.52-6.3,20.31-17.52,26.88a214.83,214.83,0,0,1-35.75,90.36c5,10.67,5,21.27-3.18,30.49a22.39,22.39,0,0,1-5.41,4.46c5.29,17.6,2,34.42-9.67,41.59s-28.15,2.61-41.51-10a22.4,22.4,0,0,1-6.41,2.84,25.53,25.53,0,0,1-13,.24,216.71,216.71,0,0,1-163.45,14c-5.12,5.44-11.4,8.63-18.16,8.59-13-.08-24.13-12.15-28.56-29.14a21.42,21.42,0,0,1-6.63-1,23.45,23.45,0,0,1-16-15.2,216,216,0,0,1-77.91-127c-7.87-2.47-13.78-7.69-16.43-16.59a21.4,21.4,0,0,1-.88-6.64c-16.94-4.61-28.89-15.83-28.82-28.88,0.05-10.09,7.28-19,18.41-24.6,0.9-7.62,5.61-15.79,13.4-21.84a37.07,37.07,0,0,1,16-7.34,28,28,0,0,1-.74-6.51,22.4,22.4,0,0,1,1.1-6.92c-15.62-9.68-24.26-24.49-20.31-37.56s19.36-20.61,37.73-20a22.37,22.37,0,0,1,2.92-6.37c7.9-11.83,20.33-13.65,34.17-9.56a217.36,217.36,0,0,1,19.09-17.51c-5.8-22.78-3.68-43.25,15.27-49.07a21.42,21.42,0,0,1,6.64-.93c4.48-17,15.59-29,28.64-29.06s24.24,11.92,28.83,28.88a21.4,21.4,0,0,1,6.64.89,25.08,25.08,0,0,1,9.26,5,216.6,216.6,0,0,1,35-3.82C382,159,388,150.87,396.72,148c12.41-4,26.72,4,36.26,18.71a21.4,21.4,0,0,1,6.6-1.18C452.28,165.31,460.28,172.95,464.81,184.63Z" transform="translate(0 -0.01)"/><circle class="cls-4" cx="348.64" cy="342.23" r="216.08"/><circle class="cls-5" cx="348.64" cy="342.23" r="204.17"/><path class="cls-6" d="M334.74,464.71a40.52,40.52,0,0,1,0,81h0v-9.92h0a30.6,30.6,0,1,0,0-61.2h0v-9.92h0v0Zm0,81a40.52,40.52,0,1,1-2.55-81q1.27,0,2.55,0v9.92a30.6,30.6,0,1,0,0,61.2h0v9.88Z" transform="translate(0 -0.01)"/><path class="cls-7" d="M334.74,467.69a37.54,37.54,0,0,1,0,75.09v-5.23a32.33,32.33,0,0,0,1.14-64.65h-1.14v-5.22h0Zm0,75.09a37.54,37.54,0,0,1,0-75.09v5.22a32.33,32.33,0,1,0-1.14,64.65h1.14v5.22Z" transform="translate(0 -0.01)"/><path class="cls-6" d="M492.77,369a40.52,40.52,0,1,1,2.55,81q-1.27,0-2.55,0v-9.87a30.6,30.6,0,1,0,0-61.2V369h0Zm0,81a40.52,40.52,0,1,1-2.55-81q1.27,0,2.55,0v9.92a30.6,30.6,0,1,0,0,61.2V450Z" transform="translate(0 -0.01)"/><path class="cls-7" d="M492.77,372a37.54,37.54,0,0,1,0,75.09h0v-5.22a32.33,32.33,0,1,0,1.14-64.65h-1.14V372h0Zm0,75.09a37.54,37.54,0,0,1,0-75.09v5.21a32.33,32.33,0,1,0-1.14,64.65h1.14v5.22h0Z" transform="translate(0 -0.01)"/><path class="cls-8" d="M274.24,275.08c6.87-22.71-85.64-117.61-115.07-73.5a22.37,22.37,0,0,0-2.92,6.37c-18.37-.61-33.77,6.93-37.73,20s4.68,27.88,20.31,37.56a22.41,22.41,0,0,0-1.1,6.92C137.75,325.46,267.36,297.78,274.24,275.08Z" transform="translate(0 -0.01)"/><path class="cls-9" d="M274.24,275.08c4.21-13.92-28.93-55-62-74.5,19.71,14.17,45.23,45,38.9,55.55-7.16,12-27-12.77-41.75-25.21s-21.85-15.46-8,.22,12.84,18.92-12.27,11.32-73.25-15.1-36.23-3,57,19,40.31,24.58-32.13,9.73,1,5.6,39.81-3,46.59,9.68c6.59,12.3-11.69,21.25-44.86,23.38C231.36,300.94,270.54,287.29,274.24,275.08Z" transform="translate(0 -0.01)"/><path class="cls-9" d="M263.47,250.91C240.8,251,179.25,140.3,227.7,125.43a21.41,21.41,0,0,1,6.66-.88c4.47-17,15.59-29,28.64-29.06s24.24,11.92,28.83,28.88a21.39,21.39,0,0,1,6.64.89C347,139.76,286.14,250.84,263.47,250.91Z" transform="translate(0 -0.01)"/><path class="cls-10" d="M263.47,250.91c-13.9,0-42.41-41.54-51.22-77.16,7.58,21.92,28.76,53.72,40.2,50.82,12.93-3.28-4.31-28.17-11.65-45.13s-8.16-24.24,2.4-7.29S257,189.09,256.92,164s6.24-71.19,7.17-34,1.8,57.41,11.46,43.63,17.71-26.74,4.86,2.41-13.63,35.63-3.9,45.3c9.46,9.4,22.66-4.88,33.69-34.66C298.9,218.7,275.67,250.87,263.47,250.91Z" transform="translate(0 -0.01)"/><path class="cls-8" d="M422.89,402.92c-20.19,12.45-13.77,144.83,37.47,131.29a22.38,22.38,0,0,0,6.41-2.84c13.36,12.62,29.89,17.18,41.51,10s15-24,9.67-41.59a22.4,22.4,0,0,0,5.41-4.46C558.51,455.55,443.08,390.46,422.89,402.92Z" transform="translate(0 -0.01)"/><path class="cls-9" d="M422.89,402.92c-12.38,7.64-14.75,60.35-2.92,96.88-5.37-23.67-4.1-63.64,7.67-67.38,13.3-4.23,11.73,27.42,14.57,46.55s6.13,26,6.16,5.15,2.91-22.68,16.69-.35S509.93,543.6,490.21,510,460.1,458,476.3,464.9s30.51,14,3-4.83S447.5,435.93,450.81,422c3.22-13.58,22.84-8.17,49.09,12.2C472.17,412,433.75,396.22,422.89,402.92Z" transform="translate(0 -0.01)"/><path class="cls-9" d="M340.82,407.92c19.69-11.23,127.79,54.75,93,91.56a21.41,21.41,0,0,1-5.36,4.07c4.47,17,.73,32.93-10.6,39.4s-27,1.57-39.31-10.92a21.38,21.38,0,0,1-6.19,2.52C322.92,545.79,321.13,419.16,340.82,407.92Z" transform="translate(0 -0.01)"/><path class="cls-10" d="M340.82,407.92c12.07-6.89,57.37,15.25,82.59,41.9-17.39-15.34-51.5-32.57-60-24.41-9.64,9.22,17.63,22.39,32.37,33.53s19,17.07,1.5,7.52-20.38-7.91-7.92,13.84,29.65,65,10.51,33.11-29.9-49.07-31.51-32.32-2.23,32-5.42.3S357.25,443.67,344,440c-12.86-3.52-17.31,15.42-12.24,46.77C325.85,453.41,330.22,414,340.82,407.92Z" transform="translate(0 -0.01)"/><path class="cls-8" d="M424.5,287.32c16.75,16.81,144.14-19.73,119.23-66.55a22.35,22.35,0,0,0-4.23-5.59c9.23-15.89,9.89-33,.25-42.7s-26.77-9.08-42.7.1a22.39,22.39,0,0,0-5.58-4.25C444.75,143.25,407.75,270.55,424.5,287.32Z" transform="translate(0 -0.01)"/><path class="cls-9" d="M424.5,287.32c10.27,10.3,62.12.55,95-19.32-21.81,10.65-61,18.55-67.35,8-7.16-12,24-17.69,42-24.84s24-11.93,3.6-7.17-22.74,2.35-4.16-16.17,48-57.37,19.8-30.49-43.76,41.21-40.74,23.87,6.64-32.9-5.38-1.81-16.22,36.48-30.59,36.45c-14,0-13.18-20.36.65-50.58C422,237.27,415.49,278.28,424.5,287.32Z" transform="translate(0 -0.01)"/><path class="cls-11" d="M510.18,254.49c-0.23,12.07-13.68,21.6-30,21.29s-29.43-10.35-29.2-22.42c0.24-12.9.86-8.63,6.69-13.59,12.59-10.72,37.42-14,48,1.88C510,248.23,510.36,242.79,510.18,254.49Z" transform="translate(0 -0.01)"/><path class="cls-12" d="M466.86,230.07a61,61,0,0,1-2.38-15.16c0.17-9.1,7.72-10.46,17-10.28s16.79,0.3,16.59,10.92c0,2.89-1.17,8.62-3.08,14.52,10.29,4.29,15.4,12.27,15.27,19.43-0.23,12.07-13.68,21.6-30,21.29s-29.43-10.35-29.2-22.42C451.14,241.55,455.75,233.66,466.86,230.07Z" transform="translate(0 -0.01)"/><path class="cls-11" d="M466,226.69c1.27,5.61,3.29,11.7,5.93,16.06a31.63,31.63,0,0,1-14.43-7.56,26.38,26.38,0,0,1,9.34-5.11c-0.31-1.14-.59-2.27-0.84-3.38h0Zm29,3.23v0.15a29,29,0,0,1,9,5.8,31.49,31.49,0,0,1-14.9,7.2h0A55.58,55.58,0,0,0,495,229.91h0Z" transform="translate(0 -0.01)"/><path class="cls-9" d="M407.73,252.47c-21.57,7-113.93-79.67-72.32-108.6a21.4,21.4,0,0,1,6-2.91c-0.91-17.54,6-32.39,18.42-36.41s26.72,4,36.26,18.71a21.41,21.41,0,0,1,6.6-1.18C453.36,121.15,429.29,245.49,407.73,252.47Z" transform="translate(0 -0.01)"/><path class="cls-10" d="M407.73,252.47c-13.22,4.28-53-26.64-72.31-57.87,13.9,18.57,43.77,42.4,53.79,36.15,11.32-7.06-12.7-25.51-24.85-39.43s-15.16-20.59.07-7.67,18.31,11.92,10.59-11.93-15.76-69.7-3.53-34.56,19.22,54.13,24.22,38.06,8.71-30.87,5.36.81-2.12,38.09,10.1,44.33c11.87,6.07,20.09-11.56,21.52-43.29C431.65,211,419.36,248.71,407.73,252.47Z" transform="translate(0 -0.01)"/><circle class="cls-13" cx="179.4" cy="388.36" r="25.01"/><circle class="cls-14" cx="179.4" cy="388.36" r="23.41"/><circle class="cls-15" cx="179.4" cy="388.36" r="16.4"/><path class="cls-14" d="M179.36,397.76a9.39,9.39,0,1,0-9.39-9.39A9.39,9.39,0,0,0,179.36,397.76Z" transform="translate(0 -0.01)"/><path class="cls-8" d="M291.13,309.62c-18.59-14.74-140.87,36.37-110.68,80a22.39,22.39,0,0,0,4.85,5.06c-7.32,16.86-6,34,4.72,42.44s27.65,5.9,42.4-5.06a22.4,22.4,0,0,0,6,3.57C287.77,455.07,309.72,324.37,291.13,309.62Z" transform="translate(0 -0.01)"/><path class="cls-9" d="M291.13,309.62c-11.4-9-61.77,6.68-92.08,30.24,20.43-13.11,58.44-25.53,66-15.73,8.51,11.07-21.79,20.36-38.8,29.55s-22.41,14.63-2.74,7.55,22.32-5,6,15.57-41,62.56-16.12,32.58,38.67-46,37.68-28.44-2.77,33.45,5.56,1.17S268.5,344,282.77,342.35c13.86-1.6,15.46,18.69,5.24,50.32C299.36,359,301.13,317.55,291.13,309.62Z" transform="translate(0 -0.01)"/><path class="cls-9" d="M266.76,401.6c22.67,0.14,83.19,111.39,34.61,125.8a21.4,21.4,0,0,1-6.64.87c-4.63,16.94-15.86,28.87-28.91,28.79s-24.13-12.15-28.56-29.14a21.42,21.42,0,0,1-6.63-1C182.23,512,244.09,401.47,266.76,401.6Z" transform="translate(0 -0.01)"/><path class="cls-10" d="M266.76,401.6c13.9,0.08,42,41.94,50.51,77.63-7.37-22-28.26-54-39.73-51.19-13,3.16,4,28.21,11.23,45.24s7.94,24.31-2.47,7.26-13.64-17.07-13.8,8-6.9,71.13-7.48,33.92S263.75,465,254,478.72s-18,26.58-4.84-2.46,14-35.5,4.32-45.26c-9.37-9.49-22.7,4.67-34,34.35C231,433.48,254.56,401.55,266.76,401.6Z" transform="translate(0 -0.01)"/><circle class="cls-8" cx="275.23" cy="476.98" r="32.77" transform="translate(-234.86 684.47) rotate(-82.15)"/><circle class="cls-16" cx="275.23" cy="476.98" r="30.41" transform="translate(-234.86 684.47) rotate(-82.15)"/><circle class="cls-10" cx="275.23" cy="476.98" r="23.81" transform="matrix(0.14, -0.99, 0.99, 0.14, -234.86, 684.47)"/><path class="cls-16" d="M280.68,488.61c1.73-14.17,13.9-7.34,2.09,1.11C281.19,490.85,280.45,490.5,280.68,488.61Z" transform="translate(0 -0.01)"/><path class="cls-16" d="M277.26,489c-8-11.86,5.72-14.64,2.31-.52C279.12,490.41,278.36,490.63,277.26,489Z" transform="translate(0 -0.01)"/><path class="cls-16" d="M275.86,491.91c-14.26.58-9.49-12.53,0.76-2.24C278,491,277.76,491.84,275.86,491.91Z" transform="translate(0 -0.01)"/><path class="cls-16" d="M282.22,466.29c-13,6-13.56-8-.15-2.36C283.86,464.67,283.95,465.49,282.22,466.29Z" transform="translate(0 -0.01)"/><path class="cls-16" d="M284.36,469c-5.9,13-15.46,2.83-1.66-1.69C284.58,466.67,285.18,467.23,284.36,469Z" transform="translate(0 -0.01)"/><path class="cls-16" d="M287.57,468.65c8,11.83-5.67,14.66-2.31.53C285.71,467.3,286.51,467.07,287.57,468.65Z" transform="translate(0 -0.01)"/><path class="cls-16" d="M262.43,476.71c11.91,7.87.36,15.72-1.93,1.37C260.2,476.18,260.84,475.66,262.43,476.71Z" transform="translate(0 -0.01)"/><path class="cls-16" d="M263.56,473.46c14.16-1.82,10.54,11.66-.56,2.3C261.52,474.55,261.67,473.71,263.56,473.46Z" transform="translate(0 -0.01)"/><path class="cls-16" d="M261.62,470.93c5.85-13,15.45-2.9,1.67,1.68C261.46,473.22,260.85,472.66,261.62,470.93Z" transform="translate(0 -0.01)"/><path class="cls-6" d="M405.78,150.1a40.52,40.52,0,1,1,2.55,81q-1.27,0-2.55,0h0v-9.92h0a30.6,30.6,0,0,0,0-61.2h0v-9.92h0v0Zm0,81a40.52,40.52,0,1,1-2.55-81q1.27,0,2.55,0V160a30.6,30.6,0,0,0,0,61.2h0v9.88Z" transform="translate(0 -0.01)"/><path class="cls-7" d="M405.78,153.08a37.54,37.54,0,1,1,0,75.09h0v-5.22h0a32.33,32.33,0,0,0,0-64.65h0v-5.22h0Zm0,75.09a37.54,37.54,0,0,1,0-75.09v5.22a32.33,32.33,0,0,0,0,64.65v5.22Z" transform="translate(0 -0.01)"/><circle class="cls-13" cx="361.78" cy="173.6" r="25.01"/><circle class="cls-14" cx="361.78" cy="173.6" r="23.41"/><circle class="cls-15" cx="361.78" cy="173.6" r="16.4"/><path class="cls-14" d="M361.78,183a9.39,9.39,0,1,0-9.39-9.39A9.39,9.39,0,0,0,361.78,183Z" transform="translate(0 -0.01)"/><path class="cls-8" d="M357.21,314.75c23.32-4.38,64.82-130.25,12.1-136a22.41,22.41,0,0,0-7,.35c-8-16.55-21.73-26.77-35.15-24.25s-22.57,17-24,35.35a22.38,22.38,0,0,0-6.65,2.22C249.53,216.92,333.89,319.13,357.21,314.75Z" transform="translate(0 -0.01)"/><path class="cls-9" d="M357.21,314.75c14.3-2.69,35.42-51,37.48-89.38-3.48,24-19,60.88-31.33,60.14-13.93-.83-1.11-29.8,3.1-48.68s3.63-26.52-3.9-7-10.86,20.13-15.7-5.66-20.41-71.95-14-33.53,9.44,59.37-3.2,47.1-23.46-24-4.52,3.43,21,33.94,12.91,45.8c-7.88,11.52-24.25-.56-41.45-29C314.46,288.61,344.67,317.11,357.21,314.75Z" transform="translate(0 -0.01)"/><path class="cls-9" d="M308.76,442.79c-8.56-21,71-119.52,102.94-80.17a21.4,21.4,0,0,1,3.35,5.8c17.42-2.21,32.75,3.59,37.67,15.67s-2,26.94-16,37.54a21.41,21.41,0,0,1,1.66,6.49C443.09,478.55,317.36,463.78,308.76,442.79Z" transform="translate(0 -0.01)"/><path class="cls-10" d="M308.76,442.79c-5.25-12.87,22.64-54.88,52.35-76.4-17.49,15.23-39,46.79-32.06,56.32,7.88,10.76,24.5-14.55,37.48-27.7s19.41-16.65,7.66-.5-10.54,19.14,12.68,9.68,68.34-20.88,34.2-6.08-52.56,23.18-36.16,27,31.43,6.4-.41,5.41-38.14.7-43.46,13.35c-5.17,12.29,13,19.18,44.76,18.26C351.89,463.55,313.36,454.08,308.76,442.79Z" transform="translate(0 -0.01)"/><path class="cls-8" d="M314.95,329.24c-23.18,5.07-60.92,132.12-8.06,136.31a22.38,22.38,0,0,0,7-.55c8.43,16.33,22.52,26.1,35.86,23.18s22.06-17.68,22.89-36a22.38,22.38,0,0,0,6.58-2.42C425.49,423.83,338.12,324.17,314.95,329.24Z" transform="translate(0 -0.01)"/><path class="cls-9" d="M314.95,329.24c-14.21,3.11-33.89,52.07-34.81,90.45,2.76-24.11,17.19-61.41,29.53-61,14,0.41,2,29.76-1.65,48.75s-2.84,26.61,4.11,6.9,10.26-20.44,15.87,5.19,22.54,71.31,15,33.1-11.19-59.06,1.8-47.18,24.16,23.3,4.42-3.57-22-33.3-14.27-45.4c7.53-11.75,24.26-.16,42.29,27.76C358.46,354.1,327.42,326.55,314.95,329.24Z" transform="translate(0 -0.01)"/><path class="cls-9" d="M246.09,333.49c-0.11,22.67-111.3,83.3-125.76,34.74a21.4,21.4,0,0,1-.88-6.64c-16.94-4.61-28.89-15.83-28.82-28.88s12.12-24.14,29.11-28.59a21.4,21.4,0,0,1,.94-6.63C135.63,249.07,246.21,310.82,246.09,333.49Z" transform="translate(0 -0.01)"/><path class="cls-10" d="M241.21,316.89c-0.07,13.9-41.89,42.06-77.58,50.59,22-7.4,54-28.32,51.15-39.79-3.17-13-28.2,4.08-45.22,11.27s-24.3,8-7.27-2.46,17.05-13.66-8-13.79-71.13-6.83-33.93-7.45,57.43-1.33,43.73-11.1-26.6-17.93,2.45-4.84,35.51,13.93,45.27,4.27c9.48-9.38-4.7-22.7-34.38-34C209.3,281.2,241.27,304.7,241.21,316.89Z" transform="translate(0 -0.01)"/><path class="cls-11" d="M112.46,321.71c-7.41-9.53-2.94-25.4,10-35.44s29.4-10.44,36.81-.91c7.92,10.19,4.75,7.25,3.33,14.77-3.06,16.25-20.34,34.37-38.51,28.69C116.53,326.47,119.64,331,112.46,321.71Z" transform="translate(0 -0.01)"/><path class="cls-12" d="M161.5,313.49a61,61,0,0,1,11.38,10.3c5.58,7.19.56,13-6.76,18.68s-13.26,10.31-19.76,1.93c-1.77-2.28-4.5-7.44-6.72-13.23-10.7,3.13-19.7.13-24.09-5.52-7.41-9.53-2.94-25.4,10-35.44s29.4-10.44,36.81-.91C166.5,294.67,167.89,303.72,161.5,313.49Z" transform="translate(0 -0.01)"/><path class="cls-11" d="M164.29,315.55a57.75,57.75,0,0,0-14.7-8.76,31.62,31.62,0,0,1,16-3.18,26.37,26.37,0,0,1-4.06,9.84c1,0.69,1.89,1.39,2.78,2.1h0Zm-24.6,15.72-0.06-.15A29,29,0,0,1,129,332.29a31.48,31.48,0,0,1,7.07-15h0a55.56,55.56,0,0,0,3.66,14v0Z" transform="translate(0 -0.01)"/><path class="cls-6" d="M189.77,277.68a40.52,40.52,0,0,1,0,81h0v-9.92h0a30.6,30.6,0,0,0,0-61.2v-9.88Zm0,0h0v9.92h0a30.6,30.6,0,1,0,0,61.2h0v9.92A40.52,40.52,0,1,1,189.77,277.68Z" transform="translate(0 -0.01)"/><path class="cls-7" d="M189.77,280.66a37.54,37.54,0,1,1,0,75.09v-5.2a32.33,32.33,0,0,0,0-64.65v-5.24Zm0,75.09a37.54,37.54,0,1,1,0-75.09h0v5.22a32.33,32.33,0,0,0,0,64.65h0v5.22Z" transform="translate(0 -0.01)"/><path class="cls-8" d="M217,362.28c21.92,9.08,125.48-73.62,84.49-107.26a22.41,22.41,0,0,0-6-3.54c2.41-18.22-3.57-34.29-16.18-39.51s-28.21,1.91-39.38,16.5a22.39,22.39,0,0,0-6.78-1.78C180.36,221.49,195.09,353.21,217,362.28Z" transform="translate(0 -0.01)"/><path class="cls-9" d="M217,362.28c13.44,5.57,57.56-23.37,80.25-54.35-16,18.21-49.19,40.58-59.12,33.23-11.22-8.31,15.37-25.56,29.21-39.06s17.54-20.22.57-8-20.09,10.91-10-13.32,22.24-71.4,6.56-35.76S239.87,299.89,236,282.71s-6.52-32.93-5.66.4-1,39.91-14.23,45.41c-12.89,5.34-20-13.73-18.85-47C195.5,317,205.22,357.4,217,362.28Z" transform="translate(0 -0.01)"/><path class="cls-6" d="M242.64,273.44c-0.36,1.73-7.44,3.56-7.42,8.26,0,7.13-8,18.87-19.44,21.92-20.8,5.54-69.85-22-57.71-50C168.09,230.49,247.67,249.47,242.64,273.44Z" transform="translate(0 -0.01)"/><path class="cls-17" d="M167.3,258.49c8,3.14,64,22.55,54.41,34.17-8.28,10-43.94,2.58-57.17-20C157.68,260.93,160.94,256,167.3,258.49Z" transform="translate(0 -0.01)"/><path class="cls-17" d="M225.71,256.69c7.79,4.45,12.3,15.12,3.3,13.29-10.08-2-48.12-16.63-55.51-19.37s-0.3-5.79,10.57-5.23C193.92,245.89,209.58,247.48,225.71,256.69Z" transform="translate(0 -0.01)"/><path class="cls-16" d="M233.43,278.55c-1.83,4.22-7.89,9.25-11.28,5.17s-8.79-9.17-12.79-11.41-11.66-6.73-7.79-5.22a45.78,45.78,0,0,0,17.86,3.06C226.9,269.88,235.77,274.94,233.43,278.55Z" transform="translate(0 -0.01)"/><path class="cls-6" d="M199.8,281.23c-3.35.61-2.93-6.5-1.6-6.74S203.15,280.63,199.8,281.23Z" transform="translate(0 -0.01)"/><path class="cls-6" d="M209.11,286.15c-3,1.35-4.77-5.6-3.56-6.14S212.16,284.8,209.11,286.15Z" transform="translate(0 -0.01)"/><path class="cls-6" d="M192.83,279c-3.29-.81.82-7,2.13-6.63S196.12,279.81,192.83,279Z" transform="translate(0 -0.01)"/><path class="cls-6" d="M185.25,279.25c-2.5-2,4.37-5.85,5.37-5S187.76,281.29,185.25,279.25Z" transform="translate(0 -0.01)"/><path class="cls-6" d="M184.36,273c-1-2.85,7.1-3.21,7.51-2.08S185.36,275.83,184.36,273Z" transform="translate(0 -0.01)"/><path class="cls-6" d="M194.56,287.22c-3.35-.59.22-7,1.55-6.75S197.91,287.81,194.56,287.22Z" transform="translate(0 -0.01)"/><path class="cls-6" d="M202.19,291.07c-3.37.5-2.66-6.59-1.32-6.79S205.56,290.55,202.19,291.07Z" transform="translate(0 -0.01)"/><path class="cls-6" d="M175.87,278.93c-1.48-2.7,6.52-4,7.11-3S177.36,281.63,175.87,278.93Z" transform="translate(0 -0.01)"/><path class="cls-6" d="M185.26,287.77c-3-1.44,2.62-6.6,3.81-6S188.25,289.22,185.26,287.77Z" transform="translate(0 -0.01)"/><path class="cls-6" d="M172.41,271.11c-1-2.85,7.1-3.21,7.51-2.08S173.44,274,172.41,271.11Z" transform="translate(0 -0.01)"/><path class="cls-6" d="M194,253.93c2.68-.35,4.45,3.65,3.39,3.79S191.28,254.29,194,253.93Z" transform="translate(0 -0.01)"/><path class="cls-6" d="M184.53,251.19c2.2-.77,5.76,3.14,4.88,3.45S182.36,252,184.53,251.19Z" transform="translate(0 -0.01)"/><path class="cls-6" d="M200.59,255.17c3.06,0.45,1.38,3.91.17,3.74S197.53,254.73,200.59,255.17Z" transform="translate(0 -0.01)"/><path class="cls-6" d="M207,255c2.75,1.14-2,3.3-3.07,2.85S204.23,253.87,207,255Z" transform="translate(0 -0.01)"/><path class="cls-6" d="M209.66,258.55c1.74,1.6-5.11,1.82-5.79,1.19S207.93,256.94,209.66,258.55Z" transform="translate(0 -0.01)"/><path class="cls-6" d="M196.64,250.55c3,0.32,1.91,3.93.7,3.8S193.6,250.23,196.64,250.55Z" transform="translate(0 -0.01)"/><path class="cls-6" d="M189,248.4c2.73-.29,4.24,3.7,3.16,3.82S186.24,248.69,189,248.4Z" transform="translate(0 -0.01)"/><path class="cls-6" d="M215.09,255.17c2.07,1.52-4.36,2.29-5.18,1.69S213,253.66,215.09,255.17Z" transform="translate(0 -0.01)"/><path class="cls-6" d="M204.42,250.22c3,0.81-.26,3.72-1.45,3.4S201.43,249.41,204.42,250.22Z" transform="translate(0 -0.01)"/><path class="cls-6" d="M220.36,259.55c1.74,1.6-5.11,1.82-5.79,1.19S218.66,258,220.36,259.55Z" transform="translate(0 -0.01)"/><path class="cls-6" d="M337.64,318.28a40.52,40.52,0,0,1,0,81v-9.92a30.6,30.6,0,1,0,0-61.2v-9.88Zm0,0h0v9.92h0a30.6,30.6,0,0,0,0,61.2h0v9.92h0A40.52,40.52,0,0,1,337.64,318.28Z" transform="translate(0 -0.01)"/><path class="cls-7" d="M337.64,321.26a37.54,37.54,0,1,1,0,75.09h0v-5.22h0a32.33,32.33,0,0,0,0-64.65h0v-5.22h0Zm0,75.09a37.54,37.54,0,0,1,0-75.09v5.22a32.33,32.33,0,0,0,0,64.65v5.22Z" transform="translate(0 -0.01)"/><path class="cls-9" d="M354.56,338.78c-10.2,20.23-136.79,24.77-128-25.13a21.41,21.41,0,0,1,2.19-6.33c-13.1-11.7-18.77-27.07-12.88-38.72s21.63-16.18,38.82-12.56a21.43,21.43,0,0,1,3.81-5.51C293.49,213.9,364.8,318.55,354.56,338.78Z" transform="translate(0 -0.01)"/><path class="cls-10" d="M354.56,338.78c-6.28,12.4-56.28,18.9-92,10.58,23,3.21,60.93-1.22,63.54-12.73,3-13-27-9-45.49-10.13s-25.3-3.74-5.4-5.45,21.36-4.6-1-15.92-60.58-37.9-27-21.83,52,24.48,44.08,9.61-15.78-27.92,4.36-3.23,25.54,28.33,38.59,24c12.67-4.16,5.94-22.41-15.57-45.76C342,292.55,360.07,327.9,354.56,338.78Z" transform="translate(0 -0.01)"/><path class="cls-8" d="M417.44,357.19c1.4,23.68,121,80.77,133.38,29.21a22.39,22.39,0,0,0,.54-7c17.45-5.78,29.3-18.17,28.49-31.8s-14-24.55-32-28.23a22.39,22.39,0,0,0-1.36-6.88C528.1,262.74,416,333.55,417.44,357.19Z" transform="translate(0 -0.01)"/><path class="cls-9" d="M407.06,353.72c0.86,14.52,46.15,41.59,83.92,48.49-23.39-6.49-58-26.55-55.7-38.69,2.58-13.72,29.7,2.67,47.89,9.23s25.84,7,7.45-3-18.59-13.32,7.6-14.86,74-11.15,35-9.7S473.14,347,486.9,336s26.78-20.23-2.83-4.92-36.33,16.56-47.06,7c-10.43-9.27,3.63-24,34-37.45C438.36,314.62,406.31,341,407.06,353.72Z" transform="translate(0 -0.01)"/><circle class="cls-13" cx="503.15" cy="277.21" r="25.01"/><circle class="cls-14" cx="503.15" cy="277.21" r="23.41"/><circle class="cls-15" cx="503.15" cy="277.21" r="16.4"/><path class="cls-14" d="M503.16,286.6a9.39,9.39,0,1,0-9.39-9.39A9.39,9.39,0,0,0,503.16,286.6Z" transform="translate(0 -0.01)"/><path class="cls-6" d="M522.7,312.55c-0.36,1.73-7.44,3.56-7.42,8.26,0,7.13-8,18.87-19.44,21.92-20.8,5.54-69.85-22-57.71-50C448.15,269.55,527.72,288.55,522.7,312.55Z" transform="translate(0 -0.01)"/><path class="cls-17" d="M447.36,297.55c8,3.14,64,22.55,54.41,34.17-8.29,10-43.94,2.58-57.17-20C437.73,300,441,295.1,447.36,297.55Z" transform="translate(0 -0.01)"/><path class="cls-17" d="M505.76,295.79c7.79,4.45,12.3,15.12,3.3,13.29-10.08-2-48.12-16.63-55.51-19.37s-0.3-5.79,10.57-5.23C474,285,489.64,286.55,505.76,295.79Z" transform="translate(0 -0.01)"/><path class="cls-16" d="M513.49,317.63c-1.83,4.22-7.89,9.25-11.28,5.17s-8.8-9.09-12.78-11.38-11.66-6.73-7.79-5.22a45.77,45.77,0,0,0,17.86,3.06C507,309,515.82,314,513.49,317.63Z" transform="translate(0 -0.01)"/><path class="cls-6" d="M479.85,320.34c-3.35.61-2.93-6.5-1.61-6.74S483.2,319.73,479.85,320.34Z" transform="translate(0 -0.01)"/><path class="cls-6" d="M489.16,325.26c-3,1.35-4.77-5.6-3.56-6.14S492.22,323.91,489.16,325.26Z" transform="translate(0 -0.01)"/><path class="cls-6" d="M472.88,318.11c-3.29-.81.82-7,2.13-6.63S476.17,318.92,472.88,318.11Z" transform="translate(0 -0.01)"/><path class="cls-6" d="M465.31,318.36c-2.5-2,4.37-5.85,5.37-5S467.81,320.39,465.31,318.36Z" transform="translate(0 -0.01)"/><path class="cls-6" d="M464.36,312.09c-1-2.85,7.1-3.21,7.51-2.08S465.36,314.94,464.36,312.09Z" transform="translate(0 -0.01)"/><path class="cls-6" d="M474.61,326.32c-3.35-.59.22-7,1.55-6.75S478,326.91,474.61,326.32Z" transform="translate(0 -0.01)"/><path class="cls-6" d="M482.24,330.17c-3.37.5-2.66-6.59-1.32-6.79S485.61,329.67,482.24,330.17Z" transform="translate(0 -0.01)"/><path class="cls-6" d="M455.93,318c-1.48-2.7,6.52-4,7.11-3S457.36,320.74,455.93,318Z" transform="translate(0 -0.01)"/><path class="cls-6" d="M465.36,326.88c-3-1.44,2.62-6.6,3.81-6S468.31,328.32,465.36,326.88Z" transform="translate(0 -0.01)"/><path class="cls-6" d="M452.46,310.22c-1-2.85,7.1-3.21,7.51-2.08S453.5,313.07,452.46,310.22Z" transform="translate(0 -0.01)"/><path class="cls-6" d="M474,293c2.68-.35,4.45,3.65,3.39,3.79S471.36,293.39,474,293Z" transform="translate(0 -0.01)"/><path class="cls-6" d="M464.58,290.29c2.2-.77,5.76,3.14,4.88,3.45S462.36,291.06,464.58,290.29Z" transform="translate(0 -0.01)"/><path class="cls-6" d="M480.64,294.28c3.06,0.45,1.38,3.91.17,3.74S477.58,293.83,480.64,294.28Z" transform="translate(0 -0.01)"/><path class="cls-6" d="M487,294.12c2.75,1.14-2,3.3-3.07,2.85S484.28,293,487,294.12Z" transform="translate(0 -0.01)"/><path class="cls-6" d="M489.71,297.65c1.74,1.6-5.11,1.82-5.79,1.19S488,296,489.71,297.65Z" transform="translate(0 -0.01)"/><path class="cls-6" d="M476.69,289.66c3,0.32,1.91,3.93.7,3.8S473.65,289.34,476.69,289.66Z" transform="translate(0 -0.01)"/><path class="cls-6" d="M469,287.55c2.73-.29,4.24,3.7,3.16,3.82S466.29,287.8,469,287.55Z" transform="translate(0 -0.01)"/><path class="cls-6" d="M495.14,294.28c2.07,1.51-4.36,2.29-5.18,1.69S493.07,292.76,495.14,294.28Z" transform="translate(0 -0.01)"/><path class="cls-6" d="M484.48,289.32c3,0.81-.26,3.72-1.45,3.4S481.48,288.55,484.48,289.32Z" transform="translate(0 -0.01)"/><path class="cls-6" d="M500.45,298.68c1.74,1.6-5.11,1.82-5.79,1.19S498.71,297.07,500.45,298.68Z" transform="translate(0 -0.01)"/><path class="cls-9" d="M385.27,368.55C365,358.4,359.92,231.86,409.87,240.41a21.38,21.38,0,0,1,6.34,2.16c11.65-13.14,27-18.88,38.66-13s16.27,21.57,12.72,38.77a21.42,21.42,0,0,1,5.53,3.79C509.9,306.91,405.54,378.66,385.27,368.55Z" transform="translate(0 -0.01)"/><path class="cls-10" d="M385.27,368.55c-12.43-6.22-19.14-56.19-11-92-3.11,23,1.47,60.92,13,63.49,13,2.9,8.84-27.09,9.94-45.54s3.63-25.32,5.43-5.42,4.69,21.34,15.91-1.08,37.65-60.74,21.71-27.11S416,313,430.83,305s27.86-15.9,3.25,4.34S405.86,335,410.19,348c4.21,12.65,22.43,5.85,45.7-15.76C431.41,355.72,396.18,374,385.27,368.55Z" transform="translate(0 -0.01)"/><path class="cls-6" d="M399.7,384.77c-2,.32-6.32-5.66-11.39-3.85-7.68,2.74-23-.37-30.13-10-12.91-17.5.47-74.24,34.73-73.48C421.22,298.1,427.24,380.37,399.7,384.77Z" transform="translate(0 -0.01)"/><path class="cls-17" d="M390.74,308c-0.71,8.76-3,69-18.76,64.33-13.58-4-17.42-40.44,2.56-61.54C384.9,299.89,391.31,301.08,390.74,308Z" transform="translate(0 -0.01)"/><path class="cls-17" d="M412.14,362.41c-2.21,9-12.22,17.36-13.24,8.18-1.14-10.28,1.91-51.71,2.41-59.73s6.15-2.5,9.16,8C413.2,328.33,416.7,343.7,412.14,362.41Z" transform="translate(0 -0.01)"/><path class="cls-16" d="M391.15,378c-5.16-.11-12.61-3.91-9.33-8.67s6.89-11.76,8-16.38,3.38-13.57,3-9.34a40.68,40.68,0,0,0,2.64,18C398.3,368.55,395.79,378.86,391.15,378Z" transform="translate(0 -0.01)"/><path class="cls-6" d="M377,347.34c-1.77-2.93,6-5.24,6.74-4.08S378.79,350.27,377,347.34Z" transform="translate(0 -0.01)"/><path class="cls-6" d="M374.81,358c-2.47-2.36,4.46-6.63,5.44-5.7S377.28,360.36,374.81,358Z" transform="translate(0 -0.01)"/><path class="cls-6" d="M377.1,339.92c-0.23-3.41,7.77-1.87,7.86-.52S377.36,343.33,377.1,339.92Z" transform="translate(0 -0.01)"/><path class="cls-6" d="M374.31,332.87c1.36-3.14,7.77,1.89,7.23,3.14S372.95,336,374.31,332.87Z" transform="translate(0 -0.01)"/><path class="cls-6" d="M380.76,329.55c2.73-2.06,5.83,5.47,4.74,6.29S378,331.66,380.76,329.55Z" transform="translate(0 -0.01)"/><path class="cls-6" d="M368.81,344.69c-0.48-3.39,7.61-2.46,7.8-1.11S369.3,348.07,368.81,344.69Z" transform="translate(0 -0.01)"/><path class="cls-6" d="M367.2,353.35c-1.66-3,6.23-5,6.89-3.83S368.86,356.34,367.2,353.35Z" transform="translate(0 -0.01)"/><path class="cls-6" d="M371.53,323.91c2.42-2.42,6.53,4.61,5.57,5.57S369.11,326.33,371.53,323.91Z" transform="translate(0 -0.01)"/><path class="cls-6" d="M365.12,336.13c0.56-3.37,8,0,7.77,1.29S364.55,339.55,365.12,336.13Z" transform="translate(0 -0.01)"/><path class="cls-6" d="M378.82,317.66c2.73-2.06,5.83,5.47,4.74,6.29S376.09,319.72,378.82,317.66Z" transform="translate(0 -0.01)"/><path class="cls-6" d="M404.53,331.43c1.27,2.39-2.46,5.59-3,4.64S403.26,329,404.53,331.43Z" transform="translate(0 -0.01)"/><path class="cls-6" d="M404.36,321.49c1.56,1.78-1.48,6.63-2.1,5.92S402.79,319.71,404.36,321.49Z" transform="translate(0 -0.01)"/><path class="cls-6" d="M405.36,338.15c0.54,3-3.76,2.8-4,1.58S404.87,335.1,405.36,338.15Z" transform="translate(0 -0.01)"/><path class="cls-6" d="M407.7,344.12c-0.31,3-4.23-.61-4.1-1.81S408,341.09,407.7,344.12Z" transform="translate(0 -0.01)"/><path class="cls-6" d="M404.79,348c-1.15,2.25-3.67-4.12-3.21-5S405.94,345.75,404.79,348Z" transform="translate(0 -0.01)"/><path class="cls-6" d="M409.08,332.67c0.66,3-3.61,3.3-3.87,2.11S408.41,329.68,409.08,332.67Z" transform="translate(0 -0.01)"/><path class="cls-6" d="M408.84,324.62c1.22,2.46-2.58,5.41-3.07,4.44S407.62,322.15,408.84,324.62Z" transform="translate(0 -0.01)"/><path class="cls-6" d="M410.24,351.82c-0.94,2.53-3.93-3.24-3.55-4.24S411.18,349.29,410.24,351.82Z" transform="translate(0 -0.01)"/><path class="cls-6" d="M412,339.88c0.13,3.13-4.1,1.17-4.15-.07S411.9,336.75,412,339.88Z" transform="translate(0 -0.01)"/><path class="cls-6" d="M407.26,358.55c-1.15,2.25-3.67-4.12-3.21-5S408.36,356.25,407.26,358.55Z" transform="translate(0 -0.01)"/><circle class="cls-8" cx="222.06" cy="237.72" r="32.77" transform="translate(-43.76 425.22) rotate(-82.15)"/><circle class="cls-16" cx="222.06" cy="237.72" r="30.41" transform="matrix(0.14, -0.99, 0.99, 0.14, -43.76, 425.22)"/><circle class="cls-10" cx="222.05" cy="237.71" r="23.81" transform="matrix(0.14, -0.99, 0.99, 0.14, -43.76, 425.2)"/><path class="cls-16" d="M227.5,249.34c1.73-14.17,13.9-7.34,2.09,1.11C228,251.55,227.27,251.23,227.5,249.34Z" transform="translate(0 -0.01)"/><path class="cls-16" d="M224.08,249.79c-8-11.86,5.72-14.64,2.31-.52C225.94,251.14,225.14,251.37,224.08,249.79Z" transform="translate(0 -0.01)"/><path class="cls-16" d="M222.68,252.65c-14.26.58-9.49-12.53,0.76-2.24C224.8,251.78,224.58,252.55,222.68,252.65Z" transform="translate(0 -0.01)"/><path class="cls-16" d="M229,227c-13,6-13.56-8-.15-2.36C230.67,225.41,230.77,226.23,229,227Z" transform="translate(0 -0.01)"/><path class="cls-16" d="M231.22,229.7c-5.9,13-15.46,2.83-1.66-1.69C231.36,227.41,232,228,231.22,229.7Z" transform="translate(0 -0.01)"/><path class="cls-16" d="M234.36,229.39c8,11.83-5.67,14.66-2.31.53C232.53,228,233.36,227.81,234.36,229.39Z" transform="translate(0 -0.01)"/><path class="cls-16" d="M209.25,237.45c11.91,7.87.36,15.72-1.93,1.37C207,236.91,207.66,236.4,209.25,237.45Z" transform="translate(0 -0.01)"/><path class="cls-16" d="M210.36,234.2c14.16-1.82,10.54,11.66-.56,2.3C208.36,235.25,208.49,234.44,210.36,234.2Z" transform="translate(0 -0.01)"/><path class="cls-16" d="M208.44,231.66c5.85-13,15.45-2.9,1.67,1.68C208.27,233.95,207.66,233.4,208.44,231.66Z" transform="translate(0 -0.01)"/><path class="cls-6" d="M303.2,221.72c-0.36,1.73-7.44,3.56-7.42,8.26,0,7.13-8,18.87-19.44,21.92-20.8,5.54-69.85-22-57.71-50C228.65,178.77,308.22,197.75,303.2,221.72Z" transform="translate(0 -0.01)"/><path class="cls-17" d="M227.85,206.76c8,3.14,64,22.55,54.41,34.17-8.28,10-43.94,2.58-57.17-20C218.23,209.2,221.49,204.28,227.85,206.76Z" transform="translate(0 -0.01)"/><path class="cls-17" d="M286.26,205c7.79,4.45,12.3,15.12,3.3,13.29-10.08-2.05-48.12-16.62-55.51-19.37s-0.31-5.79,10.57-5.23C254.48,194.17,270.14,195.76,286.26,205Z" transform="translate(0 -0.01)"/><path class="cls-16" d="M294,226.8C292.16,231,286.1,236,282.71,232s-8.8-9.1-12.78-11.38-11.66-6.73-7.79-5.22A45.76,45.76,0,0,0,280,218.43C287.45,218.15,296.36,223.21,294,226.8Z" transform="translate(0 -0.01)"/><path class="cls-6" d="M260.36,229.55c-3.35.61-2.93-6.5-1.61-6.74S263.7,228.9,260.36,229.55Z" transform="translate(0 -0.01)"/><path class="cls-6" d="M269.66,234.43c-3,1.35-4.77-5.6-3.56-6.14S272.71,233.08,269.66,234.43Z" transform="translate(0 -0.01)"/><path class="cls-6" d="M253.36,227.28c-3.29-.81.82-6.95,2.13-6.63S256.67,228.09,253.36,227.28Z" transform="translate(0 -0.01)"/><path class="cls-6" d="M245.8,227.55c-2.5-2,4.37-5.85,5.37-5S248.31,229.55,245.8,227.55Z" transform="translate(0 -0.01)"/><path class="cls-6" d="M244.87,221.26c-1-2.85,7.1-3.21,7.51-2.08S245.9,224.11,244.87,221.26Z" transform="translate(0 -0.01)"/><path class="cls-6" d="M255.11,235.5c-3.35-.59.22-7,1.55-6.75S258.47,236.08,255.11,235.5Z" transform="translate(0 -0.01)"/><path class="cls-6" d="M262.74,239.34c-3.37.5-2.66-6.59-1.32-6.79S266.11,238.84,262.74,239.34Z" transform="translate(0 -0.01)"/><path class="cls-6" d="M236.43,227.21c-1.48-2.7,6.52-4,7.11-3S237.9,229.91,236.43,227.21Z" transform="translate(0 -0.01)"/><path class="cls-6" d="M245.81,236c-3-1.45,2.62-6.6,3.81-6S248.8,237.49,245.81,236Z" transform="translate(0 -0.01)"/><path class="cls-6" d="M233,219.39c-1-2.85,7.1-3.21,7.51-2.08S234,222.24,233,219.39Z" transform="translate(0 -0.01)"/><path class="cls-6" d="M254.51,202.21c2.68-.35,4.45,3.65,3.39,3.79S251.83,202.55,254.51,202.21Z" transform="translate(0 -0.01)"/><path class="cls-6" d="M245.08,199.47c2.2-.77,5.76,3.14,4.88,3.45S242.88,200.23,245.08,199.47Z" transform="translate(0 -0.01)"/><path class="cls-6" d="M261.14,203.45c3.06,0.45,1.38,3.91.17,3.74S258.08,203,261.14,203.45Z" transform="translate(0 -0.01)"/><path class="cls-6" d="M267.53,203.29c2.75,1.14-2,3.3-3.07,2.85S264.78,202.15,267.53,203.29Z" transform="translate(0 -0.01)"/><path class="cls-6" d="M270.21,206.82c1.74,1.6-5.11,1.82-5.79,1.19S268.48,205.22,270.21,206.82Z" transform="translate(0 -0.01)"/><path class="cls-6" d="M257.19,198.83c3,0.32,1.91,3.93.7,3.8S254.15,198.55,257.19,198.83Z" transform="translate(0 -0.01)"/><path class="cls-6" d="M249.52,196.68c2.73-.29,4.24,3.7,3.16,3.82S246.79,197,249.52,196.68Z" transform="translate(0 -0.01)"/><path class="cls-6" d="M275.64,203.45c2.07,1.52-4.36,2.29-5.18,1.69S273.57,201.94,275.64,203.45Z" transform="translate(0 -0.01)"/><path class="cls-6" d="M265,198.5c3,0.81-.26,3.72-1.45,3.4S262,197.69,265,198.5Z" transform="translate(0 -0.01)"/><path class="cls-6" d="M280.94,207.85c1.74,1.6-5.11,1.82-5.79,1.19S279.21,206.25,280.94,207.85Z" transform="translate(0 -0.01)"/><circle class="cls-13" cx="429.77" cy="455.27" r="25.01"/><circle class="cls-14" cx="429.77" cy="455.27" r="23.41"/><circle class="cls-15" cx="429.77" cy="455.27" r="16.4"/><path class="cls-14" d="M429.77,464.67a9.39,9.39,0,1,0-9.39-9.39A9.39,9.39,0,0,0,429.77,464.67Z" transform="translate(0 -0.01)"/><circle class="cls-8" cx="499.36" cy="390.73" r="32.77" transform="matrix(0.14, -0.99, 0.99, 0.14, 44.09, 832.04)"/><circle class="cls-16" cx="499.37" cy="390.73" r="30.41" transform="translate(44.1 832.05) rotate(-82.15)"/><circle class="cls-10" cx="499.36" cy="390.72" r="23.81" transform="matrix(0.14, -0.99, 0.99, 0.14, 44.1, 832.03)"/><path class="cls-16" d="M504.81,402.36c1.73-14.17,13.9-7.34,2.09,1.11C505.36,404.6,504.58,404.25,504.81,402.36Z" transform="translate(0 -0.01)"/><path class="cls-16" d="M501.36,402.81c-8-11.86,5.72-14.64,2.31-.52C503.25,404.16,502.46,404.39,501.36,402.81Z" transform="translate(0 -0.01)"/><path class="cls-16" d="M500,405.67c-14.26.58-9.49-12.53,0.76-2.24C502.11,404.8,501.89,405.55,500,405.67Z" transform="translate(0 -0.01)"/><path class="cls-16" d="M506.36,380c-13,6-13.56-8-.15-2.36C508,378.43,508.09,379.25,506.36,380Z" transform="translate(0 -0.01)"/><path class="cls-16" d="M508.53,382.72c-5.9,13-15.46,2.83-1.66-1.69C508.71,380.42,509.36,381,508.53,382.72Z" transform="translate(0 -0.01)"/><path class="cls-16" d="M511.7,382.41c8,11.82-5.67,14.66-2.31.53C509.85,381.06,510.64,380.83,511.7,382.41Z" transform="translate(0 -0.01)"/><path class="cls-16" d="M486.56,390.47c11.91,7.87.37,15.72-1.93,1.37C484.36,389.93,485,389.42,486.56,390.47Z" transform="translate(0 -0.01)"/><path class="cls-16" d="M487.69,387.22c14.16-1.82,10.54,11.66-.56,2.3C485.65,388.27,485.8,387.46,487.69,387.22Z" transform="translate(0 -0.01)"/><path class="cls-16" d="M485.76,384.68c5.85-13,15.45-2.9,1.67,1.68C485.59,387,485,386.42,485.76,384.68Z" transform="translate(0 -0.01)"/><path class="cls-6" d="M468.49,363.55c1.72,1,1.15,8.41,6.18,10.31,7.63,2.89,17.32,15.21,16.5,27.11-1.5,21.69-48.44,56.27-74,33.5C396,415.61,444.65,349,468.49,363.55Z" transform="translate(0 -0.01)"/><path class="cls-17" d="M425.62,427.79c6.22-6.22,47-50.59,56-36.87,7.77,11.83-12.92,42.1-41.81,45.23C424.79,437.78,420.68,432.72,425.62,427.79Z" transform="translate(0 -0.01)"/><path class="cls-17" d="M444.53,372.5c7.54-5.46,20.55-5.31,15.38,2.34-5.79,8.57-35,38.16-40.52,44s-6.3-2.08-1.82-12C421.65,397.78,428.94,383.8,444.53,372.5Z" transform="translate(0 -0.01)"/><path class="cls-16" d="M470.64,374.19c3.86,3.43,7.08,11.15,1.5,12.65s-12.86,4.5-16.72,7.29-11.36,8.15-8.36,5.15a40.69,40.69,0,0,0,9.65-15.44C459.06,376.77,467.64,370.55,470.64,374.19Z" transform="translate(0 -0.01)"/><path class="cls-6" d="M461.53,406.73c-0.54,3.38-8,.09-7.78-1.25S462.08,403.35,461.53,406.73Z" transform="translate(0 -0.01)"/><path class="cls-6" d="M470.12,400c0.35,3.4-7.7,2.17-7.84.82S469.76,396.63,470.12,400Z" transform="translate(0 -0.01)"/><path class="cls-6" d="M456.66,412.33c-2,2.75-7.14-3.61-6.33-4.69S458.7,409.55,456.66,412.33Z" transform="translate(0 -0.01)"/><path class="cls-6" d="M454.23,419.55c-3.07,1.51-4.69-6.47-3.47-7.07S457.3,418,454.23,419.55Z" transform="translate(0 -0.01)"/><path class="cls-6" d="M447.19,417.82c-3.41-.2-0.9-7.94.46-7.86S450.6,418,447.19,417.82Z" transform="translate(0 -0.01)"/><path class="cls-6" d="M466.06,414.06c-1.82,2.89-7.39-3.06-6.66-4.2S467.89,411.17,466.06,414.06Z" transform="translate(0 -0.01)"/><path class="cls-6" d="M472.9,408.55c-0.67,3.35-8-.21-7.73-1.54S473.57,405.15,472.9,408.55Z" transform="translate(0 -0.01)"/><path class="cls-6" d="M450.54,428.13c-3.41.28-2-7.74-.64-7.85S454,427.86,450.54,428.13Z" transform="translate(0 -0.01)"/><path class="cls-6" d="M463.36,423c-2.61,2.21-6.12-5.14-5.08-6S466,420.77,463.36,423Z" transform="translate(0 -0.01)"/><path class="cls-6" d="M440.94,428.17c-3.41-.2-0.9-7.94.46-7.87S444.36,428.37,440.94,428.17Z" transform="translate(0 -0.01)"/><path class="cls-6" d="M430.26,401c0.58-2.65,5.49-2.67,5.26-1.62S429.68,403.67,430.26,401Z" transform="translate(0 -0.01)"/><path class="cls-6" d="M424,408.72c0-2.37,5.42-4.09,5.43-3.15S424,411.09,424,408.72Z" transform="translate(0 -0.01)"/><path class="cls-6" d="M433.95,395.35c1.57-2.67,4.68.31,4.06,1.37S432.36,398,433.95,395.35Z" transform="translate(0 -0.01)"/><path class="cls-6" d="M436.06,389.31c2.2-2.1,2.82,3.2,2,4S433.86,391.41,436.06,389.31Z" transform="translate(0 -0.01)"/><path class="cls-6" d="M440.79,388.24c2.33-1,.13,5.51-0.8,5.9S438.46,389.21,440.79,388.24Z" transform="translate(0 -0.01)"/><path class="cls-6" d="M427.6,397.14c1.43-2.71,4.89-.18,4.32.9S426.17,399.85,427.6,397.14Z" transform="translate(0 -0.01)"/><path class="cls-6" d="M422.57,403.43c0.66-2.67,5.47-2.45,5.21-1.39S421.9,406.1,422.57,403.43Z" transform="translate(0 -0.01)"/><path class="cls-6" d="M439.12,381.8c2.36-1.32.9,5,0,5.53S436.76,383.11,439.12,381.8Z" transform="translate(0 -0.01)"/><path class="cls-6" d="M430,389.74c1.93-2.47,3.89,1.76,3.12,2.74S428.09,392.2,430,389.74Z" transform="translate(0 -0.01)"/><path class="cls-6" d="M445.72,378.64c2.33-1,.13,5.51-0.8,5.9S443.36,379.61,445.72,378.64Z" transform="translate(0 -0.01)"/><path class="cls-6" d="M273.81,492.49c0.36,1.73,7.44,3.56,7.42,8.26,0,7.13,8,18.87,19.44,21.91,20.8,5.54,69.85-22,57.71-50C348.36,449.55,268.78,468.55,273.81,492.49Z" transform="translate(0 -0.01)"/><path class="cls-17" d="M349.15,477.55c-8,3.14-64,22.55-54.41,34.17,8.28,10,43.94,2.58,57.17-20C358.77,480,355.51,475,349.15,477.55Z" transform="translate(0 -0.01)"/><path class="cls-17" d="M290.74,475.74c-7.79,4.45-12.3,15.12-3.3,13.29,10.08-2,48.12-16.62,55.51-19.37s0.31-5.79-10.57-5.23C322.53,464.94,306.87,466.55,290.74,475.74Z" transform="translate(0 -0.01)"/><path class="cls-16" d="M283,497.55c1.83,4.22,7.89,9.25,11.28,5.17s8.8-9.09,12.78-11.38,11.66-6.73,7.79-5.22A45.75,45.75,0,0,1,297,489.18C289.55,488.92,280.68,494,283,497.55Z" transform="translate(0 -0.01)"/><path class="cls-6" d="M316.65,500.28c3.35,0.61,2.93-6.5,1.6-6.74S313.3,499.67,316.65,500.28Z" transform="translate(0 -0.01)"/><path class="cls-6" d="M307.36,505.2c3,1.35,4.77-5.61,3.56-6.14S304.29,503.85,307.36,505.2Z" transform="translate(0 -0.01)"/><path class="cls-6" d="M323.62,498c3.29-.81-0.82-7-2.13-6.63S320.36,498.86,323.62,498Z" transform="translate(0 -0.01)"/><path class="cls-6" d="M331.2,498.3c2.5-2-4.37-5.85-5.37-5S328.69,500.34,331.2,498.3Z" transform="translate(0 -0.01)"/><path class="cls-6" d="M332.14,492c1-2.85-7.1-3.21-7.51-2.08S331.1,494.88,332.14,492Z" transform="translate(0 -0.01)"/><path class="cls-6" d="M321.89,506.27c3.35-.59-0.22-7-1.55-6.75S318.54,506.85,321.89,506.27Z" transform="translate(0 -0.01)"/><path class="cls-6" d="M314.26,510.12c3.37,0.5,2.66-6.59,1.32-6.79S310.89,509.62,314.26,510.12Z" transform="translate(0 -0.01)"/><path class="cls-6" d="M340.58,498c1.48-2.69-6.52-4-7.11-3S339.1,500.68,340.58,498Z" transform="translate(0 -0.01)"/><path class="cls-6" d="M331.19,506.82c3-1.44-2.62-6.6-3.81-6S328.2,508.27,331.19,506.82Z" transform="translate(0 -0.01)"/><path class="cls-6" d="M344,490.16c1-2.85-7.1-3.21-7.51-2.08S343,493,344,490.16Z" transform="translate(0 -0.01)"/><path class="cls-6" d="M322.49,473c-2.68-.35-4.45,3.65-3.39,3.79S325.17,473.34,322.49,473Z" transform="translate(0 -0.01)"/><path class="cls-6" d="M331.92,470.24c-2.2-.77-5.76,3.15-4.88,3.45S334.12,471,331.92,470.24Z" transform="translate(0 -0.01)"/><path class="cls-6" d="M315.86,474.22c-3.06.45-1.38,3.91-.17,3.74S318.92,473.78,315.86,474.22Z" transform="translate(0 -0.01)"/><path class="cls-6" d="M309.47,474.06c-2.75,1.14,2,3.3,3.07,2.85S312.22,472.92,309.47,474.06Z" transform="translate(0 -0.01)"/><path class="cls-6" d="M306.79,477.55c-1.74,1.6,5.11,1.82,5.79,1.19S308.52,476,306.79,477.55Z" transform="translate(0 -0.01)"/><path class="cls-6" d="M319.81,469.6c-3,.32-1.91,3.93-0.7,3.8S322.85,469.28,319.81,469.6Z" transform="translate(0 -0.01)"/><path class="cls-6" d="M327.48,467.45c-2.73-.29-4.24,3.7-3.16,3.82S330.21,467.74,327.48,467.45Z" transform="translate(0 -0.01)"/><path class="cls-6" d="M301.36,474.22c-2.07,1.51,4.36,2.29,5.18,1.69S303.43,472.71,301.36,474.22Z" transform="translate(0 -0.01)"/><path class="cls-6" d="M312,469.27c-3,.81.26,3.72,1.45,3.4S315,468.46,312,469.27Z" transform="translate(0 -0.01)"/><path class="cls-6" d="M296.06,478.62c-1.74,1.6,5.11,1.82,5.79,1.19S297.79,477,296.06,478.62Z" transform="translate(0 -0.01)"/><circle class="cls-8" cx="416.15" cy="262.83" r="32.77" transform="matrix(0.14, -0.99, 0.99, 0.14, 98.95, 639.18)"/><circle class="cls-16" cx="416.15" cy="262.83" r="30.41" transform="matrix(0.14, -0.99, 0.99, 0.14, 98.95, 639.18)"/><circle class="cls-10" cx="416.14" cy="262.82" r="23.81" transform="matrix(0.14, -0.99, 0.99, 0.14, 98.96, 639.16)"/><path class="cls-16" d="M421.6,274.46c1.73-14.17,13.9-7.34,2.09,1.11C422.12,276.7,421.36,276.35,421.6,274.46Z" transform="translate(0 -0.01)"/><path class="cls-16" d="M418.19,274.9c-8-11.86,5.72-14.64,2.31-.52C420,276.26,419.25,276.48,418.19,274.9Z" transform="translate(0 -0.01)"/><path class="cls-16" d="M416.78,277.77c-14.26.58-9.49-12.53,0.76-2.24C418.91,276.89,418.68,277.69,416.78,277.77Z" transform="translate(0 -0.01)"/><path class="cls-16" d="M423.15,252.14c-13,6-13.56-8-.15-2.36C424.78,250.55,424.88,251.34,423.15,252.14Z" transform="translate(0 -0.01)"/><path class="cls-16" d="M425.36,254.81c-5.9,13-15.46,2.83-1.66-1.69C425.5,252.55,426.11,253.08,425.36,254.81Z" transform="translate(0 -0.01)"/><path class="cls-16" d="M428.5,254.55c8,11.83-5.67,14.66-2.31.53C426.64,253.15,427.43,252.93,428.5,254.55Z" transform="translate(0 -0.01)"/><path class="cls-16" d="M403.36,262.55c11.91,7.87.37,15.72-1.93,1.37C401.12,262,401.77,261.55,403.36,262.55Z" transform="translate(0 -0.01)"/><path class="cls-16" d="M404.48,259.32c14.16-1.82,10.54,11.66-.56,2.3C402.44,260.37,402.59,259.55,404.48,259.32Z" transform="translate(0 -0.01)"/><path class="cls-16" d="M402.55,256.78c5.85-13,15.45-2.9,1.67,1.68C402.36,259.07,401.77,258.55,402.55,256.78Z" transform="translate(0 -0.01)"/><path class="cls-6" d="M387.9,232.61c1.1,1.68,8.44.86,10.52,5.81,3.15,7.52,15.81,16.77,27.68,15.52,21.62-2.26,54.51-50.4,30.85-75.19C437.36,158.28,372.58,209.3,387.9,232.61Z" transform="translate(0 -0.01)"/><path class="cls-17" d="M450.61,187.48c-6,6.43-48.9,48.72-34.87,57.23,12.1,7.34,41.61-14.4,43.72-43.38C460.57,186.3,455.36,182.38,450.61,187.48Z" transform="translate(0 -0.01)"/><path class="cls-17" d="M396,208.35c-5.19,7.73-4.58,20.73,2.89,15.29,8.36-6.09,36.89-36.28,42.44-42.09s-2.3-6.22-12.06-1.39C420.48,184.55,406.77,192.36,396,208.35Z" transform="translate(0 -0.01)"/><path class="cls-16" d="M398.65,234.38c3.56,3.74,11.39,6.67,12.69,1s4-13,6.69-17,7.74-11.64,4.84-8.54a40.69,40.69,0,0,1-15.08,10.19C400.81,222.71,394.9,231.55,398.65,234.38Z" transform="translate(0 -0.01)"/><path class="cls-6" d="M430.84,224.13c3.36-.66-0.2-8-1.53-7.73S427.48,224.79,430.84,224.13Z" transform="translate(0 -0.01)"/><path class="cls-6" d="M424.45,232.94c3.41,0.23,1.89-7.77.54-7.86S421,232.7,424.45,232.94Z" transform="translate(0 -0.01)"/><path class="cls-6" d="M436.26,219.06c2.67-2.13-3.86-7-4.92-6.16S433.59,221.19,436.26,219.06Z" transform="translate(0 -0.01)"/><path class="cls-6" d="M443.36,216.37c1.4-3.12-6.64-4.46-7.19-3.22S441.95,219.49,443.36,216.37Z" transform="translate(0 -0.01)"/><path class="cls-6" d="M441.41,209.39c-0.32-3.41-8-.61-7.84.74S441.73,212.8,441.41,209.39Z" transform="translate(0 -0.01)"/><path class="cls-6" d="M438.36,228.39c2.83-1.93-3.32-7.27-4.44-6.51S435.5,230.32,438.36,228.39Z" transform="translate(0 -0.01)"/><path class="cls-6" d="M433,235.42c3.33-.79-0.49-8-1.81-7.67S429.69,236.21,433,235.42Z" transform="translate(0 -0.01)"/><path class="cls-6" d="M451.84,212.38C452,209,444,210.66,444,212S451.68,215.79,451.84,212.38Z" transform="translate(0 -0.01)"/><path class="cls-6" d="M447.14,225.35c2.11-2.69-5.36-5.93-6.19-4.87S445,228,447.14,225.35Z" transform="translate(0 -0.01)"/><path class="cls-6" d="M451.54,202.78c-0.32-3.41-8-.61-7.84.74S451.86,206.19,451.54,202.78Z" transform="translate(0 -0.01)"/><path class="cls-6" d="M424,193.07c-2.62.67-2.47,5.59-1.43,5.32S426.66,192.4,424,193.07Z" transform="translate(0 -0.01)"/><path class="cls-6" d="M431.49,186.55c-2.37,0-3.9,5.56-3,5.54S433.86,186.45,431.49,186.55Z" transform="translate(0 -0.01)"/><path class="cls-6" d="M418.48,197c-2.61,1.66.47,4.67,1.51,4S421.1,195.3,418.48,197Z" transform="translate(0 -0.01)"/><path class="cls-6" d="M412.53,199.29c-2,2.27,3.3,2.71,4.1,1.81S414.55,197,412.53,199.29Z" transform="translate(0 -0.01)"/><path class="cls-6" d="M411.63,204c-0.88,2.37,5.52-.07,5.87-1S412.51,201.69,411.63,204Z" transform="translate(0 -0.01)"/><path class="cls-6" d="M420.06,190.55c-2.66,1.53,0,4.89,1,4.28S422.71,189,420.06,190.55Z" transform="translate(0 -0.01)"/><path class="cls-6" d="M426.16,185.3c-2.64.76-2.26,5.56-1.21,5.26S428.81,184.55,426.16,185.3Z" transform="translate(0 -0.01)"/><path class="cls-6" d="M405.13,202.61c-1.23,2.4,5,.72,5.52-0.24S406.36,200.21,405.13,202.61Z" transform="translate(0 -0.01)"/><path class="cls-6" d="M412.74,193.23c-2.4,2,1.9,3.82,2.85,3S415.14,191.22,412.74,193.23Z" transform="translate(0 -0.01)"/><path class="cls-6" d="M402.21,209.31c-0.88,2.37,5.52-.07,5.87-1S403.09,206.95,402.21,209.31Z" transform="translate(0 -0.01)"/><path class="cls-11" d="M224.29,419.55c1.36-12,15.65-20.22,31.9-18.37s28.33,13.07,27,25.07c-1.46,12.82-1.67,8.51-7.94,12.9-13.55,9.48-38.57,10.38-47.59-6.38C223.88,425.76,223,431.14,224.29,419.55Z" transform="translate(0 -0.01)"/><path class="cls-12" d="M265.12,447.9a61,61,0,0,1,.94,15.32c-1,9-8.67,9.68-17.89,8.63s-16.69-1.88-15.49-12.43c0.33-2.87,2-8.47,4.44-14.16-9.84-5.24-14.18-13.67-13.37-20.78,1.36-12,15.65-20.22,31.9-18.37s28.33,13.07,27,25.07C281.85,437.93,276.52,445.38,265.12,447.9Z" transform="translate(0 -0.01)"/><path class="cls-11" d="M265.64,451.35c-0.73-5.71-2.17-12-4.4-16.54a31.63,31.63,0,0,1,13.65,8.89,26.37,26.37,0,0,1-9.78,4.21c0.2,1.16.38,2.31,0.52,3.45h0Zm-28.58-5.94,0.06-.15a29,29,0,0,1-8.45-6.62,31.49,31.49,0,0,1,15.51-5.76h0A55.55,55.55,0,0,0,237.06,445.41Z" transform="translate(0 -0.01)"/><path class="cls-6" d="M231.36,374.87c1.72,1,1.15,8.4,6.18,10.31,7.63,2.89,17.32,15.21,16.5,27.11-1.5,21.69-48.44,56.27-74,33.5C158.87,427,207.56,360.38,231.36,374.87Z" transform="translate(0 -0.01)"/><path class="cls-17" d="M188.53,439.14c6.22-6.22,47-50.6,56-36.87,7.77,11.83-12.91,42.1-41.8,45.23C187.7,449.13,183.6,444.08,188.53,439.14Z" transform="translate(0 -0.01)"/><path class="cls-17" d="M207.45,383.85c7.54-5.46,20.55-5.31,15.38,2.34-5.79,8.57-34.95,38.16-40.52,44s-6.3-2.08-1.82-12C184.56,409.13,191.85,395.15,207.45,383.85Z" transform="translate(0 -0.01)"/><path class="cls-16" d="M233.55,385.55c3.86,3.43,7.07,11.15,1.5,12.65s-12.86,4.5-16.72,7.29S207,413.64,210,410.64a40.69,40.69,0,0,0,9.65-15.44C222,388.12,230.55,381.9,233.55,385.55Z" transform="translate(0 -0.01)"/><path class="cls-6" d="M224.45,418.08c-0.54,3.38-8,.09-7.78-1.25S225,414.7,224.45,418.08Z" transform="translate(0 -0.01)"/><path class="cls-6" d="M233,411.39c0.35,3.4-7.69,2.17-7.84.82S232.67,408,233,411.39Z" transform="translate(0 -0.01)"/><path class="cls-6" d="M219.58,423.68c-2,2.75-7.14-3.61-6.33-4.69S221.61,420.93,219.58,423.68Z" transform="translate(0 -0.01)"/><path class="cls-6" d="M217.14,430.86c-3.07,1.51-4.69-6.47-3.48-7.07S220.21,429.35,217.14,430.86Z" transform="translate(0 -0.01)"/><path class="cls-6" d="M210.1,429.17c-3.41-.2-0.9-7.94.46-7.86S213.52,429.37,210.1,429.17Z" transform="translate(0 -0.01)"/><path class="cls-6" d="M229,425.41c-1.82,2.89-7.39-3.06-6.66-4.2S230.8,422.55,229,425.41Z" transform="translate(0 -0.01)"/><path class="cls-6" d="M235.81,419.86c-0.67,3.35-8-.21-7.73-1.54S236.48,416.55,235.81,419.86Z" transform="translate(0 -0.01)"/><path class="cls-6" d="M213.45,439.49c-3.41.28-2-7.74-.64-7.85S216.86,439.21,213.45,439.49Z" transform="translate(0 -0.01)"/><path class="cls-6" d="M226.25,434.33c-2.61,2.21-6.12-5.14-5.08-6S228.86,432.12,226.25,434.33Z" transform="translate(0 -0.01)"/><path class="cls-6" d="M203.85,439.55c-3.42-.2-0.9-7.94.46-7.87S207.27,439.73,203.85,439.55Z" transform="translate(0 -0.01)"/><path class="cls-6" d="M193.18,412.38c0.58-2.65,5.49-2.67,5.26-1.62S192.59,415,193.18,412.38Z" transform="translate(0 -0.01)"/><path class="cls-6" d="M186.87,420.07c0-2.37,5.42-4.09,5.43-3.15S186.91,422.44,186.87,420.07Z" transform="translate(0 -0.01)"/><path class="cls-6" d="M196.86,406.7c1.57-2.67,4.68.31,4.06,1.37S195.3,409.37,196.86,406.7Z" transform="translate(0 -0.01)"/><path class="cls-6" d="M199,400.66c2.2-2.1,2.83,3.2,2,4S196.78,402.76,199,400.66Z" transform="translate(0 -0.01)"/><path class="cls-6" d="M203.71,399.55c2.33-1,.13,5.52-0.8,5.9S201.36,400.55,203.71,399.55Z" transform="translate(0 -0.01)"/><path class="cls-6" d="M190.51,408.5c1.43-2.71,4.88-.18,4.32.9S189.08,411.21,190.51,408.5Z" transform="translate(0 -0.01)"/><path class="cls-6" d="M185.48,414.78c0.66-2.67,5.47-2.45,5.21-1.39S184.82,417.45,185.48,414.78Z" transform="translate(0 -0.01)"/><path class="cls-6" d="M202,393.15c2.36-1.32.9,5,0,5.53S199.68,394.47,202,393.15Z" transform="translate(0 -0.01)"/><path class="cls-6" d="M192.93,401.09c1.93-2.47,3.89,1.76,3.12,2.74S191,403.55,192.93,401.09Z" transform="translate(0 -0.01)"/><path class="cls-6" d="M208.63,390c2.33-1,.13,5.51-0.8,5.9S206.3,391,208.63,390Z" transform="translate(0 -0.01)"/><circle class="cls-13" cx="354.23" cy="309.58" r="25.01"/><circle class="cls-14" cx="354.23" cy="309.58" r="23.41"/><circle class="cls-15" cx="354.22" cy="309.58" r="16.4"/><path class="cls-14" d="M354.23,319a9.39,9.39,0,1,0-9.39-9.39A9.39,9.39,0,0,0,354.23,319Z" transform="translate(0 -0.01)"/><circle class="cls-13" cx="212.85" cy="340.88" r="25.01"/><circle class="cls-14" cx="212.85" cy="340.88" r="23.41"/><circle class="cls-15" cx="212.85" cy="340.88" r="16.4"/><path class="cls-14" d="M212.86,350.27a9.39,9.39,0,1,0-9.39-9.39A9.39,9.39,0,0,0,212.86,350.27Z" transform="translate(0 -0.01)"/><circle class="cls-13" cx="216.67" cy="458.81" r="25.01"/><circle class="cls-14" cx="216.67" cy="458.81" r="23.41"/><circle class="cls-15" cx="216.67" cy="458.81" r="16.4"/><path class="cls-14" d="M216.67,468.21a9.39,9.39,0,1,0-9.39-9.39A9.39,9.39,0,0,0,216.67,468.21Z" transform="translate(0 -0.01)"/><path class="cls-11" d="M319.27,239c-9-8-7.5-24.44,3.38-36.66s27-15.61,36-7.58c9.64,8.58,6,6.27,6,13.92-0.06,16.54-13.75,37.5-32.65,35.21C324.13,243,328,246.81,319.27,239Z" transform="translate(0 -0.01)"/><path class="cls-12" d="M366,222a60.89,60.89,0,0,1,13.06,8.06c6.8,6,2.92,12.67-3.25,19.59s-11.16,12.56-19.09,5.49c-2.16-1.92-5.78-6.5-9-11.79-10,5-19.34,3.71-24.69-1-9-8-7.5-24.44,3.38-36.66s27-15.61,36-7.58C367.5,202.6,370.51,211.26,366,222Z" transform="translate(0 -0.01)"/><path class="cls-11" d="M369.12,223.55c-5.09-2.69-11-5.12-16-5.95a31.62,31.62,0,0,1,15.13-6A26.37,26.37,0,0,1,366,222c1.06,0.5,2.11,1,3.12,1.56h0v0Zm-21.33,20-0.09-.14a29,29,0,0,1-10.28,3.09,31.48,31.48,0,0,1,4.23-16h0A55.55,55.55,0,0,0,347.79,243.55Z" transform="translate(0 -0.01)"/><path class="cls-11" d="M343.68,395.41c6-10.46,22.42-12.3,36.58-4.12S401,414.58,395,425c-6.45,11.18-4.92,7.13-12.43,8.66-16.21,3.29-39.5-5.87-41.1-24.84C340.8,401,337.82,405.55,343.68,395.41Z" transform="translate(0 -0.01)"/><path class="cls-12" d="M369.79,437.73a60.93,60.93,0,0,1-5.24,14.42c-4.55,7.88-11.81,5.42-19.85.78s-14.56-8.38-9.25-17.58c1.45-2.5,5.19-7,9.72-11.22-6.94-8.73-7.55-18.19-4-24.39,6-10.46,22.42-12.3,36.59-4.12s20.76,23.29,14.73,33.74C389.11,435.26,381.25,440,369.79,437.73Z" transform="translate(0 -0.01)"/><path class="cls-11" d="M368.9,441.11c1.6-5.53,2.78-11.83,2.57-16.92a31.62,31.62,0,0,1,9,13.6,26.37,26.37,0,0,1-10.65,0c-0.28,1.14-.58,2.27-0.9,3.37h0Zm-23.84-16.86,0.12-.11a29,29,0,0,1-5.11-9.44,31.48,31.48,0,0,1,16.53.9h0A55.63,55.63,0,0,0,345.06,424.25Z" transform="translate(0 -0.01)"/><circle class="cls-8" cx="281.78" cy="345.96" r="32.77" transform="matrix(0.14, -0.99, 0.99, 0.14, -99.42, 577.85)"/><circle class="cls-16" cx="281.78" cy="345.97" r="30.41" transform="matrix(0.14, -0.99, 0.99, 0.14, -99.43, 577.86)"/><circle class="cls-10" cx="281.78" cy="345.96" r="23.81" transform="matrix(0.14, -0.99, 0.99, 0.14, -99.42, 577.85)"/><path class="cls-16" d="M287.23,357.6c1.73-14.17,13.9-7.34,2.09,1.11C287.75,359.84,287,359.49,287.23,357.6Z" transform="translate(0 -0.01)"/><path class="cls-16" d="M283.82,358c-8-11.86,5.72-14.64,2.31-.52C285.67,359.4,284.88,359.63,283.82,358Z" transform="translate(0 -0.01)"/><path class="cls-16" d="M282.41,360.91c-14.26.58-9.49-12.53,0.76-2.24C284.54,360,284.36,360.83,282.41,360.91Z" transform="translate(0 -0.01)"/><path class="cls-16" d="M288.78,335.28c-13,6-13.56-8-.15-2.36C290.41,333.67,290.51,334.49,288.78,335.28Z" transform="translate(0 -0.01)"/><path class="cls-16" d="M290.95,337.95c-5.9,13-15.46,2.83-1.66-1.69C291.13,335.66,291.74,336.22,290.95,337.95Z" transform="translate(0 -0.01)"/><path class="cls-16" d="M294.13,337.65c8,11.83-5.67,14.66-2.31.53C292.27,336.3,293.06,336.07,294.13,337.65Z" transform="translate(0 -0.01)"/><path class="cls-16" d="M269,345.71c11.91,7.87.37,15.72-1.93,1.37C266.75,345.17,267.36,344.66,269,345.71Z" transform="translate(0 -0.01)"/><path class="cls-16" d="M270.11,342.46c14.16-1.82,10.54,11.66-.56,2.3C268.07,343.55,268.22,342.7,270.11,342.46Z" transform="translate(0 -0.01)"/><path class="cls-16" d="M268.18,339.92c5.85-13,15.45-2.9,1.67,1.68C268,342.21,267.36,341.66,268.18,339.92Z" transform="translate(0 -0.01)"/></svg>